G04 EasyPC Gerber Version 21.0.3 Build 4286 *
G04 #@! TF.Part,Single*
G04 #@! TF.FileFunction,Soldermask,Top *
G04 #@! TF.FilePolarity,Negative *
%FSLAX45Y45*%
%MOIN*%
G04 #@! TA.AperFunction,SMDPad*
%ADD125R,0.02181X0.06807*%
%ADD11R,0.03559X0.04937*%
%ADD79R,0.03559X0.06906*%
%ADD126R,0.03992X0.07201*%
%ADD99R,0.04346X0.04740*%
G04 #@! TA.AperFunction,ComponentPad*
%ADD12C,0.07693*%
G04 #@! TA.AperFunction,WasherPad*
%ADD10C,0.25016*%
G04 #@! TA.AperFunction,SMDPad*
%ADD124R,0.06807X0.02181*%
%ADD84R,0.09268X0.02575*%
%ADD16R,0.04937X0.03559*%
%ADD82R,0.04740X0.04346*%
%ADD83R,0.06472X0.04583*%
X0Y0D02*
D02*
D10*
X51839Y40218D03*
Y240218D03*
X221130Y40218D03*
Y240218D03*
X248689Y40218D03*
Y240218D03*
X417981Y40218D03*
Y240218D03*
D02*
D11*
X87852Y207528D03*
X93403D03*
X126791Y131648D03*
X132342D03*
X152351Y95523D03*
X157902D03*
X284702Y207528D03*
X290254D03*
X323641Y131648D03*
X329192D03*
X349201Y95523D03*
X354752D03*
D02*
D12*
X48793Y66045D03*
Y76045D03*
Y86045D03*
Y96045D03*
X49167Y121045D03*
Y131045D03*
Y141045D03*
Y151045D03*
Y176045D03*
Y186045D03*
Y196045D03*
Y206045D03*
X78846Y38045D03*
X79548Y230359D03*
Y240359D03*
X88846Y38045D03*
X89548Y230359D03*
Y240359D03*
X98846Y38045D03*
X99548Y230359D03*
Y240359D03*
X108846Y38045D03*
X109548Y230359D03*
Y240359D03*
X119548Y230359D03*
Y240359D03*
X129548Y230359D03*
Y240359D03*
X139548Y230359D03*
Y240359D03*
X144429Y41861D03*
Y51861D03*
X149548Y230359D03*
Y240359D03*
X154429Y41861D03*
Y51861D03*
X159548Y230359D03*
Y240359D03*
X164429Y41861D03*
Y51861D03*
X169548Y230359D03*
Y240359D03*
X174429Y41861D03*
Y51861D03*
X184429Y41861D03*
Y51861D03*
X225514Y176304D03*
Y186304D03*
Y196304D03*
Y206304D03*
X226138Y123387D03*
Y133387D03*
Y143387D03*
Y153387D03*
X226387Y69098D03*
Y79098D03*
Y89098D03*
Y99098D03*
X245643Y66045D03*
Y76045D03*
Y86045D03*
Y96045D03*
X246017Y121045D03*
Y131045D03*
Y141045D03*
Y151045D03*
Y176045D03*
Y186045D03*
Y196045D03*
Y206045D03*
X275697Y38045D03*
X276398Y230359D03*
Y240359D03*
X285697Y38045D03*
X286398Y230359D03*
Y240359D03*
X295697Y38045D03*
X296398Y230359D03*
Y240359D03*
X305697Y38045D03*
X306398Y230359D03*
Y240359D03*
X316398Y230359D03*
Y240359D03*
X326398Y230359D03*
Y240359D03*
X336398Y230359D03*
Y240359D03*
X341279Y41861D03*
Y51861D03*
X346398Y230359D03*
Y240359D03*
X351279Y41861D03*
Y51861D03*
X356398Y230359D03*
Y240359D03*
X361279Y41861D03*
Y51861D03*
X366398Y230359D03*
Y240359D03*
X371279Y41861D03*
Y51861D03*
X381279Y41861D03*
Y51861D03*
X422364Y176304D03*
Y186304D03*
Y196304D03*
Y206304D03*
X422988Y123387D03*
Y133387D03*
Y143387D03*
Y153387D03*
X423238Y69098D03*
Y79098D03*
Y89098D03*
Y99098D03*
D02*
D16*
X112193Y155304D03*
Y160856D03*
X169852Y62326D03*
Y67877D03*
X309043Y155304D03*
Y160856D03*
X366702Y62326D03*
Y67877D03*
D02*
D79*
X147250Y66853D03*
Y88113D03*
X152250Y66853D03*
Y88113D03*
X157250Y66853D03*
Y88113D03*
X162250Y66853D03*
Y88113D03*
X344101Y66853D03*
Y88113D03*
X349101Y66853D03*
Y88113D03*
X354101Y66853D03*
Y88113D03*
X359101Y66853D03*
Y88113D03*
D02*
D82*
X179961Y73834D03*
Y80133D03*
X187948Y73709D03*
Y80009D03*
X196310Y73460D03*
Y79759D03*
X204796Y73585D03*
Y79884D03*
X376811Y73834D03*
Y80133D03*
X384798Y73709D03*
Y80009D03*
X393160Y73460D03*
Y79759D03*
X401647Y73585D03*
Y79884D03*
D02*
D83*
X156622Y125923D03*
Y132380D03*
X353473Y125923D03*
Y132380D03*
D02*
D84*
X108074Y168483D03*
Y173207D03*
Y177931D03*
X304924Y168483D03*
Y173207D03*
Y177931D03*
D02*
D99*
X70354Y206779D03*
X76653D03*
X267204D03*
X273504D03*
D02*
D124*
X120803Y147960D03*
Y149928D03*
Y151897D03*
Y153865D03*
Y155834D03*
Y157802D03*
Y159771D03*
Y161739D03*
Y163708D03*
Y165676D03*
Y167645D03*
Y169613D03*
Y171582D03*
Y173550D03*
Y175519D03*
Y177487D03*
X165984Y147960D03*
Y149928D03*
Y151897D03*
Y153865D03*
Y155834D03*
Y157802D03*
Y159771D03*
Y161739D03*
Y163708D03*
Y165676D03*
Y167645D03*
Y169613D03*
Y171582D03*
Y173550D03*
Y175519D03*
Y177487D03*
X317653Y147960D03*
Y149928D03*
Y151897D03*
Y153865D03*
Y155834D03*
Y157802D03*
Y159771D03*
Y161739D03*
Y163708D03*
Y165676D03*
Y167645D03*
Y169613D03*
Y171582D03*
Y173550D03*
Y175519D03*
Y177487D03*
X362834Y147960D03*
Y149928D03*
Y151897D03*
Y153865D03*
Y155834D03*
Y157802D03*
Y159771D03*
Y161739D03*
Y163708D03*
Y165676D03*
Y167645D03*
Y169613D03*
Y171582D03*
Y173550D03*
Y175519D03*
Y177487D03*
D02*
D125*
X128630Y140133D03*
Y185314D03*
X130598Y140133D03*
Y185314D03*
X132567Y140133D03*
Y185314D03*
X134535Y140133D03*
Y185314D03*
X136504Y140133D03*
Y185314D03*
X138472Y140133D03*
Y185314D03*
X140441Y140133D03*
Y185314D03*
X142409Y140133D03*
Y185314D03*
X144378Y140133D03*
Y185314D03*
X146346Y140133D03*
Y185314D03*
X148315Y140133D03*
Y185314D03*
X150283Y140133D03*
Y185314D03*
X152252Y140133D03*
Y185314D03*
X154220Y140133D03*
Y185314D03*
X156189Y140133D03*
Y185314D03*
X158157Y140133D03*
Y185314D03*
X325480Y140133D03*
Y185314D03*
X327448Y140133D03*
Y185314D03*
X329417Y140133D03*
Y185314D03*
X331385Y140133D03*
Y185314D03*
X333354Y140133D03*
Y185314D03*
X335322Y140133D03*
Y185314D03*
X337291Y140133D03*
Y185314D03*
X339259Y140133D03*
Y185314D03*
X341228Y140133D03*
Y185314D03*
X343196Y140133D03*
Y185314D03*
X345165Y140133D03*
Y185314D03*
X347133Y140133D03*
Y185314D03*
X349102Y140133D03*
Y185314D03*
X351070Y140133D03*
Y185314D03*
X353039Y140133D03*
Y185314D03*
X355007Y140133D03*
Y185314D03*
D02*
D126*
X76721Y67374D03*
Y98575D03*
X81721Y67374D03*
Y98575D03*
X86721Y67374D03*
Y98575D03*
X91721Y67374D03*
Y98575D03*
X96721Y67374D03*
Y98575D03*
X101721Y67374D03*
Y98575D03*
X106721Y67374D03*
Y98575D03*
X111721Y67374D03*
Y98575D03*
X273571Y67374D03*
Y98575D03*
X278571Y67374D03*
Y98575D03*
X283571Y67374D03*
Y98575D03*
X288571Y67374D03*
Y98575D03*
X293571Y67374D03*
Y98575D03*
X298571Y67374D03*
Y98575D03*
X303571Y67374D03*
Y98575D03*
X308571Y67374D03*
Y98575D03*
X0Y0D02*
M02*
