G04 EasyPC Gerber Version 21.0.3 Build 4286 *
G04 #@! TF.Part,Single*
G04 #@! TF.FileFunction,Legend,Top *
G04 #@! TF.FilePolarity,Positive *
%FSLAX45Y45*%
%MOIN*%
%ADD19C,0.00100*%
%ADD21C,0.00197*%
%ADD18C,0.00276*%
%ADD113C,0.00472*%
%ADD70C,0.00500*%
%ADD116C,0.00591*%
%ADD20C,0.00787*%
%ADD117C,0.00984*%
%ADD71C,0.01000*%
X0Y0D02*
D02*
D18*
X119181Y67220D02*
Y67845D01*
X119338Y68157*
X119494Y68313*
X119807Y68470*
X120119*
X120431Y68313*
X120588Y68157*
X120744Y67845*
Y67220*
X120588Y66907*
X120431Y66751*
X120119Y66595*
X119807*
X119494Y66751*
X119338Y66907*
X119181Y67220*
X121681Y66595D02*
Y68470D01*
X122463Y67532*
X123244Y68470*
Y66595*
X124181D02*
Y68470D01*
X125275*
X125588Y68313*
X125744Y68001*
X125588Y67689*
X125275Y67532*
X124181*
X125275D02*
X125744Y66595D01*
X126681Y67220D02*
Y67845D01*
X126838Y68157*
X126994Y68313*
X127307Y68470*
X127619*
X127931Y68313*
X128088Y68157*
X128244Y67845*
Y67220*
X128088Y66907*
X127931Y66751*
X127619Y66595*
X127307*
X126994Y66751*
X126838Y66907*
X126681Y67220*
X129181Y66595D02*
Y68470D01*
X130744Y66595*
Y68470*
X120055Y96797D02*
X120836Y98672D01*
X121618Y96797*
X120368Y97578D02*
X121305D01*
X122555Y96797D02*
Y98672D01*
X123336Y97735*
X124118Y98672*
Y96797*
X125836D02*
Y98672D01*
X125055D02*
X126618D01*
X316032Y67220D02*
Y67845D01*
X316188Y68157*
X316344Y68313*
X316657Y68470*
X316969*
X317282Y68313*
X317438Y68157*
X317594Y67845*
Y67220*
X317438Y66907*
X317282Y66751*
X316969Y66595*
X316657*
X316344Y66751*
X316188Y66907*
X316032Y67220*
X318532Y66595D02*
Y68470D01*
X319313Y67532*
X320094Y68470*
Y66595*
X321032D02*
Y68470D01*
X322126*
X322438Y68313*
X322594Y68001*
X322438Y67689*
X322126Y67532*
X321032*
X322126D02*
X322594Y66595D01*
X323532Y67220D02*
Y67845D01*
X323688Y68157*
X323844Y68313*
X324157Y68470*
X324469*
X324782Y68313*
X324938Y68157*
X325094Y67845*
Y67220*
X324938Y66907*
X324782Y66751*
X324469Y66595*
X324157*
X323844Y66751*
X323688Y66907*
X323532Y67220*
X326032Y66595D02*
Y68470D01*
X327594Y66595*
Y68470*
X316906Y96797D02*
X317687Y98672D01*
X318468Y96797*
X317218Y97578D02*
X318156D01*
X319406Y96797D02*
Y98672D01*
X320187Y97735*
X320968Y98672*
Y96797*
X322687D02*
Y98672D01*
X321906D02*
X323468D01*
D02*
D19*
X236095Y260300D02*
X236876Y258425D01*
X237658Y260300*
X238595Y259050D02*
X239845D01*
X242658Y258737D02*
X242502Y258581D01*
X242189Y258425*
X241720*
X241408Y258581*
X241252Y258737*
X241095Y259050*
Y259675*
X241252Y259987*
X241408Y260144*
X241720Y260300*
X242189*
X242502Y260144*
X242658Y259987*
X243595Y260300D02*
Y258894D01*
X243752Y258581*
X244064Y258425*
X244689*
X245002Y258581*
X245158Y258894*
Y260300*
X246876Y258425D02*
Y260300D01*
X246095D02*
X247658D01*
D02*
D70*
X85021Y204559D02*
X95683D01*
Y210496*
X85021*
Y204559*
X109224Y163686D02*
Y153025D01*
X115161*
Y163686*
X109224*
X123960Y128679D02*
X134621D01*
Y134616*
X123960*
Y128679*
X129911Y757D02*
X198809D01*
X143376Y35797D02*
Y40836D01*
Y42805D02*
Y35797D01*
Y42805D02*
Y40836D01*
X145344*
Y42805*
X143376*
Y50836D02*
Y35797D01*
Y52805D02*
Y35797D01*
Y52805D02*
Y50836D01*
X145344*
Y52805*
X143376*
X145344Y35797D02*
Y40836D01*
Y42805D02*
Y35797D01*
Y50836D02*
Y35797D01*
Y52805D02*
Y35797D01*
X149520Y92555D02*
X160181D01*
Y98492*
X149520*
Y92555*
X153376Y35797D02*
Y40836D01*
Y42805D02*
Y35797D01*
Y42805D02*
Y40836D01*
X155344*
Y42805*
X153376*
Y50836D02*
Y35797D01*
Y52805D02*
Y35797D01*
Y52805D02*
Y50836D01*
X155344*
Y52805*
X153376*
X155344Y35797D02*
Y40836D01*
Y42805D02*
Y35797D01*
Y50836D02*
Y35797D01*
Y52805D02*
Y35797D01*
X163376D02*
Y40836D01*
Y42805D02*
Y35797D01*
Y42805D02*
Y40836D01*
X165344*
Y42805*
X163376*
Y50836D02*
Y35797D01*
Y52805D02*
Y35797D01*
Y52805D02*
Y50836D01*
X165344*
Y52805*
X163376*
X165344Y35797D02*
Y40836D01*
Y42805D02*
Y35797D01*
Y52805D02*
Y35797D01*
X165344Y50836D02*
Y35797D01*
X166883Y70708D02*
Y60046D01*
X172820*
Y70708*
X166883*
X172431Y24380D02*
X156289D01*
Y757*
X124596*
Y35797*
X204124*
X204124Y757*
X172431*
Y24380*
X173376Y35797D02*
Y40836D01*
Y42805D02*
Y35797D01*
Y42805D02*
Y40836D01*
X175344*
Y42805*
X173376*
Y50836D02*
Y35797D01*
Y52805D02*
Y35797D01*
Y52805D02*
Y50836D01*
X175344*
Y52805*
X173376*
X175344Y35797D02*
Y40836D01*
Y42805D02*
Y35797D01*
Y50836D02*
Y35797D01*
Y52805D02*
Y35797D01*
X183376D02*
Y40836D01*
Y42805D02*
Y35797D01*
Y42805D02*
Y40836D01*
X185344*
Y42805*
X183376*
Y50836D02*
Y35797D01*
Y52805D02*
Y35797D01*
Y52805D02*
Y50836D01*
X185344*
Y52805*
X183376*
X185344Y35797D02*
Y40836D01*
Y42805D02*
Y35797D01*
Y50836D02*
Y35797D01*
Y52805D02*
Y35797D01*
X281872Y204559D02*
X292533D01*
Y210496*
X281872*
Y204559*
X306074Y163686D02*
Y153025D01*
X312011*
Y163686*
X306074*
X320810Y128679D02*
X331472D01*
Y134616*
X320810*
Y128679*
X326761Y757D02*
X395659D01*
X340226Y35797D02*
Y40836D01*
Y42805D02*
Y35797D01*
Y42805D02*
Y40836D01*
X342194*
Y42805*
X340226*
Y50836D02*
Y35797D01*
Y52805D02*
Y35797D01*
Y52805D02*
Y50836D01*
X342194*
Y52805*
X340226*
X342194Y35797D02*
Y40836D01*
Y42805D02*
Y35797D01*
Y50836D02*
Y35797D01*
Y52805D02*
Y35797D01*
X346370Y92555D02*
X357032D01*
Y98492*
X346370*
Y92555*
X350226Y35797D02*
Y40836D01*
Y42805D02*
Y35797D01*
Y42805D02*
Y40836D01*
X352194*
Y42805*
X350226*
Y50836D02*
Y35797D01*
Y52805D02*
Y35797D01*
Y52805D02*
Y50836D01*
X352194*
Y52805*
X350226*
X352194Y35797D02*
Y40836D01*
Y42805D02*
Y35797D01*
Y50836D02*
Y35797D01*
Y52805D02*
Y35797D01*
X360226D02*
Y40836D01*
Y42805D02*
Y35797D01*
Y42805D02*
Y40836D01*
X362194*
Y42805*
X360226*
Y50836D02*
Y35797D01*
Y52805D02*
Y35797D01*
Y52805D02*
Y50836D01*
X362195*
Y52805*
X360226*
X362194Y35797D02*
Y40836D01*
Y42805D02*
Y35797D01*
Y52805D02*
Y35797D01*
X362195Y50836D02*
Y35797D01*
X363733Y70708D02*
Y60046D01*
X369670*
Y70708*
X363733*
X369281Y24380D02*
X353139D01*
Y757*
X321447*
Y35797*
X400974*
X400974Y757*
X369281*
Y24380*
X370226Y35797D02*
Y40836D01*
Y42805D02*
Y35797D01*
Y42805D02*
Y40836D01*
X372195*
Y42805*
X370226*
Y50836D02*
Y35797D01*
Y52805D02*
Y35797D01*
Y52805D02*
Y50836D01*
X372195*
Y52805*
X370226*
X372195Y35797D02*
Y40836D01*
Y42805D02*
Y35797D01*
Y50836D02*
Y35797D01*
Y52805D02*
Y35797D01*
X380226D02*
Y40836D01*
Y42805D02*
Y35797D01*
Y42805D02*
Y40836D01*
X382195*
Y42805*
X380226*
Y50836D02*
Y35797D01*
Y52805D02*
Y35797D01*
Y52805D02*
Y50836D01*
X382195*
Y52805*
X380226*
X382195Y35797D02*
Y40836D01*
Y42805D02*
Y35797D01*
Y50836D02*
Y35797D01*
Y52805D02*
Y35797D01*
D02*
D71*
X105515Y171565D02*
Y170073D01*
Y176290D02*
Y174798D01*
Y179506D02*
X110633D01*
Y166908D02*
X105515D01*
X110633Y171565D02*
Y170073D01*
Y176384D02*
Y174892D01*
X112909Y179163D02*
G75*
G02Y179526J181D01*
G01*
X302365Y171565D02*
Y170073D01*
Y176290D02*
Y174798D01*
Y179506D02*
X307483D01*
Y166908D02*
X302365D01*
X307483Y171565D02*
Y170073D01*
Y176384D02*
Y174892D01*
X309759Y179163D02*
G75*
G02Y179526J181D01*
G01*
D02*
D20*
X70619Y69982D02*
Y95967D01*
X76653Y210027D02*
X67303D01*
Y203531*
X76653*
X111222Y104085D02*
G75*
G02X111819I298D01*
G01*
X111222D02*
G75*
G02X111819I298D01*
G01*
G75*
G02X111222I-298*
G01*
X117823Y95967D02*
Y69982D01*
X125086Y181031D02*
X161700D01*
Y144417*
X125086*
Y181031*
X154556Y129152D02*
X158689D01*
X164396Y83782D02*
Y71184D01*
X145105*
Y83782*
X164396*
X164908Y91066D02*
Y85160D01*
X176713Y80133D02*
Y70783D01*
X183209*
Y80133*
X184700Y80009D02*
Y70658D01*
X191196*
Y80009*
X193062Y79759D02*
Y70409D01*
X199558*
Y79759*
X201548Y79884D02*
Y70533D01*
X208044*
Y79884*
X267469Y69982D02*
Y95967D01*
X273504Y210027D02*
X264153D01*
Y203531*
X273504*
X308072Y104085D02*
G75*
G02X308669I298D01*
G01*
X308072D02*
G75*
G02X308669I298D01*
G01*
G75*
G02X308072I-298*
G01*
X314674Y95967D02*
Y69982D01*
X321937Y181031D02*
X358551D01*
Y144417*
X321937*
Y181031*
X351406Y129152D02*
X355540D01*
X361246Y83782D02*
Y71184D01*
X341955*
Y83782*
X361246*
X361758Y91066D02*
Y85160D01*
X373563Y80133D02*
Y70783D01*
X380059*
Y80133*
X381550Y80009D02*
Y70658D01*
X388046*
Y80009*
X389912Y79759D02*
Y70409D01*
X396408*
Y79759*
X398399Y79884D02*
Y70533D01*
X404895*
Y79884*
D02*
D21*
X165380Y92050D02*
Y62916D01*
X144120*
Y92050*
X165380*
X362231D02*
Y62916D01*
X340971*
Y92050*
X362231*
D02*
D113*
X57842Y132956D02*
X59717D01*
X61592Y134518*
X59717Y132956D02*
X61592Y131393D01*
X60902Y195731D02*
Y194793D01*
X60590*
X59965Y195106*
X59652Y195418*
X59340Y196043*
Y196668*
X59652Y197293*
X59965Y197606*
X60590Y197918*
X61840*
X62465Y197606*
X62778Y197293*
X63090Y196668*
Y196043*
X62778Y195418*
X62465Y195106*
X61840Y194793*
Y192918D02*
X60590Y192606D01*
X59965Y191981*
Y191356*
X60590Y190731*
X61840Y190418*
X60590Y190731D02*
X59340Y191043D01*
X58715Y191356*
X58402Y191981*
X58715Y192606*
X59340Y187918D02*
X61840D01*
X60902D02*
X61528Y187606D01*
X61840Y186981*
Y186356*
X61528Y185731*
X60278Y182918D02*
X59652Y182606D01*
X59340Y181981*
Y181356*
X59652Y180731*
X60278Y180418*
X60902*
X61528Y180731*
X61840Y181356*
Y181981*
X61528Y182606*
X60902Y182918*
X60278*
X61459Y78481D02*
X57709Y81607D01*
Y78481D02*
X61459Y81607D01*
X66764Y211960D02*
X68327Y215710D01*
X69889Y211960*
X67389Y213522D02*
X69264D01*
X74889Y212585D02*
X74577Y212272D01*
X73952Y211960*
X73014*
X72389Y212272*
X72077Y212585*
X71764Y213210*
Y214460*
X72077Y215085*
X72389Y215398*
X73014Y215710*
X73952*
X74577Y215398*
X74889Y215085*
X76764Y211960D02*
Y215710D01*
Y213835D02*
X77702D01*
X79889Y215710*
X77702Y213835D02*
X79889Y211960D01*
X94596Y46845D02*
X95846D01*
X95221D02*
Y50595D01*
X94596Y49970*
X178152Y94082D02*
X181902D01*
Y91894*
X181590Y91269*
X180965Y90957*
X180340Y91269*
X180028Y91894*
Y94082*
Y91894D02*
X178152Y90957D01*
Y89082D02*
X181902Y85957D01*
Y89082D02*
X178152Y85957D01*
X185641Y92769D02*
X189391D01*
Y94331D02*
Y91206D01*
X185641Y89331D02*
X189391Y86206D01*
Y89331D02*
X185641Y86206D01*
X193753Y107685D02*
X197503D01*
Y105498*
X197191Y104873*
X196565Y104560*
X195941Y104873*
X195628Y105498*
Y107685*
X195003Y102685D02*
X196253D01*
X196878Y102373*
X197191Y102060*
X197503Y101435*
Y100810*
X197191Y100185*
X196878Y99873*
X196253Y99560*
X195003*
X194378Y99873*
X194065Y100185*
X193753Y100810*
Y101435*
X194065Y102060*
X194378Y102373*
X195003Y102685*
X197503Y97685D02*
X193753Y97373D01*
X195628Y96123*
X193753Y94873*
X197503Y94560*
X193753Y92685D02*
X197503D01*
Y89560*
X195628Y90185D02*
Y92685D01*
X193753D02*
Y89560D01*
Y87685D02*
X197503D01*
Y85498*
X197191Y84873*
X196565Y84560*
X195941Y84873*
X195628Y85498*
Y87685*
Y85498D02*
X193753Y84560D01*
X203052Y108259D02*
X206802D01*
Y105134*
X204927Y105759D02*
Y108259D01*
X203052D02*
Y105134D01*
Y103259D02*
X205552D01*
X204615D02*
X205240Y102947D01*
X205552Y102322*
Y101697*
X205240Y101072*
X203052Y98259D02*
X205552D01*
X204615D02*
X205240Y97947D01*
X205552Y97322*
Y96697*
X205240Y96072*
X203990Y93259D02*
X203365Y92947D01*
X203052Y92322*
Y91697*
X203365Y91072*
X203990Y90759*
X204615*
X205240Y91072*
X205552Y91697*
Y92322*
X205240Y92947*
X204615Y93259*
X203990*
X203052Y88259D02*
X205552D01*
X204615D02*
X205240Y87947D01*
X205552Y87322*
Y86697*
X205240Y86072*
X215652Y138575D02*
X215965Y139200D01*
Y139825*
X215652Y140450*
X215027Y140762*
X214402Y140450*
X214090Y139825*
Y139200*
Y139825D02*
X213777Y140450D01*
X213152Y140762*
X212527Y140450*
X212215Y139825*
Y139200*
X212527Y138575*
X215965Y190620D02*
X212215D01*
X214715Y189057*
Y191557*
X216963Y85849D02*
Y83349D01*
X214776Y85536*
X214151Y85849*
X213526Y85536*
X213213Y84911*
Y83974*
X213526Y83349*
X254693Y132956D02*
X256568D01*
X258443Y134518*
X256568Y132956D02*
X258443Y131393D01*
X257753Y195731D02*
Y194793D01*
X257440*
X256815Y195106*
X256503Y195418*
X256190Y196043*
Y196668*
X256503Y197293*
X256815Y197606*
X257440Y197918*
X258690*
X259315Y197606*
X259628Y197293*
X259940Y196668*
Y196043*
X259628Y195418*
X259315Y195106*
X258690Y194793*
Y192918D02*
X257440Y192606D01*
X256815Y191981*
Y191356*
X257440Y190731*
X258690Y190418*
X257440Y190731D02*
X256190Y191043D01*
X255565Y191356*
X255253Y191981*
X255565Y192606*
X256190Y187918D02*
X258690D01*
X257753D02*
X258378Y187606D01*
X258690Y186981*
Y186356*
X258378Y185731*
X257128Y182918D02*
X256503Y182606D01*
X256190Y181981*
Y181356*
X256503Y180731*
X257128Y180418*
X257753*
X258378Y180731*
X258690Y181356*
Y181981*
X258378Y182606*
X257753Y182918*
X257128*
X258309Y78481D02*
X254559Y81607D01*
Y78481D02*
X258309Y81607D01*
X263615Y211960D02*
X265177Y215710D01*
X266740Y211960*
X264240Y213522D02*
X266115D01*
X271740Y212585D02*
X271427Y212272D01*
X270802Y211960*
X269865*
X269240Y212272*
X268927Y212585*
X268615Y213210*
Y214460*
X268927Y215085*
X269240Y215398*
X269865Y215710*
X270802*
X271427Y215398*
X271740Y215085*
X273615Y211960D02*
Y215710D01*
Y213835D02*
X274552D01*
X276740Y215710*
X274552Y213835D02*
X276740Y211960D01*
X291447Y46845D02*
X292697D01*
X292072D02*
Y50595D01*
X291447Y49970*
X375003Y94082D02*
X378753D01*
Y91894*
X378441Y91269*
X377815Y90957*
X377191Y91269*
X376878Y91894*
Y94082*
Y91894D02*
X375003Y90957D01*
Y89082D02*
X378753Y85957D01*
Y89082D02*
X375003Y85957D01*
X382491Y92769D02*
X386241D01*
Y94331D02*
Y91206D01*
X382491Y89331D02*
X386241Y86206D01*
Y89331D02*
X382491Y86206D01*
X390603Y107685D02*
X394353D01*
Y105498*
X394041Y104873*
X393416Y104560*
X392791Y104873*
X392478Y105498*
Y107685*
X391853Y102685D02*
X393103D01*
X393728Y102373*
X394041Y102060*
X394353Y101435*
Y100810*
X394041Y100185*
X393728Y99873*
X393103Y99560*
X391853*
X391228Y99873*
X390916Y100185*
X390603Y100810*
Y101435*
X390916Y102060*
X391228Y102373*
X391853Y102685*
X394353Y97685D02*
X390603Y97373D01*
X392478Y96123*
X390603Y94873*
X394353Y94560*
X390603Y92685D02*
X394353D01*
Y89560*
X392478Y90185D02*
Y92685D01*
X390603D02*
Y89560D01*
Y87685D02*
X394353D01*
Y85498*
X394041Y84873*
X393416Y84560*
X392791Y84873*
X392478Y85498*
Y87685*
Y85498D02*
X390603Y84560D01*
X399902Y108259D02*
X403652D01*
Y105134*
X401778Y105759D02*
Y108259D01*
X399902D02*
Y105134D01*
Y103259D02*
X402402D01*
X401465D02*
X402090Y102947D01*
X402402Y102322*
Y101697*
X402090Y101072*
X399902Y98259D02*
X402402D01*
X401465D02*
X402090Y97947D01*
X402402Y97322*
Y96697*
X402090Y96072*
X400840Y93259D02*
X400215Y92947D01*
X399902Y92322*
Y91697*
X400215Y91072*
X400840Y90759*
X401465*
X402090Y91072*
X402402Y91697*
Y92322*
X402090Y92947*
X401465Y93259*
X400840*
X399902Y88259D02*
X402402D01*
X401465D02*
X402090Y87947D01*
X402402Y87322*
Y86697*
X402090Y86072*
X412503Y138575D02*
X412815Y139200D01*
Y139825*
X412503Y140450*
X411878Y140762*
X411253Y140450*
X410940Y139825*
Y139200*
Y139825D02*
X410628Y140450D01*
X410003Y140762*
X409378Y140450*
X409065Y139825*
Y139200*
X409378Y138575*
X412815Y190620D02*
X409065D01*
X411565Y189057*
Y191557*
X413814Y85849D02*
Y83349D01*
X411626Y85536*
X411001Y85849*
X410376Y85536*
X410064Y84911*
Y83974*
X410376Y83349*
D02*
D116*
X97697Y213514D02*
Y209334D01*
X98404Y209263*
G75*
G02X98746Y209220I-768J-7585*
G01*
G75*
G02X98966Y209171I-214J-1459*
G01*
G75*
G02X99103Y209109I-175J-571*
G01*
G75*
G02X99169Y209028I-82J-133*
G01*
G75*
G03X99295Y208787I881J310*
G01*
G75*
G03X99487Y208589I796J581*
G01*
G75*
G03X99718Y208459I560J719*
G01*
G75*
G03X99958Y208414I241J622*
G01*
G75*
G02X100088Y208406I-1J-1146*
G01*
G75*
G02X100207Y208384I-99J-870*
G01*
G75*
G02X100302Y208352I-167J-651*
G01*
G75*
G02X100347Y208314I-38J-91*
G01*
G75*
G03X100429Y208267I85J52*
G01*
G75*
G03X101552Y208239I7604J291089*
G01*
G75*
G03X102956Y208220I1951J89069*
G01*
G75*
G03X104883Y208214I1909J308554*
G01*
G75*
G02X107346Y208209I-17J-600317*
G01*
G75*
G02X108574Y208187I-193J-44979*
G01*
G75*
G02X109327Y208150I-721J-22836*
G01*
G75*
G02X109552Y208067I-26J-417*
G01*
G75*
G03X109637Y208010I519J683*
G01*
G75*
G03X109731Y207962I495J851*
G01*
G75*
G03X109820Y207928I353J784*
G01*
G75*
G03X109887Y207917I72J227*
G01*
G75*
G02X110193Y207846I-18J-774*
G01*
G75*
G02X110651Y207606I-2131J-4631*
G01*
G75*
G02X111094Y207312I-2529J-4288*
G01*
G75*
G02X111374Y207040I-882J-1185*
G01*
G75*
G02X111777Y206425I-3333J-2623*
G01*
G75*
G02X112106Y205698I-5148J-2766*
G01*
G75*
G02X112324Y204955I-5215J-1940*
G01*
G75*
G02X112397Y204293I-3004J-664*
G01*
Y203914*
X112903*
G75*
G02X113269Y203892I-2J-3084*
G01*
G75*
G02X113552Y203824I-148J-1243*
G01*
G75*
G02X113734Y203719I-214J-581*
G01*
G75*
G02X113798Y203585I-113J-135*
G01*
G75*
G03X113823Y203526I84J1*
G01*
G75*
G03X113921Y203441I750J765*
G01*
G75*
G03X114056Y203349I826J1076*
G01*
G75*
G03X114216Y203264I1052J1775*
G01*
G75*
G03X114580Y203149I588J1226*
G01*
G75*
G03X115095Y203093I742J4433*
G01*
G75*
G03X115994Y203069I981J19589*
G01*
G75*
G03X118194Y203064I2187J506315*
G01*
G75*
G03X120309Y203069I20J464200*
G01*
G75*
G03X121231Y203092I-100J22243*
G01*
G75*
G03X121754Y203139I-278J5987*
G01*
G75*
G03X122025Y203240I-87J648*
G01*
G75*
G03X122345Y203518I-865J1319*
G01*
G75*
G03X122528Y203838I-686J604*
G01*
G75*
G03X122624Y204322I-1993J650*
G01*
G75*
G03X122677Y205239I-21256J1683*
G01*
G75*
G03X122681Y206559I-20001J720*
G01*
G75*
G03X122584Y207632I-8926J-265*
G01*
G75*
G03X122378Y208541I-6407J-973*
G01*
G75*
G03X122052Y209359I-4946J-1500*
G01*
G75*
G03X121419Y210406I-7011J-3519*
G01*
G75*
G03X120587Y211426I-8493J-6082*
G01*
G75*
G03X119677Y212289I-7101J-6578*
G01*
G75*
G03X118810Y212857I-2923J-3515*
G01*
G75*
G03X117731Y213255I-2296J-4557*
G01*
G75*
G03X116512Y213438I-1600J-6520*
G01*
G75*
G03X114363Y213502I-2257J-39815*
G01*
G75*
G03X107272Y213512I-7553J-2673193*
G01*
X97697Y213514*
X98120Y205889D02*
G75*
G03X98156Y205326I13926J604D01*
G01*
G75*
G03X98212Y204861I6617J561*
G01*
G75*
G03X98292Y204453I5056J783*
G01*
G75*
G03X98404Y204064I4457J1071*
G01*
G75*
G03X98715Y203340I4546J1528*
G01*
G75*
G03X99172Y202593I6462J3434*
G01*
G75*
G03X99718Y201900I6068J4223*
G01*
G75*
G03X100298Y201344I3820J3402*
G01*
G75*
G02X100588Y201106I-243152J-296990*
G01*
G75*
G02X100925Y200830I-440327J-537130*
G01*
G75*
G02X101255Y200558I-431559J-525222*
G01*
G75*
G02X101522Y200338I-185301J-225352*
G01*
G75*
G03X101752Y200154I7753J9402*
G01*
G75*
G03X101965Y199991I5168J6578*
G01*
G75*
G03X102147Y199861I5536J7558*
G01*
G75*
G03X102222Y199824I159J227*
G01*
G75*
G02X102287Y199798I-121J-383*
G01*
G75*
G02X102388Y199742I-1234J-2370*
G01*
G75*
G02X102501Y199673I-1514J-2610*
G01*
G75*
G02X102612Y199599I-1659J-2609*
G01*
G75*
G03X102729Y199528I621J889*
G01*
G75*
G03X102859Y199468I624J1183*
G01*
G75*
G03X102984Y199426I437J1100*
G01*
G75*
G03X103081Y199414I96J356*
G01*
G75*
G02X103164Y199406I0J-464*
G01*
G75*
G02X103243Y199384I-81J-449*
G01*
G75*
G02X103308Y199352I-130J-344*
G01*
G75*
G02X103347Y199314I-62J-102*
G01*
G75*
G03X103387Y199275I94J57*
G01*
G75*
G03X103460Y199243I211J381*
G01*
G75*
G03X103551Y199221I176J528*
G01*
G75*
G03X103647Y199214I94J619*
G01*
G75*
G02X103743Y199206I-1J-624*
G01*
G75*
G02X103833Y199184I-86J-550*
G01*
G75*
G02X103906Y199152I-138J-413*
G01*
G75*
G02X103947Y199114I-53J-96*
G01*
G75*
G03X103992Y199075I83J50*
G01*
G75*
G03X104090Y199043I269J659*
G01*
G75*
G03X104213Y199021I224J894*
G01*
G75*
G03X104347Y199014I132J1221*
G01*
G75*
G02X104481Y199006I-1J-1225*
G01*
G75*
G02X104604Y198984I-101J-917*
G01*
G75*
G02X104701Y198952I-172J-691*
G01*
G75*
G02X104747Y198914I-37J-90*
G01*
G75*
G03X104807Y198874I73J44*
G01*
G75*
G03X105051Y198843I852J5725*
G01*
G75*
G03X105352Y198821I501J4776*
G01*
G75*
G03X105697Y198814I341J8198*
G01*
G75*
G02X106041Y198806I-6J-8196*
G01*
G75*
G02X106342Y198784I-200J-4798*
G01*
G75*
G02X106587Y198753I-608J-5756*
G01*
G75*
G02X106647Y198714I-12J-85*
G01*
G75*
G03X106707Y198674I73J44*
G01*
G75*
G03X106951Y198643I852J5725*
G01*
G75*
G03X107252Y198621I501J4776*
G01*
G75*
G03X107597Y198614I341J8198*
G01*
G75*
G02X107941Y198606I-6J-8196*
G01*
G75*
G02X108242Y198584I-200J-4798*
G01*
G75*
G02X108487Y198553I-608J-5756*
G01*
G75*
G02X108547Y198514I-12J-85*
G01*
G75*
G03X108592Y198475I83J50*
G01*
G75*
G03X108690Y198443I269J659*
G01*
G75*
G03X108813Y198421I224J894*
G01*
G75*
G03X108947Y198414I132J1221*
G01*
G75*
G02X109081Y198406I-1J-1225*
G01*
G75*
G02X109204Y198384I-101J-917*
G01*
G75*
G02X109301Y198352I-172J-691*
G01*
G75*
G02X109347Y198314I-37J-90*
G01*
G75*
G03X109387Y198275I95J58*
G01*
G75*
G03X109458Y198243I208J367*
G01*
G75*
G03X109547Y198221I174J511*
G01*
G75*
G03X109640Y198214I91J583*
G01*
G75*
G02X109880Y198180I-1J-884*
G01*
G75*
G02X110217Y198069I-1054J-3745*
G01*
G75*
G02X110685Y197872I-2900J-7565*
G01*
G75*
G02X111376Y197548I-16230J-35467*
G01*
G75*
G02X112286Y196977I-2080J-4325*
G01*
G75*
G02X113023Y196228I-2739J-3435*
G01*
G75*
G02X113532Y195364I-3153J-2438*
G01*
G75*
G02X113769Y194452I-2868J-1232*
G01*
X113825Y193914*
X114341*
G75*
G02X114662Y193901I-2J-4126*
G01*
G75*
G02X114829Y193852I-33J-426*
G01*
G75*
G02X114966Y193740I-210J-396*
G01*
G75*
G02X115168Y193474I-3663J-2988*
G01*
G75*
G03X115370Y193215I2731J1922*
G01*
G75*
G03X115534Y193081I461J400*
G01*
G75*
G03X115750Y192998I403J718*
G01*
G75*
G03X116174Y192911I1912J8236*
G01*
G75*
G03X116777Y192843I812J4541*
G01*
G75*
G03X117550Y192833I539J11968*
G01*
G75*
G03X118728Y192877I-648J33686*
G01*
G75*
G03X120897Y193002I-18190J334956*
G01*
G75*
G03X121904Y193076I-2365J38850*
G01*
G75*
G03X122435Y193162I-319J3658*
G01*
G75*
G03X122775Y193295I-303J1274*
G01*
G75*
G03X123047Y193513I-529J940*
G01*
G75*
G03X123158Y193702I-404J364*
G01*
G75*
G03X123215Y193966I-1130J383*
G01*
G75*
G03X123239Y194418I-4848J484*
G01*
G75*
G03X123241Y195449I-99493J744*
G01*
G75*
G03X123231Y196557I-93904J-314*
G01*
G75*
G03X123197Y197026I-4101J-61*
G01*
G75*
G03X123113Y197374I-1670J-218*
G01*
G75*
G03X122933Y197814I-4809J-1713*
G01*
G75*
G03X122805Y198072I-5520J-2569*
G01*
G75*
G03X122670Y198313I-4474J-2346*
G01*
G75*
G03X122546Y198510I-3912J-2335*
G01*
G75*
G03X122463Y198601I-349J-234*
G01*
G75*
G02X122400Y198660I474J576*
G01*
G75*
G02X122346Y198724I463J444*
G01*
G75*
G02X122307Y198784I412J305*
G01*
G75*
G02X122297Y198827I80J43*
G01*
G75*
G03X122232Y199010I-292*
G01*
G75*
G03X121782Y199553I-19390J-15613*
G01*
G75*
G03X121306Y200083I-10253J-8738*
G01*
G75*
G03X120913Y200450I-3222J-3057*
G01*
G75*
G03X119974Y201080I-3604J-4360*
G01*
G75*
G03X118938Y201502I-2546J-4764*
G01*
G75*
G03X117644Y201765I-2246J-7724*
G01*
G75*
G03X115885Y201912I-2972J-24931*
G01*
G75*
G02X114551Y202013I1201J24689*
G01*
G75*
G02X113150Y202190I3128J30418*
G01*
G75*
G02X111913Y202402I4411J29444*
G01*
G75*
G02X111247Y202607I617J3183*
G01*
G75*
G03X111146Y202649I-1487J-3481*
G01*
G75*
G03X111003Y202705I-5404J-13543*
G01*
G75*
G03X110845Y202765I-5756J-15008*
G01*
G75*
G03X110697Y202819I-4366J-11784*
G01*
G75*
G02X109937Y203159I1824J5090*
G01*
G75*
G02X109228Y203616I2706J4978*
G01*
G75*
G02X108657Y204123I2901J3841*
G01*
G75*
G02X108321Y204614I1313J1259*
G01*
G75*
G03X108229Y204776I-1068J-500*
G01*
G75*
G03X108082Y204978I-3080J-2081*
G01*
G75*
G03X107909Y205185I-3207J-2506*
G01*
G75*
G03X107736Y205364I-2239J-1991*
G01*
G75*
G02X107509Y205602I2327J2450*
G01*
G75*
G02X107370Y205805I824J715*
G01*
G75*
G02X107275Y206041I1048J557*
G01*
G75*
G02X107193Y206389I4311J1203*
G01*
X107070Y207014*
X98072*
X98120Y205889*
X104997Y199718D02*
G75*
G02X106269Y199614I-1913J-31378D01*
G01*
G75*
G02X107307Y199470I-1456J-14298*
G01*
G75*
G02X108218Y199270I-1918J-10890*
G01*
G75*
G02X109097Y198995I-2692J-10150*
G01*
G75*
G02X109709Y198750I-3294J-9128*
G01*
G75*
G02X110308Y198462I-4011J-9107*
G01*
G75*
G02X110523Y198312I-477J-913*
G01*
G75*
G02X110497Y198264I-19J-21*
G01*
G75*
G03X110381Y198294I-1161J-4252*
G01*
G75*
G03X110239Y198328I-2335J-9485*
G01*
G75*
G03X110094Y198359I-2212J-9678*
G01*
G75*
G03X109970Y198385I-1117J-5178*
G01*
G75*
G02X109861Y198411I209J1110*
G01*
G75*
G02X109759Y198447I264J896*
G01*
G75*
G02X109678Y198487I296J700*
G01*
G75*
G02X109639Y198525I55J96*
G01*
G75*
G03X109598Y198559I-70J-43*
G01*
G75*
G03X109502Y198587I-265J-730*
G01*
G75*
G03X109380Y198607I-219J-963*
G01*
G75*
G03X109247Y198614I-136J-1371*
G01*
G75*
G02X109113Y198621I-2J1228*
G01*
G75*
G02X108990Y198643I101J917*
G01*
G75*
G02X108892Y198675I172J691*
G01*
G75*
G02X108847Y198714I37J89*
G01*
G75*
G03X108787Y198753I-72J-45*
G01*
G75*
G03X108542Y198784I-852J-5725*
G01*
G75*
G03X108241Y198806I-501J-4776*
G01*
G75*
G03X107897Y198814I-350J-8188*
G01*
G75*
G02X107552Y198821I-4J8205*
G01*
G75*
G02X107251Y198843I200J4798*
G01*
G75*
G02X107007Y198874I608J5756*
G01*
G75*
G02X106947Y198914I13J84*
G01*
G75*
G03X106887Y198953I-72J-45*
G01*
G75*
G03X106642Y198984I-852J-5725*
G01*
G75*
G03X106341Y199006I-501J-4776*
G01*
G75*
G03X105997Y199014I-350J-8188*
G01*
G75*
G02X105652Y199021I-4J8205*
G01*
G75*
G02X105351Y199043I200J4798*
G01*
G75*
G02X105107Y199074I608J5756*
G01*
G75*
G02X105047Y199114I13J84*
G01*
G75*
G03X105001Y199152I-82J-51*
G01*
G75*
G03X104904Y199184I-269J-659*
G01*
G75*
G03X104781Y199206I-224J-894*
G01*
G75*
G03X104647Y199214I-135J-1218*
G01*
G75*
G02X104513Y199221I-2J1228*
G01*
G75*
G02X104390Y199243I101J917*
G01*
G75*
G02X104292Y199275I172J691*
G01*
G75*
G02X104247Y199314I37J89*
G01*
G75*
G03X104206Y199352I-93J-58*
G01*
G75*
G03X104133Y199384I-211J-381*
G01*
G75*
G03X104043Y199406I-176J-528*
G01*
G75*
G03X103947Y199414I-96J-616*
G01*
G75*
G02X103851Y199421I-2J626*
G01*
G75*
G02X103760Y199443I86J550*
G01*
G75*
G02X103687Y199475I138J413*
G01*
G75*
G02X103647Y199514I54J96*
G01*
G75*
G03X103607Y199552I-94J-59*
G01*
G75*
G03X103535Y199584I-208J-367*
G01*
G75*
G03X103446Y199606I-174J-509*
G01*
G75*
G03X103353Y199614I-94J-585*
G01*
G75*
G02X103254Y199626J406*
G01*
G75*
G02X103149Y199662I152J613*
G01*
G75*
G02X103054Y199716I253J559*
G01*
G75*
G02X102984Y199780I191J280*
G01*
G75*
G02X102910Y199876I1143J945*
G01*
G75*
G02X102917Y199908I19J13*
G01*
G75*
G02X102965Y199917I35J-57*
G01*
G75*
G02X103147Y199879I-1269J-6579*
G01*
G75*
G03X103339Y199848I351J1578*
G01*
G75*
G03X103814Y199804I4100J41574*
G01*
G75*
G03X104381Y199759I3394J38952*
G01*
G75*
G03X104997Y199718I3924J53841*
G01*
X108251Y209059D02*
G75*
G02X108705Y208919I-1367J-5253D01*
G01*
G75*
G02X109274Y208704I-4825J-13590*
G01*
G75*
G02X109848Y208467I-17222J-42635*
G01*
G75*
G02X109897Y208394I-31J-73*
G01*
G75*
G02X109835Y208333I-62*
G01*
G75*
G02X105307Y208393I159934J12355036*
G01*
G75*
G02X100803Y208454I115047J8601165*
G01*
G75*
G02X100653Y208517I3J217*
G01*
G75*
G03X100596Y208555I-117J-116*
G01*
G75*
G03X100497Y208585I-288J-750*
G01*
G75*
G03X100380Y208607I-233J-951*
G01*
G75*
G03X100258Y208614I-121J-1036*
G01*
G75*
G02X100032Y208659I-1J578*
G01*
G75*
G02X99773Y208801I594J1396*
G01*
G75*
G02X99559Y208978I808J1190*
G01*
G75*
G02X99497Y209131I154J152*
G01*
G75*
G02X99530Y209165I33*
G01*
G75*
G02X100695Y209189I15784J-725747*
G01*
G75*
G02X102011Y209207I2091J-104177*
G01*
G75*
G02X103576Y209214I1614J-206495*
G01*
G75*
G02X105765Y209207I-55J-399426*
G01*
G75*
G02X106988Y209184I-244J-44353*
G01*
G75*
G02X107768Y209140I-553J-16843*
G01*
G75*
G02X108251Y209059I-222J-2799*
G01*
X122064Y208637D02*
G75*
G02X122263Y208038I-2580J-1187D01*
G01*
G75*
G02X122404Y207183I-9544J-2017*
G01*
G75*
G02X122479Y206216I-11379J-1367*
G01*
G75*
G02X122471Y205250I-11248J-396*
G01*
G75*
G02X122411Y204512I-12272J630*
G01*
G75*
G02X122306Y204092I-1600J179*
G01*
G75*
G02X122110Y203784I-917J367*
G01*
G75*
G02X121758Y203470I-1951J1827*
G01*
G75*
G02X121491Y203349I-407J546*
G01*
G75*
G02X121065Y203292I-594J2830*
G01*
G75*
G02X120285Y203268I-837J14488*
G01*
G75*
G02X118208Y203264I-2064J491785*
G01*
G75*
G02X116198Y203269I-42J409888*
G01*
G75*
G02X115358Y203293I84J17069*
G01*
G75*
G02X114871Y203350I219J4033*
G01*
G75*
G02X114517Y203464I241J1356*
G01*
G75*
G02X114280Y203689I229J479*
G01*
G75*
G02X114359Y203846I94J51*
G01*
G75*
G02X115185Y203910I912J-6468*
G01*
G75*
G02X117872Y203937I5600J-414956*
G01*
X121647Y203964*
X121673Y206539*
G75*
G02X121689Y207526I92599J-983*
G01*
G75*
G02X121714Y208357I46674J-978*
G01*
G75*
G02X121743Y209083I228811J-8932*
G01*
G75*
G02X121773Y209112I30J-1*
G01*
G75*
G02X121811Y209091I-1J-48*
G01*
G75*
G02X121889Y208972I-2284J-1570*
G01*
G75*
G02X121976Y208818I-2111J-1292*
G01*
G75*
G02X122064Y208637I-3787J-1965*
G01*
X122801Y197440D02*
G75*
G02X122925Y197120I-2039J-976D01*
G01*
G75*
G02X122992Y196800I-1820J-549*
G01*
G75*
G02X123025Y196348I-4595J-559*
G01*
G75*
G02X123037Y195497I-49678J-1161*
G01*
G75*
G02X123038Y194555I-83949J-541*
G01*
G75*
G02X123012Y194190I-2750J16*
G01*
G75*
G02X122941Y193967I-687J94*
G01*
G75*
G02X122797Y193763I-811J419*
G01*
G75*
G02X122410Y193474I-996J932*
G01*
G75*
G02X121929Y193322I-720J1443*
G01*
G75*
G02X121040Y193228I-1521J10127*
G01*
G75*
G02X118047Y193050I-44613J723555*
G01*
G75*
G02X117216Y193035I-590J10197*
G01*
G75*
G02X116514Y193099I126J5318*
G01*
G75*
G02X115967Y193230I552J3504*
G01*
G75*
G02X115628Y193431I281J859*
G01*
G75*
G02X115520Y193687I235J250*
G01*
G75*
G02X115662Y193851I169J-3*
G01*
G75*
G02X116360Y193911I766J-4832*
G01*
G75*
G02X118822Y193937I5564J-398372*
G01*
X122247Y193964*
X122304Y195964*
G75*
G02X122328Y196733I247509J-7219*
G01*
G75*
G02X122350Y197385I128899J-4107*
G01*
G75*
G02X122372Y197968I1076944J-39730*
G01*
G75*
G02X122379Y197994I59J-2*
G01*
G75*
G02X122437Y198006I34J-19*
G01*
G75*
G02X122533Y197910I-311J-407*
G01*
G75*
G02X122657Y197719I-1237J-939*
G01*
G75*
G02X122801Y197440I-4746J-2613*
G01*
X128837Y193904D02*
G75*
G03X128735Y193736I386J-349D01*
G01*
G75*
G03X128680Y193511I950J-356*
G01*
G75*
G03X128653Y193146I3270J-423*
G01*
G75*
G03X128647Y192428I41018J-696*
G01*
Y191164*
X128992*
G75*
G03X129176Y191174I1J1643*
G01*
G75*
G03X129283Y191211I-29J257*
G01*
G75*
G03X129350Y191285I-95J152*
G01*
G75*
G03X129396Y191414I-545J269*
G01*
G75*
G02X129470Y191559I331J-77*
G01*
G75*
G02X129598Y191637I188J-163*
G01*
G75*
G02X129855Y191676I335J-1331*
G01*
G75*
G02X130585Y191714I3188J-55081*
G01*
G75*
G03X131497Y191786I-579J13140*
G01*
G75*
G03X131873Y191946I-81J712*
G01*
G75*
G03X132050Y192267I-320J387*
G01*
G75*
G03X132097Y192967I-5266J701*
G01*
G75*
G03X132089Y193404I-12267J-3*
G01*
G75*
G03X132056Y193617I-911J-33*
G01*
G75*
G03X131980Y193763I-384J-107*
G01*
G75*
G03X131833Y193906I-733J-602*
G01*
G75*
G03X131637Y194019I-478J-609*
G01*
G75*
G03X131403Y194079I-369J-942*
G01*
G75*
G03X131037Y194107I-422J-3117*
G01*
G75*
G03X130299Y194114I-753J-42333*
G01*
G75*
G03X129539Y194108I8J-49954*
G01*
G75*
G03X129197Y194081I42J-2688*
G01*
G75*
G03X128993Y194019I101J-704*
G01*
G75*
G03X128837Y193904I214J-452*
G01*
X129317Y193628D02*
G75*
G03X129259Y193553I75J-118D01*
G01*
G75*
G03X129225Y193402I805J-260*
G01*
G75*
G03X129210Y193177I1757J-230*
G01*
G75*
G03X129217Y192855I7191J-12*
G01*
X129247Y192164*
X130222Y192135*
G75*
G03X131049Y192132I476J16259*
G01*
G75*
G03X131387Y192223I-16J730*
G01*
G75*
G03X131548Y192441I-159J286*
G01*
G75*
G03X131597Y192897I-2135J457*
G01*
G75*
G03X131588Y193127I-2999J-4*
G01*
G75*
G03X131561Y193339I-2274J-174*
G01*
G75*
G03X131523Y193513I-1913J-330*
G01*
G75*
G03X131477Y193594I-174J-46*
G01*
G75*
G03X131267Y193686I-224J-224*
G01*
G75*
G03X130423Y193712I-1298J-28021*
G01*
G75*
G03X129590Y193711I-373J-23146*
G01*
G75*
G03X129317Y193628I11J-531*
G01*
X131214Y193348D02*
G75*
G02X131356Y193142I-362J-400D01*
G01*
G75*
G02X131394Y192887I-564J-217*
G01*
G75*
G02X131323Y192641I-589J38*
G01*
G75*
G02X131157Y192461I-442J242*
G01*
G75*
G02X131004Y192389I-330J503*
G01*
G75*
G02X130806Y192346I-354J1152*
G01*
G75*
G02X130544Y192328I-280J2147*
G01*
G75*
G02X130182Y192334I-67J7472*
G01*
X129447Y192364*
X129415Y192810*
G75*
G02X129436Y193173I1414J101*
G01*
G75*
G02X129567Y193380I326J-61*
G01*
G75*
G02X129843Y193486I335J-459*
G01*
G75*
G02X130383Y193514I540J-5279*
G01*
G75*
G02X130694Y193504I-7J-5332*
G01*
G75*
G02X130923Y193475I-96J-1669*
G01*
G75*
G02X131093Y193424I-183J-919*
G01*
G75*
G02X131214Y193348I-156J-381*
G01*
X131325Y193822D02*
G75*
G02X131596Y193681I-479J-1256D01*
G01*
G75*
G02X131770Y193504I-339J-506*
G01*
G75*
G02X131865Y193263I-564J-361*
G01*
G75*
G02X131893Y192931I-1755J-319*
G01*
G75*
G02X131805Y192420I-1581J11*
G01*
G75*
G02X131554Y192113I-548J192*
G01*
G75*
G02X131073Y191956I-591J990*
G01*
G75*
G02X130188Y191914I-881J9289*
G01*
G75*
G03X129615Y191908I5J-30328*
G01*
G75*
G03X129400Y191879I18J-925*
G01*
G75*
G03X129281Y191804I58J-224*
G01*
G75*
G03X129194Y191656I391J-331*
G01*
G75*
G02X129147Y191560I-549J209*
G01*
G75*
G02X129088Y191485I-320J193*
G01*
G75*
G02X129026Y191443I-161J166*
G01*
G75*
G02X128971Y191439I-31J67*
G01*
G75*
G02X128912Y191503I29J85*
G01*
G75*
G02X128876Y191698I1576J394*
G01*
G75*
G02X128853Y191994I3134J391*
G01*
G75*
G02X128847Y192440I15096J436*
G01*
G75*
G02X128854Y193010I22907J1*
G01*
G75*
G02X128885Y193288I1629J-39*
G01*
G75*
G02X128955Y193476I606J-121*
G01*
G75*
G02X129089Y193656I840J-484*
G01*
G75*
G02X129258Y193800I740J-698*
G01*
G75*
G02X129428Y193874I283J-415*
G01*
G75*
G02X129679Y193906I285J-1241*
G01*
G75*
G02X130207Y193914I538J-19326*
G01*
G75*
G02X130561Y193907I-10J-9284*
G01*
G75*
G02X130897Y193887I-290J-7699*
G01*
G75*
G02X131181Y193857I-579J-7023*
G01*
G75*
G02X131325Y193822I-74J-613*
G01*
X133243Y194590D02*
G75*
G03X133223Y194490I282J-109D01*
G01*
G75*
G03X133214Y194098I32430J-913*
G01*
G75*
G03X133212Y193634I21123J-340*
G01*
G75*
G03X133219Y193109I34432J176*
G01*
X133247Y191764*
X133947*
Y194664*
X133621Y194695*
G75*
G03X133480Y194700I-108J-1105*
G01*
G75*
G03X133367Y194682I16J-476*
G01*
G75*
G03X133287Y194645I73J-262*
G01*
G75*
G03X133243Y194590I67J-98*
G01*
X133747Y193205D02*
G75*
G02X133741Y192588I-35527J9D01*
G01*
G75*
G02X133719Y192279I-2741J47*
G01*
G75*
G02X133674Y192115I-637J84*
G01*
G75*
G02X133597Y192064I-78J32*
G01*
G75*
G02X133519Y192113J86*
G01*
G75*
G02X133470Y192267I543J255*
G01*
G75*
G02X133439Y192555I2351J403*
G01*
G75*
G02X133418Y193107I26658J1285*
G01*
G75*
G02X133407Y193833I30466J842*
G01*
G75*
G02X133434Y194191I2228J8*
G01*
G75*
G02X133505Y194353I352J-56*
G01*
G75*
G02X133622Y194389I83J-65*
G01*
G75*
G02X133682Y194321I-29J-87*
G01*
G75*
G02X133718Y194095I-2168J-459*
G01*
G75*
G02X133741Y193747I-4229J-448*
G01*
G75*
G02X133747Y193205I-23333J-542*
G01*
X135041Y214018D02*
G75*
G03X134767Y213839I321J-794D01*
G01*
G75*
G03X134473Y213506I1939J-2004*
G01*
G75*
G03X134216Y213100I2495J-1863*
G01*
G75*
G03X134048Y212690I1979J-1050*
G01*
G75*
G03X133537Y210368I15582J-4646*
G01*
G75*
G03X133215Y207364I41298J-5958*
G01*
G75*
G03X133102Y204191I44498J-3162*
G01*
G75*
G03X133240Y201314I30260J7*
G01*
G75*
G03X133378Y200071I42055J4033*
G01*
G75*
G03X133527Y199146I13474J1695*
G01*
G75*
G03X133703Y198427I7993J1573*
G01*
G75*
G03X133924Y197836I4123J1205*
G01*
G75*
G03X134114Y197505I1938J895*
G01*
G75*
G03X134348Y197242I1259J882*
G01*
G75*
G03X134599Y197071I763J852*
G01*
G75*
G03X134843Y197014I244J487*
G01*
G75*
G02X134943Y196996J-296*
G01*
G75*
G02X135067Y196940I-297J-818*
G01*
G75*
G02X135191Y196859I-485J-877*
G01*
G75*
G02X135297Y196764I-522J-689*
G01*
G75*
G03X135444Y196634I741J693*
G01*
G75*
G03X135593Y196560I304J424*
G01*
G75*
G03X135787Y196524I249J798*
G01*
G75*
G03X136097Y196514I304J4685*
G01*
G75*
G03X136608Y196568J2432*
G01*
G75*
G03X136901Y196743I-111J520*
G01*
G75*
G03X137054Y197081I-507J432*
G01*
G75*
G03X137097Y197689I-4254J609*
G01*
G75*
G03X137089Y197967I-5305J-4*
G01*
G75*
G03X137067Y198211I-3219J-168*
G01*
G75*
G03X137036Y198406I-3293J-423*
G01*
G75*
G03X136997Y198464I-85J-16*
G01*
G75*
G02X136883Y198667I126J204*
G01*
G75*
G02X136892Y199833I50890J188*
G01*
G75*
G02X136935Y200954I28845J-554*
G01*
G75*
G02X137053Y201396I1136J-66*
G01*
G75*
G02X137398Y201866I1538J-768*
G01*
G75*
G02X137828Y202087I582J-604*
G01*
G75*
G02X138323Y202040I166J-893*
G01*
G75*
G02X138863Y201731I-763J-1959*
G01*
G75*
G03X139887Y200931I81718J103483*
G01*
G75*
G03X140788Y200244I46543J60161*
G01*
G75*
G03X141589Y199646I172811J230375*
G01*
G75*
G03X141686Y199614I96J130*
G01*
G75*
G02X141727Y199604I-1J-91*
G01*
G75*
G02X141783Y199570I-202J-398*
G01*
G75*
G02X141842Y199522I-319J-456*
G01*
G75*
G02X141895Y199466I-422J-449*
G01*
G75*
G03X142027Y199342I560J463*
G01*
G75*
G03X142226Y199214I1215J1677*
G01*
G75*
G03X142602Y199011I5613J9930*
G01*
G75*
G03X143715Y198438I241887J468609*
G01*
G75*
G03X144187Y198204I8817J17175*
G01*
G75*
G03X144639Y197996I6650J13874*
G01*
G75*
G03X145025Y197833I5891J13386*
G01*
G75*
G03X145221Y197775I386J946*
G01*
G75*
G03X145410Y197756I201J1078*
G01*
G75*
G03X145735Y197758I111J8470*
G01*
G75*
G03X146111Y197776I-250J9520*
G01*
G75*
G03X146493Y197808I-669J10183*
G01*
G75*
G03X147020Y197871I-1672J16119*
G01*
G75*
G03X147313Y197935I-257J1875*
G01*
G75*
G03X147519Y198028I-252J832*
G01*
G75*
G03X147711Y198178I-616J994*
G01*
G75*
G03X147841Y198321I-929J968*
G01*
G75*
G03X147929Y198464I-603J472*
G01*
G75*
G03X147980Y198614I-606J287*
G01*
G75*
G03X147997Y198779I-787J166*
G01*
G75*
G03X147941Y199063I-744*
G01*
G75*
G03X147782Y199230I-296J-122*
G01*
G75*
G03X147511Y199277I-222J-465*
G01*
G75*
G03X147110Y199202I218J-2257*
G01*
G75*
G02X146918Y199154I-857J3015*
G01*
G75*
G02X146724Y199118I-652J3020*
G01*
G75*
G02X146554Y199098I-400J2658*
G01*
G75*
G02X146447Y199102I-39J440*
G01*
G75*
G02X146129Y199196I197J1244*
G01*
G75*
G02X145539Y199475I6409J14342*
G01*
G75*
G02X144926Y199799I6229J12519*
G01*
G75*
G02X144447Y200097I3037J5411*
G01*
G75*
G02X143313Y200945I10113J14699*
G01*
G75*
G02X142124Y201970I16989J20935*
G01*
G75*
G02X141093Y202956I20836J22807*
G01*
G75*
G02X140732Y203490I1205J1203*
G01*
G75*
G02X140662Y203683I1735J740*
G01*
G75*
G02X140646Y203817I371J113*
G01*
G75*
G02X140677Y203953I417J-23*
G01*
G75*
G02X140770Y204151I2166J-895*
G01*
G75*
G02X141014Y204489I1322J-698*
G01*
G75*
G02X141764Y205252I32167J-30869*
G01*
G75*
G02X142569Y206042I66460J-66914*
G01*
G75*
G02X142746Y206114I178J-183*
G01*
G75*
G03X142792Y206128J83*
G01*
G75*
G03X142934Y206224I-3746J5679*
G01*
G75*
G03X143100Y206345I-2857J4089*
G01*
G75*
G03X143283Y206489I-4956J6502*
G01*
G75*
G02X143473Y206639I10356J-12837*
G01*
G75*
G02X143659Y206783I8960J-11426*
G01*
G75*
G02X143820Y206903I8043J-10618*
G01*
G75*
G02X143910Y206964I792J-1073*
G01*
G75*
G03X144016Y207040I-471J769*
G01*
G75*
G03X144341Y207313I-37254J44552*
G01*
G75*
G03X144724Y207643I-27996J32972*
G01*
G75*
G03X145147Y208014I-43737J50333*
G01*
G75*
G02X145571Y208382I24286J-27491*
G01*
G75*
G02X145954Y208704I15023J-17525*
G01*
G75*
G02X146281Y208968I20731J-25271*
G01*
G75*
G02X146384Y209028I254J-318*
G01*
G75*
G03X146580Y209150I-238J600*
G01*
G75*
G03X146830Y209404I-2281J2506*
G01*
G75*
G03X147081Y209716I-2867J2557*
G01*
G75*
G03X147287Y210042I-2666J1917*
G01*
G75*
G03X147445Y210456I-1369J758*
G01*
G75*
G03X147503Y210944I-2307J521*
G01*
G75*
G03X147460Y211388I-2050J28*
G01*
G75*
G03X147309Y211652I-480J-100*
G01*
G75*
G02X147230Y211752I261J288*
G01*
G75*
G02X147159Y211905I1010J559*
G01*
G75*
G02X147103Y212090I1363J516*
G01*
G75*
G02X147069Y212289I1709J396*
G01*
G75*
G03X147025Y212540I-2065J-231*
G01*
G75*
G03X146955Y212729I-812J-194*
G01*
G75*
G03X146841Y212898I-764J-395*
G01*
G75*
G03X146658Y213085I-1729J-1502*
G01*
G75*
G03X146429Y213273I-1822J-1985*
G01*
G75*
G03X146249Y213364I-362J-496*
G01*
G75*
G03X146024Y213404I-268J-858*
G01*
G75*
G03X145605Y213414I-424J-8800*
G01*
G75*
G03X145322Y213407I7J-5930*
G01*
G75*
G03X145046Y213387I254J-5393*
G01*
G75*
G03X144810Y213357I476J-4748*
G01*
G75*
G03X144678Y213322I88J-589*
G01*
G75*
G03X144388Y213145I377J-947*
G01*
G75*
G03X143084Y212009I169264J-195633*
G01*
G75*
G03X141480Y210583I98045J-111835*
G01*
G75*
G03X139467Y208752I254204J-281537*
G01*
G75*
G02X138813Y208162I-36897J40278*
G01*
G75*
G02X138238Y207665I-20111J22685*
G01*
G75*
G02X137739Y207248I-45751J54272*
G01*
G75*
G02X137642Y207214I-96J117*
G01*
G75*
G02X137574Y207245J90*
G01*
G75*
G02X137528Y207330I164J143*
G01*
G75*
G02X137504Y207485I705J192*
G01*
G75*
G02X137497Y207744I4922J257*
G01*
G75*
G02X137503Y207954I3304J6*
G01*
G75*
G02X137524Y208146I2371J-156*
G01*
G75*
G02X137552Y208302I2112J-306*
G01*
G75*
G02X137588Y208369I136J-30*
G01*
G75*
G03X137626Y208435I-114J109*
G01*
G75*
G03X137666Y208597I-2552J719*
G01*
G75*
G03X137701Y208796I-2799J596*
G01*
G75*
G03X137726Y209014I-3919J550*
G01*
G75*
G02X137752Y209277I8666J-735*
G01*
G75*
G02X137794Y209622I25190J-2927*
G01*
G75*
G02X137844Y209986I26815J-3471*
G01*
G75*
G02X137894Y210314I17730J-2539*
G01*
G75*
G03X137976Y211010I-7869J1274*
G01*
G75*
G03X137964Y211550I-2868J210*
G01*
G75*
G03X137861Y211975I-1763J-204*
G01*
G75*
G03X137662Y212313I-1093J-415*
G01*
G75*
G02X137554Y212462I959J809*
G01*
G75*
G02X137470Y212625I1066J657*
G01*
G75*
G02X137415Y212787I1006J431*
G01*
G75*
G02X137397Y212931I564J144*
G01*
G75*
G03X137344Y213214I-799J-1*
G01*
G75*
G03X137190Y213511I-1341J-507*
G01*
G75*
G03X136963Y213776I-1282J-871*
G01*
G75*
G03X136694Y213965I-827J-893*
G01*
G75*
G03X136384Y214062I-433J-835*
G01*
G75*
G03X135880Y214103I-666J-5073*
G01*
G75*
G03X135372Y214094I-164J-5077*
G01*
G75*
G03X135041Y214018I74J-1074*
G01*
X135532Y194015D02*
G75*
G03X135293Y193861I285J-706D01*
G01*
G75*
G03X135126Y193630I534J-563*
G01*
G75*
G03X135028Y193308I1035J-491*
G01*
G75*
G03X134997Y192883I2852J-422*
G01*
G75*
G03X135007Y192549I5202J-2*
G01*
G75*
G03X135046Y192348I796J50*
G01*
G75*
G03X135131Y192188I533J178*
G01*
G75*
G03X135289Y192006I1375J1034*
G01*
G75*
G03X135479Y191842I1193J1193*
G01*
G75*
G03X135646Y191759I317J428*
G01*
G75*
G03X135868Y191722I262J895*
G01*
G75*
G03X136289Y191714I412J9806*
G01*
X136997*
Y192014*
G75*
G03X136985Y192191I-1326J-3*
G01*
G75*
G03X136939Y192269I-119J-16*
G01*
G75*
G03X136843Y192306I-107J-140*
G01*
G75*
G03X136609Y192314I-239J-3463*
G01*
G75*
G02X136447Y192324I-1J1227*
G01*
G75*
G02X136296Y192356I133J1005*
G01*
G75*
G02X136172Y192404I222J755*
G01*
G75*
G02X136097Y192464I100J205*
G01*
G75*
G02X136102Y192539I42J35*
G01*
G75*
G02X136208Y192588I131J-146*
G01*
G75*
G02X136506Y192609I327J-2482*
G01*
G75*
G02X137234Y192614I741J-63288*
G01*
X138497*
Y193156*
G75*
G03X138487Y193460I-4631J-4*
G01*
G75*
G03X138450Y193640I-674J-44*
G01*
G75*
G03X138373Y193773I-391J-137*
G01*
G75*
G03X138233Y193906I-761J-656*
G01*
G75*
G03X138044Y194017I-497J-632*
G01*
G75*
G03X137826Y194077I-351J-846*
G01*
G75*
G03X137495Y194104I-372J-2543*
G01*
G75*
G03X136858Y194107I-464J-29460*
G01*
G75*
G03X136417Y194098I86J-15632*
G01*
G75*
G03X136010Y194078I377J-11326*
G01*
G75*
G03X135672Y194049I815J-11616*
G01*
G75*
G03X135532Y194015I50J-504*
G01*
X135713Y193626D02*
G75*
G03X135664Y193576I80J-128D01*
G01*
G75*
G03X135628Y193496I313J-188*
G01*
G75*
G03X135610Y193400I424J-131*
G01*
G75*
G03X135613Y193302I443J-35*
G01*
G75*
G03X135673Y193165I274J39*
G01*
G75*
G03X135791Y193094I158J130*
G01*
G75*
G03X136043Y193068I266J1324*
G01*
G75*
G03X136795Y193064I752J65246*
G01*
G75*
G03X137487Y193069I15J48394*
G01*
G75*
G03X137771Y193094I-29J1938*
G01*
G75*
G03X137913Y193152I-55J337*
G01*
G75*
G03X137981Y193257I-97J137*
G01*
G75*
G03X137939Y193468I-278J54*
G01*
G75*
G03X137757Y193612I-312J-208*
G01*
G75*
G03X137385Y193691I-460J-1241*
G01*
G75*
G03X136752Y193712I-620J-9211*
G01*
G75*
G03X136396Y193705I27J-10324*
G01*
G75*
G03X136074Y193686I245J-6924*
G01*
G75*
G03X135807Y193659I637J-7573*
G01*
G75*
G03X135713Y193626I27J-224*
G01*
X137439Y193453D02*
G75*
G02X137556Y193360I-89J-234D01*
G01*
G75*
G02X137530Y193279I-44J-30*
G01*
G75*
G02X137259Y193227I-320J927*
G01*
G75*
G02X136747Y193214I-510J9994*
G01*
G75*
G02X136250Y193227I-4J9096*
G01*
G75*
G02X135970Y193279I61J1108*
G01*
G75*
G02X135933Y193358I18J57*
G01*
G75*
G02X136022Y193447I149J-59*
G01*
G75*
G02X136233Y193493I238J-589*
G01*
G75*
G02X136728Y193504I548J-13046*
G01*
G75*
G02X137223Y193497I53J-12867*
G01*
G75*
G02X137439Y193453I-24J-666*
G01*
X137994Y193650D02*
G75*
G02X138141Y193512I-1103J-1312D01*
G01*
G75*
G02X138230Y193387I-432J-406*
G01*
G75*
G02X138273Y193263I-360J-194*
G01*
G75*
G02X138277Y193125I-475J-82*
G01*
X138247Y192864*
X136948Y192814*
G75*
G03X136174Y192779I2286J-59069*
G01*
G75*
G03X135849Y192741I131J-2541*
G01*
G75*
G03X135686Y192678I83J-459*
G01*
G75*
G03X135612Y192570I86J-139*
G01*
G75*
G03X135639Y192391I270J-51*
G01*
G75*
G03X135773Y192243I350J183*
G01*
G75*
G03X136008Y192146I379J584*
G01*
G75*
G03X136316Y192114I306J1456*
G01*
G75*
G02X136462Y192106I-2J-1475*
G01*
G75*
G02X136585Y192084I-78J-789*
G01*
G75*
G02X136672Y192052I-126J-481*
G01*
G75*
G02X136671Y191975I-18J-39*
G01*
G75*
G02X136576Y191943I-235J543*
G01*
G75*
G02X136444Y191921I-216J889*
G01*
G75*
G02X136287Y191914I-156J1702*
G01*
G75*
G02X135899Y191995I0J964*
G01*
G75*
G02X135541Y192229I526J1198*
G01*
G75*
G02X135285Y192558I835J910*
G01*
G75*
G02X135197Y192914I668J355*
G01*
G75*
G02X135217Y193081I717J0*
G01*
G75*
G02X135275Y193238I680J-163*
G01*
G75*
G02X135379Y193398I836J-431*
G01*
G75*
G02X135537Y193574I1723J-1387*
G01*
G75*
G02X135768Y193779I1815J-1815*
G01*
G75*
G02X135949Y193870I316J-404*
G01*
G75*
G02X136196Y193906I274J-999*
G01*
G75*
G02X136779Y193914I584J-22799*
G01*
G75*
G02X137318Y193906I-1J-18514*
G01*
G75*
G02X137590Y193872I-45J-1489*
G01*
G75*
G02X137785Y193797I-143J-661*
G01*
G75*
G02X137994Y193650I-733J-1266*
G01*
X140272Y193007D02*
G75*
G03X140142Y192848I151J-254D01*
G01*
G75*
G03X140094Y192572I871J-294*
G01*
G75*
G03X140131Y192306I849J-17*
G01*
G75*
G03X140255Y192174I197J61*
G01*
G75*
G03X140362Y192150I135J350*
G01*
G75*
G03X140669Y192131I1052J14573*
G01*
G75*
G03X141037Y192118I642J12571*
G01*
G75*
G03X141443Y192114I402J18617*
G01*
G75*
G03X142192Y192132J15503*
G01*
G75*
G03X142514Y192216I-39J806*
G01*
G75*
G03X142656Y192397I-121J242*
G01*
G75*
G03X142678Y192732I-1015J235*
G01*
X142647Y193064*
X141547Y193087*
G75*
G03X141103Y193089I-279J-12929*
G01*
G75*
G03X140712Y193074I104J-7857*
G01*
G75*
G03X140395Y193048I481J-7697*
G01*
G75*
G03X140272Y193007I31J-302*
G01*
X141279Y193849D02*
G75*
G02X141239Y193682I-715J81D01*
G01*
G75*
G02X141165Y193597I-147J54*
G01*
G75*
G02X141015Y193551I-199J383*
G01*
G75*
G02X140632Y193514I-1293J11270*
G01*
G75*
G03X140114Y193433I289J-3545*
G01*
G75*
G03X139810Y193277I159J-683*
G01*
G75*
G03X139649Y193016I344J-393*
G01*
G75*
G03X139597Y192606I1573J-409*
G01*
G75*
G03X139608Y192346I3025J-2*
G01*
G75*
G03X139646Y192179I607J53*
G01*
G75*
G03X139724Y192050I403J154*
G01*
G75*
G03X139860Y191921I761J666*
G01*
G75*
G03X140058Y191808I474J602*
G01*
G75*
G03X140296Y191748I372J965*
G01*
G75*
G03X140672Y191720I430J3283*
G01*
G75*
G03X141441Y191714I769J46886*
G01*
G75*
G03X142542Y191741I5J22430*
G01*
G75*
G03X142954Y191878I-39J804*
G01*
G75*
G03X143146Y192187I-252J371*
G01*
G75*
G03X143197Y192902I-5060J716*
G01*
G75*
G03X143157Y193548I-5317*
G01*
G75*
G03X143007Y193862I-546J-67*
G01*
G75*
G03X142698Y194026I-404J-389*
G01*
G75*
G03X142045Y194098I-935J-5503*
G01*
X141312Y194135*
X141279Y193849*
X142437Y192830D02*
G75*
G02X142446Y192783I-60J-37D01*
G01*
G75*
G02X142429Y192707I-426J59*
G01*
G75*
G02X142391Y192619I-561J188*
G01*
G75*
G02X142337Y192530I-723J378*
G01*
G75*
G02X142224Y192415I-394J276*
G01*
G75*
G02X142084Y192351I-235J327*
G01*
G75*
G02X141866Y192321I-257J1052*
G01*
G75*
G02X141449Y192314I-409J11775*
G01*
G75*
G02X141156Y192318I-4J9706*
G01*
G75*
G02X140883Y192331I220J7283*
G01*
G75*
G02X140655Y192350I481J7169*
G01*
G75*
G02X140555Y192374I39J386*
G01*
G75*
G02X140436Y192463I98J255*
G01*
G75*
G02X140404Y192586I128J99*
G01*
G75*
G02X140472Y192715I220J-33*
G01*
G75*
G02X140622Y192811I330J-349*
G01*
G75*
G02X140942Y192882I378J-943*
G01*
G75*
G02X141611Y192905I826J-14143*
G01*
G75*
G02X142307Y192904I288J-26763*
G01*
G75*
G02X142437Y192830I-2J-155*
G01*
X142753Y193608D02*
G75*
G02X142947Y193304I-504J-536D01*
G01*
G75*
G02X143014Y192892I-1233J-412*
G01*
G75*
G02X142946Y192475I-1327J2*
G01*
G75*
G02X142751Y192159I-765J254*
G01*
G75*
G02X142574Y192021I-636J636*
G01*
G75*
G02X142386Y191950I-296J500*
G01*
G75*
G02X142096Y191920I-326J1711*
G01*
G75*
G02X141459Y191914I-627J31210*
G01*
G75*
G02X140820Y191920I-13J29203*
G01*
G75*
G02X140522Y191952I39J1799*
G01*
G75*
G02X140317Y192026I131J680*
G01*
G75*
G02X140104Y192172I644J1165*
G01*
G75*
G02X139987Y192285I831J987*
G01*
G75*
G02X139887Y192409I858J793*
G01*
G75*
G02X139817Y192526I774J539*
G01*
G75*
G02X139797Y192614I176J87*
G01*
G75*
G02X139817Y192701I195J0*
G01*
G75*
G02X139887Y192819I844J-422*
G01*
G75*
G02X139987Y192942I958J-670*
G01*
G75*
G02X140104Y193055I949J-874*
G01*
G75*
G02X140319Y193202I847J-1005*
G01*
G75*
G02X140526Y193276I335J-611*
G01*
G75*
G02X140831Y193307I343J-1850*
G01*
G75*
G02X141498Y193314I681J-32739*
G01*
G75*
G03X141965Y193320I7J15731*
G01*
G75*
G03X142318Y193343I-161J5341*
G01*
G75*
G03X142579Y193376I-433J4522*
G01*
G75*
G03X142654Y193425I-16J106*
G01*
G75*
G03X142657Y193534I-94J58*
G01*
G75*
G03X142562Y193628I-192J-100*
G01*
G75*
G03X142360Y193691I-298J-596*
G01*
G75*
G03X142078Y193712I-291J-2022*
G01*
G75*
G02X141931Y193721I6J1281*
G01*
G75*
G02X141796Y193747I116J980*
G01*
G75*
G02X141689Y193784I193J733*
G01*
G75*
G02X141637Y193828I45J104*
G01*
G75*
G02X141691Y193926I55J34*
G01*
G75*
G02X142045Y193894I19J-1724*
G01*
G75*
G02X142482Y193773I-593J-3004*
G01*
G75*
G02X142753Y193608I-262J-732*
G01*
X144402Y193869D02*
G75*
G03X144288Y193728I879J-827D01*
G01*
G75*
G03X144230Y193603I337J-232*
G01*
G75*
G03X144215Y193463I424J-115*
G01*
G75*
G03X144239Y193269I1521J88*
G01*
G75*
G03X144373Y192956I766J143*
G01*
G75*
G03X144622Y192754I502J364*
G01*
G75*
G03X145035Y192645I536J1195*
G01*
G75*
G03X145700Y192614I663J7049*
G01*
G75*
G02X146095Y192608I-6J-13604*
G01*
G75*
G02X146325Y192586I-53J-1754*
G01*
G75*
G02X146446Y192548I-70J-442*
G01*
G75*
G02X146472Y192489I-21J-44*
G01*
G75*
G02X146406Y192428I-87J29*
G01*
G75*
G02X146186Y192387I-531J2202*
G01*
G75*
G02X145855Y192355I-541J3927*
G01*
G75*
G02X145363Y192335I-987J18154*
G01*
X144297Y192307*
Y191714*
X145624*
G75*
G03X146662Y191735I4J25626*
G01*
G75*
G03X147109Y191833I-52J1294*
G01*
G75*
G03X147322Y192052I-150J359*
G01*
G75*
G03X147397Y192454I-1042J402*
G01*
G75*
G03X147344Y192845I-1491J0*
G01*
G75*
G03X147184Y193070I-383J-104*
G01*
G75*
G03X146869Y193183I-383J-567*
G01*
G75*
G03X146272Y193214I-600J-5922*
G01*
G75*
G02X145970Y193218I-4J10295*
G01*
G75*
G02X145689Y193231I225J7646*
G01*
G75*
G02X145456Y193250I498J7622*
G01*
G75*
G02X145355Y193274I38J383*
G01*
G75*
G02X145217Y193359I158J412*
G01*
G75*
G02X145219Y193438I35J39*
G01*
G75*
G02X145362Y193498I173J-211*
G01*
G75*
G02X145647Y193514I285J-2564*
G01*
G75*
G03X145928Y193520I3J5796*
G01*
G75*
G03X146034Y193555I-10J209*
G01*
G75*
G03X146083Y193633I-63J94*
G01*
G75*
G03X146097Y193814I-1237J183*
G01*
Y194114*
X145364*
G75*
G03X144943Y194106I0J-10730*
G01*
G75*
G03X144716Y194072I44J-1097*
G01*
G75*
G03X144557Y194001I126J-493*
G01*
G75*
G03X144402Y193869I510J-757*
G01*
X145797Y193819D02*
G75*
G02X145770Y193780I-42D01*
G01*
G75*
G02X145657Y193743I-367J928*
G01*
G75*
G02X145504Y193713I-335J1271*
G01*
G75*
G02X145322Y193694I-339J2425*
G01*
G75*
G03X145079Y193670I234J-3621*
G01*
G75*
G03X144937Y193631I68J-520*
G01*
G75*
G03X144855Y193567I85J-193*
G01*
G75*
G03X144812Y193470I179J-138*
G01*
G75*
G03X144852Y193265I278J-53*
G01*
G75*
G03X145026Y193120I315J202*
G01*
G75*
G03X145371Y193037I443J1089*
G01*
G75*
G03X145934Y193014I562J6787*
G01*
G75*
G02X146379Y193006I-6J-12293*
G01*
G75*
G02X146632Y192974I-54J-1484*
G01*
G75*
G02X146807Y192910I-135J-637*
G01*
G75*
G02X146965Y192796I-360J-666*
G01*
G75*
G02X147136Y192603I-956J-1017*
G01*
G75*
G02X147183Y192449I-195J-143*
G01*
G75*
G02X147122Y192300I-243J12*
G01*
G75*
G02X146933Y192121I-1072J944*
G01*
G75*
G02X146748Y192011I-502J639*
G01*
G75*
G02X146534Y191950I-359J844*
G01*
G75*
G02X146217Y191921I-377J2365*
G01*
G75*
G02X145633Y191914I-577J23454*
G01*
G75*
G02X145209Y191920I-8J13751*
G01*
G75*
G02X144881Y191941I155J5035*
G01*
G75*
G02X144634Y191971I510J5243*
G01*
G75*
G02X144633Y192056I6J43*
G01*
G75*
G02X144878Y192087I758J-5118*
G01*
G75*
G02X145203Y192108I485J-4919*
G01*
G75*
G02X145622Y192115I435J-13339*
G01*
G75*
G03X146024Y192122I-30J13146*
G01*
G75*
G03X146385Y192141I-267J8556*
G01*
G75*
G03X146684Y192168I-750J10048*
G01*
G75*
G03X146780Y192202I-24J222*
G01*
G75*
G03X146829Y192251I-80J128*
G01*
G75*
G03X146865Y192331I-313J188*
G01*
G75*
G03X146883Y192427I-424J131*
G01*
G75*
G03X146880Y192525I-443J35*
G01*
G75*
G03X146827Y192661I-308J-43*
G01*
G75*
G03X146722Y192737I-163J-115*
G01*
G75*
G03X146507Y192777I-287J-934*
G01*
G75*
G03X145941Y192814I-2234J-30134*
G01*
G75*
G02X145514Y192846I546J9952*
G01*
G75*
G02X145188Y192894I349J3534*
G01*
G75*
G02X144941Y192957I401J2074*
G01*
G75*
G02X144767Y193041I220J685*
G01*
G75*
G02X144575Y193194I726J1105*
G01*
G75*
G02X144511Y193328I146J152*
G01*
G75*
G02X144550Y193477I231J19*
G01*
G75*
G02X144714Y193682I1370J-926*
G01*
G75*
G02X144841Y193792I585J-552*
G01*
G75*
G02X144979Y193863I334J-479*
G01*
G75*
G02X145146Y193901I251J-707*
G01*
G75*
G02X145364Y193914I221J-1928*
G01*
G75*
G02X145530Y193907I-3J-2015*
G01*
G75*
G02X145670Y193886I-87J-1061*
G01*
G75*
G02X145771Y193856I-156J-719*
G01*
G75*
G02X145797Y193819I-14J-37*
G01*
X148497Y193129D02*
G75*
G03X148537Y192262I9276J-1D01*
G01*
G75*
G03X148718Y191934I467J44*
G01*
G75*
G03X149111Y191790I425J550*
G01*
G75*
G03X150266Y191764I1153J25185*
G01*
G75*
G03X151380Y191793I3J21196*
G01*
G75*
G03X151774Y191945I-35J679*
G01*
G75*
G03X151956Y192286I-315J387*
G01*
G75*
G03X151997Y193175I-9636J889*
G01*
Y194114*
X151297*
Y193369*
G75*
G02X151258Y192786I-4429J0*
G01*
G75*
G02X151115Y192496I-502J67*
G01*
G75*
G02X150826Y192352I-356J355*
G01*
G75*
G02X150247Y192314I-577J4300*
G01*
G75*
G02X149667Y192352I-2J4342*
G01*
G75*
G02X149378Y192496I67J498*
G01*
G75*
G02X149235Y192786I359J357*
G01*
G75*
G02X149197Y193369I4391J580*
G01*
Y194114*
X148497*
Y193129*
X148997Y193067D02*
G75*
G03X149031Y192490I4816J0D01*
G01*
G75*
G03X149171Y192246I358J43*
G01*
G75*
G03X149468Y192136I329J431*
G01*
G75*
G03X150247Y192114I777J13444*
G01*
G75*
G03X151025Y192136I2J13460*
G01*
G75*
G03X151322Y192246I-31J541*
G01*
G75*
G03X151462Y192490I-219J287*
G01*
G75*
G03X151497Y193067I-4781J580*
G01*
G75*
G02X151503Y193455I12596J2*
G01*
G75*
G02X151527Y193664I1257J-39*
G01*
G75*
G02X151572Y193774I298J-59*
G01*
G75*
G02X151647Y193814I74J-50*
G01*
G75*
G02X151719Y193780I0J-94*
G01*
G75*
G02X151765Y193687I-178J-148*
G01*
G75*
G02X151790Y193515I-846J-209*
G01*
G75*
G02X151797Y193207I-7361J-314*
G01*
G75*
G02X151720Y192545I-2911J1*
G01*
G75*
G02X151479Y192165I-665J155*
G01*
G75*
G02X151012Y191968I-588J744*
G01*
G75*
G02X150159Y191914I-850J6618*
G01*
G75*
G02X149662Y191922I-11J15049*
G01*
G75*
G02X149399Y191955I46J1416*
G01*
G75*
G02X149207Y192030I149J663*
G01*
G75*
G02X149004Y192172I707J1224*
G01*
G75*
G02X148828Y192345I1070J1270*
G01*
G75*
G02X148742Y192495I319J282*
G01*
G75*
G02X148705Y192701I733J238*
G01*
G75*
G02X148697Y193122I10287J413*
G01*
G75*
G02X148703Y193479I10349J7*
G01*
G75*
G02X148727Y193673I1094J-39*
G01*
G75*
G02X148773Y193776I268J-57*
G01*
G75*
G02X148847Y193814I74J-54*
G01*
G75*
G02X148921Y193774I0J-89*
G01*
G75*
G02X148967Y193664I-252J-169*
G01*
G75*
G02X148991Y193455I-1233J-248*
G01*
G75*
G02X148997Y193067I-12590J-398*
G01*
X153314Y193882D02*
G75*
G03X153197Y193716I528J-495D01*
G01*
G75*
G03X153133Y193527I609J-312*
G01*
G75*
G03X153104Y193239I1850J-335*
G01*
G75*
G03X153097Y192682I21918J-542*
G01*
Y191714*
X153797*
Y192510*
G75*
G02X153820Y193076I6993J2*
G01*
G75*
G02X153915Y193343I545J-44*
G01*
G75*
G02X154111Y193474I263J-182*
G01*
G75*
G02X154490Y193514I379J-1785*
G01*
G75*
G03X154664Y193524I2J1491*
G01*
G75*
G03X154746Y193563I-17J140*
G01*
G75*
G03X154786Y193644I-96J98*
G01*
G75*
G03X154797Y193814I-1368J171*
G01*
Y194114*
X154164*
G75*
G03X153817Y194104I5J-6576*
G01*
G75*
G03X153608Y194071I52J-993*
G01*
G75*
G03X153456Y194002I138J-507*
G01*
G75*
G03X153314Y193882I443J-670*
G01*
X154497Y193814D02*
G75*
G02X154476Y193775I-46J0D01*
G01*
G75*
G02X154411Y193743I-157J234*
G01*
G75*
G02X154317Y193721I-157J460*
G01*
G75*
G02X154205Y193714I-110J855*
G01*
G75*
G03X153849Y193685I1J-2202*
G01*
G75*
G03X153686Y193580I40J-240*
G01*
G75*
G03X153612Y193358I369J-246*
G01*
G75*
G03X153597Y192803I9989J-554*
G01*
G75*
G02X153591Y192390I-14492J1*
G01*
G75*
G02X153567Y192170I-1388J41*
G01*
G75*
G02X153521Y192055I-325J62*
G01*
G75*
G02X153447Y192014I-74J47*
G01*
G75*
G02X153373Y192052I0J91*
G01*
G75*
G02X153327Y192156I228J162*
G01*
G75*
G02X153303Y192354I1111J237*
G01*
G75*
G02X153297Y192718I10857J358*
G01*
G75*
G02X153306Y193118I9148J2*
G01*
G75*
G02X153339Y193343I1090J-47*
G01*
G75*
G02X153411Y193507I534J-138*
G01*
G75*
G02X153542Y193668I840J-548*
G01*
G75*
G02X153778Y193823I493J-493*
G01*
G75*
G02X154113Y193914I567J-1430*
G01*
G75*
G02X154403Y193919I164J-1080*
G01*
G75*
G02X154497Y193814I-12J-106*
G01*
X156147Y193998D02*
G75*
G03X156061Y193945I433J-796D01*
G01*
G75*
G03X155969Y193875I900J-1284*
G01*
G75*
G03X155884Y193800I960J-1172*
G01*
G75*
G03X155822Y193732I466J-488*
G01*
G75*
G03X155737Y193525I309J-246*
G01*
G75*
G03X155700Y192998I8720J-877*
G01*
G75*
G03X155698Y192468I7293J-298*
G01*
G75*
G03X155759Y192168I919J30*
G01*
G75*
G03X155906Y191980I385J148*
G01*
G75*
G03X156183Y191835I659J930*
G01*
G75*
G03X156569Y191744I620J1750*
G01*
G75*
G03X157042Y191714I472J3715*
G01*
X157697*
Y192014*
G75*
G03X157685Y192187I-1365J-3*
G01*
G75*
G03X157643Y192267I-126J-16*
G01*
G75*
G03X157555Y192305I-103J-117*
G01*
G75*
G03X157355Y192314I-200J-2211*
G01*
G75*
G02X157085Y192328I-2J2607*
G01*
G75*
G02X156877Y192371I107J1030*
G01*
G75*
G02X156741Y192438I154J481*
G01*
G75*
G02X156697Y192524I61J86*
G01*
G75*
G02X156730Y192560I36*
G01*
G75*
G02X157064Y192587I1557J-17085*
G01*
G75*
G02X157467Y192607I644J-9052*
G01*
G75*
G02X157947Y192614I490J-17894*
G01*
X159197*
Y193118*
G75*
G03X159185Y193385I-3109J-4*
G01*
G75*
G03X159147Y193570I-822J-70*
G01*
G75*
G03X159074Y193720I-565J-184*
G01*
G75*
G03X158951Y193868I-848J-579*
G01*
G75*
G03X158769Y194007I-610J-610*
G01*
G75*
G03X158572Y194078I-298J-522*
G01*
G75*
G03X158259Y194106I-339J-2002*
G01*
G75*
G03X157526Y194111I-632J-44894*
G01*
G75*
G03X157055Y194102I36J-14162*
G01*
G75*
G03X156631Y194077I334J-9344*
G01*
G75*
G03X156283Y194042I773J-9422*
G01*
G75*
G03X156147Y193998I45J-374*
G01*
X156301Y193569D02*
G75*
G03X156257Y193500I246J-204D01*
G01*
G75*
G03X156226Y193413I469J-220*
G01*
G75*
G03X156210Y193323I494J-131*
G01*
G75*
G03X156215Y193243I296J-22*
G01*
G75*
G03X156285Y193146I140J27*
G01*
G75*
G03X156440Y193093I221J389*
G01*
G75*
G03X156746Y193069I340J2326*
G01*
G75*
G03X157447Y193064I678J48517*
G01*
G75*
G03X158170Y193069I11J53707*
G01*
G75*
G03X158465Y193093I-27J2084*
G01*
G75*
G03X158611Y193151I-56J356*
G01*
G75*
G03X158681Y193257I-93J137*
G01*
G75*
G03X158637Y193470I-278J53*
G01*
G75*
G03X158450Y193614I-315J-214*
G01*
G75*
G03X158064Y193693I-473J-1340*
G01*
G75*
G03X157390Y193714I-680J-10870*
G01*
G75*
G03X156913Y193707I2J-16181*
G01*
G75*
G03X156607Y193682I87J-2981*
G01*
G75*
G03X156407Y193639I173J-1283*
G01*
G75*
G03X156301Y193569I63J-211*
G01*
X158139Y193453D02*
G75*
G02X158256Y193360I-89J-234D01*
G01*
G75*
G02X158230Y193279I-44J-30*
G01*
G75*
G02X157959Y193227I-320J927*
G01*
G75*
G02X157447Y193214I-510J9994*
G01*
G75*
G02X156940Y193223I-6J13865*
G01*
G75*
G02X156695Y193263I36J981*
G01*
G75*
G02X156628Y193341I28J91*
G01*
G75*
G02X156663Y193447I123J19*
G01*
G75*
G02X156792Y193502I134J-134*
G01*
G75*
G02X157352Y193512I643J-21537*
G01*
G75*
G02X157894Y193503I52J-13092*
G01*
G75*
G02X158139Y193453I-28J-761*
G01*
X158711Y193614D02*
G75*
G02X158838Y193471I-1115J-1113D01*
G01*
G75*
G02X158926Y193334I-665J-521*
G01*
G75*
G02X158973Y193205I-524J-267*
G01*
G75*
G02X158979Y193089I-300J-72*
G01*
G75*
G02X158911Y192960I-217J31*
G01*
G75*
G02X158772Y192888I-198J211*
G01*
G75*
G02X158476Y192850I-392J1889*
G01*
G75*
G02X157648Y192814I-3693J74994*
G01*
G75*
G03X156874Y192779I2286J-59069*
G01*
G75*
G03X156549Y192741I131J-2541*
G01*
G75*
G03X156386Y192678I83J-459*
G01*
G75*
G03X156312Y192570I86J-139*
G01*
G75*
G03X156339Y192391I270J-51*
G01*
G75*
G03X156473Y192243I350J183*
G01*
G75*
G03X156708Y192146I379J584*
G01*
G75*
G03X157016Y192114I306J1456*
G01*
G75*
G02X157165Y192106I-3J-1402*
G01*
G75*
G02X157287Y192081I-73J-684*
G01*
G75*
G02X157371Y192045I-109J-374*
G01*
G75*
G02X157365Y191954I-25J-44*
G01*
G75*
G02X157268Y191929I-143J346*
G01*
G75*
G02X157108Y191922I-121J983*
G01*
G75*
G02X156878Y191938I178J4204*
G01*
G75*
G02X156446Y192035I167J1756*
G01*
G75*
G02X156140Y192231I282J779*
G01*
G75*
G02X155959Y192529I531J526*
G01*
G75*
G02X155897Y192927I1241J398*
G01*
G75*
G02X155912Y193139I1499J0*
G01*
G75*
G02X155958Y193306I672J-95*
G01*
G75*
G02X156046Y193457I640J-269*
G01*
G75*
G02X156189Y193621I1292J-986*
G01*
G75*
G02X156391Y193792I1094J-1094*
G01*
G75*
G02X156574Y193874I301J-426*
G01*
G75*
G02X156837Y193907I292J-1259*
G01*
G75*
G02X157447Y193914I618J-26935*
G01*
G75*
G02X158060Y193907I-8J-27207*
G01*
G75*
G02X158322Y193873I-28J-1261*
G01*
G75*
G02X158504Y193790I-119J-503*
G01*
G75*
G02X158711Y193614I-973J-1355*
G01*
X162897Y193830D02*
G75*
G03X162735Y193645I1321J-1324D01*
G01*
G75*
G03X162649Y193485I459J-351*
G01*
G75*
G03X162608Y193290I709J-249*
G01*
G75*
G03X162597Y192976I4296J-313*
G01*
G75*
G03X162623Y192533I3754J-2*
G01*
G75*
G03X162706Y192208I1256J149*
G01*
G75*
G03X162852Y191978I711J288*
G01*
G75*
G03X163062Y191825I481J440*
G01*
G75*
G03X163215Y191781I220J481*
G01*
G75*
G03X163543Y191746I1007J7883*
G01*
G75*
G03X163936Y191722I717J8379*
G01*
G75*
G03X164356Y191714I413J10846*
G01*
G75*
G03X165352Y191755I3J11953*
G01*
G75*
G03X165808Y191929I-73J874*
G01*
G75*
G03X166030Y192293I-351J465*
G01*
G75*
G03X166095Y193028I-4233J744*
G01*
G75*
G03X166085Y193304I-3627J9*
G01*
G75*
G03X166053Y193516I-1351J-99*
G01*
G75*
G03X165994Y193685I-870J-207*
G01*
G75*
G03X165906Y193828I-617J-285*
G01*
G75*
G03X165751Y193961I-446J-361*
G01*
G75*
G03X165557Y194033I-303J-514*
G01*
G75*
G03X165229Y194070I-423J-2281*
G01*
G75*
G03X164456Y194097I-2158J-51897*
G01*
X163198Y194130*
X162897Y193830*
X163322Y193647D02*
G75*
G03X163201Y193481I72J-180D01*
G01*
G75*
G03X163187Y192910I6259J-432*
G01*
G75*
G03X163226Y192340I6246J141*
G01*
G75*
G03X163355Y192174I200J23*
G01*
G75*
G03X163658Y192115I320J834*
G01*
G75*
G03X164350Y192116I326J16979*
G01*
G75*
G03X165045Y192144I-428J19056*
G01*
G75*
G03X165303Y192217I-36J622*
G01*
G75*
G03X165402Y192301I-143J267*
G01*
G75*
G03X165460Y192422I-274J207*
G01*
G75*
G03X165489Y192614I-891J233*
G01*
G75*
G03X165497Y192956I-7743J349*
G01*
G75*
G03X165489Y193275I-7014J-5*
G01*
G75*
G03X165463Y193470I-1106J-50*
G01*
G75*
G03X165415Y193589I-389J-88*
G01*
G75*
G03X165339Y193653I-131J-80*
G01*
G75*
G03X165100Y193699I-251J-652*
G01*
G75*
G03X164328Y193704I-656J-40691*
G01*
G75*
G03X163554Y193695I102J-41680*
G01*
G75*
G03X163322Y193647I15J-659*
G01*
X163397Y213360D02*
G75*
G03X160924Y212956I4221J-33579D01*
G01*
G75*
G03X158906Y212413I3264J-16182*
G01*
G75*
G03X157422Y211787I3481J-10312*
G01*
G75*
G03X156747Y211114I713J-1392*
G01*
G75*
G03X156689Y210973I759J-394*
G01*
G75*
G03X156641Y210787I2055J-629*
G01*
G75*
G03X156607Y210588I2239J-479*
G01*
G75*
G03X156597Y210407I1484J-178*
G01*
G75*
G03X156613Y210173I1706J-3*
G01*
G75*
G03X156664Y210005I552J77*
G01*
G75*
G03X156769Y209850I598J292*
G01*
G75*
G03X156965Y209653I2231J2022*
G01*
G75*
G03X157130Y209519I1170J1277*
G01*
G75*
G03X157322Y209396I1326J1863*
G01*
G75*
G03X157511Y209301I1024J1795*
G01*
G75*
G03X157665Y209254I282J636*
G01*
G75*
G02X157820Y209204I-125J-663*
G01*
G75*
G02X158017Y209103I-926J-2036*
G01*
G75*
G02X158219Y208971I-1263J-2170*
G01*
G75*
G02X158398Y208828I-1179J-1645*
G01*
X158799Y208464*
X158607Y206914*
G75*
G03X158381Y204956I109562J-13614*
G01*
G75*
G03X158261Y203520I32196J-3415*
G01*
G75*
G03X158212Y202180I26774J-1646*
G01*
G75*
G03X158217Y200564I56475J-630*
G01*
G75*
G03X158244Y199360I111812J1920*
G01*
G75*
G03X158281Y198652I14847J414*
G01*
G75*
G03X158334Y198193I5973J454*
G01*
G75*
G03X158419Y197911I1052J162*
G01*
G75*
G03X158590Y197606I1994J917*
G01*
G75*
G03X158784Y197387I900J603*
G01*
G75*
G03X159017Y197240I611J710*
G01*
G75*
G03X159303Y197151I530J1202*
G01*
G75*
G02X159449Y197115I-233J-1250*
G01*
G75*
G02X159604Y197058I-552J-1750*
G01*
G75*
G02X159746Y196992I-654J-1572*
G01*
G75*
G02X159847Y196925I-293J-555*
G01*
G75*
G03X160300Y196624I1851J2291*
G01*
G75*
G03X160685Y196515I435J806*
G01*
G75*
G03X161036Y196591I36J685*
G01*
G75*
G03X161377Y196843I-598J1165*
G01*
X161697Y197173*
Y198787*
G75*
G02X161703Y199450I33187J16*
G01*
G75*
G02X161724Y199975I13261J-265*
G01*
G75*
G02X161754Y200393I20454J-1234*
G01*
G75*
G02X161797Y200464I92J-7*
G01*
G75*
G03X161835Y200509I-51J83*
G01*
G75*
G03X161867Y200603I-619J261*
G01*
G75*
G03X161889Y200722I-848J219*
G01*
G75*
G03X161897Y200852I-1139J131*
G01*
G75*
G02X161950Y201117I683J0*
G01*
G75*
G02X162104Y201369I894J-374*
G01*
G75*
G02X162318Y201551I669J-567*
G01*
G75*
G02X162543Y201614I225J-370*
G01*
G75*
G02X162651Y201579I0J-186*
G01*
G75*
G02X162910Y201385I-4318J-6042*
G01*
G75*
G02X163213Y201133I-4150J-5295*
G01*
G75*
G02X163537Y200834I-6970J-7902*
G01*
G75*
G03X163913Y200487I8827J9182*
G01*
G75*
G03X164374Y200089I17032J19239*
G01*
G75*
G03X164845Y199701I16560J19611*
G01*
G75*
G03X165248Y199390I7859J9783*
G01*
G75*
G02X165613Y199119I-72211J-97500*
G01*
G75*
G02X165969Y198853I-65171J-87458*
G01*
G75*
G02X166272Y198624I-59795J-79632*
G01*
G75*
G02X166439Y198494I-6481J-8551*
G01*
G75*
G03X166563Y198400I2675J3375*
G01*
G75*
G03X166692Y198309I2757J3772*
G01*
G75*
G03X166809Y198232I2324J3423*
G01*
G75*
G03X166889Y198188I424J667*
G01*
G75*
G02X166975Y198143I-604J-1254*
G01*
G75*
G02X167118Y198060I-5349J-9367*
G01*
G75*
G02X167282Y197961I-6101J-10363*
G01*
G75*
G02X167447Y197859I-6638J-10841*
G01*
G75*
G03X167639Y197744I2376J3752*
G01*
G75*
G03X167891Y197606I5813J10285*
G01*
G75*
G03X168157Y197468I5858J10989*
G01*
G75*
G03X168397Y197352I3480J6937*
G01*
G75*
G02X168635Y197241I-13739J-29837*
G01*
G75*
G02X168898Y197117I-20772J-44185*
G01*
G75*
G02X169145Y196998I-19680J-41240*
G01*
G75*
G02X169331Y196906I-6637J-13678*
G01*
G75*
G03X169506Y196833I662J1326*
G01*
G75*
G03X169711Y196770I822J2333*
G01*
G75*
G03X169917Y196728I586J2311*
G01*
G75*
G03X170086Y196714I170J1037*
G01*
G75*
G02X170236Y196706I-3J-1407*
G01*
G75*
G02X170380Y196682I-131J-1247*
G01*
G75*
G02X170499Y196647I-230J-1002*
G01*
G75*
G02X170565Y196605I-60J-168*
G01*
G75*
G03X170730Y196523I204J204*
G01*
G75*
G03X170938Y196542I63J461*
G01*
G75*
G03X171138Y196656I-181J549*
G01*
G75*
G03X171276Y196839I-373J426*
G01*
G75*
G02X171361Y196980I793J-379*
G01*
G75*
G02X171453Y197061I231J-170*
G01*
G75*
G02X171580Y197103I172J-310*
G01*
G75*
G02X171777Y197116I206J-1616*
G01*
G75*
G03X172154Y197166I-9J1500*
G01*
G75*
G03X172564Y197314I-656J2461*
G01*
G75*
G03X172924Y197519I-995J2160*
G01*
G75*
G03X173143Y197744I-468J676*
G01*
G75*
G03X173210Y197865I-771J506*
G01*
G75*
G03X173275Y198022I-1962J904*
G01*
G75*
G03X173329Y198188I-2110J775*
G01*
G75*
G03X173362Y198339I-1313J370*
G01*
G75*
G03X173333Y198823I-1089J176*
G01*
G75*
G03X173085Y199091I-392J-113*
G01*
G75*
G03X172685Y199076I-181J-481*
G01*
G75*
G03X172240Y198764I664J-1422*
G01*
G75*
G02X171829Y198504I-785J785*
G01*
G75*
G02X171334Y198434I-417J1164*
G01*
G75*
G02X170693Y198564I153J2392*
G01*
G75*
G02X169820Y198919I3252J9263*
G01*
G75*
G03X169573Y199031I-13724J-29704*
G01*
G75*
G03X169359Y199127I-7484J-16535*
G01*
G75*
G03X169173Y199208I-20654J-47170*
G01*
G75*
G03X169145Y199214I-28J-64*
G01*
G75*
G02X169119Y199221I0J53*
G01*
G75*
G02X168919Y199337I29708J51014*
G01*
G75*
G02X168691Y199473I9330J15945*
G01*
G75*
G02X168428Y199635I17518J28880*
G01*
G75*
G02X167231Y200447I8944J14461*
G01*
G75*
G02X166259Y201268I6090J8194*
G01*
G75*
G02X165580Y202012I5148J5378*
G01*
G75*
G02X165394Y202539I670J533*
G01*
G75*
G03X165351Y202808I-893J-6*
G01*
G75*
G03X165228Y203063I-995J-322*
G01*
G75*
G03X165036Y203283I-923J-612*
G01*
G75*
G03X164793Y203447I-750J-852*
G01*
G75*
G02X164612Y203576I315J631*
G01*
G75*
G02X164518Y203737I252J256*
G01*
G75*
G02X164545Y203859I131J36*
G01*
G75*
G02X164664Y203916I122J-102*
G01*
G75*
G03X165031Y203980I-15J1177*
G01*
G75*
G03X166009Y204329I-14861J43208*
G01*
G75*
G03X167081Y204746I-11631J31465*
G01*
G75*
G03X168080Y205178I-10180J24891*
G01*
G75*
G02X168359Y205297I2388J-5227*
G01*
G75*
G02X168441Y205280I28J-71*
G01*
G75*
G02X168443Y205210I-35J-36*
G01*
G75*
G02X168246Y205013I-3081J2878*
G01*
G75*
G03X168144Y204898I579J-613*
G01*
G75*
G03X168065Y204766I676J-498*
G01*
G75*
G03X168014Y204628I688J-332*
G01*
G75*
G03X167997Y204496I502J-131*
G01*
G75*
G03X168007Y204341I1103J-2*
G01*
G75*
G03X168048Y204263I133J19*
G01*
G75*
G03X168128Y204224I99J103*
G01*
G75*
G03X168291Y204214I161J1270*
G01*
G75*
G03X168408Y204221I2J934*
G01*
G75*
G03X168517Y204243I-94J742*
G01*
G75*
G03X168603Y204275I-156J552*
G01*
G75*
G03X168647Y204314I-43J92*
G01*
G75*
G02X168684Y204352I106J-66*
G01*
G75*
G02X168745Y204384I189J-283*
G01*
G75*
G02X168819Y204406I154J-378*
G01*
G75*
G02X168894Y204414I76J-382*
G01*
G75*
G03X169002Y204432I1J321*
G01*
G75*
G03X169211Y204512I-1553J4372*
G01*
G75*
G03X169457Y204621I-1889J4604*
G01*
G75*
G03X169713Y204750I-2764J5822*
G01*
G75*
G02X169994Y204898I93592J-176419*
G01*
G75*
G02X170313Y205067I155878J-294981*
G01*
G75*
G02X170622Y205229I150052J-285161*
G01*
G75*
G02X170865Y205357I58771J-111640*
G01*
G75*
G03X171073Y205471I-2476J4730*
G01*
G75*
G03X171267Y205590I-2282J3935*
G01*
G75*
G03X171426Y205699I-2229J3430*
G01*
G75*
G03X171503Y205771I-241J336*
G01*
G75*
G02X171557Y205826I346J-287*
G01*
G75*
G02X171620Y205872I321J-376*
G01*
G75*
G02X171684Y205904I221J-362*
G01*
G75*
G02X171737Y205914I53J-132*
G01*
G75*
G03X171955Y206005I0J306*
G01*
G75*
G03X172557Y206639I-19085J18739*
G01*
G75*
G03X173118Y207283I-11310J10406*
G01*
G75*
G03X173387Y207707I-1578J1296*
G01*
G75*
G03X173482Y207949I-1806J854*
G01*
G75*
G03X173547Y208204I-2003J646*
G01*
G75*
G03X173585Y208489I-2506J474*
G01*
G75*
G03X173597Y208821I-4504J332*
G01*
G75*
G03X173577Y209273I-5289J-4*
G01*
G75*
G03X173513Y209581I-1296J-111*
G01*
G75*
G03X173368Y209898I-1652J-564*
G01*
G75*
G03X173056Y210407I-11719J-6828*
G01*
G75*
G02X172938Y210599I5125J3294*
G01*
G75*
G02X172817Y210810I7043J4174*
G01*
G75*
G02X172711Y211008I6545J3607*
G01*
G75*
G02X172642Y211157I1927J995*
G01*
G75*
G03X172214Y211823I-2138J-902*
G01*
G75*
G03X171531Y212412I-2850J-2613*
G01*
G75*
G03X170638Y212890I-2744J-4057*
G01*
G75*
G03X169587Y213223I-2594J-6355*
G01*
G75*
G03X168426Y213398I-1706J-7391*
G01*
G75*
G03X166683Y213480I-2517J-34991*
G01*
G75*
G03X164865Y213473I-778J-35408*
G01*
G75*
G03X163397Y213360I451J-15400*
G01*
X165103Y193410D02*
G75*
G02X165193Y193339I-153J-285D01*
G01*
G75*
G02X165253Y193240I-246J-217*
G01*
G75*
G02X165286Y193102I-509J-195*
G01*
G75*
G02X165297Y192907I-1828J-197*
G01*
G75*
G02X165287Y192690I-2322J0*
G01*
G75*
G02X165250Y192564I-343J32*
G01*
G75*
G02X165174Y192480I-200J104*
G01*
G75*
G02X165040Y192411I-374J563*
G01*
G75*
G02X164728Y192338I-430J1132*
G01*
G75*
G02X164280Y192317I-429J4388*
G01*
G75*
G02X163843Y192340I18J4534*
G01*
G75*
G02X163590Y192417I69J678*
G01*
G75*
G02X163443Y192592I146J273*
G01*
G75*
G02X163388Y192908I1007J336*
G01*
G75*
G02X163431Y193225I1060J19*
G01*
G75*
G02X163572Y193406I296J-87*
G01*
G75*
G02X163827Y193486I305J-525*
G01*
G75*
G02X164331Y193507I524J-6313*
G01*
G75*
G02X164835Y193489I20J-6219*
G01*
G75*
G02X165103Y193410I-53J-678*
G01*
X165656Y193583D02*
G75*
G02X165859Y193196I-745J-640D01*
G01*
G75*
G02X165881Y192751I-1022J-274*
G01*
G75*
G02X165719Y192345I-998J164*
G01*
G75*
G02X165406Y192069I-705J481*
G01*
G75*
G02X165030Y191955I-491J948*
G01*
G75*
G02X164383Y191915I-767J7123*
G01*
G75*
G02X163733Y191933I-123J7117*
G01*
G75*
G02X163344Y192033I85J1139*
G01*
G75*
G02X163055Y192251I346J760*
G01*
G75*
G02X162868Y192581I760J648*
G01*
G75*
G02X162814Y192966I1000J336*
G01*
G75*
G02X162904Y193340I1015J-48*
G01*
G75*
G02X163106Y193625I852J-387*
G01*
G75*
G02X163388Y193799I538J-557*
G01*
G75*
G02X163813Y193883I507J-1448*
G01*
G75*
G02X164480Y193891I429J-8074*
G01*
G75*
G02X165056Y193867I-698J-23668*
G01*
G75*
G02X165314Y193827I-69J-1286*
G01*
G75*
G02X165484Y193744I-124J-470*
G01*
G75*
G02X165656Y193583I-669J-885*
G01*
X167397Y194514D02*
G75*
G03X167288Y194351I356J-356D01*
G01*
G75*
G03X167230Y194134I796J-330*
G01*
G75*
G03X167203Y193774I3065J-409*
G01*
G75*
G03X167197Y193014I48477J-757*
G01*
Y191714*
X167897*
Y193503*
X168372Y193533*
X168847Y193564*
X168877Y194139*
X168907Y194714*
X168252*
G75*
G03X167909Y194705I2J-6571*
G01*
G75*
G03X167688Y194673I67J-1256*
G01*
G75*
G03X167530Y194613I144J-618*
G01*
G75*
G03X167397Y194514I276J-508*
G01*
X168497Y194420D02*
G75*
G02X168474Y194381I-44D01*
G01*
G75*
G02X168387Y194344I-270J513*
G01*
G75*
G02X168265Y194313I-272J817*
G01*
G75*
G02X168122Y194294I-273J1522*
G01*
G75*
G03X167955Y194272I135J-1633*
G01*
G75*
G03X167839Y194234I85J-453*
G01*
G75*
G03X167771Y194181I90J-185*
G01*
G75*
G03Y194046I81J-67*
G01*
G75*
G03X167839Y193993I158J132*
G01*
G75*
G03X167955Y193955I200J415*
G01*
G75*
G03X168122Y193933I302J1611*
G01*
G75*
G02X168265Y193914I-139J-1647*
G01*
G75*
G02X168387Y193885I-155J-899*
G01*
G75*
G02X168474Y193850I-191J-606*
G01*
G75*
G02Y193778I-18J-36*
G01*
G75*
G02X168387Y193743I-278J570*
G01*
G75*
G02X168265Y193713I-276J870*
G01*
G75*
G02X168122Y193694I-283J1628*
G01*
X167747Y193664*
X167718Y192839*
G75*
G02X167697Y192420I-14178J496*
G01*
G75*
G02X167664Y192185I-1640J109*
G01*
G75*
G02X167616Y192056I-444J94*
G01*
G75*
G02X167543Y192014I-73J41*
G01*
G75*
G02X167469Y192061I0J81*
G01*
G75*
G02X167425Y192211I515J230*
G01*
G75*
G02X167402Y192489I2243J324*
G01*
G75*
G02X167397Y193018I25070J526*
G01*
G75*
G02X167404Y193626I27578J0*
G01*
G75*
G02X167434Y193907I1649J-35*
G01*
G75*
G02X167505Y194093I565J-111*
G01*
G75*
G02X167642Y194268I781J-469*
G01*
G75*
G02X167863Y194419I513J-513*
G01*
G75*
G02X168160Y194509I524J-1192*
G01*
G75*
G02X168411Y194516I148J-832*
G01*
G75*
G02X168497Y194420I-12J-96*
G01*
X169578Y210311D02*
G75*
G02X169746Y210197I-1117J-1829D01*
G01*
G75*
G02X169830Y210105I-200J-269*
G01*
G75*
G02X169858Y210008I-159J-98*
G01*
G75*
G02X169841Y209886I-405J-4*
G01*
G75*
G02X169259Y208661I-4432J1353*
G01*
G75*
G02X168289Y207503I-5874J3933*
G01*
G75*
G02X166919Y206402I-6799J7061*
G01*
G75*
G02X165128Y205347I-10516J15809*
G01*
G75*
G02X164463Y205023I-7103J13734*
G01*
G75*
G02X164011Y204859I-1239J2700*
G01*
G75*
G02X163710Y204821I-282J1030*
G01*
G75*
G02X163546Y204914I4J196*
G01*
G75*
G03X163498Y204959I-106J-65*
G01*
G75*
G03X163374Y205017I-791J-1529*
G01*
G75*
G03X163219Y205074I-759J-1799*
G01*
G75*
G03X163048Y205124I-820J-2535*
G01*
G75*
G02X162754Y205223I481J1910*
G01*
G75*
G02X162589Y205348I167J392*
G01*
G75*
G02X162539Y205504I179J143*
G01*
G75*
G02X162592Y205693I448J-23*
G01*
G75*
G03X162638Y205806I-519J279*
G01*
G75*
G03X162719Y206093I-14321J4202*
G01*
G75*
G03X162808Y206437I-13602J3693*
G01*
G75*
G03X162896Y206814I-18972J4644*
G01*
G75*
G02X163217Y207991I13023J-2915*
G01*
G75*
G02X163594Y208873I4944J-1594*
G01*
G75*
G02X164034Y209491I2744J-1487*
G01*
G75*
G02X164547Y209858I1125J-1028*
G01*
G75*
G02X165339Y210159I3309J-7534*
G01*
G75*
G02X166101Y210350I1857J-5780*
G01*
G75*
G02X166956Y210457I1366J-7472*
G01*
G75*
G02X168047Y210500I1302J-19211*
G01*
G75*
G02X168725Y210500I358J-32093*
G01*
G75*
G02X169095Y210475I-35J-3301*
G01*
G75*
G02X169349Y210418I-156J-1280*
G01*
G75*
G02X169578Y210311I-363J-1075*
G01*
X172519Y193958D02*
G75*
G03X172398Y193836I280J-400D01*
G01*
G75*
G03X172332Y193685I344J-239*
G01*
G75*
G03X172303Y193437I1319J-281*
G01*
G75*
G03X172297Y192914I21064J-515*
G01*
G75*
G03X172344Y192157I6015J-1*
G01*
G75*
G03X172537Y191860I405J51*
G01*
G75*
G03X172958Y191735I448J737*
G01*
G75*
G03X174269Y191714I1304J40766*
G01*
X175797*
Y192314*
X174590*
G75*
G02X174114Y192321I-2J15024*
G01*
G75*
G02X173681Y192344I326J10292*
G01*
G75*
G02X173322Y192376I820J11123*
G01*
G75*
G02X173190Y192417I38J359*
G01*
G75*
G02X173100Y192488I153J285*
G01*
G75*
G02X173041Y192586I246J218*
G01*
G75*
G02X173007Y192723I502J195*
G01*
G75*
G02X172997Y192914I1743J189*
G01*
G75*
G02X173007Y193104I1749J1*
G01*
G75*
G02X173041Y193241I535J-58*
G01*
G75*
G02X173100Y193339I306J-120*
G01*
G75*
G02X173190Y193410I243J-213*
G01*
G75*
G02X173322Y193451I170J-319*
G01*
G75*
G02X173681Y193483I1179J-11091*
G01*
G75*
G02X174114Y193506I759J-10269*
G01*
G75*
G02X174590Y193514I487J-15017*
G01*
X175797*
Y194114*
X174269*
G75*
G03X173472Y194107I11J-48752*
G01*
G75*
G03X173003Y194082I108J-6491*
G01*
G75*
G03X172701Y194037I225J-2525*
G01*
G75*
G03X172519Y193958I103J-487*
G01*
X175458Y193857D02*
G75*
G02X175458Y193770I-5J-44D01*
G01*
G75*
G02X175174Y193741I-917J7452*
G01*
G75*
G02X174798Y193720I-543J6516*
G01*
G75*
G02X174305Y193714I-488J18874*
G01*
G75*
G03X173837Y193709I17J-24813*
G01*
G75*
G03X173417Y193696I304J-16138*
G01*
G75*
G03X173065Y193677I926J-20478*
G01*
G75*
G03X172955Y193653I23J-373*
G01*
G75*
G03X172878Y193587I54J-142*
G01*
G75*
G03X172830Y193463I366J-214*
G01*
G75*
G03X172804Y193257I1194J-256*
G01*
G75*
G03X172797Y192914I8393J-335*
G01*
G75*
G03X172804Y192570I8409J-9*
G01*
G75*
G03X172830Y192364I1220J50*
G01*
G75*
G03X172878Y192240I414J90*
G01*
G75*
G03X172955Y192174I131J76*
G01*
G75*
G03X173065Y192150I133J349*
G01*
G75*
G03X173417Y192131I1277J20459*
G01*
G75*
G03X173837Y192118I724J16124*
G01*
G75*
G03X174305Y192114I464J24808*
G01*
G75*
G02X174798Y192107I-10J-18881*
G01*
G75*
G02X175174Y192087I-167J-6536*
G01*
G75*
G02X175458Y192057I-632J-7481*
G01*
G75*
G02X175458Y191970I-6J-44*
G01*
G75*
G02X175163Y191941I-957J8193*
G01*
G75*
G02X174773Y191920I-562J6986*
G01*
G75*
G02X174260Y191914I-508J20506*
G01*
G75*
G02X173544Y191920I-13J39133*
G01*
G75*
G02X173186Y191948I55J3024*
G01*
G75*
G02X172955Y192009I137J987*
G01*
G75*
G02X172760Y192121I287J724*
G01*
G75*
G02X172619Y192257I616J783*
G01*
G75*
G02X172542Y192393I309J265*
G01*
G75*
G02X172506Y192580I686J228*
G01*
G75*
G02X172497Y192914I5939J328*
G01*
G75*
G02X172506Y193247I5941J5*
G01*
G75*
G02X172542Y193434I722J-41*
G01*
G75*
G02X172619Y193570I386J-129*
G01*
G75*
G02X172760Y193706I758J-647*
G01*
G75*
G02X172955Y193818I481J-613*
G01*
G75*
G02X173186Y193879I368J-926*
G01*
G75*
G02X173544Y193907I414J-2996*
G01*
G75*
G02X174260Y193914I724J-39127*
G01*
G75*
G02X174773Y193907I-11J-20512*
G01*
G75*
G02X175163Y193887I-172J-7007*
G01*
G75*
G02X175458Y193857I-662J-8222*
G01*
X177160Y193906D02*
G75*
G03X177009Y193752I524J-668D01*
G01*
G75*
G03X176933Y193589I333J-252*
G01*
G75*
G03X176903Y193330I1301J-285*
G01*
G75*
G03X176897Y192706I31644J-611*
G01*
Y191714*
X177597*
Y192510*
G75*
G02X177620Y193076I6993J2*
G01*
G75*
G02X177715Y193343I545J-44*
G01*
G75*
G02X177911Y193474I263J-182*
G01*
G75*
G02X178290Y193514I379J-1785*
G01*
G75*
G03X178464Y193524I2J1491*
G01*
G75*
G03X178546Y193563I-17J140*
G01*
G75*
G03X178586Y193644I-96J98*
G01*
G75*
G03X178597Y193814I-1368J171*
G01*
G75*
G03X178581Y193998I-1062J0*
G01*
G75*
G03X178523Y194076I-107J-19*
G01*
G75*
G03X178396Y194108I-135J-263*
G01*
G75*
G03X178010Y194114I-389J-13707*
G01*
G75*
G03X177713Y194103I5J-4139*
G01*
G75*
G03X177494Y194069I94J-1327*
G01*
G75*
G03X177318Y194005I209J-853*
G01*
G75*
G03X177160Y193906I380J-783*
G01*
X178297Y193814D02*
G75*
G02X178276Y193775I-46J0D01*
G01*
G75*
G02X178211Y193743I-157J234*
G01*
G75*
G02X178117Y193721I-157J460*
G01*
G75*
G02X178005Y193714I-110J855*
G01*
G75*
G03X177649Y193685I1J-2202*
G01*
G75*
G03X177486Y193580I40J-240*
G01*
G75*
G03X177412Y193358I369J-246*
G01*
G75*
G03X177397Y192803I9989J-554*
G01*
G75*
G02X177391Y192390I-14492J1*
G01*
G75*
G02X177367Y192170I-1388J41*
G01*
G75*
G02X177321Y192055I-325J62*
G01*
G75*
G02X177247Y192014I-74J47*
G01*
G75*
G02X177173Y192052I0J91*
G01*
G75*
G02X177127Y192156I228J162*
G01*
G75*
G02X177103Y192354I1111J237*
G01*
G75*
G02X177097Y192718I10857J358*
G01*
G75*
G02X177106Y193118I9148J2*
G01*
G75*
G02X177139Y193343I1090J-47*
G01*
G75*
G02X177211Y193507I534J-138*
G01*
G75*
G02X177342Y193668I840J-548*
G01*
G75*
G02X177578Y193823I493J-493*
G01*
G75*
G02X177913Y193914I567J-1430*
G01*
G75*
G02X178203Y193919I164J-1080*
G01*
G75*
G02X178297Y193814I-12J-106*
G01*
X179761Y193869D02*
G75*
G03X179618Y193709I791J-855D01*
G01*
G75*
G03X179541Y193555I396J-294*
G01*
G75*
G03X179506Y193347I849J-252*
G01*
G75*
G03X179497Y192976I7455J-368*
G01*
G75*
G03X179501Y192717I7397J-6*
G01*
G75*
G03X179515Y192472I5887J209*
G01*
G75*
G03X179535Y192267I5517J425*
G01*
G75*
G03X179559Y192168I402J45*
G01*
G75*
G03X179706Y191980I385J148*
G01*
G75*
G03X179983Y191835I659J930*
G01*
G75*
G03X180369Y191744I620J1750*
G01*
G75*
G03X180842Y191714I472J3715*
G01*
X181497*
Y192014*
G75*
G03X181485Y192187I-1365J-3*
G01*
G75*
G03X181443Y192267I-126J-16*
G01*
G75*
G03X181355Y192305I-103J-117*
G01*
G75*
G03X181155Y192314I-200J-2211*
G01*
G75*
G02X180885Y192328I-2J2607*
G01*
G75*
G02X180677Y192371I107J1030*
G01*
G75*
G02X180541Y192438I154J481*
G01*
G75*
G02X180497Y192524I61J86*
G01*
G75*
G02X180530Y192560I36*
G01*
G75*
G02X180864Y192587I1557J-17085*
G01*
G75*
G02X181267Y192607I644J-9052*
G01*
G75*
G02X181747Y192614I490J-17894*
G01*
X182997*
Y193100*
G75*
G03X182985Y193337I-2317J-1*
G01*
G75*
G03X182948Y193534I-1195J-122*
G01*
G75*
G03X182883Y193702I-906J-253*
G01*
G75*
G03X182789Y193850I-766J-380*
G01*
G75*
G03X182626Y194004I-594J-467*
G01*
G75*
G03X182443Y194080I-264J-381*
G01*
G75*
G03X182135Y194108I-330J-1867*
G01*
G75*
G03X181304Y194114I-856J-66442*
G01*
G75*
G03X180507Y194108I2J-54033*
G01*
G75*
G03X180170Y194079I35J-2367*
G01*
G75*
G03X179958Y194008I108J-677*
G01*
G75*
G03X179761Y193869I431J-817*
G01*
X180101Y193569D02*
G75*
G03X180057Y193500I246J-204D01*
G01*
G75*
G03X180026Y193413I469J-220*
G01*
G75*
G03X180010Y193323I494J-131*
G01*
G75*
G03X180015Y193243I296J-22*
G01*
G75*
G03X180085Y193146I140J27*
G01*
G75*
G03X180240Y193093I221J389*
G01*
G75*
G03X180546Y193069I340J2326*
G01*
G75*
G03X181247Y193064I678J48517*
G01*
G75*
G03X181970Y193069I11J53707*
G01*
G75*
G03X182265Y193093I-27J2084*
G01*
G75*
G03X182411Y193151I-56J356*
G01*
G75*
G03X182481Y193257I-93J137*
G01*
G75*
G03X182437Y193470I-278J53*
G01*
G75*
G03X182250Y193614I-315J-214*
G01*
G75*
G03X181864Y193693I-473J-1340*
G01*
G75*
G03X181190Y193714I-680J-10870*
G01*
G75*
G03X180713Y193707I2J-16181*
G01*
G75*
G03X180407Y193682I87J-2981*
G01*
G75*
G03X180207Y193639I173J-1283*
G01*
G75*
G03X180101Y193569I63J-211*
G01*
X181939Y193453D02*
G75*
G02X182056Y193360I-89J-234D01*
G01*
G75*
G02X182030Y193279I-44J-30*
G01*
G75*
G02X181759Y193227I-320J927*
G01*
G75*
G02X181247Y193214I-510J9994*
G01*
G75*
G02X180750Y193227I-4J9096*
G01*
G75*
G02X180470Y193279I61J1108*
G01*
G75*
G02X180433Y193358I18J57*
G01*
G75*
G02X180522Y193447I149J-59*
G01*
G75*
G02X180733Y193493I238J-589*
G01*
G75*
G02X181228Y193504I548J-13046*
G01*
G75*
G02X181723Y193497I53J-12867*
G01*
G75*
G02X181939Y193453I-24J-666*
G01*
X182511Y193614D02*
G75*
G02X182638Y193471I-1115J-1113D01*
G01*
G75*
G02X182726Y193334I-665J-521*
G01*
G75*
G02X182773Y193205I-524J-267*
G01*
G75*
G02X182779Y193089I-300J-72*
G01*
G75*
G02X182711Y192960I-217J31*
G01*
G75*
G02X182572Y192888I-198J211*
G01*
G75*
G02X182276Y192850I-392J1889*
G01*
G75*
G02X181448Y192814I-3693J74994*
G01*
G75*
G03X180674Y192779I2286J-59069*
G01*
G75*
G03X180349Y192741I131J-2541*
G01*
G75*
G03X180186Y192678I83J-459*
G01*
G75*
G03X180112Y192570I86J-139*
G01*
G75*
G03X180139Y192391I270J-51*
G01*
G75*
G03X180273Y192243I350J183*
G01*
G75*
G03X180508Y192146I379J584*
G01*
G75*
G03X180816Y192114I306J1456*
G01*
G75*
G02X180965Y192106I-3J-1402*
G01*
G75*
G02X181087Y192081I-73J-684*
G01*
G75*
G02X181171Y192045I-109J-374*
G01*
G75*
G02X181197Y192001I-26J-44*
G01*
G75*
G02X181089Y191895I-106J0*
G01*
G75*
G02X180672Y191934I49J2740*
G01*
G75*
G02X180223Y192048I498J2902*
G01*
G75*
G02X179943Y192217I248J731*
G01*
G75*
G02X179742Y192520I545J580*
G01*
G75*
G02X179680Y192902I942J349*
G01*
G75*
G02X179767Y193293I1084J-35*
G01*
G75*
G02X179989Y193621I962J-411*
G01*
G75*
G02X180191Y193792I1094J-1094*
G01*
G75*
G02X180374Y193874I301J-426*
G01*
G75*
G02X180637Y193907I292J-1259*
G01*
G75*
G02X181247Y193914I618J-26935*
G01*
G75*
G02X181860Y193907I-8J-27207*
G01*
G75*
G02X182122Y193873I-28J-1261*
G01*
G75*
G02X182304Y193790I-119J-503*
G01*
G75*
G02X182511Y193614I-973J-1355*
G01*
X184822Y193044D02*
G75*
G03X184706Y193003I80J-407D01*
G01*
G75*
G03X184639Y192935I77J-143*
G01*
G75*
G03X184606Y192819I276J-143*
G01*
G75*
G03X184597Y192609I2482J-207*
G01*
G75*
G03X184653Y192321I765J0*
G01*
G75*
G03X184810Y192174I237J96*
G01*
G75*
G03X185152Y192120I340J1037*
G01*
G75*
G03X186047Y192134I-80J33278*
G01*
X187047Y192164*
Y193064*
X186047Y193077*
G75*
G03X185647Y193078I-290J-22780*
G01*
G75*
G03X185274Y193072I88J-17328*
G01*
G75*
G03X184961Y193061I454J-17348*
G01*
G75*
G03X184822Y193044I41J-920*
G01*
X185778Y193839D02*
G75*
G02X185736Y193678I-574J67D01*
G01*
G75*
G02X185654Y193594I-151J64*
G01*
G75*
G02X185489Y193548I-226J489*
G01*
G75*
G02X185055Y193504I-1763J15465*
G01*
G75*
G03X184521Y193419I316J-3668*
G01*
G75*
G03X184212Y193257I162J-686*
G01*
G75*
G03X184049Y192985I361J-400*
G01*
G75*
G03X183997Y192551I1761J-433*
G01*
G75*
G03X184009Y192299I2685J-1*
G01*
G75*
G03X184051Y192152I407J38*
G01*
G75*
G03X184143Y192039I311J159*
G01*
G75*
G03X184322Y191913I1039J1285*
G01*
G75*
G03X184552Y191808I549J901*
G01*
G75*
G03X184820Y191749I448J1409*
G01*
G75*
G03X185220Y191721I475J3919*
G01*
G75*
G03X185954Y191714I759J38465*
G01*
G75*
G03X186765Y191719I6J58617*
G01*
G75*
G03X187104Y191747I-35J2488*
G01*
G75*
G03X187308Y191814I-96J637*
G01*
G75*
G03X187479Y191945I-306J578*
G01*
G75*
G03X187591Y192098I-561J528*
G01*
G75*
G03X187656Y192268I-563J313*
G01*
G75*
G03X187688Y192505I-1294J295*
G01*
G75*
G03X187697Y192900I-9015J395*
G01*
G75*
G03X187688Y193312I-9936J-2*
G01*
G75*
G03X187655Y193541I-1120J-47*
G01*
G75*
G03X187583Y193706I-534J-136*
G01*
G75*
G03X187451Y193868I-838J-543*
G01*
G75*
G03X187290Y193999I-710J-710*
G01*
G75*
G03X187127Y194071I-302J-463*
G01*
G75*
G03X186903Y194105I-273J-1046*
G01*
G75*
G03X186508Y194114I-401J-8861*
G01*
G75*
G03X186055Y194108I8J-19263*
G01*
G75*
G03X185897Y194078I11J-478*
G01*
G75*
G03X185819Y194001I48J-126*
G01*
G75*
G03X185778Y193839I592J-235*
G01*
X186845Y192816D02*
G75*
G02X186861Y192764I-90J-56D01*
G01*
G75*
G02X186856Y192687I-400J-14*
G01*
G75*
G02X186835Y192600I-507J81*
G01*
G75*
G02X186798Y192516I-547J189*
G01*
G75*
G02X186705Y192409I-282J150*
G01*
G75*
G02X186572Y192348I-211J289*
G01*
G75*
G02X186349Y192320I-259J1145*
G01*
G75*
G02X185900Y192314I-438J15190*
G01*
G75*
G02X185506Y192322I-1J9811*
G01*
G75*
G02X185246Y192349I79J2016*
G01*
G75*
G02X185068Y192398I156J906*
G01*
G75*
G02X184947Y192477I127J327*
G01*
G75*
G02X184881Y192656I161J161*
G01*
G75*
G02X184983Y192792I158J-12*
G01*
G75*
G02X185350Y192872I453J-1191*
G01*
G75*
G02X186066Y192902I939J-14062*
G01*
G75*
G02X186346Y192899I86J-5456*
G01*
G75*
G02X186591Y192881I-113J-3279*
G01*
G75*
G02X186789Y192854I-383J-3420*
G01*
G75*
G02X186845Y192816I-14J-81*
G01*
X187269Y193568D02*
G75*
G02X187454Y193244I-754J-648D01*
G01*
G75*
G02X187506Y192877I-914J-316*
G01*
G75*
G02X187416Y192513I-994J52*
G01*
G75*
G02X187196Y192197I-994J459*
G01*
X186894Y191896*
X185806Y191930*
G75*
G02X185023Y191980I364J11751*
G01*
G75*
G02X184598Y192094I131J1344*
G01*
G75*
G02X184378Y192297I196J432*
G01*
G75*
G02X184381Y192935I574J316*
G01*
G75*
G02X184607Y193138I410J-230*
G01*
G75*
G02X185055Y193248I572J-1354*
G01*
G75*
G02X185913Y193297I1283J-14973*
G01*
G75*
G03X186599Y193321I-1335J47959*
G01*
G75*
G03X186899Y193353I-99J2360*
G01*
G75*
G03X187038Y193408I-63J367*
G01*
G75*
G03X187076Y193497I-47J73*
G01*
G75*
G03X187034Y193576I-146J-27*
G01*
G75*
G03X186945Y193633I-185J-192*
G01*
G75*
G03X186798Y193671I-235J-604*
G01*
G75*
G03X186571Y193694I-428J-3115*
G01*
G75*
G02X186389Y193713I136J2147*
G01*
G75*
G02X186236Y193747I176J1158*
G01*
G75*
G02X186125Y193789I230J787*
G01*
G75*
G02X186097Y193832I20J43*
G01*
G75*
G02X186126Y193875I46*
G01*
G75*
G02X186219Y193898I136J-348*
G01*
G75*
G02X186366Y193903I102J-894*
G01*
G75*
G02X186569Y193887I-153J-3199*
G01*
G75*
G02X186803Y193847I-244J-2148*
G01*
G75*
G02X186985Y193785I-207J-917*
G01*
G75*
G02X187135Y193695I-311J-682*
G01*
G75*
G02X187269Y193568I-569J-733*
G01*
X189068Y194652D02*
G75*
G03X189041Y194611I92J-93D01*
G01*
G75*
G03X189018Y194546I451J-195*
G01*
G75*
G03X189002Y194470I563J-156*
G01*
G75*
G03X188997Y194394I556J-76*
G01*
G75*
G02X188985Y194318I-261J1*
G01*
G75*
G02X188953Y194245I-298J90*
G01*
G75*
G02X188904Y194186I-246J152*
G01*
G75*
G02X188847Y194150I-121J128*
G01*
G75*
G03X188738Y194037I66J-172*
G01*
G75*
G03X188700Y193814I662J-228*
G01*
G75*
G03X188735Y193591I696J-4*
G01*
G75*
G03X188843Y193479I172J57*
G01*
G75*
G02X188914Y193410I-46J-118*
G01*
G75*
G02X188963Y193251I-752J-318*
G01*
G75*
G02X188996Y192996I-2012J-397*
G01*
G75*
G02X189018Y192593I-11637J-816*
G01*
X189047Y191764*
X189747*
X189847Y193464*
X190297Y193514*
G75*
G03X190554Y193550I-473J4296*
G01*
G75*
G03X190672Y193597I-52J300*
G01*
G75*
G03X190728Y193676I-77J115*
G01*
G75*
G03X190747Y193814I-509J139*
G01*
G75*
G03X190728Y193952I-529J-1*
G01*
G75*
G03X190672Y194030I-133J-36*
G01*
G75*
G03X190555Y194077I-169J-252*
G01*
G75*
G03X190301Y194114I-724J-4131*
G01*
G75*
G02X190059Y194150I347J3136*
G01*
G75*
G02X189926Y194201I78J404*
G01*
G75*
G02X189848Y194282I111J187*
G01*
G75*
G02X189797Y194414I441J246*
G01*
G75*
G03X189753Y194535I-520J-121*
G01*
G75*
G03X189686Y194616I-216J-109*
G01*
G75*
G03X189586Y194666I-175J-225*
G01*
G75*
G03X189439Y194693I-235J-849*
G01*
G75*
G03X189319Y194700I-126J-1249*
G01*
G75*
G03X189207Y194693I-2J-980*
G01*
G75*
G03X189115Y194678I87J-786*
G01*
G75*
G03X189068Y194652I22J-94*
G01*
X189597Y194164D02*
G75*
G03X189662Y194038I584J221D01*
G01*
G75*
G03X189743Y193963I196J131*
G01*
G75*
G03X189859Y193925I156J279*
G01*
G75*
G03X190044Y193914I183J1506*
G01*
G75*
G02X190327Y193895I-2J-2196*
G01*
G75*
G02X190388Y193819I-9J-69*
G01*
G75*
G02X190313Y193736I-94J9*
G01*
G75*
G02X190022Y193694I-495J2419*
G01*
X189647Y193664*
X189597Y192864*
G75*
G02X189565Y192459I-12832J806*
G01*
G75*
G02X189526Y192230I-1530J144*
G01*
G75*
G02X189472Y192106I-418J106*
G01*
G75*
G02X189321Y192105I-76J47*
G01*
G75*
G02X189271Y192226I328J206*
G01*
G75*
G02X189239Y192452I1441J324*
G01*
G75*
G02X189217Y192861I13489J919*
G01*
G75*
G03X189199Y193170I-7005J-255*
G01*
G75*
G03X189168Y193441I-4174J-342*
G01*
G75*
G03X189130Y193660I-4761J-699*
G01*
G75*
G03X189091Y193717I-85J-17*
G01*
G75*
G02X189051Y193822I49J78*
G01*
G75*
G02X189152Y194092I2042J-611*
G01*
G75*
G02X189290Y194349I1964J-891*
G01*
G75*
G02X189406Y194414I117J-73*
G01*
G75*
G02X189450Y194397I0J-65*
G01*
G75*
G02X189502Y194340I-282J-311*
G01*
G75*
G02X189553Y194259I-469J-357*
G01*
G75*
G02X189597Y194164I-747J-399*
G01*
X191447Y213264D02*
G75*
G03X190353Y213091I5028J-35301D01*
G01*
G75*
G03X189447Y212908I2979J-17104*
G01*
G75*
G03X188456Y212657I5090J-22146*
G01*
G75*
G03X187047Y212253I24648J-88698*
G01*
G75*
G03X185383Y211669I4884J-16563*
G01*
G75*
G03X183891Y210947I5106J-12457*
G01*
G75*
G03X182726Y210185I5127J-9120*
G01*
G75*
G03X182138Y209494I1243J-1650*
G01*
G75*
G03X182019Y209151I1093J-572*
G01*
G75*
G03X181997Y208772I1440J-272*
G01*
G75*
G03X182071Y208423I1302J93*
G01*
G75*
G03X182234Y208167I655J237*
G01*
G75*
G03X182442Y208011I648J648*
G01*
G75*
G03X182759Y207862I1405J2573*
G01*
G75*
G03X183094Y207750I1099J2738*
G01*
G75*
G03X183365Y207714I276J1030*
G01*
G75*
G02X183423Y207697I-1J-111*
G01*
G75*
G02X183510Y207634I-471J-742*
G01*
G75*
G02X183606Y207546I-693J-848*
G01*
G75*
G02X183696Y207442I-1016J-973*
G01*
G75*
G03X183931Y207213I979J770*
G01*
G75*
G03X184224Y207047I813J1092*
G01*
G75*
G03X184572Y206947I614J1481*
G01*
G75*
G03X184972Y206914I399J2387*
G01*
X185424*
X185364Y206289*
G75*
G03X185224Y204550I53637J-5186*
G01*
G75*
G03X185143Y202830I50942J-3265*
G01*
G75*
G03X185124Y201284I43218J-1302*
G01*
G75*
G03X185177Y200098I15324J87*
G01*
G75*
G03X185231Y199514I34266J2848*
G01*
G75*
G03X185293Y198946I30891J3098*
G01*
G75*
G03X185355Y198460I27972J3331*
G01*
G75*
G03X185404Y198191I3076J420*
G01*
G75*
G03X185557Y197760I1924J439*
G01*
G75*
G03X185796Y197415I1267J622*
G01*
G75*
G03X186094Y197191I790J744*
G01*
G75*
G03X186418Y197114I324J637*
G01*
G75*
G02X186593Y197096I-1J-905*
G01*
G75*
G02X186747Y197046I-125J-635*
G01*
G75*
G02X186893Y196954I-325J-681*
G01*
G75*
G02X187047Y196814I-982J-1230*
G01*
G75*
G03X187328Y196604I761J728*
G01*
G75*
G03X187646Y196515I379J743*
G01*
G75*
G03X187980Y196556I64J868*
G01*
G75*
G03X188306Y196720I-374J1149*
G01*
X188597Y196927*
Y198515*
G75*
G02X188603Y199165I31907J16*
G01*
G75*
G02X188624Y199681I12865J-261*
G01*
G75*
G02X188654Y200093I19658J-1204*
G01*
G75*
G02X188697Y200164I92J-7*
G01*
G75*
G03X188736Y200222I-45J73*
G01*
G75*
G03X188767Y200439I-4204J714*
G01*
G75*
G03X188789Y200707I-3837J450*
G01*
G75*
G03X188797Y201014I-6472J311*
G01*
G75*
G02X188804Y201320I6471J4*
G01*
G75*
G02X188826Y201589I3859J-182*
G01*
G75*
G02X188857Y201805I4235J-498*
G01*
G75*
G02X188897Y201864I85J-15*
G01*
G75*
G03X188935Y201911I-49J80*
G01*
G75*
G03X188967Y202019I-810J299*
G01*
G75*
G03X188989Y202155I-1080J244*
G01*
G75*
G03X188997Y202305I-1525J151*
G01*
Y202684*
X189922Y202744*
G75*
G03X190710Y202841I-461J7037*
G01*
G75*
G03X191735Y203052I-3699J20576*
G01*
G75*
G03X192787Y203324I-4908J21140*
G01*
G75*
G03X193672Y203615I-3230J11311*
G01*
G75*
G02X193874Y203685I1533J-4117*
G01*
G75*
G02X194045Y203731I645J-2024*
G01*
G75*
G02X194180Y203757I450J-1967*
G01*
G75*
G02X194207Y203737I4J-24*
G01*
G75*
G02X194210Y203692I-322J-45*
G01*
G75*
G02X194209Y203590I-6242J21*
G01*
G75*
G02X194205Y203469I-6205J120*
G01*
G75*
G02X194199Y203339I-8165J306*
G01*
G75*
G03X194198Y203138I1942J-108*
G01*
G75*
G03X194238Y203058I112J6*
G01*
G75*
G03X194330Y203021I102J119*
G01*
G75*
G03X194583Y203014I249J4357*
G01*
G75*
G03X194741Y203021I2J1715*
G01*
G75*
G03X194885Y203043I-111J1207*
G01*
G75*
G03X194998Y203075I-203J939*
G01*
G75*
G03X195047Y203114I-31J88*
G01*
G75*
G02X195090Y203152I86J-54*
G01*
G75*
G02X195175Y203184I239J-502*
G01*
G75*
G02X195282Y203206I200J-700*
G01*
G75*
G02X195397Y203214I116J-893*
G01*
G75*
G03X195511Y203221I2J897*
G01*
G75*
G03X195619Y203243I-93J722*
G01*
G75*
G03X195704Y203275I-154J535*
G01*
G75*
G03X195747Y203314I-44J93*
G01*
G75*
G02X195783Y203352I108J-67*
G01*
G75*
G02X195843Y203384I187J-274*
G01*
G75*
G02X195915Y203406I151J-365*
G01*
G75*
G02X195989Y203414I74J-359*
G01*
G75*
G03X196244Y203471I0J598*
G01*
G75*
G03X196911Y203798I-10451J22149*
G01*
G75*
G03X197602Y204171I-7519J14751*
G01*
G75*
G03X198158Y204519I-4033J7065*
G01*
G75*
G03X198650Y204892I-3489J5108*
G01*
G75*
G03X199207Y205389I-8508J10107*
G01*
G75*
G03X199726Y205892I-17103J18157*
G01*
G75*
G03X199797Y206063I-171J172*
G01*
G75*
G02X199809Y206121I136J0*
G01*
G75*
G02X199852Y206198I567J-263*
G01*
G75*
G02X199913Y206279I641J-419*
G01*
G75*
G02X199985Y206353I620J-529*
G01*
G75*
G03X200069Y206458I-280J309*
G01*
G75*
G03X200169Y206655I-2383J1334*
G01*
G75*
G03X200266Y206892I-2898J1331*
G01*
G75*
G03X200346Y207141I-3232J1181*
G01*
G75*
G03X200451Y207715I-3015J844*
G01*
G75*
G03X200460Y208348I-4340J379*
G01*
G75*
G03X200382Y208926I-3896J-229*
G01*
G75*
G03X200219Y209314I-1085J-229*
G01*
G75*
G02X200017Y209627I8477J5674*
G01*
G75*
G02X199826Y209950I8876J5485*
G01*
G75*
G02X199633Y210302I10535J5990*
G01*
G75*
G02X199426Y210707I17486J9211*
G01*
G75*
G03X198890Y211501I-3254J-1617*
G01*
G75*
G03X198135Y212183I-3446J-3059*
G01*
G75*
G03X197178Y212734I-3196J-4439*
G01*
G75*
G03X196047Y213138I-3133J-6990*
G01*
G75*
G03X195170Y213295I-1335J-4925*
G01*
G75*
G03X193900Y213370I-1827J-20305*
G01*
G75*
G03X192566Y213364I-574J-21038*
G01*
G75*
G03X191447Y213264I384J-10651*
G01*
X191873Y194644D02*
G75*
G03X191857Y194580I124J-65D01*
G01*
G75*
G03X191856Y194167I63719J-328*
G01*
G75*
G03X191861Y193687I26621J44*
G01*
G75*
G03X191875Y193133I47236J931*
G01*
X191920Y191703*
X192233Y191733*
X192547Y191764*
Y194664*
X192231Y194694*
G75*
G03X192107Y194700I-121J-1244*
G01*
G75*
G03X191996Y194692I2J-821*
G01*
G75*
G03X191909Y194674I84J-607*
G01*
G75*
G03X191873Y194644I17J-57*
G01*
X192397Y192974D02*
G75*
G02X192390Y192548I-13927J5D01*
G01*
G75*
G02X192365Y192298I-1861J58*
G01*
G75*
G02X192321Y192148I-617J102*
G01*
G75*
G02X192247Y192078I-122J54*
G01*
G75*
G02X192171Y192096I-24J63*
G01*
G75*
G02X192124Y192195I157J135*
G01*
G75*
G02X192102Y192424I1446J260*
G01*
G75*
G02X192097Y192917I24408J480*
G01*
G75*
G02X192102Y193392I19906J7*
G01*
G75*
G02X192126Y193639I1750J-43*
G01*
G75*
G02X192171Y193769I403J-67*
G01*
G75*
G02X192322Y193771I76J-42*
G01*
G75*
G02X192367Y193649I-314J-187*
G01*
G75*
G02X192391Y193416I-1530J-273*
G01*
G75*
G02X192397Y192974I-16880J-446*
G01*
X194060Y193906D02*
G75*
G03X193913Y193761I576J-731D01*
G01*
G75*
G03X193837Y193612I311J-253*
G01*
G75*
G03X193804Y193390I945J-252*
G01*
G75*
G03X193797Y192922I14850J-459*
G01*
G75*
G03X193844Y192231I5041J-2*
G01*
G75*
G03X194027Y191928I444J62*
G01*
G75*
G03X194418Y191785I452J628*
G01*
G75*
G03X195453Y191730I1578J20174*
G01*
G75*
G03X196249Y191715I1543J57844*
G01*
G75*
G03X196559Y191735I25J1946*
G01*
G75*
G03X196754Y191804I-79J533*
G01*
G75*
G03X196943Y191951I-482J819*
G01*
G75*
G03X197080Y192117I-779J778*
G01*
G75*
G03X197154Y192281I-453J303*
G01*
G75*
G03X197188Y192507I-1031J270*
G01*
G75*
G03X197197Y192914I-9447J414*
G01*
G75*
G03X197188Y193317I-9331J-8*
G01*
G75*
G03X197154Y193543I-1099J-47*
G01*
G75*
G03X197082Y193706I-533J-138*
G01*
G75*
G03X196951Y193868I-840J-547*
G01*
G75*
G03X196768Y194007I-606J-606*
G01*
G75*
G03X196570Y194078I-301J-531*
G01*
G75*
G03X196254Y194107I-348J-2042*
G01*
G75*
G03X195515Y194114I-759J-45769*
G01*
G75*
G03X194829Y194107I0J-35161*
G01*
G75*
G03X194480Y194079I57J-2873*
G01*
G75*
G03X194253Y194018I138J-967*
G01*
G75*
G03X194060Y193906I294J-730*
G01*
X194472Y193606D02*
G75*
G03X194387Y193524I126J-217D01*
G01*
G75*
G03X194333Y193401I353J-225*
G01*
G75*
G03X194305Y193212I957J-243*
G01*
G75*
G03X194297Y192912I5577J-296*
G01*
G75*
G03X194337Y192456I2587J0*
G01*
G75*
G03X194480Y192237I329J59*
G01*
G75*
G03X194777Y192136I335J498*
G01*
G75*
G03X195482Y192114I703J11195*
G01*
G75*
G03X196217Y192128I5J18315*
G01*
G75*
G03X196460Y192212I-18J447*
G01*
G75*
G03X196571Y192404I-157J220*
G01*
G75*
G03X196597Y192914I-5064J510*
G01*
G75*
G03X196590Y193257I-8400J-1*
G01*
G75*
G03X196564Y193463I-1220J-50*
G01*
G75*
G03X196515Y193587I-414J-90*
G01*
G75*
G03X196439Y193653I-131J-76*
G01*
G75*
G03X196137Y193711I-315J-821*
G01*
G75*
G03X195429Y193708I-273J-18252*
G01*
G75*
G03X194715Y193679I518J-21459*
G01*
G75*
G03X194472Y193606I31J-544*
G01*
X196203Y193410D02*
G75*
G02X196293Y193339I-153J-285D01*
G01*
G75*
G02X196353Y193241I-246J-218*
G01*
G75*
G02X196386Y193104I-502J-195*
G01*
G75*
G02X196397Y192914I-1739J-193*
G01*
G75*
G02X196350Y192610I-1008*
G01*
G75*
G02X196211Y192431I-315J100*
G01*
G75*
G02X195943Y192338I-330J522*
G01*
G75*
G02X195447Y192314I-493J4974*
G01*
G75*
G02X194965Y192338I-2J4794*
G01*
G75*
G02X194692Y192426I69J682*
G01*
G75*
G02X194548Y192593I167J290*
G01*
G75*
G02X194497Y192861I681J268*
G01*
G75*
G02X194557Y193156I744J0*
G01*
G75*
G02X194728Y193360I429J-185*
G01*
G75*
G02X195026Y193477I420J-631*
G01*
G75*
G02X195476Y193514I451J-2759*
G01*
G75*
G02X195694Y193506I-4J-3144*
G01*
G75*
G02X195910Y193483I-210J-3018*
G01*
G75*
G02X196094Y193450I-368J-2585*
G01*
G75*
G02X196203Y193410I-88J-408*
G01*
X196402Y209661D02*
G75*
G02X196557Y209564I-520J-1008D01*
G01*
G75*
G02X196643Y209466I-183J-245*
G01*
G75*
G02X196684Y209335I-314J-172*
G01*
G75*
G02X196697Y209125I-1793J-213*
G01*
G75*
G02X196369Y208058I-1904J0*
G01*
G75*
G02X195320Y206810I-6526J4420*
G01*
G75*
G02X193764Y205552I-7868J8143*
G01*
G75*
G02X191847Y204439I-9485J14127*
G01*
G75*
G02X191033Y204055I-9827J19790*
G01*
G75*
G02X190385Y203798I-3321J7433*
G01*
G75*
G02X189877Y203652I-1615J4645*
G01*
G75*
G02X189525Y203631I-234J1011*
G01*
G75*
G02X189372Y203665I93J796*
G01*
G75*
G02X189289Y203724I51J159*
G01*
G75*
G02X189242Y203833I206J152*
G01*
G75*
G02X189215Y204052I2501J422*
G01*
G75*
G02X189211Y204208I1443J118*
G01*
G75*
G02X189224Y204357I1210J-30*
G01*
G75*
G02X189251Y204480I958J-148*
G01*
G75*
G02X189290Y204547I148J-42*
G01*
G75*
G03X189331Y204621I-111J111*
G01*
G75*
G03X189365Y204791I-2062J499*
G01*
G75*
G03X189389Y205000I-2392J376*
G01*
G75*
G03X189397Y205228I-3308J228*
G01*
G75*
G02X189404Y205452I3461J3*
G01*
G75*
G02X189426Y205651I2197J-142*
G01*
G75*
G02X189457Y205809I1976J-311*
G01*
G75*
G02X189497Y205864I86J-21*
G01*
G75*
G03X189535Y205909I-50J82*
G01*
G75*
G03X189567Y206007I-659J269*
G01*
G75*
G03X189589Y206130I-894J224*
G01*
G75*
G03X189597Y206264I-1221J135*
G01*
G75*
G02X189604Y206398I1225J2*
G01*
G75*
G02X189626Y206520I917J-101*
G01*
G75*
G02X189658Y206618I691J-172*
G01*
G75*
G02X189697Y206664I90J-37*
G01*
G75*
G03X189735Y206709I-50J82*
G01*
G75*
G03X189767Y206807I-659J269*
G01*
G75*
G03X189789Y206930I-894J224*
G01*
G75*
G03X189797Y207064I-1221J135*
G01*
G75*
G02X189804Y207198I1225J2*
G01*
G75*
G02X189826Y207320I917J-101*
G01*
G75*
G02X189858Y207418I691J-172*
G01*
G75*
G02X189897Y207464I90J-37*
G01*
G75*
G03X189935Y207499I-72J117*
G01*
G75*
G03X189967Y207554I-244J180*
G01*
G75*
G03X189989Y207619I-314J143*
G01*
G75*
G03X189997Y207684I-284J66*
G01*
G75*
G02X190017Y207771I194J0*
G01*
G75*
G02X190099Y207922I1989J-988*
G01*
G75*
G02X190212Y208094I2185J-1305*
G01*
G75*
G02X190346Y208269I2674J-1909*
G01*
G75*
G02X190747Y208642I1564J-1281*
G01*
G75*
G02X191367Y209025I3554J-5053*
G01*
G75*
G02X192010Y209326I2931J-5434*
G01*
G75*
G02X192467Y209414I458J-1144*
G01*
G75*
G03X192593Y209421I2J1090*
G01*
G75*
G03X192709Y209443I-98J836*
G01*
G75*
G03X192802Y209475I-163J624*
G01*
G75*
G03X192847Y209514I-40J91*
G01*
G75*
G02X192894Y209553I82J-52*
G01*
G75*
G02X192999Y209587I318J-796*
G01*
G75*
G02X193132Y209612I269J-1057*
G01*
G75*
G02X193278Y209624I189J-1470*
G01*
G75*
G03X193437Y209633I-61J2386*
G01*
G75*
G03X193612Y209654I-326J3474*
G01*
G75*
G03X193775Y209682I-472J3198*
G01*
G75*
G03X193897Y209714I-214J1082*
G01*
G75*
G02X194374Y209798I547J-1711*
G01*
G75*
G02X195204Y209806I545J-13724*
G01*
G75*
G02X196030Y209766I-330J-15609*
G01*
G75*
G02X196402Y209661I-71J-963*
G01*
X196756Y193583D02*
G75*
G02X196863Y193434I-826J-710D01*
G01*
G75*
G02X196938Y193276I-769J-463*
G01*
G75*
G02X196982Y193104I-869J-313*
G01*
G75*
G02X196997Y192914I-1230J-193*
G01*
G75*
G02X196982Y192723I-1247J2*
G01*
G75*
G02X196938Y192551I-913J141*
G01*
G75*
G02X196863Y192393I-844J304*
G01*
G75*
G02X196756Y192244I-934J561*
G01*
G75*
G02X196584Y192083I-831J715*
G01*
G75*
G02X196412Y192000I-301J399*
G01*
G75*
G02X196152Y191957I-341J1278*
G01*
G75*
G02X195574Y191930I-1433J23639*
G01*
G75*
G02X194989Y191915I-880J24263*
G01*
G75*
G02X194722Y191939I-15J1371*
G01*
G75*
G02X194531Y192010I106J572*
G01*
G75*
G02X194315Y192163I822J1389*
G01*
G75*
G02X194143Y192328I1218J1446*
G01*
G75*
G02X194052Y192469I359J332*
G01*
G75*
G02X194009Y192640I526J223*
G01*
G75*
G02X193997Y192914I3022J272*
G01*
G75*
G02X194009Y193187I3030J2*
G01*
G75*
G02X194052Y193359I569J-51*
G01*
G75*
G02X194143Y193499I450J-192*
G01*
G75*
G02X194315Y193664I1390J-1281*
G01*
G75*
G02X194531Y193817I1038J-1236*
G01*
G75*
G02X194722Y193889I297J-501*
G01*
G75*
G02X194989Y193912I252J-1348*
G01*
G75*
G02X195574Y193898I-295J-24277*
G01*
G75*
G02X196152Y193870I-856J-23667*
G01*
G75*
G02X196412Y193828I-80J-1320*
G01*
G75*
G02X196584Y193744I-128J-483*
G01*
G75*
G02X196756Y193583I-660J-876*
G01*
X198514Y193882D02*
G75*
G03X198397Y193716I528J-495D01*
G01*
G75*
G03X198333Y193527I609J-312*
G01*
G75*
G03X198304Y193239I1850J-335*
G01*
G75*
G03X198297Y192682I21918J-542*
G01*
Y191714*
X198997*
Y192510*
G75*
G02X199024Y193112I6503J4*
G01*
G75*
G02X199144Y193366I413J-39*
G01*
G75*
G02X199397Y193485I292J-291*
G01*
G75*
G02X199997Y193514I603J-6394*
G01*
G75*
G02X200596Y193485I-3J-6418*
G01*
G75*
G02X200850Y193366I-39J-410*
G01*
G75*
G02X200969Y193112I-293J-293*
G01*
G75*
G02X200997Y192510I-6476J-602*
G01*
Y191714*
X201704*
X201675Y192786*
G75*
G03X201652Y193462I-41816J-1122*
G01*
G75*
G03X201616Y193726I-1435J-61*
G01*
G75*
G03X201540Y193874I-331J-76*
G01*
G75*
G03X201397Y193984I-358J-315*
G01*
G75*
G03X201224Y194039I-258J-510*
G01*
G75*
G03X200897Y194078I-791J-5300*
G01*
G75*
G03X200469Y194104I-669J-7598*
G01*
G75*
G03X199939Y194112I-554J-17701*
G01*
G75*
G03X199198Y194107I-46J-46911*
G01*
G75*
G03X198878Y194079I32J-2211*
G01*
G75*
G03X198682Y194012I97J-604*
G01*
G75*
G03X198514Y193882I323J-591*
G01*
X201287Y193673D02*
G75*
G02X201395Y193540I-389J-428D01*
G01*
G75*
G02X201458Y193383I-468J-278*
G01*
G75*
G02X201489Y193152I-1239J-282*
G01*
G75*
G02X201497Y192748I-10135J-409*
G01*
G75*
G02X201491Y192367I-12080J9*
G01*
G75*
G02X201467Y192161I-1221J38*
G01*
G75*
G02X201420Y192053I-291J60*
G01*
G75*
G02X201272Y192055I-74J50*
G01*
G75*
G02X201226Y192170I279J177*
G01*
G75*
G02X201202Y192390I1364J260*
G01*
G75*
G02X201197Y192803I14487J400*
G01*
G75*
G03X201190Y193212I-12678J-3*
G01*
G75*
G03X201165Y193445I-1549J-52*
G01*
G75*
G03X201117Y193583I-482J-89*
G01*
G75*
G03X201039Y193653I-132J-69*
G01*
G75*
G03X200780Y193704I-275J-717*
G01*
G75*
G03X199997Y193712I-795J-36471*
G01*
G75*
G03X199213Y193704I12J-36498*
G01*
G75*
G03X198955Y193653I17J-768*
G01*
G75*
G03X198876Y193583I53J-139*
G01*
G75*
G03X198829Y193445I435J-226*
G01*
G75*
G03X198803Y193212I1523J-285*
G01*
G75*
G03X198797Y192803I12671J-400*
G01*
G75*
G02X198791Y192390I-14492J1*
G01*
G75*
G02X198767Y192170I-1388J41*
G01*
G75*
G02X198721Y192055I-325J62*
G01*
G75*
G02X198647Y192014I-74J47*
G01*
G75*
G02X198573Y192052I0J91*
G01*
G75*
G02X198527Y192156I228J162*
G01*
G75*
G02X198503Y192354I1111J237*
G01*
G75*
G02X198497Y192718I10857J358*
G01*
G75*
G02X198506Y193122I9272J3*
G01*
G75*
G02X198540Y193346I1053J-46*
G01*
G75*
G02X198614Y193510I526J-139*
G01*
G75*
G02X198751Y193677I926J-622*
G01*
G75*
G02X198934Y193823I737J-736*
G01*
G75*
G02X199114Y193891I263J-420*
G01*
G75*
G02X199388Y193913I255J-1481*
G01*
G75*
G02X200041Y193898I-493J-34862*
G01*
G75*
G02X200593Y193872I-676J-20562*
G01*
G75*
G02X200917Y193833I-163J-2742*
G01*
G75*
G02X201130Y193772I-191J-1054*
G01*
G75*
G02X201287Y193673I-200J-493*
G01*
X294547Y213514D02*
Y209334D01*
X295254Y209263*
G75*
G02X295597Y209220I-768J-7585*
G01*
G75*
G02X295817Y209171I-214J-1459*
G01*
G75*
G02X295954Y209109I-175J-571*
G01*
G75*
G02X296019Y209028I-82J-133*
G01*
G75*
G03X296146Y208787I881J310*
G01*
G75*
G03X296337Y208589I796J581*
G01*
G75*
G03X296568Y208459I560J719*
G01*
G75*
G03X296809Y208414I241J622*
G01*
G75*
G02X296938Y208406I-1J-1146*
G01*
G75*
G02X297057Y208384I-99J-870*
G01*
G75*
G02X297152Y208352I-167J-651*
G01*
G75*
G02X297197Y208314I-38J-91*
G01*
G75*
G03X297279Y208267I85J52*
G01*
G75*
G03X298402Y208239I7604J291089*
G01*
G75*
G03X299806Y208220I1951J89069*
G01*
G75*
G03X301734Y208214I1909J308554*
G01*
G75*
G02X304196Y208209I-17J-600317*
G01*
G75*
G02X305424Y208187I-193J-44979*
G01*
G75*
G02X306178Y208150I-721J-22836*
G01*
G75*
G02X306403Y208067I-26J-417*
G01*
G75*
G03X306487Y208010I519J683*
G01*
G75*
G03X306581Y207962I495J851*
G01*
G75*
G03X306670Y207928I353J784*
G01*
G75*
G03X306737Y207917I72J227*
G01*
G75*
G02X307043Y207846I-18J-774*
G01*
G75*
G02X307502Y207606I-2131J-4631*
G01*
G75*
G02X307945Y207312I-2529J-4288*
G01*
G75*
G02X308224Y207040I-882J-1185*
G01*
G75*
G02X308627Y206425I-3333J-2623*
G01*
G75*
G02X308956Y205698I-5148J-2766*
G01*
G75*
G02X309175Y204955I-5215J-1940*
G01*
G75*
G02X309247Y204293I-3004J-664*
G01*
Y203914*
X309754*
G75*
G02X310119Y203892I-2J-3084*
G01*
G75*
G02X310402Y203824I-148J-1243*
G01*
G75*
G02X310585Y203719I-214J-581*
G01*
G75*
G02X310648Y203585I-113J-135*
G01*
G75*
G03X310673Y203526I84J1*
G01*
G75*
G03X310772Y203441I750J765*
G01*
G75*
G03X310907Y203349I826J1076*
G01*
G75*
G03X311067Y203264I1052J1775*
G01*
G75*
G03X311430Y203149I588J1226*
G01*
G75*
G03X311945Y203093I742J4433*
G01*
G75*
G03X312844Y203069I981J19589*
G01*
G75*
G03X315045Y203064I2187J506315*
G01*
G75*
G03X317159Y203069I20J464200*
G01*
G75*
G03X318081Y203092I-100J22243*
G01*
G75*
G03X318604Y203139I-278J5987*
G01*
G75*
G03X318875Y203240I-87J648*
G01*
G75*
G03X319195Y203518I-865J1319*
G01*
G75*
G03X319378Y203838I-686J604*
G01*
G75*
G03X319475Y204322I-1993J650*
G01*
G75*
G03X319528Y205239I-21256J1683*
G01*
G75*
G03X319531Y206559I-20001J720*
G01*
G75*
G03X319435Y207632I-8926J-265*
G01*
G75*
G03X319229Y208541I-6407J-973*
G01*
G75*
G03X318902Y209359I-4946J-1500*
G01*
G75*
G03X318270Y210406I-7011J-3519*
G01*
G75*
G03X317438Y211426I-8493J-6082*
G01*
G75*
G03X316528Y212289I-7101J-6578*
G01*
G75*
G03X315661Y212857I-2923J-3515*
G01*
G75*
G03X314581Y213255I-2296J-4557*
G01*
G75*
G03X313363Y213438I-1600J-6520*
G01*
G75*
G03X311214Y213502I-2257J-39815*
G01*
G75*
G03X304122Y213512I-7553J-2673193*
G01*
X294547Y213514*
X294970Y205889D02*
G75*
G03X295006Y205326I13926J604D01*
G01*
G75*
G03X295062Y204861I6617J561*
G01*
G75*
G03X295143Y204453I5056J783*
G01*
G75*
G03X295254Y204064I4457J1071*
G01*
G75*
G03X295566Y203340I4546J1528*
G01*
G75*
G03X296022Y202593I6462J3434*
G01*
G75*
G03X296568Y201900I6068J4223*
G01*
G75*
G03X297148Y201344I3820J3402*
G01*
G75*
G02X297438Y201106I-243152J-296990*
G01*
G75*
G02X297776Y200830I-440327J-537130*
G01*
G75*
G02X298106Y200558I-431559J-525222*
G01*
G75*
G02X298373Y200338I-185301J-225352*
G01*
G75*
G03X298602Y200154I7753J9402*
G01*
G75*
G03X298816Y199991I5168J6578*
G01*
G75*
G03X298998Y199861I5536J7558*
G01*
G75*
G03X299073Y199824I159J227*
G01*
G75*
G02X299137Y199798I-121J-383*
G01*
G75*
G02X299239Y199742I-1234J-2370*
G01*
G75*
G02X299352Y199673I-1514J-2610*
G01*
G75*
G02X299463Y199599I-1659J-2609*
G01*
G75*
G03X299579Y199528I621J889*
G01*
G75*
G03X299710Y199468I624J1183*
G01*
G75*
G03X299835Y199426I437J1100*
G01*
G75*
G03X299931Y199414I96J356*
G01*
G75*
G02X300014Y199406I0J-464*
G01*
G75*
G02X300094Y199384I-81J-449*
G01*
G75*
G02X300159Y199352I-130J-344*
G01*
G75*
G02X300197Y199314I-62J-102*
G01*
G75*
G03X300237Y199275I94J57*
G01*
G75*
G03X300311Y199243I211J381*
G01*
G75*
G03X300401Y199221I176J528*
G01*
G75*
G03X300497Y199214I94J619*
G01*
G75*
G02X300593Y199206I-1J-624*
G01*
G75*
G02X300683Y199184I-86J-550*
G01*
G75*
G02X300757Y199152I-138J-413*
G01*
G75*
G02X300797Y199114I-53J-96*
G01*
G75*
G03X300843Y199075I83J50*
G01*
G75*
G03X300940Y199043I269J659*
G01*
G75*
G03X301063Y199021I224J894*
G01*
G75*
G03X301197Y199014I132J1221*
G01*
G75*
G02X301331Y199006I-1J-1225*
G01*
G75*
G02X301454Y198984I-101J-917*
G01*
G75*
G02X301552Y198952I-172J-691*
G01*
G75*
G02X301597Y198914I-37J-90*
G01*
G75*
G03X301657Y198874I73J44*
G01*
G75*
G03X301902Y198843I852J5725*
G01*
G75*
G03X302202Y198821I501J4776*
G01*
G75*
G03X302547Y198814I341J8198*
G01*
G75*
G02X302892Y198806I-6J-8196*
G01*
G75*
G02X303193Y198784I-200J-4798*
G01*
G75*
G02X303437Y198753I-608J-5756*
G01*
G75*
G02X303497Y198714I-12J-85*
G01*
G75*
G03X303557Y198674I73J44*
G01*
G75*
G03X303802Y198643I852J5725*
G01*
G75*
G03X304102Y198621I501J4776*
G01*
G75*
G03X304447Y198614I341J8198*
G01*
G75*
G02X304792Y198606I-6J-8196*
G01*
G75*
G02X305093Y198584I-200J-4798*
G01*
G75*
G02X305337Y198553I-608J-5756*
G01*
G75*
G02X305397Y198514I-12J-85*
G01*
G75*
G03X305443Y198475I83J50*
G01*
G75*
G03X305540Y198443I269J659*
G01*
G75*
G03X305663Y198421I224J894*
G01*
G75*
G03X305797Y198414I132J1221*
G01*
G75*
G02X305931Y198406I-1J-1225*
G01*
G75*
G02X306054Y198384I-101J-917*
G01*
G75*
G02X306152Y198352I-172J-691*
G01*
G75*
G02X306197Y198314I-37J-90*
G01*
G75*
G03X306237Y198275I95J58*
G01*
G75*
G03X306309Y198243I208J367*
G01*
G75*
G03X306398Y198221I174J511*
G01*
G75*
G03X306491Y198214I91J583*
G01*
G75*
G02X306730Y198180I-1J-884*
G01*
G75*
G02X307068Y198069I-1054J-3745*
G01*
G75*
G02X307536Y197872I-2900J-7565*
G01*
G75*
G02X308226Y197548I-16230J-35467*
G01*
G75*
G02X309136Y196977I-2080J-4325*
G01*
G75*
G02X309874Y196228I-2739J-3435*
G01*
G75*
G02X310382Y195364I-3153J-2438*
G01*
G75*
G02X310619Y194452I-2868J-1232*
G01*
X310675Y193914*
X311192*
G75*
G02X311512Y193901I-2J-4126*
G01*
G75*
G02X311680Y193852I-33J-426*
G01*
G75*
G02X311817Y193740I-210J-396*
G01*
G75*
G02X312018Y193474I-3663J-2988*
G01*
G75*
G03X312221Y193215I2731J1922*
G01*
G75*
G03X312385Y193081I461J400*
G01*
G75*
G03X312601Y192998I403J718*
G01*
G75*
G03X313024Y192911I1912J8236*
G01*
G75*
G03X313627Y192843I812J4541*
G01*
G75*
G03X314400Y192833I539J11968*
G01*
G75*
G03X315579Y192877I-648J33686*
G01*
G75*
G03X317747Y193002I-18190J334956*
G01*
G75*
G03X318754Y193076I-2365J38850*
G01*
G75*
G03X319285Y193162I-319J3658*
G01*
G75*
G03X319626Y193295I-303J1274*
G01*
G75*
G03X319897Y193513I-529J940*
G01*
G75*
G03X320008Y193702I-404J364*
G01*
G75*
G03X320065Y193966I-1130J383*
G01*
G75*
G03X320089Y194418I-4848J484*
G01*
G75*
G03X320092Y195449I-99493J744*
G01*
G75*
G03X320081Y196557I-93904J-314*
G01*
G75*
G03X320048Y197026I-4101J-61*
G01*
G75*
G03X319964Y197374I-1670J-218*
G01*
G75*
G03X319783Y197814I-4809J-1713*
G01*
G75*
G03X319656Y198072I-5520J-2569*
G01*
G75*
G03X319521Y198313I-4474J-2346*
G01*
G75*
G03X319396Y198510I-3912J-2335*
G01*
G75*
G03X319314Y198601I-349J-234*
G01*
G75*
G02X319250Y198660I474J576*
G01*
G75*
G02X319196Y198724I463J444*
G01*
G75*
G02X319158Y198784I412J305*
G01*
G75*
G02X319147Y198827I80J43*
G01*
G75*
G03X319083Y199010I-292*
G01*
G75*
G03X318633Y199553I-19390J-15613*
G01*
G75*
G03X318156Y200083I-10253J-8738*
G01*
G75*
G03X317764Y200450I-3222J-3057*
G01*
G75*
G03X316824Y201080I-3604J-4360*
G01*
G75*
G03X315789Y201502I-2546J-4764*
G01*
G75*
G03X314495Y201765I-2246J-7724*
G01*
G75*
G03X312735Y201912I-2972J-24931*
G01*
G75*
G02X311401Y202013I1201J24689*
G01*
G75*
G02X310001Y202190I3128J30418*
G01*
G75*
G02X308763Y202402I4411J29444*
G01*
G75*
G02X308097Y202607I617J3183*
G01*
G75*
G03X307996Y202649I-1487J-3481*
G01*
G75*
G03X307853Y202705I-5404J-13543*
G01*
G75*
G03X307696Y202765I-5756J-15008*
G01*
G75*
G03X307547Y202819I-4366J-11784*
G01*
G75*
G02X306787Y203159I1824J5090*
G01*
G75*
G02X306078Y203616I2706J4978*
G01*
G75*
G02X305507Y204123I2901J3841*
G01*
G75*
G02X305171Y204614I1313J1259*
G01*
G75*
G03X305079Y204776I-1068J-500*
G01*
G75*
G03X304932Y204978I-3080J-2081*
G01*
G75*
G03X304760Y205185I-3207J-2506*
G01*
G75*
G03X304587Y205364I-2239J-1991*
G01*
G75*
G02X304359Y205602I2327J2450*
G01*
G75*
G02X304220Y205805I824J715*
G01*
G75*
G02X304126Y206041I1048J557*
G01*
G75*
G02X304043Y206389I4311J1203*
G01*
X303921Y207014*
X294922*
X294970Y205889*
X301847Y199718D02*
G75*
G02X303120Y199614I-1913J-31378D01*
G01*
G75*
G02X304157Y199470I-1456J-14298*
G01*
G75*
G02X305069Y199270I-1918J-10890*
G01*
G75*
G02X305947Y198995I-2692J-10150*
G01*
G75*
G02X306560Y198750I-3294J-9128*
G01*
G75*
G02X307158Y198462I-4011J-9107*
G01*
G75*
G02X307374Y198312I-477J-913*
G01*
G75*
G02X307347Y198264I-19J-21*
G01*
G75*
G03X307231Y198294I-1161J-4252*
G01*
G75*
G03X307089Y198328I-2335J-9485*
G01*
G75*
G03X306945Y198359I-2212J-9678*
G01*
G75*
G03X306821Y198385I-1117J-5178*
G01*
G75*
G02X306711Y198411I209J1110*
G01*
G75*
G02X306610Y198447I264J896*
G01*
G75*
G02X306529Y198487I296J700*
G01*
G75*
G02X306490Y198525I55J96*
G01*
G75*
G03X306448Y198559I-70J-43*
G01*
G75*
G03X306352Y198587I-265J-730*
G01*
G75*
G03X306231Y198607I-219J-963*
G01*
G75*
G03X306097Y198614I-136J-1371*
G01*
G75*
G02X305963Y198621I-2J1228*
G01*
G75*
G02X305840Y198643I101J917*
G01*
G75*
G02X305743Y198675I172J691*
G01*
G75*
G02X305697Y198714I37J89*
G01*
G75*
G03X305637Y198753I-72J-45*
G01*
G75*
G03X305393Y198784I-852J-5725*
G01*
G75*
G03X305092Y198806I-501J-4776*
G01*
G75*
G03X304747Y198814I-350J-8188*
G01*
G75*
G02X304402Y198821I-4J8205*
G01*
G75*
G02X304102Y198843I200J4798*
G01*
G75*
G02X303857Y198874I608J5756*
G01*
G75*
G02X303797Y198914I13J84*
G01*
G75*
G03X303737Y198953I-72J-45*
G01*
G75*
G03X303493Y198984I-852J-5725*
G01*
G75*
G03X303192Y199006I-501J-4776*
G01*
G75*
G03X302847Y199014I-350J-8188*
G01*
G75*
G02X302502Y199021I-4J8205*
G01*
G75*
G02X302202Y199043I200J4798*
G01*
G75*
G02X301957Y199074I608J5756*
G01*
G75*
G02X301897Y199114I13J84*
G01*
G75*
G03X301852Y199152I-82J-51*
G01*
G75*
G03X301754Y199184I-269J-659*
G01*
G75*
G03X301631Y199206I-224J-894*
G01*
G75*
G03X301497Y199214I-135J-1218*
G01*
G75*
G02X301363Y199221I-2J1228*
G01*
G75*
G02X301240Y199243I101J917*
G01*
G75*
G02X301143Y199275I172J691*
G01*
G75*
G02X301097Y199314I37J89*
G01*
G75*
G03X301057Y199352I-93J-58*
G01*
G75*
G03X300983Y199384I-211J-381*
G01*
G75*
G03X300893Y199406I-176J-528*
G01*
G75*
G03X300797Y199414I-96J-616*
G01*
G75*
G02X300701Y199421I-2J626*
G01*
G75*
G02X300611Y199443I86J550*
G01*
G75*
G02X300537Y199475I138J413*
G01*
G75*
G02X300497Y199514I54J96*
G01*
G75*
G03X300457Y199552I-94J-59*
G01*
G75*
G03X300385Y199584I-208J-367*
G01*
G75*
G03X300297Y199606I-174J-509*
G01*
G75*
G03X300204Y199614I-94J-585*
G01*
G75*
G02X300105Y199626J406*
G01*
G75*
G02X299999Y199662I152J613*
G01*
G75*
G02X299904Y199716I253J559*
G01*
G75*
G02X299834Y199780I191J280*
G01*
G75*
G02X299761Y199876I1143J945*
G01*
G75*
G02X299767Y199908I19J13*
G01*
G75*
G02X299815Y199917I35J-57*
G01*
G75*
G02X299997Y199879I-1269J-6579*
G01*
G75*
G03X300189Y199848I351J1578*
G01*
G75*
G03X300664Y199804I4100J41574*
G01*
G75*
G03X301231Y199759I3394J38952*
G01*
G75*
G03X301847Y199718I3924J53841*
G01*
X305101Y209059D02*
G75*
G02X305556Y208919I-1367J-5253D01*
G01*
G75*
G02X306125Y208704I-4825J-13590*
G01*
G75*
G02X306698Y208467I-17222J-42635*
G01*
G75*
G02X306747Y208394I-31J-73*
G01*
G75*
G02X306685Y208333I-62*
G01*
G75*
G02X302157Y208393I159934J12355036*
G01*
G75*
G02X297654Y208454I115047J8601165*
G01*
G75*
G02X297503Y208517I3J217*
G01*
G75*
G03X297446Y208555I-117J-116*
G01*
G75*
G03X297348Y208585I-288J-750*
G01*
G75*
G03X297230Y208607I-233J-951*
G01*
G75*
G03X297109Y208614I-121J-1036*
G01*
G75*
G02X296883Y208659I-1J578*
G01*
G75*
G02X296623Y208801I594J1396*
G01*
G75*
G02X296410Y208978I808J1190*
G01*
G75*
G02X296347Y209131I154J152*
G01*
G75*
G02X296380Y209165I33*
G01*
G75*
G02X297545Y209189I15784J-725747*
G01*
G75*
G02X298862Y209207I2091J-104177*
G01*
G75*
G02X300426Y209214I1614J-206495*
G01*
G75*
G02X302615Y209207I-55J-399426*
G01*
G75*
G02X303839Y209184I-244J-44353*
G01*
G75*
G02X304619Y209140I-553J-16843*
G01*
G75*
G02X305101Y209059I-222J-2799*
G01*
X318915Y208637D02*
G75*
G02X319113Y208038I-2580J-1187D01*
G01*
G75*
G02X319254Y207183I-9544J-2017*
G01*
G75*
G02X319329Y206216I-11379J-1367*
G01*
G75*
G02X319322Y205250I-11248J-396*
G01*
G75*
G02X319261Y204512I-12272J630*
G01*
G75*
G02X319156Y204092I-1600J179*
G01*
G75*
G02X318960Y203784I-917J367*
G01*
G75*
G02X318609Y203470I-1951J1827*
G01*
G75*
G02X318341Y203349I-407J546*
G01*
G75*
G02X317915Y203292I-594J2830*
G01*
G75*
G02X317135Y203268I-837J14488*
G01*
G75*
G02X315058Y203264I-2064J491785*
G01*
G75*
G02X313048Y203269I-42J409888*
G01*
G75*
G02X312209Y203293I84J17069*
G01*
G75*
G02X311721Y203350I219J4033*
G01*
G75*
G02X311367Y203464I241J1356*
G01*
G75*
G02X311130Y203689I229J479*
G01*
G75*
G02X311209Y203846I94J51*
G01*
G75*
G02X312035Y203910I912J-6468*
G01*
G75*
G02X314722Y203937I5600J-414956*
G01*
X318497Y203964*
X318524Y206539*
G75*
G02X318539Y207526I92599J-983*
G01*
G75*
G02X318564Y208357I46674J-978*
G01*
G75*
G02X318594Y209083I228811J-8932*
G01*
G75*
G02X318624Y209112I30J-1*
G01*
G75*
G02X318662Y209091I-1J-48*
G01*
G75*
G02X318739Y208972I-2284J-1570*
G01*
G75*
G02X318826Y208818I-2111J-1292*
G01*
G75*
G02X318915Y208637I-3787J-1965*
G01*
X319651Y197440D02*
G75*
G02X319775Y197120I-2039J-976D01*
G01*
G75*
G02X319843Y196800I-1820J-549*
G01*
G75*
G02X319875Y196348I-4595J-559*
G01*
G75*
G02X319888Y195497I-49678J-1161*
G01*
G75*
G02X319889Y194555I-83949J-541*
G01*
G75*
G02X319862Y194190I-2750J16*
G01*
G75*
G02X319792Y193967I-687J94*
G01*
G75*
G02X319647Y193763I-811J419*
G01*
G75*
G02X319260Y193474I-996J932*
G01*
G75*
G02X318780Y193322I-720J1443*
G01*
G75*
G02X317891Y193228I-1521J10127*
G01*
G75*
G02X314897Y193050I-44613J723555*
G01*
G75*
G02X314066Y193035I-590J10197*
G01*
G75*
G02X313364Y193099I126J5318*
G01*
G75*
G02X312817Y193230I552J3504*
G01*
G75*
G02X312478Y193431I281J859*
G01*
G75*
G02X312370Y193687I235J250*
G01*
G75*
G02X312513Y193851I169J-3*
G01*
G75*
G02X313211Y193911I766J-4832*
G01*
G75*
G02X315672Y193937I5564J-398372*
G01*
X319097Y193964*
X319154Y195964*
G75*
G02X319178Y196733I247509J-7219*
G01*
G75*
G02X319200Y197385I128899J-4107*
G01*
G75*
G02X319222Y197968I1076944J-39730*
G01*
G75*
G02X319230Y197994I59J-2*
G01*
G75*
G02X319287Y198006I34J-19*
G01*
G75*
G02X319384Y197910I-311J-407*
G01*
G75*
G02X319508Y197719I-1237J-939*
G01*
G75*
G02X319651Y197440I-4746J-2613*
G01*
X325687Y193904D02*
G75*
G03X325586Y193736I386J-349D01*
G01*
G75*
G03X325530Y193511I950J-356*
G01*
G75*
G03X325503Y193146I3270J-423*
G01*
G75*
G03X325497Y192428I41018J-696*
G01*
Y191164*
X325843*
G75*
G03X326027Y191174I1J1643*
G01*
G75*
G03X326134Y191211I-29J257*
G01*
G75*
G03X326200Y191285I-95J152*
G01*
G75*
G03X326247Y191414I-545J269*
G01*
G75*
G02X326320Y191559I331J-77*
G01*
G75*
G02X326448Y191637I188J-163*
G01*
G75*
G02X326705Y191676I335J-1331*
G01*
G75*
G02X327435Y191714I3188J-55081*
G01*
G75*
G03X328347Y191786I-579J13140*
G01*
G75*
G03X328723Y191946I-81J712*
G01*
G75*
G03X328901Y192267I-320J387*
G01*
G75*
G03X328947Y192967I-5266J701*
G01*
G75*
G03X328939Y193404I-12267J-3*
G01*
G75*
G03X328906Y193617I-911J-33*
G01*
G75*
G03X328830Y193763I-384J-107*
G01*
G75*
G03X328683Y193906I-733J-602*
G01*
G75*
G03X328487Y194019I-478J-609*
G01*
G75*
G03X328254Y194079I-369J-942*
G01*
G75*
G03X327887Y194107I-422J-3117*
G01*
G75*
G03X327149Y194114I-753J-42333*
G01*
G75*
G03X326389Y194108I8J-49954*
G01*
G75*
G03X326047Y194081I42J-2688*
G01*
G75*
G03X325843Y194019I101J-704*
G01*
G75*
G03X325687Y193904I214J-452*
G01*
X326167Y193628D02*
G75*
G03X326109Y193553I75J-118D01*
G01*
G75*
G03X326075Y193402I805J-260*
G01*
G75*
G03X326060Y193177I1757J-230*
G01*
G75*
G03X326067Y192855I7191J-12*
G01*
X326097Y192164*
X327072Y192135*
G75*
G03X327899Y192132I476J16259*
G01*
G75*
G03X328237Y192223I-16J730*
G01*
G75*
G03X328399Y192441I-159J286*
G01*
G75*
G03X328447Y192897I-2135J457*
G01*
G75*
G03X328438Y193127I-2999J-4*
G01*
G75*
G03X328412Y193339I-2274J-174*
G01*
G75*
G03X328374Y193513I-1913J-330*
G01*
G75*
G03X328327Y193594I-174J-46*
G01*
G75*
G03X328118Y193686I-224J-224*
G01*
G75*
G03X327274Y193712I-1298J-28021*
G01*
G75*
G03X326441Y193711I-373J-23146*
G01*
G75*
G03X326167Y193628I11J-531*
G01*
X328064Y193348D02*
G75*
G02X328206Y193142I-362J-400D01*
G01*
G75*
G02X328245Y192887I-564J-217*
G01*
G75*
G02X328174Y192641I-589J38*
G01*
G75*
G02X328007Y192461I-442J242*
G01*
G75*
G02X327854Y192389I-330J503*
G01*
G75*
G02X327657Y192346I-354J1152*
G01*
G75*
G02X327394Y192328I-280J2147*
G01*
G75*
G02X327033Y192334I-67J7472*
G01*
X326297Y192364*
X326265Y192810*
G75*
G02X326286Y193173I1414J101*
G01*
G75*
G02X326417Y193380I326J-61*
G01*
G75*
G02X326693Y193486I335J-459*
G01*
G75*
G02X327233Y193514I540J-5279*
G01*
G75*
G02X327544Y193504I-7J-5332*
G01*
G75*
G02X327773Y193475I-96J-1669*
G01*
G75*
G02X327943Y193424I-183J-919*
G01*
G75*
G02X328064Y193348I-156J-381*
G01*
X328175Y193822D02*
G75*
G02X328446Y193681I-479J-1256D01*
G01*
G75*
G02X328620Y193504I-339J-506*
G01*
G75*
G02X328715Y193263I-564J-361*
G01*
G75*
G02X328744Y192931I-1755J-319*
G01*
G75*
G02X328655Y192420I-1581J11*
G01*
G75*
G02X328405Y192113I-548J192*
G01*
G75*
G02X327923Y191956I-591J990*
G01*
G75*
G02X327038Y191914I-881J9289*
G01*
G75*
G03X326465Y191908I5J-30328*
G01*
G75*
G03X326250Y191879I18J-925*
G01*
G75*
G03X326132Y191804I58J-224*
G01*
G75*
G03X326044Y191656I391J-331*
G01*
G75*
G02X325997Y191560I-549J209*
G01*
G75*
G02X325938Y191485I-320J193*
G01*
G75*
G02X325876Y191443I-161J166*
G01*
G75*
G02X325821Y191439I-31J67*
G01*
G75*
G02X325763Y191503I29J85*
G01*
G75*
G02X325726Y191698I1576J394*
G01*
G75*
G02X325704Y191994I3134J391*
G01*
G75*
G02X325697Y192440I15096J436*
G01*
G75*
G02X325704Y193010I22907J1*
G01*
G75*
G02X325735Y193288I1629J-39*
G01*
G75*
G02X325806Y193476I606J-121*
G01*
G75*
G02X325939Y193656I840J-484*
G01*
G75*
G02X326109Y193800I740J-698*
G01*
G75*
G02X326278Y193874I283J-415*
G01*
G75*
G02X326530Y193906I285J-1241*
G01*
G75*
G02X327058Y193914I538J-19326*
G01*
G75*
G02X327411Y193907I-10J-9284*
G01*
G75*
G02X327748Y193887I-290J-7699*
G01*
G75*
G02X328031Y193857I-579J-7023*
G01*
G75*
G02X328175Y193822I-74J-613*
G01*
X330093Y194590D02*
G75*
G03X330073Y194490I282J-109D01*
G01*
G75*
G03X330065Y194098I32430J-913*
G01*
G75*
G03X330062Y193634I21123J-340*
G01*
G75*
G03X330069Y193109I34432J176*
G01*
X330097Y191764*
X330797*
Y194664*
X330471Y194695*
G75*
G03X330330Y194700I-108J-1105*
G01*
G75*
G03X330217Y194682I16J-476*
G01*
G75*
G03X330137Y194645I73J-262*
G01*
G75*
G03X330093Y194590I67J-98*
G01*
X330597Y193205D02*
G75*
G02X330592Y192588I-35527J9D01*
G01*
G75*
G02X330569Y192279I-2741J47*
G01*
G75*
G02X330525Y192115I-637J84*
G01*
G75*
G02X330447Y192064I-78J32*
G01*
G75*
G02X330369Y192113J86*
G01*
G75*
G02X330321Y192267I543J255*
G01*
G75*
G02X330289Y192555I2351J403*
G01*
G75*
G02X330269Y193107I26658J1285*
G01*
G75*
G02X330257Y193833I30466J842*
G01*
G75*
G02X330285Y194191I2228J8*
G01*
G75*
G02X330355Y194353I352J-56*
G01*
G75*
G02X330472Y194389I83J-65*
G01*
G75*
G02X330533Y194321I-29J-87*
G01*
G75*
G02X330569Y194095I-2168J-459*
G01*
G75*
G02X330591Y193747I-4229J-448*
G01*
G75*
G02X330597Y193205I-23333J-542*
G01*
X331892Y214018D02*
G75*
G03X331617Y213839I321J-794D01*
G01*
G75*
G03X331324Y213506I1939J-2004*
G01*
G75*
G03X331067Y213100I2495J-1863*
G01*
G75*
G03X330899Y212690I1979J-1050*
G01*
G75*
G03X330388Y210368I15582J-4646*
G01*
G75*
G03X330065Y207364I41298J-5958*
G01*
G75*
G03X329953Y204191I44498J-3162*
G01*
G75*
G03X330091Y201314I30260J7*
G01*
G75*
G03X330228Y200071I42055J4033*
G01*
G75*
G03X330377Y199146I13474J1695*
G01*
G75*
G03X330553Y198427I7993J1573*
G01*
G75*
G03X330774Y197836I4123J1205*
G01*
G75*
G03X330965Y197505I1938J895*
G01*
G75*
G03X331198Y197242I1259J882*
G01*
G75*
G03X331449Y197071I763J852*
G01*
G75*
G03X331693Y197014I244J487*
G01*
G75*
G02X331794Y196996J-296*
G01*
G75*
G02X331917Y196940I-297J-818*
G01*
G75*
G02X332041Y196859I-485J-877*
G01*
G75*
G02X332147Y196764I-522J-689*
G01*
G75*
G03X332295Y196634I741J693*
G01*
G75*
G03X332443Y196560I304J424*
G01*
G75*
G03X332637Y196524I249J798*
G01*
G75*
G03X332947Y196514I304J4685*
G01*
G75*
G03X333458Y196568J2432*
G01*
G75*
G03X333752Y196743I-111J520*
G01*
G75*
G03X333904Y197081I-507J432*
G01*
G75*
G03X333947Y197689I-4254J609*
G01*
G75*
G03X333940Y197967I-5305J-4*
G01*
G75*
G03X333918Y198211I-3219J-168*
G01*
G75*
G03X333887Y198406I-3293J-423*
G01*
G75*
G03X333847Y198464I-85J-16*
G01*
G75*
G02X333733Y198667I126J204*
G01*
G75*
G02X333742Y199833I50890J188*
G01*
G75*
G02X333785Y200954I28845J-554*
G01*
G75*
G02X333903Y201396I1136J-66*
G01*
G75*
G02X334249Y201866I1538J-768*
G01*
G75*
G02X334678Y202087I582J-604*
G01*
G75*
G02X335174Y202040I166J-893*
G01*
G75*
G02X335713Y201731I-763J-1959*
G01*
G75*
G03X336737Y200931I81718J103483*
G01*
G75*
G03X337638Y200244I46543J60161*
G01*
G75*
G03X338439Y199646I172811J230375*
G01*
G75*
G03X338536Y199614I96J130*
G01*
G75*
G02X338578Y199604I-1J-91*
G01*
G75*
G02X338633Y199570I-202J-398*
G01*
G75*
G02X338692Y199522I-319J-456*
G01*
G75*
G02X338745Y199466I-422J-449*
G01*
G75*
G03X338877Y199342I560J463*
G01*
G75*
G03X339076Y199214I1215J1677*
G01*
G75*
G03X339452Y199011I5613J9930*
G01*
G75*
G03X340565Y198438I241887J468609*
G01*
G75*
G03X341037Y198204I8817J17175*
G01*
G75*
G03X341489Y197996I6650J13874*
G01*
G75*
G03X341876Y197833I5891J13386*
G01*
G75*
G03X342072Y197775I386J946*
G01*
G75*
G03X342260Y197756I201J1078*
G01*
G75*
G03X342585Y197758I111J8470*
G01*
G75*
G03X342961Y197776I-250J9520*
G01*
G75*
G03X343343Y197808I-669J10183*
G01*
G75*
G03X343870Y197871I-1672J16119*
G01*
G75*
G03X344163Y197935I-257J1875*
G01*
G75*
G03X344369Y198028I-252J832*
G01*
G75*
G03X344562Y198178I-616J994*
G01*
G75*
G03X344691Y198321I-929J968*
G01*
G75*
G03X344780Y198464I-603J472*
G01*
G75*
G03X344830Y198614I-606J287*
G01*
G75*
G03X344847Y198779I-787J166*
G01*
G75*
G03X344791Y199063I-744*
G01*
G75*
G03X344633Y199230I-296J-122*
G01*
G75*
G03X344361Y199277I-222J-465*
G01*
G75*
G03X343960Y199202I218J-2257*
G01*
G75*
G02X343769Y199154I-857J3015*
G01*
G75*
G02X343574Y199118I-652J3020*
G01*
G75*
G02X343404Y199098I-400J2658*
G01*
G75*
G02X343297Y199102I-39J440*
G01*
G75*
G02X342980Y199196I197J1244*
G01*
G75*
G02X342389Y199475I6409J14342*
G01*
G75*
G02X341776Y199799I6229J12519*
G01*
G75*
G02X341297Y200097I3037J5411*
G01*
G75*
G02X340164Y200945I10113J14699*
G01*
G75*
G02X338974Y201970I16989J20935*
G01*
G75*
G02X337944Y202956I20836J22807*
G01*
G75*
G02X337583Y203490I1205J1203*
G01*
G75*
G02X337513Y203683I1735J740*
G01*
G75*
G02X337496Y203817I371J113*
G01*
G75*
G02X337527Y203953I417J-23*
G01*
G75*
G02X337620Y204151I2166J-895*
G01*
G75*
G02X337864Y204489I1322J-698*
G01*
G75*
G02X338614Y205252I32167J-30869*
G01*
G75*
G02X339419Y206042I66460J-66914*
G01*
G75*
G02X339597Y206114I178J-183*
G01*
G75*
G03X339643Y206128J83*
G01*
G75*
G03X339784Y206224I-3746J5679*
G01*
G75*
G03X339950Y206345I-2857J4089*
G01*
G75*
G03X340133Y206489I-4956J6502*
G01*
G75*
G02X340323Y206639I10356J-12837*
G01*
G75*
G02X340509Y206783I8960J-11426*
G01*
G75*
G02X340670Y206903I8043J-10618*
G01*
G75*
G02X340760Y206964I792J-1073*
G01*
G75*
G03X340866Y207040I-471J769*
G01*
G75*
G03X341191Y207313I-37254J44552*
G01*
G75*
G03X341574Y207643I-27996J32972*
G01*
G75*
G03X341998Y208014I-43737J50333*
G01*
G75*
G02X342421Y208382I24286J-27491*
G01*
G75*
G02X342804Y208704I15023J-17525*
G01*
G75*
G02X343131Y208968I20731J-25271*
G01*
G75*
G02X343235Y209028I254J-318*
G01*
G75*
G03X343430Y209150I-238J600*
G01*
G75*
G03X343681Y209404I-2281J2506*
G01*
G75*
G03X343931Y209716I-2867J2557*
G01*
G75*
G03X344138Y210042I-2666J1917*
G01*
G75*
G03X344295Y210456I-1369J758*
G01*
G75*
G03X344353Y210944I-2307J521*
G01*
G75*
G03X344311Y211388I-2050J28*
G01*
G75*
G03X344159Y211652I-480J-100*
G01*
G75*
G02X344080Y211752I261J288*
G01*
G75*
G02X344010Y211905I1010J559*
G01*
G75*
G02X343954Y212090I1363J516*
G01*
G75*
G02X343919Y212289I1709J396*
G01*
G75*
G03X343876Y212540I-2065J-231*
G01*
G75*
G03X343806Y212729I-812J-194*
G01*
G75*
G03X343691Y212898I-764J-395*
G01*
G75*
G03X343508Y213085I-1729J-1502*
G01*
G75*
G03X343279Y213273I-1822J-1985*
G01*
G75*
G03X343099Y213364I-362J-496*
G01*
G75*
G03X342874Y213404I-268J-858*
G01*
G75*
G03X342455Y213414I-424J-8800*
G01*
G75*
G03X342172Y213407I7J-5930*
G01*
G75*
G03X341896Y213387I254J-5393*
G01*
G75*
G03X341661Y213357I476J-4748*
G01*
G75*
G03X341529Y213322I88J-589*
G01*
G75*
G03X341239Y213145I377J-947*
G01*
G75*
G03X339935Y212009I169264J-195633*
G01*
G75*
G03X338331Y210583I98045J-111835*
G01*
G75*
G03X336318Y208752I254204J-281537*
G01*
G75*
G02X335663Y208162I-36897J40278*
G01*
G75*
G02X335089Y207665I-20111J22685*
G01*
G75*
G02X334589Y207248I-45751J54272*
G01*
G75*
G02X334493Y207214I-96J117*
G01*
G75*
G02X334424Y207245J90*
G01*
G75*
G02X334379Y207330I164J143*
G01*
G75*
G02X334354Y207485I705J192*
G01*
G75*
G02X334347Y207744I4922J257*
G01*
G75*
G02X334354Y207954I3304J6*
G01*
G75*
G02X334374Y208146I2371J-156*
G01*
G75*
G02X334403Y208302I2112J-306*
G01*
G75*
G02X334438Y208369I136J-30*
G01*
G75*
G03X334476Y208435I-114J109*
G01*
G75*
G03X334517Y208597I-2552J719*
G01*
G75*
G03X334552Y208796I-2799J596*
G01*
G75*
G03X334576Y209014I-3919J550*
G01*
G75*
G02X334602Y209277I8666J-735*
G01*
G75*
G02X334645Y209622I25190J-2927*
G01*
G75*
G02X334694Y209986I26815J-3471*
G01*
G75*
G02X334744Y210314I17730J-2539*
G01*
G75*
G03X334826Y211010I-7869J1274*
G01*
G75*
G03X334815Y211550I-2868J210*
G01*
G75*
G03X334711Y211975I-1763J-204*
G01*
G75*
G03X334513Y212313I-1093J-415*
G01*
G75*
G02X334405Y212462I959J809*
G01*
G75*
G02X334320Y212625I1066J657*
G01*
G75*
G02X334265Y212787I1006J431*
G01*
G75*
G02X334247Y212931I564J144*
G01*
G75*
G03X334195Y213214I-799J-1*
G01*
G75*
G03X334041Y213511I-1341J-507*
G01*
G75*
G03X333813Y213776I-1282J-871*
G01*
G75*
G03X333544Y213965I-827J-893*
G01*
G75*
G03X333235Y214062I-433J-835*
G01*
G75*
G03X332731Y214103I-666J-5073*
G01*
G75*
G03X332222Y214094I-164J-5077*
G01*
G75*
G03X331892Y214018I74J-1074*
G01*
X332383Y194015D02*
G75*
G03X332144Y193861I285J-706D01*
G01*
G75*
G03X331976Y193630I534J-563*
G01*
G75*
G03X331878Y193308I1035J-491*
G01*
G75*
G03X331847Y192883I2852J-422*
G01*
G75*
G03X331858Y192549I5202J-2*
G01*
G75*
G03X331897Y192348I796J50*
G01*
G75*
G03X331981Y192188I533J178*
G01*
G75*
G03X332139Y192006I1375J1034*
G01*
G75*
G03X332330Y191842I1193J1193*
G01*
G75*
G03X332496Y191759I317J428*
G01*
G75*
G03X332718Y191722I262J895*
G01*
G75*
G03X333139Y191714I412J9806*
G01*
X333847*
Y192014*
G75*
G03X333835Y192191I-1326J-3*
G01*
G75*
G03X333790Y192269I-119J-16*
G01*
G75*
G03X333694Y192306I-107J-140*
G01*
G75*
G03X333459Y192314I-239J-3463*
G01*
G75*
G02X333298Y192324I-1J1227*
G01*
G75*
G02X333146Y192356I133J1005*
G01*
G75*
G02X333023Y192404I222J755*
G01*
G75*
G02X332947Y192464I100J205*
G01*
G75*
G02X332952Y192539I42J35*
G01*
G75*
G02X333058Y192588I131J-146*
G01*
G75*
G02X333357Y192609I327J-2482*
G01*
G75*
G02X334085Y192614I741J-63288*
G01*
X335347*
Y193156*
G75*
G03X335337Y193460I-4631J-4*
G01*
G75*
G03X335300Y193640I-674J-44*
G01*
G75*
G03X335223Y193773I-391J-137*
G01*
G75*
G03X335083Y193906I-761J-656*
G01*
G75*
G03X334894Y194017I-497J-632*
G01*
G75*
G03X334676Y194077I-351J-846*
G01*
G75*
G03X334345Y194104I-372J-2543*
G01*
G75*
G03X333709Y194107I-464J-29460*
G01*
G75*
G03X333267Y194098I86J-15632*
G01*
G75*
G03X332861Y194078I377J-11326*
G01*
G75*
G03X332522Y194049I815J-11616*
G01*
G75*
G03X332383Y194015I50J-504*
G01*
X332563Y193626D02*
G75*
G03X332515Y193576I80J-128D01*
G01*
G75*
G03X332479Y193496I313J-188*
G01*
G75*
G03X332460Y193400I424J-131*
G01*
G75*
G03X332463Y193302I443J-35*
G01*
G75*
G03X332524Y193165I274J39*
G01*
G75*
G03X332641Y193094I158J130*
G01*
G75*
G03X332893Y193068I266J1324*
G01*
G75*
G03X333646Y193064I752J65246*
G01*
G75*
G03X334337Y193069I15J48394*
G01*
G75*
G03X334622Y193094I-29J1938*
G01*
G75*
G03X334763Y193152I-55J337*
G01*
G75*
G03X334831Y193257I-97J137*
G01*
G75*
G03X334789Y193468I-278J54*
G01*
G75*
G03X334607Y193612I-312J-208*
G01*
G75*
G03X334236Y193691I-460J-1241*
G01*
G75*
G03X333603Y193712I-620J-9211*
G01*
G75*
G03X333246Y193705I27J-10324*
G01*
G75*
G03X332924Y193686I245J-6924*
G01*
G75*
G03X332657Y193659I637J-7573*
G01*
G75*
G03X332563Y193626I27J-224*
G01*
X334289Y193453D02*
G75*
G02X334407Y193360I-89J-234D01*
G01*
G75*
G02X334380Y193279I-44J-30*
G01*
G75*
G02X334109Y193227I-320J927*
G01*
G75*
G02X333597Y193214I-510J9994*
G01*
G75*
G02X333100Y193227I-4J9096*
G01*
G75*
G02X332820Y193279I61J1108*
G01*
G75*
G02X332783Y193358I18J57*
G01*
G75*
G02X332872Y193447I149J-59*
G01*
G75*
G02X333083Y193493I238J-589*
G01*
G75*
G02X333578Y193504I548J-13046*
G01*
G75*
G02X334073Y193497I53J-12867*
G01*
G75*
G02X334289Y193453I-24J-666*
G01*
X334845Y193650D02*
G75*
G02X334991Y193512I-1103J-1312D01*
G01*
G75*
G02X335081Y193387I-432J-406*
G01*
G75*
G02X335124Y193263I-360J-194*
G01*
G75*
G02X335128Y193125I-475J-82*
G01*
X335097Y192864*
X333798Y192814*
G75*
G03X333024Y192779I2286J-59069*
G01*
G75*
G03X332699Y192741I131J-2541*
G01*
G75*
G03X332536Y192678I83J-459*
G01*
G75*
G03X332462Y192570I86J-139*
G01*
G75*
G03X332489Y192391I270J-51*
G01*
G75*
G03X332624Y192243I350J183*
G01*
G75*
G03X332859Y192146I379J584*
G01*
G75*
G03X333166Y192114I306J1456*
G01*
G75*
G02X333312Y192106I-2J-1475*
G01*
G75*
G02X333435Y192084I-78J-789*
G01*
G75*
G02X333522Y192052I-126J-481*
G01*
G75*
G02X333522Y191975I-18J-39*
G01*
G75*
G02X333427Y191943I-235J543*
G01*
G75*
G02X333294Y191921I-216J889*
G01*
G75*
G02X333137Y191914I-156J1702*
G01*
G75*
G02X332750Y191995I0J964*
G01*
G75*
G02X332391Y192229I526J1198*
G01*
G75*
G02X332136Y192558I835J910*
G01*
G75*
G02X332047Y192914I668J355*
G01*
G75*
G02X332067Y193081I717J0*
G01*
G75*
G02X332125Y193238I680J-163*
G01*
G75*
G02X332229Y193398I836J-431*
G01*
G75*
G02X332387Y193574I1723J-1387*
G01*
G75*
G02X332619Y193779I1815J-1815*
G01*
G75*
G02X332800Y193870I316J-404*
G01*
G75*
G02X333046Y193906I274J-999*
G01*
G75*
G02X333630Y193914I584J-22799*
G01*
G75*
G02X334168Y193906I-1J-18514*
G01*
G75*
G02X334440Y193872I-45J-1489*
G01*
G75*
G02X334636Y193797I-143J-661*
G01*
G75*
G02X334845Y193650I-733J-1266*
G01*
X337122Y193007D02*
G75*
G03X336993Y192848I151J-254D01*
G01*
G75*
G03X336944Y192572I871J-294*
G01*
G75*
G03X336982Y192306I849J-17*
G01*
G75*
G03X337105Y192174I197J61*
G01*
G75*
G03X337213Y192150I135J350*
G01*
G75*
G03X337519Y192131I1052J14573*
G01*
G75*
G03X337887Y192118I642J12571*
G01*
G75*
G03X338293Y192114I402J18617*
G01*
G75*
G03X339042Y192132J15503*
G01*
G75*
G03X339364Y192216I-39J806*
G01*
G75*
G03X339507Y192397I-121J242*
G01*
G75*
G03X339529Y192732I-1015J235*
G01*
X339497Y193064*
X338397Y193087*
G75*
G03X337954Y193089I-279J-12929*
G01*
G75*
G03X337562Y193074I104J-7857*
G01*
G75*
G03X337245Y193048I481J-7697*
G01*
G75*
G03X337122Y193007I31J-302*
G01*
X338130Y193849D02*
G75*
G02X338090Y193682I-715J81D01*
G01*
G75*
G02X338015Y193597I-147J54*
G01*
G75*
G02X337866Y193551I-199J383*
G01*
G75*
G02X337482Y193514I-1293J11270*
G01*
G75*
G03X336964Y193433I289J-3545*
G01*
G75*
G03X336661Y193277I159J-683*
G01*
G75*
G03X336500Y193016I344J-393*
G01*
G75*
G03X336447Y192606I1573J-409*
G01*
G75*
G03X336458Y192346I3025J-2*
G01*
G75*
G03X336497Y192179I607J53*
G01*
G75*
G03X336574Y192050I403J154*
G01*
G75*
G03X336711Y191921I761J666*
G01*
G75*
G03X336908Y191808I474J602*
G01*
G75*
G03X337146Y191748I372J965*
G01*
G75*
G03X337522Y191720I430J3283*
G01*
G75*
G03X338292Y191714I769J46886*
G01*
G75*
G03X339393Y191741I5J22430*
G01*
G75*
G03X339804Y191878I-39J804*
G01*
G75*
G03X339997Y192187I-252J371*
G01*
G75*
G03X340047Y192902I-5060J716*
G01*
G75*
G03X340008Y193548I-5317*
G01*
G75*
G03X339858Y193862I-546J-67*
G01*
G75*
G03X339548Y194026I-404J-389*
G01*
G75*
G03X338896Y194098I-935J-5503*
G01*
X338162Y194135*
X338130Y193849*
X339287Y192830D02*
G75*
G02X339297Y192783I-60J-37D01*
G01*
G75*
G02X339279Y192707I-426J59*
G01*
G75*
G02X339241Y192619I-561J188*
G01*
G75*
G02X339187Y192530I-723J378*
G01*
G75*
G02X339074Y192415I-394J276*
G01*
G75*
G02X338934Y192351I-235J327*
G01*
G75*
G02X338716Y192321I-257J1052*
G01*
G75*
G02X338300Y192314I-409J11775*
G01*
G75*
G02X338006Y192318I-4J9706*
G01*
G75*
G02X337733Y192331I220J7283*
G01*
G75*
G02X337506Y192350I481J7169*
G01*
G75*
G02X337405Y192374I39J386*
G01*
G75*
G02X337287Y192463I98J255*
G01*
G75*
G02X337255Y192586I128J99*
G01*
G75*
G02X337322Y192715I220J-33*
G01*
G75*
G02X337472Y192811I330J-349*
G01*
G75*
G02X337792Y192882I378J-943*
G01*
G75*
G02X338461Y192905I826J-14143*
G01*
G75*
G02X339157Y192904I288J-26763*
G01*
G75*
G02X339287Y192830I-2J-155*
G01*
X339603Y193608D02*
G75*
G02X339797Y193304I-504J-536D01*
G01*
G75*
G02X339864Y192892I-1233J-412*
G01*
G75*
G02X339796Y192475I-1327J2*
G01*
G75*
G02X339602Y192159I-765J254*
G01*
G75*
G02X339424Y192021I-636J636*
G01*
G75*
G02X339236Y191950I-296J500*
G01*
G75*
G02X338947Y191920I-326J1711*
G01*
G75*
G02X338309Y191914I-627J31210*
G01*
G75*
G02X337671Y191920I-13J29203*
G01*
G75*
G02X337372Y191952I39J1799*
G01*
G75*
G02X337167Y192026I131J680*
G01*
G75*
G02X336955Y192172I644J1165*
G01*
G75*
G02X336837Y192285I831J987*
G01*
G75*
G02X336737Y192409I858J793*
G01*
G75*
G02X336668Y192526I774J539*
G01*
G75*
G02X336647Y192614I176J87*
G01*
G75*
G02X336668Y192701I195J0*
G01*
G75*
G02X336737Y192819I844J-422*
G01*
G75*
G02X336837Y192942I958J-670*
G01*
G75*
G02X336955Y193055I949J-874*
G01*
G75*
G02X337169Y193202I847J-1005*
G01*
G75*
G02X337377Y193276I335J-611*
G01*
G75*
G02X337682Y193307I343J-1850*
G01*
G75*
G02X338349Y193314I681J-32739*
G01*
G75*
G03X338815Y193320I7J15731*
G01*
G75*
G03X339169Y193343I-161J5341*
G01*
G75*
G03X339430Y193376I-433J4522*
G01*
G75*
G03X339504Y193425I-16J106*
G01*
G75*
G03X339508Y193534I-94J58*
G01*
G75*
G03X339413Y193628I-192J-100*
G01*
G75*
G03X339210Y193691I-298J-596*
G01*
G75*
G03X338928Y193712I-291J-2022*
G01*
G75*
G02X338781Y193721I6J1281*
G01*
G75*
G02X338646Y193747I116J980*
G01*
G75*
G02X338539Y193784I193J733*
G01*
G75*
G02X338488Y193828I45J104*
G01*
G75*
G02X338542Y193926I55J34*
G01*
G75*
G02X338896Y193894I19J-1724*
G01*
G75*
G02X339333Y193773I-593J-3004*
G01*
G75*
G02X339603Y193608I-262J-732*
G01*
X341252Y193869D02*
G75*
G03X341138Y193728I879J-827D01*
G01*
G75*
G03X341080Y193603I337J-232*
G01*
G75*
G03X341066Y193463I424J-115*
G01*
G75*
G03X341089Y193269I1521J88*
G01*
G75*
G03X341224Y192956I766J143*
G01*
G75*
G03X341472Y192754I502J364*
G01*
G75*
G03X341886Y192645I536J1195*
G01*
G75*
G03X342550Y192614I663J7049*
G01*
G75*
G02X342946Y192608I-6J-13604*
G01*
G75*
G02X343175Y192586I-53J-1754*
G01*
G75*
G02X343297Y192548I-70J-442*
G01*
G75*
G02X343322Y192489I-21J-44*
G01*
G75*
G02X343257Y192428I-87J29*
G01*
G75*
G02X343036Y192387I-531J2202*
G01*
G75*
G02X342706Y192355I-541J3927*
G01*
G75*
G02X342214Y192335I-987J18154*
G01*
X341147Y192307*
Y191714*
X342475*
G75*
G03X343513Y191735I4J25626*
G01*
G75*
G03X343959Y191833I-52J1294*
G01*
G75*
G03X344172Y192052I-150J359*
G01*
G75*
G03X344247Y192454I-1042J402*
G01*
G75*
G03X344195Y192845I-1491J0*
G01*
G75*
G03X344034Y193070I-383J-104*
G01*
G75*
G03X343720Y193183I-383J-567*
G01*
G75*
G03X343122Y193214I-600J-5922*
G01*
G75*
G02X342820Y193218I-4J10295*
G01*
G75*
G02X342540Y193231I225J7646*
G01*
G75*
G02X342306Y193250I498J7622*
G01*
G75*
G02X342205Y193274I38J383*
G01*
G75*
G02X342068Y193359I158J412*
G01*
G75*
G02X342070Y193438I35J39*
G01*
G75*
G02X342213Y193498I173J-211*
G01*
G75*
G02X342497Y193514I285J-2564*
G01*
G75*
G03X342779Y193520I3J5796*
G01*
G75*
G03X342885Y193555I-10J209*
G01*
G75*
G03X342934Y193633I-63J94*
G01*
G75*
G03X342947Y193814I-1237J183*
G01*
Y194114*
X342215*
G75*
G03X341794Y194106I0J-10730*
G01*
G75*
G03X341567Y194072I44J-1097*
G01*
G75*
G03X341407Y194001I126J-493*
G01*
G75*
G03X341252Y193869I510J-757*
G01*
X342647Y193819D02*
G75*
G02X342621Y193780I-42D01*
G01*
G75*
G02X342508Y193743I-367J928*
G01*
G75*
G02X342355Y193713I-335J1271*
G01*
G75*
G02X342173Y193694I-339J2425*
G01*
G75*
G03X341929Y193670I234J-3621*
G01*
G75*
G03X341787Y193631I68J-520*
G01*
G75*
G03X341706Y193567I85J-193*
G01*
G75*
G03X341662Y193470I179J-138*
G01*
G75*
G03X341702Y193265I278J-53*
G01*
G75*
G03X341876Y193120I315J202*
G01*
G75*
G03X342222Y193037I443J1089*
G01*
G75*
G03X342785Y193014I562J6787*
G01*
G75*
G02X343230Y193006I-6J-12293*
G01*
G75*
G02X343482Y192974I-54J-1484*
G01*
G75*
G02X343658Y192910I-135J-637*
G01*
G75*
G02X343816Y192796I-360J-666*
G01*
G75*
G02X343987Y192603I-956J-1017*
G01*
G75*
G02X344033Y192449I-195J-143*
G01*
G75*
G02X343972Y192300I-243J12*
G01*
G75*
G02X343783Y192121I-1072J944*
G01*
G75*
G02X343598Y192011I-502J639*
G01*
G75*
G02X343385Y191950I-359J844*
G01*
G75*
G02X343067Y191921I-377J2365*
G01*
G75*
G02X342483Y191914I-577J23454*
G01*
G75*
G02X342059Y191920I-8J13751*
G01*
G75*
G02X341731Y191941I155J5035*
G01*
G75*
G02X341484Y191971I510J5243*
G01*
G75*
G02X341484Y192056I6J43*
G01*
G75*
G02X341729Y192087I758J-5118*
G01*
G75*
G02X342054Y192108I485J-4919*
G01*
G75*
G02X342472Y192115I435J-13339*
G01*
G75*
G03X342874Y192122I-30J13146*
G01*
G75*
G03X343235Y192141I-267J8556*
G01*
G75*
G03X343534Y192168I-750J10048*
G01*
G75*
G03X343631Y192202I-24J222*
G01*
G75*
G03X343680Y192251I-80J128*
G01*
G75*
G03X343715Y192331I-313J188*
G01*
G75*
G03X343734Y192427I-424J131*
G01*
G75*
G03X343731Y192525I-443J35*
G01*
G75*
G03X343677Y192661I-308J-43*
G01*
G75*
G03X343572Y192737I-163J-115*
G01*
G75*
G03X343357Y192777I-287J-934*
G01*
G75*
G03X342792Y192814I-2234J-30134*
G01*
G75*
G02X342365Y192846I546J9952*
G01*
G75*
G02X342038Y192894I349J3534*
G01*
G75*
G02X341791Y192957I401J2074*
G01*
G75*
G02X341617Y193041I220J685*
G01*
G75*
G02X341425Y193194I726J1105*
G01*
G75*
G02X341361Y193328I146J152*
G01*
G75*
G02X341401Y193477I231J19*
G01*
G75*
G02X341565Y193682I1370J-926*
G01*
G75*
G02X341692Y193792I585J-552*
G01*
G75*
G02X341829Y193863I334J-479*
G01*
G75*
G02X341996Y193901I251J-707*
G01*
G75*
G02X342215Y193914I221J-1928*
G01*
G75*
G02X342380Y193907I-3J-2015*
G01*
G75*
G02X342520Y193886I-87J-1061*
G01*
G75*
G02X342622Y193856I-156J-719*
G01*
G75*
G02X342647Y193819I-14J-37*
G01*
X345347Y193129D02*
G75*
G03X345388Y192262I9276J-1D01*
G01*
G75*
G03X345568Y191934I467J44*
G01*
G75*
G03X345961Y191790I425J550*
G01*
G75*
G03X347117Y191764I1153J25185*
G01*
G75*
G03X348230Y191793I3J21196*
G01*
G75*
G03X348624Y191945I-35J679*
G01*
G75*
G03X348806Y192286I-315J387*
G01*
G75*
G03X348847Y193175I-9636J889*
G01*
Y194114*
X348147*
Y193369*
G75*
G02X348109Y192786I-4429J0*
G01*
G75*
G02X347966Y192496I-502J67*
G01*
G75*
G02X347676Y192352I-356J355*
G01*
G75*
G02X347097Y192314I-577J4300*
G01*
G75*
G02X346518Y192352I-2J4342*
G01*
G75*
G02X346228Y192496I67J498*
G01*
G75*
G02X346085Y192786I359J357*
G01*
G75*
G02X346047Y193369I4391J580*
G01*
Y194114*
X345347*
Y193129*
X345847Y193067D02*
G75*
G03X345882Y192490I4816J0D01*
G01*
G75*
G03X346021Y192246I358J43*
G01*
G75*
G03X346319Y192136I329J431*
G01*
G75*
G03X347097Y192114I777J13444*
G01*
G75*
G03X347876Y192136I2J13460*
G01*
G75*
G03X348173Y192246I-31J541*
G01*
G75*
G03X348312Y192490I-219J287*
G01*
G75*
G03X348347Y193067I-4781J580*
G01*
G75*
G02X348353Y193455I12596J2*
G01*
G75*
G02X348377Y193664I1257J-39*
G01*
G75*
G02X348423Y193774I298J-59*
G01*
G75*
G02X348497Y193814I74J-50*
G01*
G75*
G02X348569Y193780I0J-94*
G01*
G75*
G02X348616Y193687I-178J-148*
G01*
G75*
G02X348641Y193515I-846J-209*
G01*
G75*
G02X348647Y193207I-7361J-314*
G01*
G75*
G02X348571Y192545I-2911J1*
G01*
G75*
G02X348329Y192165I-665J155*
G01*
G75*
G02X347862Y191968I-588J744*
G01*
G75*
G02X347010Y191914I-850J6618*
G01*
G75*
G02X346512Y191922I-11J15049*
G01*
G75*
G02X346249Y191955I46J1416*
G01*
G75*
G02X346058Y192030I149J663*
G01*
G75*
G02X345855Y192172I707J1224*
G01*
G75*
G02X345678Y192345I1070J1270*
G01*
G75*
G02X345593Y192495I319J282*
G01*
G75*
G02X345556Y192701I733J238*
G01*
G75*
G02X345547Y193122I10287J413*
G01*
G75*
G02X345553Y193479I10349J7*
G01*
G75*
G02X345578Y193673I1094J-39*
G01*
G75*
G02X345624Y193776I268J-57*
G01*
G75*
G02X345697Y193814I74J-54*
G01*
G75*
G02X345771Y193774I0J-89*
G01*
G75*
G02X345817Y193664I-252J-169*
G01*
G75*
G02X345841Y193455I-1233J-248*
G01*
G75*
G02X345847Y193067I-12590J-398*
G01*
X350165Y193882D02*
G75*
G03X350048Y193716I528J-495D01*
G01*
G75*
G03X349983Y193527I609J-312*
G01*
G75*
G03X349954Y193239I1850J-335*
G01*
G75*
G03X349947Y192682I21918J-542*
G01*
Y191714*
X350647*
Y192510*
G75*
G02X350670Y193076I6993J2*
G01*
G75*
G02X350765Y193343I545J-44*
G01*
G75*
G02X350962Y193474I263J-182*
G01*
G75*
G02X351341Y193514I379J-1785*
G01*
G75*
G03X351514Y193524I2J1491*
G01*
G75*
G03X351596Y193563I-17J140*
G01*
G75*
G03X351637Y193644I-96J98*
G01*
G75*
G03X351647Y193814I-1368J171*
G01*
Y194114*
X351015*
G75*
G03X350667Y194104I5J-6576*
G01*
G75*
G03X350459Y194071I52J-993*
G01*
G75*
G03X350307Y194002I138J-507*
G01*
G75*
G03X350165Y193882I443J-670*
G01*
X351347Y193814D02*
G75*
G02X351326Y193775I-46J0D01*
G01*
G75*
G02X351261Y193743I-157J234*
G01*
G75*
G02X351167Y193721I-157J460*
G01*
G75*
G02X351055Y193714I-110J855*
G01*
G75*
G03X350699Y193685I1J-2202*
G01*
G75*
G03X350537Y193580I40J-240*
G01*
G75*
G03X350463Y193358I369J-246*
G01*
G75*
G03X350447Y192803I9989J-554*
G01*
G75*
G02X350441Y192390I-14492J1*
G01*
G75*
G02X350417Y192170I-1388J41*
G01*
G75*
G02X350372Y192055I-325J62*
G01*
G75*
G02X350297Y192014I-74J47*
G01*
G75*
G02X350223Y192052I0J91*
G01*
G75*
G02X350178Y192156I228J162*
G01*
G75*
G02X350153Y192354I1111J237*
G01*
G75*
G02X350147Y192718I10857J358*
G01*
G75*
G02X350156Y193118I9148J2*
G01*
G75*
G02X350189Y193343I1090J-47*
G01*
G75*
G02X350261Y193507I534J-138*
G01*
G75*
G02X350393Y193668I840J-548*
G01*
G75*
G02X350629Y193823I493J-493*
G01*
G75*
G02X350963Y193914I567J-1430*
G01*
G75*
G02X351253Y193919I164J-1080*
G01*
G75*
G02X351347Y193814I-12J-106*
G01*
X352997Y193998D02*
G75*
G03X352911Y193945I433J-796D01*
G01*
G75*
G03X352819Y193875I900J-1284*
G01*
G75*
G03X352734Y193800I960J-1172*
G01*
G75*
G03X352672Y193732I466J-488*
G01*
G75*
G03X352588Y193525I309J-246*
G01*
G75*
G03X352551Y192998I8720J-877*
G01*
G75*
G03X352548Y192468I7293J-298*
G01*
G75*
G03X352609Y192168I919J30*
G01*
G75*
G03X352756Y191980I385J148*
G01*
G75*
G03X353034Y191835I659J930*
G01*
G75*
G03X353419Y191744I620J1750*
G01*
G75*
G03X353892Y191714I472J3715*
G01*
X354547*
Y192014*
G75*
G03X354536Y192187I-1365J-3*
G01*
G75*
G03X354494Y192267I-126J-16*
G01*
G75*
G03X354405Y192305I-103J-117*
G01*
G75*
G03X354205Y192314I-200J-2211*
G01*
G75*
G02X353936Y192328I-2J2607*
G01*
G75*
G02X353727Y192371I107J1030*
G01*
G75*
G02X353592Y192438I154J481*
G01*
G75*
G02X353547Y192524I61J86*
G01*
G75*
G02X353580Y192560I36*
G01*
G75*
G02X353914Y192587I1557J-17085*
G01*
G75*
G02X354318Y192607I644J-9052*
G01*
G75*
G02X354797Y192614I490J-17894*
G01*
X356047*
Y193118*
G75*
G03X356035Y193385I-3109J-4*
G01*
G75*
G03X355998Y193570I-822J-70*
G01*
G75*
G03X355924Y193720I-565J-184*
G01*
G75*
G03X355802Y193868I-848J-579*
G01*
G75*
G03X355619Y194007I-610J-610*
G01*
G75*
G03X355422Y194078I-298J-522*
G01*
G75*
G03X355109Y194106I-339J-2002*
G01*
G75*
G03X354377Y194111I-632J-44894*
G01*
G75*
G03X353906Y194102I36J-14162*
G01*
G75*
G03X353481Y194077I334J-9344*
G01*
G75*
G03X353133Y194042I773J-9422*
G01*
G75*
G03X352997Y193998I45J-374*
G01*
X353151Y193569D02*
G75*
G03X353107Y193500I246J-204D01*
G01*
G75*
G03X353076Y193413I469J-220*
G01*
G75*
G03X353061Y193323I494J-131*
G01*
G75*
G03X353065Y193243I296J-22*
G01*
G75*
G03X353135Y193146I140J27*
G01*
G75*
G03X353291Y193093I221J389*
G01*
G75*
G03X353596Y193069I340J2326*
G01*
G75*
G03X354297Y193064I678J48517*
G01*
G75*
G03X355021Y193069I11J53707*
G01*
G75*
G03X355315Y193093I-27J2084*
G01*
G75*
G03X355462Y193151I-56J356*
G01*
G75*
G03X355531Y193257I-93J137*
G01*
G75*
G03X355487Y193470I-278J53*
G01*
G75*
G03X355300Y193614I-315J-214*
G01*
G75*
G03X354914Y193693I-473J-1340*
G01*
G75*
G03X354240Y193714I-680J-10870*
G01*
G75*
G03X353764Y193707I2J-16181*
G01*
G75*
G03X353457Y193682I87J-2981*
G01*
G75*
G03X353257Y193639I173J-1283*
G01*
G75*
G03X353151Y193569I63J-211*
G01*
X354989Y193453D02*
G75*
G02X355107Y193360I-89J-234D01*
G01*
G75*
G02X355080Y193279I-44J-30*
G01*
G75*
G02X354809Y193227I-320J927*
G01*
G75*
G02X354297Y193214I-510J9994*
G01*
G75*
G02X353790Y193223I-6J13865*
G01*
G75*
G02X353546Y193263I36J981*
G01*
G75*
G02X353479Y193341I28J91*
G01*
G75*
G02X353514Y193447I123J19*
G01*
G75*
G02X353642Y193502I134J-134*
G01*
G75*
G02X354202Y193512I643J-21537*
G01*
G75*
G02X354744Y193503I52J-13092*
G01*
G75*
G02X354989Y193453I-28J-761*
G01*
X355562Y193614D02*
G75*
G02X355688Y193471I-1115J-1113D01*
G01*
G75*
G02X355776Y193334I-665J-521*
G01*
G75*
G02X355824Y193205I-524J-267*
G01*
G75*
G02X355829Y193089I-300J-72*
G01*
G75*
G02X355762Y192960I-217J31*
G01*
G75*
G02X355622Y192888I-198J211*
G01*
G75*
G02X355327Y192850I-392J1889*
G01*
G75*
G02X354498Y192814I-3693J74994*
G01*
G75*
G03X353724Y192779I2286J-59069*
G01*
G75*
G03X353399Y192741I131J-2541*
G01*
G75*
G03X353236Y192678I83J-459*
G01*
G75*
G03X353162Y192570I86J-139*
G01*
G75*
G03X353189Y192391I270J-51*
G01*
G75*
G03X353324Y192243I350J183*
G01*
G75*
G03X353559Y192146I379J584*
G01*
G75*
G03X353866Y192114I306J1456*
G01*
G75*
G02X354015Y192106I-3J-1402*
G01*
G75*
G02X354137Y192081I-73J-684*
G01*
G75*
G02X354222Y192045I-109J-374*
G01*
G75*
G02X354216Y191954I-25J-44*
G01*
G75*
G02X354118Y191929I-143J346*
G01*
G75*
G02X353959Y191922I-121J983*
G01*
G75*
G02X353728Y191938I178J4204*
G01*
G75*
G02X353296Y192035I167J1756*
G01*
G75*
G02X352990Y192231I282J779*
G01*
G75*
G02X352809Y192529I531J526*
G01*
G75*
G02X352747Y192927I1241J398*
G01*
G75*
G02X352762Y193139I1499J0*
G01*
G75*
G02X352808Y193306I672J-95*
G01*
G75*
G02X352896Y193457I640J-269*
G01*
G75*
G02X353039Y193621I1292J-986*
G01*
G75*
G02X353242Y193792I1094J-1094*
G01*
G75*
G02X353424Y193874I301J-426*
G01*
G75*
G02X353687Y193907I292J-1259*
G01*
G75*
G02X354297Y193914I618J-26935*
G01*
G75*
G02X354910Y193907I-8J-27207*
G01*
G75*
G02X355172Y193873I-28J-1261*
G01*
G75*
G02X355355Y193790I-119J-503*
G01*
G75*
G02X355562Y193614I-973J-1355*
G01*
X359748Y193830D02*
G75*
G03X359585Y193645I1321J-1324D01*
G01*
G75*
G03X359499Y193485I459J-351*
G01*
G75*
G03X359459Y193290I709J-249*
G01*
G75*
G03X359447Y192976I4296J-313*
G01*
G75*
G03X359473Y192533I3754J-2*
G01*
G75*
G03X359557Y192208I1256J149*
G01*
G75*
G03X359702Y191978I711J288*
G01*
G75*
G03X359913Y191825I481J440*
G01*
G75*
G03X360065Y191781I220J481*
G01*
G75*
G03X360393Y191746I1007J7883*
G01*
G75*
G03X360787Y191722I717J8379*
G01*
G75*
G03X361207Y191714I413J10846*
G01*
G75*
G03X362203Y191755I3J11953*
G01*
G75*
G03X362658Y191929I-73J874*
G01*
G75*
G03X362881Y192293I-351J465*
G01*
G75*
G03X362946Y193028I-4233J744*
G01*
G75*
G03X362936Y193304I-3627J9*
G01*
G75*
G03X362903Y193516I-1351J-99*
G01*
G75*
G03X362844Y193685I-870J-207*
G01*
G75*
G03X362756Y193828I-617J-285*
G01*
G75*
G03X362601Y193961I-446J-361*
G01*
G75*
G03X362407Y194033I-303J-514*
G01*
G75*
G03X362080Y194070I-423J-2281*
G01*
G75*
G03X361307Y194097I-2158J-51897*
G01*
X360048Y194130*
X359748Y193830*
X360172Y193647D02*
G75*
G03X360051Y193481I72J-180D01*
G01*
G75*
G03X360038Y192910I6259J-432*
G01*
G75*
G03X360077Y192340I6246J141*
G01*
G75*
G03X360205Y192174I200J23*
G01*
G75*
G03X360508Y192115I320J834*
G01*
G75*
G03X361200Y192116I326J16979*
G01*
G75*
G03X361896Y192144I-428J19056*
G01*
G75*
G03X362154Y192217I-36J622*
G01*
G75*
G03X362252Y192301I-143J267*
G01*
G75*
G03X362310Y192422I-274J207*
G01*
G75*
G03X362339Y192614I-891J233*
G01*
G75*
G03X362347Y192956I-7743J349*
G01*
G75*
G03X362340Y193275I-7014J-5*
G01*
G75*
G03X362313Y193470I-1106J-50*
G01*
G75*
G03X362265Y193589I-389J-88*
G01*
G75*
G03X362189Y193653I-131J-80*
G01*
G75*
G03X361950Y193699I-251J-652*
G01*
G75*
G03X361178Y193704I-656J-40691*
G01*
G75*
G03X360405Y193695I102J-41680*
G01*
G75*
G03X360172Y193647I15J-659*
G01*
X360247Y213360D02*
G75*
G03X357774Y212956I4221J-33579D01*
G01*
G75*
G03X355756Y212413I3264J-16182*
G01*
G75*
G03X354273Y211787I3481J-10312*
G01*
G75*
G03X353597Y211114I713J-1392*
G01*
G75*
G03X353539Y210973I759J-394*
G01*
G75*
G03X353491Y210787I2055J-629*
G01*
G75*
G03X353458Y210588I2239J-479*
G01*
G75*
G03X353447Y210407I1484J-178*
G01*
G75*
G03X353463Y210173I1706J-3*
G01*
G75*
G03X353515Y210005I552J77*
G01*
G75*
G03X353620Y209850I598J292*
G01*
G75*
G03X353815Y209653I2231J2022*
G01*
G75*
G03X353981Y209519I1170J1277*
G01*
G75*
G03X354173Y209396I1326J1863*
G01*
G75*
G03X354362Y209301I1024J1795*
G01*
G75*
G03X354515Y209254I282J636*
G01*
G75*
G02X354670Y209204I-125J-663*
G01*
G75*
G02X354867Y209103I-926J-2036*
G01*
G75*
G02X355070Y208971I-1263J-2170*
G01*
G75*
G02X355248Y208828I-1179J-1645*
G01*
X355650Y208464*
X355457Y206914*
G75*
G03X355231Y204956I109562J-13614*
G01*
G75*
G03X355111Y203520I32196J-3415*
G01*
G75*
G03X355063Y202180I26774J-1646*
G01*
G75*
G03X355068Y200564I56475J-630*
G01*
G75*
G03X355095Y199360I111812J1920*
G01*
G75*
G03X355131Y198652I14847J414*
G01*
G75*
G03X355184Y198193I5973J454*
G01*
G75*
G03X355269Y197911I1052J162*
G01*
G75*
G03X355440Y197606I1994J917*
G01*
G75*
G03X355634Y197387I900J603*
G01*
G75*
G03X355867Y197240I611J710*
G01*
G75*
G03X356154Y197151I530J1202*
G01*
G75*
G02X356300Y197115I-233J-1250*
G01*
G75*
G02X356455Y197058I-552J-1750*
G01*
G75*
G02X356596Y196992I-654J-1572*
G01*
G75*
G02X356697Y196925I-293J-555*
G01*
G75*
G03X357150Y196624I1851J2291*
G01*
G75*
G03X357536Y196515I435J806*
G01*
G75*
G03X357886Y196591I36J685*
G01*
G75*
G03X358228Y196843I-598J1165*
G01*
X358547Y197173*
Y198787*
G75*
G02X358554Y199450I33187J16*
G01*
G75*
G02X358574Y199975I13261J-265*
G01*
G75*
G02X358604Y200393I20454J-1234*
G01*
G75*
G02X358647Y200464I92J-7*
G01*
G75*
G03X358686Y200509I-51J83*
G01*
G75*
G03X358718Y200603I-619J261*
G01*
G75*
G03X358740Y200722I-848J219*
G01*
G75*
G03X358747Y200852I-1139J131*
G01*
G75*
G02X358800Y201117I683J0*
G01*
G75*
G02X358955Y201369I894J-374*
G01*
G75*
G02X359169Y201551I669J-567*
G01*
G75*
G02X359393Y201614I225J-370*
G01*
G75*
G02X359501Y201579I0J-186*
G01*
G75*
G02X359761Y201385I-4318J-6042*
G01*
G75*
G02X360063Y201133I-4150J-5295*
G01*
G75*
G02X360388Y200834I-6970J-7902*
G01*
G75*
G03X360763Y200487I8827J9182*
G01*
G75*
G03X361225Y200089I17032J19239*
G01*
G75*
G03X361695Y199701I16560J19611*
G01*
G75*
G03X362098Y199390I7859J9783*
G01*
G75*
G02X362464Y199119I-72211J-97500*
G01*
G75*
G02X362819Y198853I-65171J-87458*
G01*
G75*
G02X363123Y198624I-59795J-79632*
G01*
G75*
G02X363290Y198494I-6481J-8551*
G01*
G75*
G03X363413Y198400I2675J3375*
G01*
G75*
G03X363543Y198309I2757J3772*
G01*
G75*
G03X363660Y198232I2324J3423*
G01*
G75*
G03X363740Y198188I424J667*
G01*
G75*
G02X363825Y198143I-604J-1254*
G01*
G75*
G02X363968Y198060I-5349J-9367*
G01*
G75*
G02X364132Y197961I-6101J-10363*
G01*
G75*
G02X364297Y197859I-6638J-10841*
G01*
G75*
G03X364489Y197744I2376J3752*
G01*
G75*
G03X364741Y197606I5813J10285*
G01*
G75*
G03X365007Y197468I5858J10989*
G01*
G75*
G03X365247Y197352I3480J6937*
G01*
G75*
G02X365486Y197241I-13739J-29837*
G01*
G75*
G02X365748Y197117I-20772J-44185*
G01*
G75*
G02X365996Y196998I-19680J-41240*
G01*
G75*
G02X366181Y196906I-6637J-13678*
G01*
G75*
G03X366356Y196833I662J1326*
G01*
G75*
G03X366562Y196770I822J2333*
G01*
G75*
G03X366767Y196728I586J2311*
G01*
G75*
G03X366937Y196714I170J1037*
G01*
G75*
G02X367086Y196706I-3J-1407*
G01*
G75*
G02X367230Y196682I-131J-1247*
G01*
G75*
G02X367349Y196647I-230J-1002*
G01*
G75*
G02X367415Y196605I-60J-168*
G01*
G75*
G03X367580Y196523I204J204*
G01*
G75*
G03X367788Y196542I63J461*
G01*
G75*
G03X367988Y196656I-181J549*
G01*
G75*
G03X368126Y196839I-373J426*
G01*
G75*
G02X368211Y196980I793J-379*
G01*
G75*
G02X368304Y197061I231J-170*
G01*
G75*
G02X368430Y197103I172J-310*
G01*
G75*
G02X368628Y197116I206J-1616*
G01*
G75*
G03X369005Y197166I-9J1500*
G01*
G75*
G03X369414Y197314I-656J2461*
G01*
G75*
G03X369774Y197519I-995J2160*
G01*
G75*
G03X369994Y197744I-468J676*
G01*
G75*
G03X370060Y197865I-771J506*
G01*
G75*
G03X370125Y198022I-1962J904*
G01*
G75*
G03X370179Y198188I-2110J775*
G01*
G75*
G03X370213Y198339I-1313J370*
G01*
G75*
G03X370183Y198823I-1089J176*
G01*
G75*
G03X369935Y199091I-392J-113*
G01*
G75*
G03X369536Y199076I-181J-481*
G01*
G75*
G03X369091Y198764I664J-1422*
G01*
G75*
G02X368680Y198504I-785J785*
G01*
G75*
G02X368184Y198434I-417J1164*
G01*
G75*
G02X367544Y198564I153J2392*
G01*
G75*
G02X366671Y198919I3252J9263*
G01*
G75*
G03X366424Y199031I-13724J-29704*
G01*
G75*
G03X366209Y199127I-7484J-16535*
G01*
G75*
G03X366023Y199208I-20654J-47170*
G01*
G75*
G03X365996Y199214I-28J-64*
G01*
G75*
G02X365969Y199221I0J53*
G01*
G75*
G02X365770Y199337I29708J51014*
G01*
G75*
G02X365541Y199473I9330J15945*
G01*
G75*
G02X365278Y199635I17518J28880*
G01*
G75*
G02X364081Y200447I8944J14461*
G01*
G75*
G02X363109Y201268I6090J8194*
G01*
G75*
G02X362431Y202012I5148J5378*
G01*
G75*
G02X362245Y202539I670J533*
G01*
G75*
G03X362202Y202808I-893J-6*
G01*
G75*
G03X362078Y203063I-995J-322*
G01*
G75*
G03X361887Y203283I-923J-612*
G01*
G75*
G03X361643Y203447I-750J-852*
G01*
G75*
G02X361463Y203576I315J631*
G01*
G75*
G02X361369Y203737I252J256*
G01*
G75*
G02X361395Y203859I131J36*
G01*
G75*
G02X361515Y203916I122J-102*
G01*
G75*
G03X361881Y203980I-15J1177*
G01*
G75*
G03X362859Y204329I-14861J43208*
G01*
G75*
G03X363931Y204746I-11631J31465*
G01*
G75*
G03X364930Y205178I-10180J24891*
G01*
G75*
G02X365210Y205297I2388J-5227*
G01*
G75*
G02X365292Y205280I28J-71*
G01*
G75*
G02X365293Y205210I-35J-36*
G01*
G75*
G02X365096Y205013I-3081J2878*
G01*
G75*
G03X364994Y204898I579J-613*
G01*
G75*
G03X364915Y204766I676J-498*
G01*
G75*
G03X364864Y204628I688J-332*
G01*
G75*
G03X364847Y204496I502J-131*
G01*
G75*
G03X364858Y204341I1103J-2*
G01*
G75*
G03X364898Y204263I133J19*
G01*
G75*
G03X364979Y204224I99J103*
G01*
G75*
G03X365141Y204214I161J1270*
G01*
G75*
G03X365258Y204221I2J934*
G01*
G75*
G03X365367Y204243I-94J742*
G01*
G75*
G03X365454Y204275I-156J552*
G01*
G75*
G03X365497Y204314I-43J92*
G01*
G75*
G02X365534Y204352I106J-66*
G01*
G75*
G02X365595Y204384I189J-283*
G01*
G75*
G02X365669Y204406I154J-378*
G01*
G75*
G02X365744Y204414I76J-382*
G01*
G75*
G03X365852Y204432I1J321*
G01*
G75*
G03X366062Y204512I-1553J4372*
G01*
G75*
G03X366307Y204621I-1889J4604*
G01*
G75*
G03X366564Y204750I-2764J5822*
G01*
G75*
G02X366844Y204898I93592J-176419*
G01*
G75*
G02X367163Y205067I155878J-294981*
G01*
G75*
G02X367472Y205229I150052J-285161*
G01*
G75*
G02X367716Y205357I58771J-111640*
G01*
G75*
G03X367923Y205471I-2476J4730*
G01*
G75*
G03X368117Y205590I-2282J3935*
G01*
G75*
G03X368276Y205699I-2229J3430*
G01*
G75*
G03X368353Y205771I-241J336*
G01*
G75*
G02X368407Y205826I346J-287*
G01*
G75*
G02X368470Y205872I321J-376*
G01*
G75*
G02X368534Y205904I221J-362*
G01*
G75*
G02X368587Y205914I53J-132*
G01*
G75*
G03X368806Y206005I0J306*
G01*
G75*
G03X369407Y206639I-19085J18739*
G01*
G75*
G03X369969Y207283I-11310J10406*
G01*
G75*
G03X370237Y207707I-1578J1296*
G01*
G75*
G03X370333Y207949I-1806J854*
G01*
G75*
G03X370398Y208204I-2003J646*
G01*
G75*
G03X370435Y208489I-2506J474*
G01*
G75*
G03X370447Y208821I-4504J332*
G01*
G75*
G03X370428Y209273I-5289J-4*
G01*
G75*
G03X370363Y209581I-1296J-111*
G01*
G75*
G03X370219Y209898I-1652J-564*
G01*
G75*
G03X369907Y210407I-11719J-6828*
G01*
G75*
G02X369788Y210599I5125J3294*
G01*
G75*
G02X369667Y210810I7043J4174*
G01*
G75*
G02X369562Y211008I6545J3607*
G01*
G75*
G02X369492Y211157I1927J995*
G01*
G75*
G03X369065Y211823I-2138J-902*
G01*
G75*
G03X368381Y212412I-2850J-2613*
G01*
G75*
G03X367489Y212890I-2744J-4057*
G01*
G75*
G03X366437Y213223I-2594J-6355*
G01*
G75*
G03X365276Y213398I-1706J-7391*
G01*
G75*
G03X363533Y213480I-2517J-34991*
G01*
G75*
G03X361715Y213473I-778J-35408*
G01*
G75*
G03X360247Y213360I451J-15400*
G01*
X361954Y193410D02*
G75*
G02X362044Y193339I-153J-285D01*
G01*
G75*
G02X362104Y193240I-246J-217*
G01*
G75*
G02X362137Y193102I-509J-195*
G01*
G75*
G02X362147Y192907I-1828J-197*
G01*
G75*
G02X362137Y192690I-2322J0*
G01*
G75*
G02X362100Y192564I-343J32*
G01*
G75*
G02X362024Y192480I-200J104*
G01*
G75*
G02X361891Y192411I-374J563*
G01*
G75*
G02X361578Y192338I-430J1132*
G01*
G75*
G02X361131Y192317I-429J4388*
G01*
G75*
G02X360694Y192340I18J4534*
G01*
G75*
G02X360441Y192417I69J678*
G01*
G75*
G02X360293Y192592I146J273*
G01*
G75*
G02X360239Y192908I1007J336*
G01*
G75*
G02X360281Y193225I1060J19*
G01*
G75*
G02X360422Y193406I296J-87*
G01*
G75*
G02X360678Y193486I305J-525*
G01*
G75*
G02X361181Y193507I524J-6313*
G01*
G75*
G02X361686Y193489I20J-6219*
G01*
G75*
G02X361954Y193410I-53J-678*
G01*
X362506Y193583D02*
G75*
G02X362710Y193196I-745J-640D01*
G01*
G75*
G02X362732Y192751I-1022J-274*
G01*
G75*
G02X362569Y192345I-998J164*
G01*
G75*
G02X362256Y192069I-705J481*
G01*
G75*
G02X361881Y191955I-491J948*
G01*
G75*
G02X361233Y191915I-767J7123*
G01*
G75*
G02X360583Y191933I-123J7117*
G01*
G75*
G02X360194Y192033I85J1139*
G01*
G75*
G02X359905Y192251I346J760*
G01*
G75*
G02X359718Y192581I760J648*
G01*
G75*
G02X359664Y192966I1000J336*
G01*
G75*
G02X359755Y193340I1015J-48*
G01*
G75*
G02X359956Y193625I852J-387*
G01*
G75*
G02X360239Y193799I538J-557*
G01*
G75*
G02X360663Y193883I507J-1448*
G01*
G75*
G02X361331Y193891I429J-8074*
G01*
G75*
G02X361907Y193867I-698J-23668*
G01*
G75*
G02X362164Y193827I-69J-1286*
G01*
G75*
G02X362335Y193744I-124J-470*
G01*
G75*
G02X362506Y193583I-669J-885*
G01*
X364247Y194514D02*
G75*
G03X364138Y194351I356J-356D01*
G01*
G75*
G03X364080Y194134I796J-330*
G01*
G75*
G03X364053Y193774I3065J-409*
G01*
G75*
G03X364047Y193014I48477J-757*
G01*
Y191714*
X364747*
Y193503*
X365222Y193533*
X365697Y193564*
X365727Y194139*
X365757Y194714*
X365102*
G75*
G03X364759Y194705I2J-6571*
G01*
G75*
G03X364539Y194673I67J-1256*
G01*
G75*
G03X364380Y194613I144J-618*
G01*
G75*
G03X364247Y194514I276J-508*
G01*
X365347Y194420D02*
G75*
G02X365324Y194381I-44D01*
G01*
G75*
G02X365237Y194344I-270J513*
G01*
G75*
G02X365116Y194313I-272J817*
G01*
G75*
G02X364972Y194294I-273J1522*
G01*
G75*
G03X364805Y194272I135J-1633*
G01*
G75*
G03X364690Y194234I85J-453*
G01*
G75*
G03X364622Y194181I90J-185*
G01*
G75*
G03Y194046I81J-67*
G01*
G75*
G03X364690Y193993I158J132*
G01*
G75*
G03X364805Y193955I200J415*
G01*
G75*
G03X364972Y193933I302J1611*
G01*
G75*
G02X365116Y193914I-139J-1647*
G01*
G75*
G02X365237Y193885I-155J-899*
G01*
G75*
G02X365325Y193850I-191J-606*
G01*
G75*
G02Y193778I-18J-36*
G01*
G75*
G02X365237Y193743I-278J570*
G01*
G75*
G02X365116Y193713I-276J870*
G01*
G75*
G02X364972Y193694I-283J1628*
G01*
X364597Y193664*
X364568Y192839*
G75*
G02X364547Y192420I-14178J496*
G01*
G75*
G02X364515Y192185I-1640J109*
G01*
G75*
G02X364466Y192056I-444J94*
G01*
G75*
G02X364393Y192014I-73J41*
G01*
G75*
G02X364319Y192061I0J81*
G01*
G75*
G02X364276Y192211I515J230*
G01*
G75*
G02X364253Y192489I2243J324*
G01*
G75*
G02X364247Y193018I25070J526*
G01*
G75*
G02X364254Y193626I27578J0*
G01*
G75*
G02X364284Y193907I1649J-35*
G01*
G75*
G02X364356Y194093I565J-111*
G01*
G75*
G02X364493Y194268I781J-469*
G01*
G75*
G02X364713Y194419I513J-513*
G01*
G75*
G02X365011Y194509I524J-1192*
G01*
G75*
G02X365262Y194516I148J-832*
G01*
G75*
G02X365347Y194420I-12J-96*
G01*
X366428Y210311D02*
G75*
G02X366596Y210197I-1117J-1829D01*
G01*
G75*
G02X366681Y210105I-200J-269*
G01*
G75*
G02X366709Y210008I-159J-98*
G01*
G75*
G02X366691Y209886I-405J-4*
G01*
G75*
G02X366109Y208661I-4432J1353*
G01*
G75*
G02X365140Y207503I-5874J3933*
G01*
G75*
G02X363769Y206402I-6799J7061*
G01*
G75*
G02X361978Y205347I-10516J15809*
G01*
G75*
G02X361314Y205023I-7103J13734*
G01*
G75*
G02X360861Y204859I-1239J2700*
G01*
G75*
G02X360560Y204821I-282J1030*
G01*
G75*
G02X360397Y204914I4J196*
G01*
G75*
G03X360348Y204959I-106J-65*
G01*
G75*
G03X360225Y205017I-791J-1529*
G01*
G75*
G03X360070Y205074I-759J-1799*
G01*
G75*
G03X359898Y205124I-820J-2535*
G01*
G75*
G02X359604Y205223I481J1910*
G01*
G75*
G02X359439Y205348I167J392*
G01*
G75*
G02X359389Y205504I179J143*
G01*
G75*
G02X359442Y205693I448J-23*
G01*
G75*
G03X359489Y205806I-519J279*
G01*
G75*
G03X359570Y206093I-14321J4202*
G01*
G75*
G03X359659Y206437I-13602J3693*
G01*
G75*
G03X359747Y206814I-18972J4644*
G01*
G75*
G02X360067Y207991I13023J-2915*
G01*
G75*
G02X360445Y208873I4944J-1594*
G01*
G75*
G02X360885Y209491I2744J-1487*
G01*
G75*
G02X361397Y209858I1125J-1028*
G01*
G75*
G02X362190Y210159I3309J-7534*
G01*
G75*
G02X362951Y210350I1857J-5780*
G01*
G75*
G02X363807Y210457I1366J-7472*
G01*
G75*
G02X364897Y210500I1302J-19211*
G01*
G75*
G02X365576Y210500I358J-32093*
G01*
G75*
G02X365946Y210475I-35J-3301*
G01*
G75*
G02X366200Y210418I-156J-1280*
G01*
G75*
G02X366428Y210311I-363J-1075*
G01*
X369369Y193958D02*
G75*
G03X369248Y193836I280J-400D01*
G01*
G75*
G03X369183Y193685I344J-239*
G01*
G75*
G03X369154Y193437I1319J-281*
G01*
G75*
G03X369147Y192914I21064J-515*
G01*
G75*
G03X369195Y192157I6015J-1*
G01*
G75*
G03X369387Y191860I405J51*
G01*
G75*
G03X369808Y191735I448J737*
G01*
G75*
G03X371119Y191714I1304J40766*
G01*
X372647*
Y192314*
X371441*
G75*
G02X370964Y192321I-2J15024*
G01*
G75*
G02X370531Y192344I326J10292*
G01*
G75*
G02X370173Y192376I820J11123*
G01*
G75*
G02X370041Y192417I38J359*
G01*
G75*
G02X369951Y192488I153J285*
G01*
G75*
G02X369891Y192586I246J218*
G01*
G75*
G02X369857Y192723I502J195*
G01*
G75*
G02X369847Y192914I1743J189*
G01*
G75*
G02X369857Y193104I1749J1*
G01*
G75*
G02X369891Y193241I535J-58*
G01*
G75*
G02X369951Y193339I306J-120*
G01*
G75*
G02X370041Y193410I243J-213*
G01*
G75*
G02X370173Y193451I170J-319*
G01*
G75*
G02X370531Y193483I1179J-11091*
G01*
G75*
G02X370964Y193506I759J-10269*
G01*
G75*
G02X371441Y193514I487J-15017*
G01*
X372647*
Y194114*
X371119*
G75*
G03X370322Y194107I11J-48752*
G01*
G75*
G03X369853Y194082I108J-6491*
G01*
G75*
G03X369552Y194037I225J-2525*
G01*
G75*
G03X369369Y193958I103J-487*
G01*
X372308Y193857D02*
G75*
G02X372309Y193770I-5J-44D01*
G01*
G75*
G02X372024Y193741I-917J7452*
G01*
G75*
G02X371648Y193720I-543J6516*
G01*
G75*
G02X371155Y193714I-488J18874*
G01*
G75*
G03X370687Y193709I17J-24813*
G01*
G75*
G03X370267Y193696I304J-16138*
G01*
G75*
G03X369916Y193677I926J-20478*
G01*
G75*
G03X369805Y193653I23J-373*
G01*
G75*
G03X369728Y193587I54J-142*
G01*
G75*
G03X369680Y193463I366J-214*
G01*
G75*
G03X369654Y193257I1194J-256*
G01*
G75*
G03X369647Y192914I8393J-335*
G01*
G75*
G03X369654Y192570I8409J-9*
G01*
G75*
G03X369680Y192364I1220J50*
G01*
G75*
G03X369728Y192240I414J90*
G01*
G75*
G03X369805Y192174I131J76*
G01*
G75*
G03X369916Y192150I133J349*
G01*
G75*
G03X370267Y192131I1277J20459*
G01*
G75*
G03X370687Y192118I724J16124*
G01*
G75*
G03X371155Y192114I464J24808*
G01*
G75*
G02X371648Y192107I-10J-18881*
G01*
G75*
G02X372024Y192087I-167J-6536*
G01*
G75*
G02X372309Y192057I-632J-7481*
G01*
G75*
G02X372308Y191970I-6J-44*
G01*
G75*
G02X372013Y191941I-957J8193*
G01*
G75*
G02X371623Y191920I-562J6986*
G01*
G75*
G02X371111Y191914I-508J20506*
G01*
G75*
G02X370395Y191920I-13J39133*
G01*
G75*
G02X370036Y191948I55J3024*
G01*
G75*
G02X369805Y192009I137J987*
G01*
G75*
G02X369611Y192121I287J724*
G01*
G75*
G02X369469Y192257I616J783*
G01*
G75*
G02X369392Y192393I309J265*
G01*
G75*
G02X369356Y192580I686J228*
G01*
G75*
G02X369347Y192914I5939J328*
G01*
G75*
G02X369356Y193247I5941J5*
G01*
G75*
G02X369392Y193434I722J-41*
G01*
G75*
G02X369469Y193570I386J-129*
G01*
G75*
G02X369611Y193706I758J-647*
G01*
G75*
G02X369805Y193818I481J-613*
G01*
G75*
G02X370036Y193879I368J-926*
G01*
G75*
G02X370395Y193907I414J-2996*
G01*
G75*
G02X371111Y193914I724J-39127*
G01*
G75*
G02X371623Y193907I-11J-20512*
G01*
G75*
G02X372013Y193887I-172J-7007*
G01*
G75*
G02X372308Y193857I-662J-8222*
G01*
X374011Y193906D02*
G75*
G03X373859Y193752I524J-668D01*
G01*
G75*
G03X373784Y193589I333J-252*
G01*
G75*
G03X373753Y193330I1301J-285*
G01*
G75*
G03X373747Y192706I31644J-611*
G01*
Y191714*
X374447*
Y192510*
G75*
G02X374470Y193076I6993J2*
G01*
G75*
G02X374565Y193343I545J-44*
G01*
G75*
G02X374762Y193474I263J-182*
G01*
G75*
G02X375141Y193514I379J-1785*
G01*
G75*
G03X375314Y193524I2J1491*
G01*
G75*
G03X375396Y193563I-17J140*
G01*
G75*
G03X375437Y193644I-96J98*
G01*
G75*
G03X375447Y193814I-1368J171*
G01*
G75*
G03X375431Y193998I-1062J0*
G01*
G75*
G03X375373Y194076I-107J-19*
G01*
G75*
G03X375247Y194108I-135J-263*
G01*
G75*
G03X374861Y194114I-389J-13707*
G01*
G75*
G03X374564Y194103I5J-4139*
G01*
G75*
G03X374344Y194069I94J-1327*
G01*
G75*
G03X374169Y194005I209J-853*
G01*
G75*
G03X374011Y193906I380J-783*
G01*
X375147Y193814D02*
G75*
G02X375126Y193775I-46J0D01*
G01*
G75*
G02X375061Y193743I-157J234*
G01*
G75*
G02X374967Y193721I-157J460*
G01*
G75*
G02X374855Y193714I-110J855*
G01*
G75*
G03X374499Y193685I1J-2202*
G01*
G75*
G03X374337Y193580I40J-240*
G01*
G75*
G03X374263Y193358I369J-246*
G01*
G75*
G03X374247Y192803I9989J-554*
G01*
G75*
G02X374241Y192390I-14492J1*
G01*
G75*
G02X374217Y192170I-1388J41*
G01*
G75*
G02X374172Y192055I-325J62*
G01*
G75*
G02X374097Y192014I-74J47*
G01*
G75*
G02X374023Y192052I0J91*
G01*
G75*
G02X373978Y192156I228J162*
G01*
G75*
G02X373953Y192354I1111J237*
G01*
G75*
G02X373947Y192718I10857J358*
G01*
G75*
G02X373956Y193118I9148J2*
G01*
G75*
G02X373989Y193343I1090J-47*
G01*
G75*
G02X374061Y193507I534J-138*
G01*
G75*
G02X374193Y193668I840J-548*
G01*
G75*
G02X374429Y193823I493J-493*
G01*
G75*
G02X374763Y193914I567J-1430*
G01*
G75*
G02X375053Y193919I164J-1080*
G01*
G75*
G02X375147Y193814I-12J-106*
G01*
X376612Y193869D02*
G75*
G03X376469Y193709I791J-855D01*
G01*
G75*
G03X376392Y193555I396J-294*
G01*
G75*
G03X376356Y193347I849J-252*
G01*
G75*
G03X376347Y192976I7455J-368*
G01*
G75*
G03X376352Y192717I7397J-6*
G01*
G75*
G03X376365Y192472I5887J209*
G01*
G75*
G03X376385Y192267I5517J425*
G01*
G75*
G03X376409Y192168I402J45*
G01*
G75*
G03X376556Y191980I385J148*
G01*
G75*
G03X376834Y191835I659J930*
G01*
G75*
G03X377219Y191744I620J1750*
G01*
G75*
G03X377692Y191714I472J3715*
G01*
X378347*
Y192014*
G75*
G03X378336Y192187I-1365J-3*
G01*
G75*
G03X378294Y192267I-126J-16*
G01*
G75*
G03X378205Y192305I-103J-117*
G01*
G75*
G03X378005Y192314I-200J-2211*
G01*
G75*
G02X377736Y192328I-2J2607*
G01*
G75*
G02X377527Y192371I107J1030*
G01*
G75*
G02X377392Y192438I154J481*
G01*
G75*
G02X377347Y192524I61J86*
G01*
G75*
G02X377380Y192560I36*
G01*
G75*
G02X377714Y192587I1557J-17085*
G01*
G75*
G02X378118Y192607I644J-9052*
G01*
G75*
G02X378597Y192614I490J-17894*
G01*
X379847*
Y193100*
G75*
G03X379835Y193337I-2317J-1*
G01*
G75*
G03X379798Y193534I-1195J-122*
G01*
G75*
G03X379733Y193702I-906J-253*
G01*
G75*
G03X379640Y193850I-766J-380*
G01*
G75*
G03X379476Y194004I-594J-467*
G01*
G75*
G03X379293Y194080I-264J-381*
G01*
G75*
G03X378986Y194108I-330J-1867*
G01*
G75*
G03X378154Y194114I-856J-66442*
G01*
G75*
G03X377357Y194108I2J-54033*
G01*
G75*
G03X377021Y194079I35J-2367*
G01*
G75*
G03X376809Y194008I108J-677*
G01*
G75*
G03X376612Y193869I431J-817*
G01*
X376951Y193569D02*
G75*
G03X376907Y193500I246J-204D01*
G01*
G75*
G03X376876Y193413I469J-220*
G01*
G75*
G03X376861Y193323I494J-131*
G01*
G75*
G03X376865Y193243I296J-22*
G01*
G75*
G03X376935Y193146I140J27*
G01*
G75*
G03X377091Y193093I221J389*
G01*
G75*
G03X377396Y193069I340J2326*
G01*
G75*
G03X378097Y193064I678J48517*
G01*
G75*
G03X378821Y193069I11J53707*
G01*
G75*
G03X379115Y193093I-27J2084*
G01*
G75*
G03X379262Y193151I-56J356*
G01*
G75*
G03X379331Y193257I-93J137*
G01*
G75*
G03X379287Y193470I-278J53*
G01*
G75*
G03X379100Y193614I-315J-214*
G01*
G75*
G03X378714Y193693I-473J-1340*
G01*
G75*
G03X378040Y193714I-680J-10870*
G01*
G75*
G03X377564Y193707I2J-16181*
G01*
G75*
G03X377257Y193682I87J-2981*
G01*
G75*
G03X377057Y193639I173J-1283*
G01*
G75*
G03X376951Y193569I63J-211*
G01*
X378789Y193453D02*
G75*
G02X378907Y193360I-89J-234D01*
G01*
G75*
G02X378880Y193279I-44J-30*
G01*
G75*
G02X378609Y193227I-320J927*
G01*
G75*
G02X378097Y193214I-510J9994*
G01*
G75*
G02X377600Y193227I-4J9096*
G01*
G75*
G02X377320Y193279I61J1108*
G01*
G75*
G02X377283Y193358I18J57*
G01*
G75*
G02X377372Y193447I149J-59*
G01*
G75*
G02X377583Y193493I238J-589*
G01*
G75*
G02X378078Y193504I548J-13046*
G01*
G75*
G02X378573Y193497I53J-12867*
G01*
G75*
G02X378789Y193453I-24J-666*
G01*
X379362Y193614D02*
G75*
G02X379488Y193471I-1115J-1113D01*
G01*
G75*
G02X379576Y193334I-665J-521*
G01*
G75*
G02X379624Y193205I-524J-267*
G01*
G75*
G02X379629Y193089I-300J-72*
G01*
G75*
G02X379562Y192960I-217J31*
G01*
G75*
G02X379422Y192888I-198J211*
G01*
G75*
G02X379127Y192850I-392J1889*
G01*
G75*
G02X378298Y192814I-3693J74994*
G01*
G75*
G03X377524Y192779I2286J-59069*
G01*
G75*
G03X377199Y192741I131J-2541*
G01*
G75*
G03X377036Y192678I83J-459*
G01*
G75*
G03X376962Y192570I86J-139*
G01*
G75*
G03X376989Y192391I270J-51*
G01*
G75*
G03X377124Y192243I350J183*
G01*
G75*
G03X377359Y192146I379J584*
G01*
G75*
G03X377666Y192114I306J1456*
G01*
G75*
G02X377815Y192106I-3J-1402*
G01*
G75*
G02X377937Y192081I-73J-684*
G01*
G75*
G02X378022Y192045I-109J-374*
G01*
G75*
G02X378047Y192001I-26J-44*
G01*
G75*
G02X377939Y191895I-106J0*
G01*
G75*
G02X377523Y191934I49J2740*
G01*
G75*
G02X377074Y192048I498J2902*
G01*
G75*
G02X376794Y192217I248J731*
G01*
G75*
G02X376593Y192520I545J580*
G01*
G75*
G02X376530Y192902I942J349*
G01*
G75*
G02X376617Y193293I1084J-35*
G01*
G75*
G02X376839Y193621I962J-411*
G01*
G75*
G02X377042Y193792I1094J-1094*
G01*
G75*
G02X377224Y193874I301J-426*
G01*
G75*
G02X377487Y193907I292J-1259*
G01*
G75*
G02X378097Y193914I618J-26935*
G01*
G75*
G02X378710Y193907I-8J-27207*
G01*
G75*
G02X378972Y193873I-28J-1261*
G01*
G75*
G02X379155Y193790I-119J-503*
G01*
G75*
G02X379362Y193614I-973J-1355*
G01*
X381672Y193044D02*
G75*
G03X381556Y193003I80J-407D01*
G01*
G75*
G03X381489Y192935I77J-143*
G01*
G75*
G03X381456Y192819I276J-143*
G01*
G75*
G03X381447Y192609I2482J-207*
G01*
G75*
G03X381503Y192321I765J0*
G01*
G75*
G03X381661Y192174I237J96*
G01*
G75*
G03X382002Y192120I340J1037*
G01*
G75*
G03X382897Y192134I-80J33278*
G01*
X383897Y192164*
Y193064*
X382897Y193077*
G75*
G03X382498Y193078I-290J-22780*
G01*
G75*
G03X382125Y193072I88J-17328*
G01*
G75*
G03X381812Y193061I454J-17348*
G01*
G75*
G03X381672Y193044I41J-920*
G01*
X382629Y193839D02*
G75*
G02X382586Y193678I-574J67D01*
G01*
G75*
G02X382504Y193594I-151J64*
G01*
G75*
G02X382339Y193548I-226J489*
G01*
G75*
G02X381906Y193504I-1763J15465*
G01*
G75*
G03X381372Y193419I316J-3668*
G01*
G75*
G03X381062Y193257I162J-686*
G01*
G75*
G03X380900Y192985I361J-400*
G01*
G75*
G03X380847Y192551I1761J-433*
G01*
G75*
G03X380859Y192299I2685J-1*
G01*
G75*
G03X380902Y192152I407J38*
G01*
G75*
G03X380993Y192039I311J159*
G01*
G75*
G03X381172Y191913I1039J1285*
G01*
G75*
G03X381402Y191808I549J901*
G01*
G75*
G03X381671Y191749I448J1409*
G01*
G75*
G03X382071Y191721I475J3919*
G01*
G75*
G03X382805Y191714I759J38465*
G01*
G75*
G03X383615Y191719I6J58617*
G01*
G75*
G03X383954Y191747I-35J2488*
G01*
G75*
G03X384158Y191814I-96J637*
G01*
G75*
G03X384330Y191945I-306J578*
G01*
G75*
G03X384442Y192098I-561J528*
G01*
G75*
G03X384507Y192268I-563J313*
G01*
G75*
G03X384539Y192505I-1294J295*
G01*
G75*
G03X384547Y192900I-9015J395*
G01*
G75*
G03X384539Y193312I-9936J-2*
G01*
G75*
G03X384505Y193541I-1120J-47*
G01*
G75*
G03X384433Y193706I-534J-136*
G01*
G75*
G03X384302Y193868I-838J-543*
G01*
G75*
G03X384141Y193999I-710J-710*
G01*
G75*
G03X383978Y194071I-302J-463*
G01*
G75*
G03X383754Y194105I-273J-1046*
G01*
G75*
G03X383358Y194114I-401J-8861*
G01*
G75*
G03X382905Y194108I8J-19263*
G01*
G75*
G03X382748Y194078I11J-478*
G01*
G75*
G03X382670Y194001I48J-126*
G01*
G75*
G03X382629Y193839I592J-235*
G01*
X383696Y192816D02*
G75*
G02X383711Y192764I-90J-56D01*
G01*
G75*
G02X383707Y192687I-400J-14*
G01*
G75*
G02X383685Y192600I-507J81*
G01*
G75*
G02X383648Y192516I-547J189*
G01*
G75*
G02X383556Y192409I-282J150*
G01*
G75*
G02X383422Y192348I-211J289*
G01*
G75*
G02X383199Y192320I-259J1145*
G01*
G75*
G02X382751Y192314I-438J15190*
G01*
G75*
G02X382357Y192322I-1J9811*
G01*
G75*
G02X382096Y192349I79J2016*
G01*
G75*
G02X381919Y192398I156J906*
G01*
G75*
G02X381798Y192477I127J327*
G01*
G75*
G02X381732Y192656I161J161*
G01*
G75*
G02X381833Y192792I158J-12*
G01*
G75*
G02X382201Y192872I453J-1191*
G01*
G75*
G02X382916Y192902I939J-14062*
G01*
G75*
G02X383196Y192899I86J-5456*
G01*
G75*
G02X383442Y192881I-113J-3279*
G01*
G75*
G02X383639Y192854I-383J-3420*
G01*
G75*
G02X383696Y192816I-14J-81*
G01*
X384119Y193568D02*
G75*
G02X384305Y193244I-754J-648D01*
G01*
G75*
G02X384356Y192877I-914J-316*
G01*
G75*
G02X384266Y192513I-994J52*
G01*
G75*
G02X384046Y192197I-994J459*
G01*
X383745Y191896*
X382656Y191930*
G75*
G02X381874Y191980I364J11751*
G01*
G75*
G02X381448Y192094I131J1344*
G01*
G75*
G02X381228Y192297I196J432*
G01*
G75*
G02X381231Y192935I574J316*
G01*
G75*
G02X381458Y193138I410J-230*
G01*
G75*
G02X381906Y193248I572J-1354*
G01*
G75*
G02X382763Y193297I1283J-14973*
G01*
G75*
G03X383449Y193321I-1335J47959*
G01*
G75*
G03X383749Y193353I-99J2360*
G01*
G75*
G03X383889Y193408I-63J367*
G01*
G75*
G03X383927Y193497I-47J73*
G01*
G75*
G03X383884Y193576I-146J-27*
G01*
G75*
G03X383796Y193633I-185J-192*
G01*
G75*
G03X383649Y193671I-235J-604*
G01*
G75*
G03X383421Y193694I-428J-3115*
G01*
G75*
G02X383239Y193713I136J2147*
G01*
G75*
G02X383086Y193747I176J1158*
G01*
G75*
G02X382975Y193789I230J787*
G01*
G75*
G02X382947Y193832I20J43*
G01*
G75*
G02X382976Y193875I46*
G01*
G75*
G02X383069Y193898I136J-348*
G01*
G75*
G02X383216Y193903I102J-894*
G01*
G75*
G02X383419Y193887I-153J-3199*
G01*
G75*
G02X383653Y193847I-244J-2148*
G01*
G75*
G02X383835Y193785I-207J-917*
G01*
G75*
G02X383985Y193695I-311J-682*
G01*
G75*
G02X384119Y193568I-569J-733*
G01*
X385919Y194652D02*
G75*
G03X385891Y194611I92J-93D01*
G01*
G75*
G03X385868Y194546I451J-195*
G01*
G75*
G03X385852Y194470I563J-156*
G01*
G75*
G03X385847Y194394I556J-76*
G01*
G75*
G02X385836Y194318I-261J1*
G01*
G75*
G02X385803Y194245I-298J90*
G01*
G75*
G02X385754Y194186I-246J152*
G01*
G75*
G02X385697Y194150I-121J128*
G01*
G75*
G03X385589Y194037I66J-172*
G01*
G75*
G03X385550Y193814I662J-228*
G01*
G75*
G03X385586Y193591I696J-4*
G01*
G75*
G03X385693Y193479I172J57*
G01*
G75*
G02X385764Y193410I-46J-118*
G01*
G75*
G02X385813Y193251I-752J-318*
G01*
G75*
G02X385847Y192996I-2012J-397*
G01*
G75*
G02X385868Y192593I-11637J-816*
G01*
X385897Y191764*
X386597*
X386697Y193464*
X387147Y193514*
G75*
G03X387405Y193550I-473J4296*
G01*
G75*
G03X387522Y193597I-52J300*
G01*
G75*
G03X387579Y193676I-77J115*
G01*
G75*
G03X387597Y193814I-509J139*
G01*
G75*
G03X387579Y193952I-529J-1*
G01*
G75*
G03X387522Y194030I-133J-36*
G01*
G75*
G03X387406Y194077I-169J-252*
G01*
G75*
G03X387151Y194114I-724J-4131*
G01*
G75*
G02X386910Y194150I347J3136*
G01*
G75*
G02X386777Y194201I78J404*
G01*
G75*
G02X386698Y194282I111J187*
G01*
G75*
G02X386647Y194414I441J246*
G01*
G75*
G03X386603Y194535I-520J-121*
G01*
G75*
G03X386537Y194616I-216J-109*
G01*
G75*
G03X386437Y194666I-175J-225*
G01*
G75*
G03X386289Y194693I-235J-849*
G01*
G75*
G03X386170Y194700I-126J-1249*
G01*
G75*
G03X386057Y194693I-2J-980*
G01*
G75*
G03X385965Y194678I87J-786*
G01*
G75*
G03X385919Y194652I22J-94*
G01*
X386447Y194164D02*
G75*
G03X386512Y194038I584J221D01*
G01*
G75*
G03X386593Y193963I196J131*
G01*
G75*
G03X386710Y193925I156J279*
G01*
G75*
G03X386894Y193914I183J1506*
G01*
G75*
G02X387178Y193895I-2J-2196*
G01*
G75*
G02X387238Y193819I-9J-69*
G01*
G75*
G02X387163Y193736I-94J9*
G01*
G75*
G02X386872Y193694I-495J2419*
G01*
X386497Y193664*
X386447Y192864*
G75*
G02X386415Y192459I-12832J806*
G01*
G75*
G02X386376Y192230I-1530J144*
G01*
G75*
G02X386323Y192106I-418J106*
G01*
G75*
G02X386172Y192105I-76J47*
G01*
G75*
G02X386122Y192226I328J206*
G01*
G75*
G02X386089Y192452I1441J324*
G01*
G75*
G02X386067Y192861I13489J919*
G01*
G75*
G03X386049Y193170I-7005J-255*
G01*
G75*
G03X386018Y193441I-4174J-342*
G01*
G75*
G03X385981Y193660I-4761J-699*
G01*
G75*
G03X385941Y193717I-85J-17*
G01*
G75*
G02X385901Y193822I49J78*
G01*
G75*
G02X386002Y194092I2042J-611*
G01*
G75*
G02X386141Y194349I1964J-891*
G01*
G75*
G02X386257Y194414I117J-73*
G01*
G75*
G02X386300Y194397I0J-65*
G01*
G75*
G02X386352Y194340I-282J-311*
G01*
G75*
G02X386404Y194259I-469J-357*
G01*
G75*
G02X386447Y194164I-747J-399*
G01*
X388297Y213264D02*
G75*
G03X387203Y213091I5028J-35301D01*
G01*
G75*
G03X386298Y212908I2979J-17104*
G01*
G75*
G03X385306Y212657I5090J-22146*
G01*
G75*
G03X383897Y212253I24648J-88698*
G01*
G75*
G03X382233Y211669I4884J-16563*
G01*
G75*
G03X380741Y210947I5106J-12457*
G01*
G75*
G03X379576Y210185I5127J-9120*
G01*
G75*
G03X378989Y209494I1243J-1650*
G01*
G75*
G03X378869Y209151I1093J-572*
G01*
G75*
G03X378848Y208772I1440J-272*
G01*
G75*
G03X378922Y208423I1302J93*
G01*
G75*
G03X379084Y208167I655J237*
G01*
G75*
G03X379292Y208011I648J648*
G01*
G75*
G03X379609Y207862I1405J2573*
G01*
G75*
G03X379944Y207750I1099J2738*
G01*
G75*
G03X380215Y207714I276J1030*
G01*
G75*
G02X380274Y207697I-1J-111*
G01*
G75*
G02X380361Y207634I-471J-742*
G01*
G75*
G02X380456Y207546I-693J-848*
G01*
G75*
G02X380546Y207442I-1016J-973*
G01*
G75*
G03X380782Y207213I979J770*
G01*
G75*
G03X381074Y207047I813J1092*
G01*
G75*
G03X381422Y206947I614J1481*
G01*
G75*
G03X381822Y206914I399J2387*
G01*
X382275*
X382215Y206289*
G75*
G03X382075Y204550I53637J-5186*
G01*
G75*
G03X381994Y202830I50942J-3265*
G01*
G75*
G03X381975Y201284I43218J-1302*
G01*
G75*
G03X382028Y200098I15324J87*
G01*
G75*
G03X382081Y199514I34266J2848*
G01*
G75*
G03X382143Y198946I30891J3098*
G01*
G75*
G03X382206Y198460I27972J3331*
G01*
G75*
G03X382254Y198191I3076J420*
G01*
G75*
G03X382407Y197760I1924J439*
G01*
G75*
G03X382646Y197415I1267J622*
G01*
G75*
G03X382944Y197191I790J744*
G01*
G75*
G03X383269Y197114I324J637*
G01*
G75*
G02X383444Y197096I-1J-905*
G01*
G75*
G02X383597Y197046I-125J-635*
G01*
G75*
G02X383744Y196954I-325J-681*
G01*
G75*
G02X383897Y196814I-982J-1230*
G01*
G75*
G03X384178Y196604I761J728*
G01*
G75*
G03X384496Y196515I379J743*
G01*
G75*
G03X384830Y196556I64J868*
G01*
G75*
G03X385157Y196720I-374J1149*
G01*
X385447Y196927*
Y198515*
G75*
G02X385454Y199165I31907J16*
G01*
G75*
G02X385474Y199681I12865J-261*
G01*
G75*
G02X385504Y200093I19658J-1204*
G01*
G75*
G02X385547Y200164I92J-7*
G01*
G75*
G03X385587Y200222I-45J73*
G01*
G75*
G03X385618Y200439I-4204J714*
G01*
G75*
G03X385640Y200707I-3837J450*
G01*
G75*
G03X385647Y201014I-6472J311*
G01*
G75*
G02X385654Y201320I6471J4*
G01*
G75*
G02X385676Y201589I3859J-182*
G01*
G75*
G02X385707Y201805I4235J-498*
G01*
G75*
G02X385747Y201864I85J-15*
G01*
G75*
G03X385786Y201911I-49J80*
G01*
G75*
G03X385818Y202019I-810J299*
G01*
G75*
G03X385840Y202155I-1080J244*
G01*
G75*
G03X385847Y202305I-1525J151*
G01*
Y202684*
X386772Y202744*
G75*
G03X387560Y202841I-461J7037*
G01*
G75*
G03X388586Y203052I-3699J20576*
G01*
G75*
G03X389637Y203324I-4908J21140*
G01*
G75*
G03X390522Y203615I-3230J11311*
G01*
G75*
G02X390724Y203685I1533J-4117*
G01*
G75*
G02X390896Y203731I645J-2024*
G01*
G75*
G02X391030Y203757I450J-1967*
G01*
G75*
G02X391057Y203737I4J-24*
G01*
G75*
G02X391060Y203692I-322J-45*
G01*
G75*
G02X391059Y203590I-6242J21*
G01*
G75*
G02X391056Y203469I-6205J120*
G01*
G75*
G02X391050Y203339I-8165J306*
G01*
G75*
G03X391049Y203138I1942J-108*
G01*
G75*
G03X391089Y203058I112J6*
G01*
G75*
G03X391181Y203021I102J119*
G01*
G75*
G03X391433Y203014I249J4357*
G01*
G75*
G03X391592Y203021I2J1715*
G01*
G75*
G03X391735Y203043I-111J1207*
G01*
G75*
G03X391849Y203075I-203J939*
G01*
G75*
G03X391897Y203114I-31J88*
G01*
G75*
G02X391940Y203152I86J-54*
G01*
G75*
G02X392025Y203184I239J-502*
G01*
G75*
G02X392132Y203206I200J-700*
G01*
G75*
G02X392247Y203214I116J-893*
G01*
G75*
G03X392362Y203221I2J897*
G01*
G75*
G03X392469Y203243I-93J722*
G01*
G75*
G03X392554Y203275I-154J535*
G01*
G75*
G03X392597Y203314I-44J93*
G01*
G75*
G02X392634Y203352I108J-67*
G01*
G75*
G02X392694Y203384I187J-274*
G01*
G75*
G02X392766Y203406I151J-365*
G01*
G75*
G02X392839Y203414I74J-359*
G01*
G75*
G03X393094Y203471I0J598*
G01*
G75*
G03X393762Y203798I-10451J22149*
G01*
G75*
G03X394452Y204171I-7519J14751*
G01*
G75*
G03X395009Y204519I-4033J7065*
G01*
G75*
G03X395500Y204892I-3489J5108*
G01*
G75*
G03X396057Y205389I-8508J10107*
G01*
G75*
G03X396576Y205892I-17103J18157*
G01*
G75*
G03X396647Y206063I-171J172*
G01*
G75*
G02X396660Y206121I136J0*
G01*
G75*
G02X396702Y206198I567J-263*
G01*
G75*
G02X396763Y206279I641J-419*
G01*
G75*
G02X396835Y206353I620J-529*
G01*
G75*
G03X396919Y206458I-280J309*
G01*
G75*
G03X397019Y206655I-2383J1334*
G01*
G75*
G03X397117Y206892I-2898J1331*
G01*
G75*
G03X397197Y207141I-3232J1181*
G01*
G75*
G03X397301Y207715I-3015J844*
G01*
G75*
G03X397310Y208348I-4340J379*
G01*
G75*
G03X397233Y208926I-3896J-229*
G01*
G75*
G03X397069Y209314I-1085J-229*
G01*
G75*
G02X396868Y209627I8477J5674*
G01*
G75*
G02X396676Y209950I8876J5485*
G01*
G75*
G02X396483Y210302I10535J5990*
G01*
G75*
G02X396276Y210707I17486J9211*
G01*
G75*
G03X395741Y211501I-3254J-1617*
G01*
G75*
G03X394985Y212183I-3446J-3059*
G01*
G75*
G03X394029Y212734I-3196J-4439*
G01*
G75*
G03X392897Y213138I-3133J-6990*
G01*
G75*
G03X392020Y213295I-1335J-4925*
G01*
G75*
G03X390751Y213370I-1827J-20305*
G01*
G75*
G03X389417Y213364I-574J-21038*
G01*
G75*
G03X388297Y213264I384J-10651*
G01*
X388723Y194644D02*
G75*
G03X388707Y194580I124J-65D01*
G01*
G75*
G03X388706Y194167I63719J-328*
G01*
G75*
G03X388711Y193687I26621J44*
G01*
G75*
G03X388726Y193133I47236J931*
G01*
X388770Y191703*
X389083Y191733*
X389397Y191764*
Y194664*
X389081Y194694*
G75*
G03X388957Y194700I-121J-1244*
G01*
G75*
G03X388846Y194692I2J-821*
G01*
G75*
G03X388759Y194674I84J-607*
G01*
G75*
G03X388723Y194644I17J-57*
G01*
X389247Y192974D02*
G75*
G02X389241Y192548I-13927J5D01*
G01*
G75*
G02X389216Y192298I-1861J58*
G01*
G75*
G02X389171Y192148I-617J102*
G01*
G75*
G02X389097Y192078I-122J54*
G01*
G75*
G02X389022Y192096I-24J63*
G01*
G75*
G02X388975Y192195I157J135*
G01*
G75*
G02X388952Y192424I1446J260*
G01*
G75*
G02X388947Y192917I24408J480*
G01*
G75*
G02X388953Y193392I19906J7*
G01*
G75*
G02X388976Y193639I1750J-43*
G01*
G75*
G02X389021Y193769I403J-67*
G01*
G75*
G02X389172Y193771I76J-42*
G01*
G75*
G02X389218Y193649I-314J-187*
G01*
G75*
G02X389241Y193416I-1530J-273*
G01*
G75*
G02X389247Y192974I-16880J-446*
G01*
X390911Y193906D02*
G75*
G03X390763Y193761I576J-731D01*
G01*
G75*
G03X390687Y193612I311J-253*
G01*
G75*
G03X390654Y193390I945J-252*
G01*
G75*
G03X390647Y192922I14850J-459*
G01*
G75*
G03X390694Y192231I5041J-2*
G01*
G75*
G03X390877Y191928I444J62*
G01*
G75*
G03X391269Y191785I452J628*
G01*
G75*
G03X392304Y191730I1578J20174*
G01*
G75*
G03X393099Y191715I1543J57844*
G01*
G75*
G03X393409Y191735I25J1946*
G01*
G75*
G03X393604Y191804I-79J533*
G01*
G75*
G03X393794Y191951I-482J819*
G01*
G75*
G03X393930Y192117I-779J778*
G01*
G75*
G03X394004Y192281I-453J303*
G01*
G75*
G03X394038Y192507I-1031J270*
G01*
G75*
G03X394047Y192914I-9447J414*
G01*
G75*
G03X394038Y193317I-9331J-8*
G01*
G75*
G03X394005Y193543I-1099J-47*
G01*
G75*
G03X393933Y193706I-533J-138*
G01*
G75*
G03X393802Y193868I-840J-547*
G01*
G75*
G03X393619Y194007I-606J-606*
G01*
G75*
G03X393420Y194078I-301J-531*
G01*
G75*
G03X393105Y194107I-348J-2042*
G01*
G75*
G03X392365Y194114I-759J-45769*
G01*
G75*
G03X391680Y194107I0J-35161*
G01*
G75*
G03X391330Y194079I57J-2873*
G01*
G75*
G03X391103Y194018I138J-967*
G01*
G75*
G03X390911Y193906I294J-730*
G01*
X391322Y193606D02*
G75*
G03X391237Y193524I126J-217D01*
G01*
G75*
G03X391184Y193401I353J-225*
G01*
G75*
G03X391155Y193212I957J-243*
G01*
G75*
G03X391147Y192912I5577J-296*
G01*
G75*
G03X391188Y192456I2587J0*
G01*
G75*
G03X391330Y192237I329J59*
G01*
G75*
G03X391628Y192136I335J498*
G01*
G75*
G03X392332Y192114I703J11195*
G01*
G75*
G03X393067Y192128I5J18315*
G01*
G75*
G03X393310Y192212I-18J447*
G01*
G75*
G03X393422Y192404I-157J220*
G01*
G75*
G03X393447Y192914I-5064J510*
G01*
G75*
G03X393440Y193257I-8400J-1*
G01*
G75*
G03X393414Y193463I-1220J-50*
G01*
G75*
G03X393366Y193587I-414J-90*
G01*
G75*
G03X393289Y193653I-131J-76*
G01*
G75*
G03X392987Y193711I-315J-821*
G01*
G75*
G03X392279Y193708I-273J-18252*
G01*
G75*
G03X391565Y193679I518J-21459*
G01*
G75*
G03X391322Y193606I31J-544*
G01*
X393054Y193410D02*
G75*
G02X393143Y193339I-153J-285D01*
G01*
G75*
G02X393203Y193241I-246J-218*
G01*
G75*
G02X393237Y193104I-502J-195*
G01*
G75*
G02X393247Y192914I-1739J-193*
G01*
G75*
G02X393200Y192610I-1008*
G01*
G75*
G02X393062Y192431I-315J100*
G01*
G75*
G02X392793Y192338I-330J522*
G01*
G75*
G02X392297Y192314I-493J4974*
G01*
G75*
G02X391816Y192338I-2J4794*
G01*
G75*
G02X391542Y192426I69J682*
G01*
G75*
G02X391398Y192593I167J290*
G01*
G75*
G02X391347Y192861I681J268*
G01*
G75*
G02X391408Y193156I744J0*
G01*
G75*
G02X391578Y193360I429J-185*
G01*
G75*
G02X391876Y193477I420J-631*
G01*
G75*
G02X392326Y193514I451J-2759*
G01*
G75*
G02X392544Y193506I-4J-3144*
G01*
G75*
G02X392760Y193483I-210J-3018*
G01*
G75*
G02X392945Y193450I-368J-2585*
G01*
G75*
G02X393054Y193410I-88J-408*
G01*
X393252Y209661D02*
G75*
G02X393407Y209564I-520J-1008D01*
G01*
G75*
G02X393493Y209466I-183J-245*
G01*
G75*
G02X393535Y209335I-314J-172*
G01*
G75*
G02X393547Y209125I-1793J-213*
G01*
G75*
G02X393220Y208058I-1904J0*
G01*
G75*
G02X392171Y206810I-6526J4420*
G01*
G75*
G02X390615Y205552I-7868J8143*
G01*
G75*
G02X388697Y204439I-9485J14127*
G01*
G75*
G02X387884Y204055I-9827J19790*
G01*
G75*
G02X387235Y203798I-3321J7433*
G01*
G75*
G02X386727Y203652I-1615J4645*
G01*
G75*
G02X386375Y203631I-234J1011*
G01*
G75*
G02X386222Y203665I93J796*
G01*
G75*
G02X386139Y203724I51J159*
G01*
G75*
G02X386093Y203833I206J152*
G01*
G75*
G02X386065Y204052I2501J422*
G01*
G75*
G02X386061Y204208I1443J118*
G01*
G75*
G02X386074Y204357I1210J-30*
G01*
G75*
G02X386101Y204480I958J-148*
G01*
G75*
G02X386140Y204547I148J-42*
G01*
G75*
G03X386182Y204621I-111J111*
G01*
G75*
G03X386216Y204791I-2062J499*
G01*
G75*
G03X386239Y205000I-2392J376*
G01*
G75*
G03X386247Y205228I-3308J228*
G01*
G75*
G02X386254Y205452I3461J3*
G01*
G75*
G02X386276Y205651I2197J-142*
G01*
G75*
G02X386308Y205809I1976J-311*
G01*
G75*
G02X386347Y205864I86J-21*
G01*
G75*
G03X386386Y205909I-50J82*
G01*
G75*
G03X386418Y206007I-659J269*
G01*
G75*
G03X386440Y206130I-894J224*
G01*
G75*
G03X386447Y206264I-1221J135*
G01*
G75*
G02X386454Y206398I1225J2*
G01*
G75*
G02X386476Y206520I917J-101*
G01*
G75*
G02X386508Y206618I691J-172*
G01*
G75*
G02X386547Y206664I90J-37*
G01*
G75*
G03X386586Y206709I-50J82*
G01*
G75*
G03X386618Y206807I-659J269*
G01*
G75*
G03X386640Y206930I-894J224*
G01*
G75*
G03X386647Y207064I-1221J135*
G01*
G75*
G02X386654Y207198I1225J2*
G01*
G75*
G02X386676Y207320I917J-101*
G01*
G75*
G02X386708Y207418I691J-172*
G01*
G75*
G02X386747Y207464I90J-37*
G01*
G75*
G03X386785Y207499I-72J117*
G01*
G75*
G03X386818Y207554I-244J180*
G01*
G75*
G03X386840Y207619I-314J143*
G01*
G75*
G03X386847Y207684I-284J66*
G01*
G75*
G02X386867Y207771I194J0*
G01*
G75*
G02X386950Y207922I1989J-988*
G01*
G75*
G02X387063Y208094I2185J-1305*
G01*
G75*
G02X387196Y208269I2674J-1909*
G01*
G75*
G02X387597Y208642I1564J-1281*
G01*
G75*
G02X388217Y209025I3554J-5053*
G01*
G75*
G02X388860Y209326I2931J-5434*
G01*
G75*
G02X389317Y209414I458J-1144*
G01*
G75*
G03X389443Y209421I2J1090*
G01*
G75*
G03X389560Y209443I-98J836*
G01*
G75*
G03X389652Y209475I-163J624*
G01*
G75*
G03X389697Y209514I-40J91*
G01*
G75*
G02X389744Y209553I82J-52*
G01*
G75*
G02X389849Y209587I318J-796*
G01*
G75*
G02X389982Y209612I269J-1057*
G01*
G75*
G02X390128Y209624I189J-1470*
G01*
G75*
G03X390287Y209633I-61J2386*
G01*
G75*
G03X390462Y209654I-326J3474*
G01*
G75*
G03X390625Y209682I-472J3198*
G01*
G75*
G03X390747Y209714I-214J1082*
G01*
G75*
G02X391224Y209798I547J-1711*
G01*
G75*
G02X392054Y209806I545J-13724*
G01*
G75*
G02X392880Y209766I-330J-15609*
G01*
G75*
G02X393252Y209661I-71J-963*
G01*
X393606Y193583D02*
G75*
G02X393713Y193434I-826J-710D01*
G01*
G75*
G02X393789Y193276I-769J-463*
G01*
G75*
G02X393832Y193104I-869J-313*
G01*
G75*
G02X393847Y192914I-1230J-193*
G01*
G75*
G02X393832Y192723I-1247J2*
G01*
G75*
G02X393789Y192551I-913J141*
G01*
G75*
G02X393713Y192393I-844J304*
G01*
G75*
G02X393606Y192244I-934J561*
G01*
G75*
G02X393435Y192083I-831J715*
G01*
G75*
G02X393262Y192000I-301J399*
G01*
G75*
G02X393002Y191957I-341J1278*
G01*
G75*
G02X392424Y191930I-1433J23639*
G01*
G75*
G02X391839Y191915I-880J24263*
G01*
G75*
G02X391572Y191939I-15J1371*
G01*
G75*
G02X391381Y192010I106J572*
G01*
G75*
G02X391165Y192163I822J1389*
G01*
G75*
G02X390993Y192328I1218J1446*
G01*
G75*
G02X390902Y192469I359J332*
G01*
G75*
G02X390859Y192640I526J223*
G01*
G75*
G02X390847Y192914I3022J272*
G01*
G75*
G02X390859Y193187I3030J2*
G01*
G75*
G02X390902Y193359I569J-51*
G01*
G75*
G02X390993Y193499I450J-192*
G01*
G75*
G02X391165Y193664I1390J-1281*
G01*
G75*
G02X391381Y193817I1038J-1236*
G01*
G75*
G02X391572Y193889I297J-501*
G01*
G75*
G02X391839Y193912I252J-1348*
G01*
G75*
G02X392424Y193898I-295J-24277*
G01*
G75*
G02X393002Y193870I-856J-23667*
G01*
G75*
G02X393262Y193828I-80J-1320*
G01*
G75*
G02X393435Y193744I-128J-483*
G01*
G75*
G02X393606Y193583I-660J-876*
G01*
X395365Y193882D02*
G75*
G03X395248Y193716I528J-495D01*
G01*
G75*
G03X395183Y193527I609J-312*
G01*
G75*
G03X395154Y193239I1850J-335*
G01*
G75*
G03X395147Y192682I21918J-542*
G01*
Y191714*
X395847*
Y192510*
G75*
G02X395875Y193112I6503J4*
G01*
G75*
G02X395994Y193366I413J-39*
G01*
G75*
G02X396247Y193485I292J-291*
G01*
G75*
G02X396847Y193514I603J-6394*
G01*
G75*
G02X397447Y193485I-3J-6418*
G01*
G75*
G02X397700Y193366I-39J-410*
G01*
G75*
G02X397819Y193112I-293J-293*
G01*
G75*
G02X397847Y192510I-6476J-602*
G01*
Y191714*
X398554*
X398526Y192786*
G75*
G03X398502Y193462I-41816J-1122*
G01*
G75*
G03X398466Y193726I-1435J-61*
G01*
G75*
G03X398391Y193874I-331J-76*
G01*
G75*
G03X398247Y193984I-358J-315*
G01*
G75*
G03X398074Y194039I-258J-510*
G01*
G75*
G03X397748Y194078I-791J-5300*
G01*
G75*
G03X397320Y194104I-669J-7598*
G01*
G75*
G03X396789Y194112I-554J-17701*
G01*
G75*
G03X396048Y194107I-46J-46911*
G01*
G75*
G03X395728Y194079I32J-2211*
G01*
G75*
G03X395532Y194012I97J-604*
G01*
G75*
G03X395365Y193882I323J-591*
G01*
X398137Y193673D02*
G75*
G02X398246Y193540I-389J-428D01*
G01*
G75*
G02X398308Y193383I-468J-278*
G01*
G75*
G02X398339Y193152I-1239J-282*
G01*
G75*
G02X398347Y192748I-10135J-409*
G01*
G75*
G02X398341Y192367I-12080J9*
G01*
G75*
G02X398317Y192161I-1221J38*
G01*
G75*
G02X398271Y192053I-291J60*
G01*
G75*
G02X398122Y192055I-74J50*
G01*
G75*
G02X398077Y192170I279J177*
G01*
G75*
G02X398053Y192390I1364J260*
G01*
G75*
G02X398047Y192803I14487J400*
G01*
G75*
G03X398041Y193212I-12678J-3*
G01*
G75*
G03X398015Y193445I-1549J-52*
G01*
G75*
G03X397968Y193583I-482J-89*
G01*
G75*
G03X397889Y193653I-132J-69*
G01*
G75*
G03X397630Y193704I-275J-717*
G01*
G75*
G03X396847Y193712I-795J-36471*
G01*
G75*
G03X396064Y193704I12J-36498*
G01*
G75*
G03X395805Y193653I17J-768*
G01*
G75*
G03X395726Y193583I53J-139*
G01*
G75*
G03X395679Y193445I435J-226*
G01*
G75*
G03X395654Y193212I1523J-285*
G01*
G75*
G03X395647Y192803I12671J-400*
G01*
G75*
G02X395641Y192390I-14492J1*
G01*
G75*
G02X395617Y192170I-1388J41*
G01*
G75*
G02X395572Y192055I-325J62*
G01*
G75*
G02X395497Y192014I-74J47*
G01*
G75*
G02X395423Y192052I0J91*
G01*
G75*
G02X395378Y192156I228J162*
G01*
G75*
G02X395353Y192354I1111J237*
G01*
G75*
G02X395347Y192718I10857J358*
G01*
G75*
G02X395356Y193122I9272J3*
G01*
G75*
G02X395390Y193346I1053J-46*
G01*
G75*
G02X395464Y193510I526J-139*
G01*
G75*
G02X395602Y193677I926J-622*
G01*
G75*
G02X395784Y193823I737J-736*
G01*
G75*
G02X395964Y193891I263J-420*
G01*
G75*
G02X396239Y193913I255J-1481*
G01*
G75*
G02X396891Y193898I-493J-34862*
G01*
G75*
G02X397444Y193872I-676J-20562*
G01*
G75*
G02X397767Y193833I-163J-2742*
G01*
G75*
G02X397980Y193772I-191J-1054*
G01*
G75*
G02X398137Y193673I-200J-493*
G01*
D02*
D117*
X119378Y180440D02*
G75*
G02X118393I-492D01*
G01*
X119378D02*
G75*
G02X118393I-492D01*
G01*
G75*
G02X119378I492*
G01*
X316228D02*
G75*
G02X315244I-492D01*
G01*
X316228D02*
G75*
G02X315244I-492D01*
G01*
G75*
G02X316228I492*
G01*
X0Y0D02*
M02*
