G04 EasyPC Gerber Version 21.0.3 Build 4286 *
G04 #@! TF.Part,Single*
G04 #@! TF.FileFunction,Copper,L1,Top *
G04 #@! TF.FilePolarity,Positive *
%FSLAX45Y45*%
%MOIN*%
G04 #@! TA.AperFunction,SMDPad*
%ADD119R,0.01181X0.05807*%
%ADD25R,0.02559X0.03937*%
%ADD24R,0.02559X0.05906*%
%ADD120R,0.02992X0.06201*%
%ADD93R,0.03346X0.03740*%
G04 #@! TD.AperFunction*
%ADD70C,0.00500*%
%ADD71C,0.01000*%
%ADD121C,0.01181*%
%ADD22C,0.01575*%
G04 #@! TA.AperFunction,ViaPad*
%ADD77C,0.02362*%
G04 #@! TD.AperFunction*
%ADD123C,0.03150*%
G04 #@! TA.AperFunction,ViaPad*
%ADD122C,0.05600*%
G04 #@! TA.AperFunction,ComponentPad*
%ADD74C,0.06693*%
G04 #@! TA.AperFunction,WasherPad*
%ADD23C,0.24016*%
G04 #@! TA.AperFunction,SMDPad*
%ADD118R,0.05807X0.01181*%
%ADD73R,0.08268X0.01575*%
%ADD26R,0.03937X0.02559*%
%ADD29R,0.03740X0.03346*%
%ADD72R,0.05472X0.03583*%
X0Y0D02*
D02*
D70*
X129056Y199942D02*
X50802D01*
G75*
G02X53067Y197673I-1635J-3898*
G01*
X110318*
G75*
G02X111472Y197196I2J-1628*
G01*
X112716Y195952*
X127158Y181629*
Y189096*
X128756*
Y189466*
X131096*
Y197902*
X129056Y199942*
G36*
X50802*
G75*
G02X53067Y197673I-1635J-3898*
G01*
X110318*
G75*
G02X111472Y197196I2J-1628*
G01*
X112716Y195952*
X127158Y181629*
Y189096*
X128756*
Y189466*
X131096*
Y197902*
X129056Y199942*
G37*
X233229Y235777D02*
G75*
G02X208243Y240218I-12098J4441D01*
G01*
G75*
G02X216921Y252399I12888*
G01*
X56048*
G75*
G02X51839Y227330I-4209J-12181*
G01*
G75*
G02X39741Y235777I0J12888*
G01*
Y44659*
G75*
G02X64727Y40218I12098J-4441*
G01*
G75*
G02X56280Y28120I-12888J0*
G01*
X216689*
G75*
G02X221130Y53106I4441J12098*
G01*
G75*
G02X233229Y44659I0J-12888*
G01*
Y235777*
X220917Y206304D02*
G75*
G02X230110I4596D01*
G01*
G75*
G02X220917I-4596*
G01*
X221287Y176304D02*
G75*
G02X229740I4226D01*
G01*
G75*
G02X221287I-4226*
G01*
X221541Y153387D02*
G75*
G02X230734I4596D01*
G01*
G75*
G02X221541I-4596*
G01*
X221287Y186304D02*
G75*
G02X229740I4226D01*
G01*
G75*
G02X221287I-4226*
G01*
Y196304D02*
G75*
G02X229740I4226D01*
G01*
G75*
G02X221287I-4226*
G01*
X67430Y209899D02*
X73276D01*
Y203659*
X67430*
Y209899*
X85693Y210376D02*
X90012D01*
Y204679*
X85693*
Y206057*
X79205*
Y204029*
X74099*
Y209529*
X79205*
Y208998*
X85693*
Y210376*
X75322Y230359D02*
G75*
G02X83774I4226D01*
G01*
G75*
G02X75322I-4226*
G01*
Y240359D02*
G75*
G02X83774I4226D01*
G01*
G75*
G02X75322I-4226*
G01*
X84952Y230359D02*
G75*
G02X94144I4596D01*
G01*
G75*
G02X84952I-4596*
G01*
X224693Y92970D02*
G75*
G02X230614Y89098I1694J-3872D01*
G01*
G75*
G02X222161I-4226*
G01*
G75*
G02X222443Y90615I4226J0*
G01*
X205642Y107416*
G75*
G02X205165Y108567I1151J1151*
G01*
Y122485*
X204802Y122846*
Y102869*
X224698Y82972*
G75*
G02X230614Y79098I1689J-3874*
G01*
G75*
G02X222161I-4226*
G01*
G75*
G02X222445Y80621I4226J0*
G01*
X202023Y101043*
G75*
G02X201546Y102194I1151J1151*
G01*
Y122237*
X178061Y145711*
Y131648*
G75*
G02X178059Y131572I-1472J0*
G01*
X181077Y134571*
Y135786*
G75*
G02X181039Y136141I1629J355*
G01*
G75*
G02X184374I1667*
G01*
G75*
G02X184333Y135775I-1667*
G01*
Y133894*
G75*
G02X183853Y132739I-1628*
G01*
X178239Y127160*
X195561*
G75*
G02X197123Y125990J-1628*
G01*
G75*
G02X194839Y123904I-1562J-582*
G01*
X177950*
G75*
G02X176024Y124959I-360J1628*
G01*
X163637Y112647*
X155442Y104458*
X160211*
G75*
G02X166792Y102194I2901J-2264*
G01*
G75*
G02X160554Y99549I-3680*
G01*
X156326*
X155519Y98742*
X160431*
Y92305*
X159780*
Y83911*
X154721*
Y92317*
X155372*
Y98596*
X154806Y98029*
Y95523*
G75*
G02X154510Y94356I-2455*
G01*
Y92675*
X153878*
Y91946*
X154410*
Y84281*
X150091*
Y91946*
X150622*
Y92675*
X150191*
Y94356*
G75*
G02X149896Y95523I2160J1167*
G01*
Y98917*
X148878Y97900*
Y91946*
X149410*
Y84281*
X145091*
Y91946*
X145622*
Y98575*
G75*
G02X146101Y99728I1628*
G01*
X146598Y100224*
X114097*
Y94596*
X109345*
Y102239*
X109097Y101991*
Y94596*
X104345*
Y102239*
X104097Y101991*
Y94596*
X99345*
Y102364*
X99097Y102116*
Y94596*
X94345*
Y102364*
X94097Y102116*
Y94596*
X89345*
Y102239*
X89097Y101991*
Y94596*
X84345*
Y102115*
X84097Y101867*
Y94596*
X79345*
Y101865*
X79097Y101617*
Y94596*
X74345*
Y102557*
X75878*
X90394Y117073*
X68496*
X63492Y112069*
Y66735*
X74612Y55615*
X92981*
G75*
G02X94022Y55183I0J-1470*
G01*
X99885Y49321*
G75*
G02X100317Y48279I-1038J-1041*
G01*
Y42007*
G75*
G02X103073Y38045I-1470J-3962*
G01*
G75*
G02X94620I-4226*
G01*
G75*
G02X97376Y42007I4226*
G01*
Y47670*
X92372Y52674*
X74003*
G75*
G02X72961Y53107I0J1470*
G01*
X60983Y65084*
G75*
G02X60551Y66126I1038J1041*
G01*
Y112524*
X60280Y112253*
Y64304*
X73679Y50906*
X87981*
G75*
G02X89134Y50426J-1628*
G01*
X89995Y49565*
G75*
G02X90474Y48412I-1149J-1154*
G01*
Y41946*
G75*
G02X93073Y38045I-1628J-3900*
G01*
G75*
G02X84620I-4226*
G01*
G75*
G02X87219Y41946I4226*
G01*
Y47650*
X73007*
G75*
G02X71853Y48126I-2J1628*
G01*
X57501Y62479*
G75*
G02X57024Y63630I1151J1151*
G01*
Y91947*
X52709Y87633*
G75*
G02X48793Y81819I-3917J-1588*
G01*
G75*
G02Y90271J4226*
G01*
G75*
G02X50722Y89805I0J-4226*
G01*
X55060Y94142*
Y115298*
G75*
G02X55492Y116340I1470J0*
G01*
X62727Y123575*
G75*
G02X63769Y124007I1041J-1038*
G01*
X131667*
G75*
G02X130871Y126318I674J1525*
G01*
Y128801*
X130181*
Y134498*
X130907*
Y135978*
X128756*
Y136348*
X127158*
Y138663*
X98501*
G75*
G02X96048Y140133I-786J1470*
G01*
G75*
G02X98501Y141604I1667*
G01*
X127158*
Y143915*
X128756*
Y144285*
X132437*
Y143915*
X154347*
Y144285*
X158028*
Y143915*
X159626*
Y136348*
X158028*
Y135978*
X155691*
Y135053*
X160239*
Y129710*
X153722*
Y128966*
X160609*
Y124109*
X164513Y128013*
Y146490*
X162201*
Y173679*
X161831*
Y177360*
X162201*
Y178958*
X169768*
Y177360*
X170138*
Y175667*
X186103Y191632*
Y228635*
X180724Y234013*
X171671*
G75*
G02X173774Y230359I-2123J-3654*
G01*
G75*
G02X165322I-4226*
G01*
G75*
G02X167425Y234013I4226*
G01*
X161671*
G75*
G02X163774Y230359I-2123J-3654*
G01*
G75*
G02X155322I-4226*
G01*
G75*
G02X157425Y234013I4226*
G01*
X151671*
G75*
G02X153774Y230359I-2123J-3654*
G01*
G75*
G02X145322I-4226*
G01*
G75*
G02X147425Y234013I4226*
G01*
X141671*
G75*
G02X143774Y230359I-2123J-3654*
G01*
G75*
G02X135322I-4226*
G01*
G75*
G02X137425Y234013I4226*
G01*
X131671*
G75*
G02X133774Y230359I-2123J-3654*
G01*
G75*
G02X125322I-4226*
G01*
G75*
G02X127425Y234013I4226*
G01*
X121671*
G75*
G02X123458Y228754I-2124J-3655*
G01*
X130955Y221263*
X134780*
G75*
G02X135933Y220787I2J-1628*
G01*
X159309Y197410*
G75*
G02X159786Y196259I-1151J-1151*
G01*
Y185314*
G75*
G02X159626Y184611I-1628*
G01*
Y181529*
X151857*
G75*
G02X151434Y180792I-1574J414*
G01*
X149188Y178546*
G75*
G02X148034Y178069I-1151J1151*
G01*
X126797*
G75*
G02X125648Y178541I-3J1628*
G01*
X110421Y193642*
G75*
G02X110416Y193647I1134J1139*
G01*
X109646Y194417*
X53067*
G75*
G02X44941Y196045I-3900J1628*
G01*
G75*
G02X47532Y199942I4226*
G01*
X44784*
X43524Y198682*
Y83144*
X46863Y79805*
G75*
G02X53019Y76045I1930J-3760*
G01*
G75*
G02X44566I-4226*
G01*
G75*
G02X44876Y77633I4227J0*
G01*
X41015Y81493*
G75*
G02X40583Y82535I1038J1041*
G01*
Y199291*
G75*
G02X41015Y200333I1470J0*
G01*
X43133Y202451*
G75*
G02X44175Y202883I1041J-1038*
G01*
X46363*
G75*
G02X49167Y210271I2804J3162*
G01*
G75*
G02X51971Y202883J-4226*
G01*
X129665*
G75*
G02X130707Y202451I0J-1470*
G01*
X133065Y200093*
Y201425*
X128432Y206057*
X95563*
Y204679*
X91244*
Y210376*
X95563*
Y208998*
X129041*
G75*
G02X130083Y208566I0J-1470*
G01*
X135033Y203615*
Y204573*
X133674Y205932*
G75*
G02X132491Y207528I484J1596*
G01*
G75*
G02X135754Y208012I1667*
G01*
X137002Y206764*
Y208123*
G75*
G02X138544Y210574I1470J786*
G01*
X137602Y211516*
X132663*
G75*
G02X131509Y211993I-2J1628*
G01*
X122002Y221500*
X106702*
G75*
G02X105544Y221983I-1J1628*
G01*
X101134Y226441*
G75*
G02X95322Y230359I-1586J3918*
G01*
G75*
G02X103774I4226*
G01*
G75*
G02X103448Y228731I-4227J0*
G01*
X107381Y224756*
X122674*
G75*
G02X122863Y224746I4J-1628*
G01*
X121157Y226451*
G75*
G02X117425Y234013I-1609J3908*
G01*
X114026*
X112920Y232907*
G75*
G02X113774Y230359I-3372J-2548*
G01*
G75*
G02X105322I-4226*
G01*
G75*
G02X110360Y234507I4226*
G01*
X112375Y236522*
G75*
G02X113417Y236954I1041J-1038*
G01*
X116460*
G75*
G02X114952Y240359I3088J3405*
G01*
G75*
G02X124144I4596*
G01*
G75*
G02X122636Y236954I-4596*
G01*
X126460*
G75*
G02X124952Y240359I3088J3405*
G01*
G75*
G02X134144I4596*
G01*
G75*
G02X132636Y236954I-4596*
G01*
X136460*
G75*
G02X134952Y240359I3088J3405*
G01*
G75*
G02X144144I4596*
G01*
G75*
G02X142636Y236954I-4596*
G01*
X147044*
G75*
G02X145322Y240359I2504J3405*
G01*
G75*
G02X153774I4226*
G01*
G75*
G02X152052Y236954I-4226*
G01*
X156460*
G75*
G02X154952Y240359I3088J3405*
G01*
G75*
G02X164144I4596*
G01*
G75*
G02X162636Y236954I-4596*
G01*
X166460*
G75*
G02X164952Y240359I3088J3405*
G01*
G75*
G02X174144I4596*
G01*
G75*
G02X172636Y236954I-4596*
G01*
X181333*
G75*
G02X182375Y236522I0J-1470*
G01*
X188612Y230285*
G75*
G02X189044Y229244I-1038J-1041*
G01*
Y191023*
G75*
G02X188612Y189981I-1470J0*
G01*
X174253Y175623*
G75*
G02X175786Y173383I-34J-1667*
G01*
G75*
G02X175598Y172963I-1566J446*
G01*
X178280*
G75*
G02X180307Y171335I360J-1628*
G01*
G75*
G02X178280Y169707I-1667*
G01*
X175885*
X175445Y169273*
X180224*
X183307Y172394*
G75*
G02X184467Y172880I1160J-1143*
G01*
X203687*
G75*
G02X204940Y169843I360J-1628*
G01*
X218899*
G75*
G02X220527Y168215J-1628*
G01*
Y150169*
X223793Y146903*
G75*
G02X230364Y143387I2345J-3516*
G01*
G75*
G02X221911I-4226*
G01*
G75*
G02X221975Y144117I4226J0*
G01*
X217748Y148343*
G75*
G02X217282Y149306I1152J1151*
G01*
Y143430*
X223802Y136909*
G75*
G02X230364Y133387I2335J-3522*
G01*
G75*
G02X221911I-4226*
G01*
G75*
G02X221977Y134130I4226J0*
G01*
X214503Y141604*
G75*
G02X214026Y142755I1151J1151*
G01*
Y164465*
X188326*
X187111Y163210*
X188322*
G75*
G02X189665Y162340J-1470*
G01*
G75*
G02X187054Y160269I-1342J-989*
G01*
X179736*
X180762Y159243*
G75*
G02X181503Y157856I-926J-1387*
G01*
G75*
G02X178413Y156987I-1667*
G01*
X177257Y158143*
X173978*
X174993Y157128*
G75*
G02X175008Y157113I-1222J-1237*
G01*
X175357Y156756*
X207940Y124317*
G75*
G02X208421Y123161I-1146J-1156*
G01*
Y109241*
X224693Y92970*
X221791Y99098D02*
G75*
G02X230984I4596D01*
G01*
G75*
G02X221791I-4596*
G01*
X221911Y123387D02*
G75*
G02X230364I4226D01*
G01*
G75*
G02X221911I-4226*
G01*
X206267Y82439D02*
X207548D01*
Y77332*
X202048*
Y82439*
X203326*
Y84737*
G75*
G02X203129Y85523I1470J786*
G01*
G75*
G02X206464I1667*
G01*
G75*
G02X206267Y84737I-1667*
G01*
Y82439*
X222161Y69098D02*
G75*
G02X230614I4226D01*
G01*
G75*
G02X222161I-4226*
G01*
X201678Y76509D02*
X207918D01*
Y70663*
X201678*
Y76509*
X189276Y121039D02*
G75*
G02X192611I1667D01*
G01*
G75*
G02X192414Y120254I-1667*
G01*
Y96080*
G75*
G02X190943Y94610I-1470*
G01*
X170098*
X164410Y88920*
Y84281*
X160091*
Y91946*
X163277*
X168449Y97120*
G75*
G02X169491Y97551I1040J-1040*
G01*
X189473*
Y120254*
G75*
G02X189276Y121039I1470J786*
G01*
X176839Y76757D02*
X183079D01*
Y70911*
X176839*
Y76757*
X180202Y41861D02*
G75*
G02X188655I4226D01*
G01*
G75*
G02X180202I-4226*
G01*
Y51861D02*
G75*
G02X188655I4226D01*
G01*
G75*
G02X180202I-4226*
G01*
X181930Y82687D02*
X182709D01*
Y77580*
X177209*
Y82687*
X178989*
Y84934*
G75*
G02X178793Y85720I1470J786*
G01*
G75*
G02X182127I1667*
G01*
G75*
G02X181930Y84934I-1667*
G01*
Y82687*
X184827Y76631D02*
X191067D01*
Y70785*
X184827*
Y76631*
X190043Y82561D02*
X190697D01*
Y77454*
X185197*
Y82561*
X187102*
Y85433*
G75*
G02X186905Y86219I1470J786*
G01*
G75*
G02X190239I1667*
G01*
G75*
G02X190043Y85433I-1667*
G01*
Y82561*
X193189Y76383D02*
X199430D01*
Y70537*
X193189*
Y76383*
X197780Y82313D02*
X199059D01*
Y77206*
X193559*
Y82313*
X194839*
Y84934*
G75*
G02X194643Y85720I1470J786*
G01*
G75*
G02X197977I1667*
G01*
G75*
G02X197780Y84934I-1667*
G01*
Y82313*
X167004Y70037D02*
X172701D01*
Y65718*
X167004*
Y66407*
X164410*
Y63021*
X160091*
Y70687*
X164410*
Y69348*
X167004*
Y70037*
X166634Y64856D02*
X173071D01*
Y59797*
X166634*
Y64856*
X170202Y41861D02*
G75*
G02X178655I4226D01*
G01*
G75*
G02X170202I-4226*
G01*
Y51861D02*
G75*
G02X178655I4226D01*
G01*
G75*
G02X170202I-4226*
G01*
X165899Y55823D02*
G75*
G02X168655Y51861I-1470J-3962D01*
G01*
G75*
G02X160715Y49843I-4226*
G01*
Y43878*
G75*
G02X168655Y41861I3714J-2017*
G01*
G75*
G02X160467Y40389I-4226*
G01*
X159244*
G75*
G02X158806Y40456I0J1470*
G01*
G75*
G02X149832Y41861I-4377J1404*
G01*
G75*
G02X157774Y45013I4596*
G01*
Y48708*
G75*
G02X149832Y51861I-3345J3152*
G01*
G75*
G02X153822Y56417I4596*
G01*
X152250*
G75*
G02X150780Y57887J1470*
G01*
Y63021*
X150091*
Y70687*
X154410*
Y63021*
X153721*
Y59358*
X156198*
G75*
G02X155780Y60385I1052J1027*
G01*
Y63021*
X155091*
Y70687*
X159410*
Y63021*
X158721*
Y61856*
X164429*
G75*
G02X165899Y60385J-1470*
G01*
Y55823*
X140202Y41861D02*
G75*
G02X148655I4226D01*
G01*
G75*
G02X140202I-4226*
G01*
Y51861D02*
G75*
G02X148655I4226D01*
G01*
G75*
G02X140202I-4226*
G01*
X145091Y70687D02*
X149410D01*
Y63021*
X145091*
Y70687*
X73975Y71726D02*
X114467D01*
Y63025*
X73975*
Y71726*
X104250Y38045D02*
G75*
G02X113443I4596D01*
G01*
G75*
G02X104250I-4596*
G01*
X74620D02*
G75*
G02X83073I4226D01*
G01*
G75*
G02X74620I-4226*
G01*
X124260Y134868D02*
X129319D01*
Y128431*
X124260*
Y134868*
X124587Y157675D02*
X124957D01*
Y153994*
X124587*
Y146490*
X121565*
G75*
G02X120803Y146277I-762J1257*
G01*
X95131*
G75*
G02X92837Y148458I-786J1470*
G01*
X76169*
X57718Y130007*
G75*
G02X56676Y129574I-1041J1038*
G01*
X53129*
G75*
G02X44941Y131045I-3962J1470*
G01*
G75*
G02X53129Y132515I4226*
G01*
X56067*
X73702Y150150*
X67813*
X57557Y139894*
G75*
G02X56403Y139417I-1151J1151*
G01*
X53067*
G75*
G02X44941Y141045I-3900J1628*
G01*
G75*
G02X53067Y142673I4226*
G01*
X55731*
X65987Y152929*
G75*
G02X67141Y153406I1151J-1151*
G01*
X103766*
G75*
G02X103142Y154279I938J1330*
G01*
G75*
G02X105426Y156364I1562J582*
G01*
X109343*
Y157462*
X115040*
Y156364*
X115809*
G75*
G02X116650Y156132I3J-1628*
G01*
Y157675*
X117020*
Y164033*
X114968*
G75*
G02X112288Y165687I-1053J1293*
G01*
G75*
G02X112371Y166174I1628J-26*
G01*
X108074*
G75*
G02X106859Y166817J1470*
G01*
X103059*
Y170151*
X113087*
Y169115*
X115578*
X113650Y171042*
G75*
G02X113457Y171280I1039J1041*
G01*
Y171171*
X102689*
Y175246*
X112924*
X111904Y176265*
X103059*
Y179600*
X112457*
X110460Y181596*
X89320*
G75*
G02X86867Y183067I-786J1470*
G01*
G75*
G02X89320Y184537I1667*
G01*
X111068*
G75*
G02X112109Y184106I1J-1471*
G01*
X117259Y178958*
X124587*
Y157675*
X108973Y163383D02*
X115410D01*
Y158324*
X108973*
Y163383*
X78084Y187515D02*
G75*
G02X80537Y186045I786J-1470D01*
G01*
G75*
G02X78084Y184574I-1667*
G01*
X53129*
G75*
G02X44941Y186045I-3962J1470*
G01*
G75*
G02X53129Y187515I4226*
G01*
X78084*
X44566Y96045D02*
G75*
G02X53019I4226D01*
G01*
G75*
G02X44566I-4226*
G01*
X44570Y121045D02*
G75*
G02X53763I4596D01*
G01*
G75*
G02X44570I-4596*
G01*
Y176045D02*
G75*
G02X53763I4596D01*
G01*
G75*
G02X44570I-4596*
G01*
X44941Y151045D02*
G75*
G02X53393I4226D01*
G01*
G75*
G02X44941I-4226*
G01*
X44196Y66045D02*
G75*
G02X53389I4596D01*
G01*
G75*
G02X44196I-4596*
G01*
X85322Y240359D02*
G75*
G02X93774I4226D01*
G01*
G75*
G02X85322I-4226*
G01*
X95322D02*
G75*
G02X103774I4226D01*
G01*
G75*
G02X95322I-4226*
G01*
X104952D02*
G75*
G02X114144I4596D01*
G01*
G75*
G02X104952I-4596*
G01*
X208348Y41861D02*
G36*
X188655D01*
G75*
G02X180202I-4226*
G01*
X178655*
G75*
G02X170202I-4226*
G01*
X168655*
G75*
G02X160467Y40389I-4226*
G01*
X159244*
G75*
G02X158806Y40456I1J1481*
G01*
G75*
G02X149832Y41861I-4377J1404*
G01*
X148655*
G75*
G02X140202I-4226*
G01*
X111410*
G75*
G02X113443Y38045I-2563J-3815*
G01*
G75*
G02X104250I-4596*
G01*
G75*
G02X106283Y41861I4596*
G01*
X100665*
G75*
G02X103073Y38046I-1817J-3815*
G01*
Y38045*
G75*
G02X94620I-4226*
G01*
G75*
G02X97029Y41861I4227J0*
G01*
X90665*
G75*
G02X93073Y38045I-1819J-3815*
G01*
G75*
G02X84620I-4226*
G01*
G75*
G02X87028Y41861I4226*
G01*
X80665*
G75*
G02X83073Y38045I-1818J-3815*
G01*
G75*
G02X74620I-4226*
G01*
G75*
G02X77028Y41861I4226*
G01*
X64622*
G75*
G02X64727Y40218I-12785J-1643*
G01*
G75*
G02X56909Y28370I-12889J1*
G01*
X216060*
G75*
G02X208243Y40218I5070J11848*
G01*
G75*
G02X208348Y41861I12890J0*
G01*
G37*
X46312Y51861D02*
G36*
X39991D01*
Y45289*
G75*
G02X46312Y51861I11848J-5071*
G01*
G37*
X87028Y41861D02*
G36*
G75*
G02X87219Y41946I1819J-3820D01*
G01*
Y47650*
X73007*
G75*
G02X71853Y48126I-2J1630*
G01*
X68119Y51861*
X57366*
G75*
G02X64622Y41861I-5527J-11643*
G01*
X77028*
G75*
G02X80665I1818J-3815*
G01*
X87028*
G37*
X97029D02*
G36*
G75*
G02X97376Y42007I1818J-3815D01*
G01*
Y47670*
X93185Y51861*
X72724*
X73679Y50906*
X87981*
G75*
G02X89134Y50426I0J-1627*
G01*
X89995Y49565*
G75*
G02X90474Y48412I-1148J-1153*
G01*
Y48412*
Y41946*
G75*
G02X90665Y41861I-1628J-3905*
G01*
X97029*
G37*
X149832Y51861D02*
G36*
X148655D01*
G75*
G02X140202I-4226*
G01*
X97345*
X99885Y49321*
G75*
G02X100317Y48280I-1038J-1041*
G01*
Y48279*
Y42007*
G75*
G02X100665Y41861I-1470J-3964*
G01*
X106283*
G75*
G02X111410I2563J-3815*
G01*
X140202*
G75*
G02X148655I4226*
G01*
X149832*
Y41861*
G75*
G02X157774Y45013I4596*
G01*
Y48708*
G75*
G02X149832Y51860I-3345J3152*
G01*
Y51861*
G37*
X208348Y41861D02*
G36*
G75*
G02X215603Y51861I12783J-1643D01*
G01*
X188655*
G75*
G02X180202I-4226*
G01*
X178655*
G75*
G02X170202I-4226*
G01*
X168655*
G75*
G02X160715Y49843I-4226*
G01*
Y43878*
G75*
G02X168655Y41861I3714J-2018*
G01*
X170202*
G75*
G02X178655I4226*
G01*
X180202*
G75*
G02X188655I4226*
G01*
X208348*
G37*
X232979Y45289D02*
G36*
Y51861D01*
X226657*
G75*
G02X232979Y45289I-5527J-11643*
G01*
G37*
X68119Y51861D02*
G36*
X57653Y62326D01*
X51494*
G75*
G02X46091I-2702J3719*
G01*
X39991*
Y51861*
X46312*
G75*
G02X57366I5527J-11643*
G01*
X68119*
G37*
X93185D02*
G36*
X92372Y52674D01*
X74003*
G75*
G02X72961Y53107I0J1470*
G01*
X63741Y62326*
X62258*
X72724Y51861*
X93185*
G37*
X155780Y62326D02*
G36*
X153721D01*
Y59358*
X156198*
G75*
G02X155780Y60385I1055J1028*
G01*
Y62326*
G37*
X149832Y51861D02*
G36*
G75*
G02X153822Y56417I4596D01*
G01*
X152250*
G75*
G02X150780Y57887J1470*
G01*
Y62326*
X67901*
X74612Y55615*
X92981*
G75*
G02X94022Y55183I0J-1470*
G01*
X97345Y51861*
X140202*
G75*
G02X148655I4226*
G01*
X149832*
G37*
X226657D02*
G36*
X232979D01*
Y62326*
X173071*
Y59797*
X166634*
Y62326*
X158721*
Y61856*
X164429*
G75*
G02X165899Y60385J-1470*
G01*
Y55823*
G75*
G02X168655Y51861I-1470J-3962*
G01*
Y51861*
X170202*
G75*
G02X178655I4226*
G01*
X180202*
G75*
G02X188655I4226*
G01*
X215603*
G75*
G02X221130Y53106I5527J-11643*
G01*
G75*
G02X226657Y51861I-1J-12889*
G01*
G37*
X45356Y69098D02*
G36*
X39991D01*
Y62326*
X46091*
G75*
G02X44196Y66045I2702J3719*
G01*
G75*
G02X45356Y69098I4596*
G01*
G37*
X57653Y62326D02*
G36*
X57501Y62479D01*
G75*
G02X57024Y63630I1154J1152*
G01*
Y69098*
X52229*
G75*
G02X53389Y66045I-3436J-3053*
G01*
G75*
G02X51494Y62326I-4596*
G01*
X57653*
G37*
X62258D02*
G36*
X63741D01*
X60983Y65084*
G75*
G02X60551Y66126I1038J1041*
G01*
Y66126*
Y69098*
X60280*
Y64304*
X62258Y62326*
G37*
X150091Y69098D02*
G36*
X149410D01*
Y63021*
X145091*
Y69098*
X114467*
Y63025*
X73975*
Y69098*
X63492*
Y66735*
X67901Y62326*
X150780*
Y63021*
X150091*
Y69098*
G37*
X155091D02*
G36*
X154410D01*
Y63021*
X153721*
Y62326*
X155780*
Y63021*
X155091*
Y69098*
G37*
X172701D02*
G36*
Y65718D01*
X167004*
Y66407*
X164410*
Y63021*
X160091*
Y69098*
X159410*
Y63021*
X158721*
Y62326*
X166634*
Y64856*
X173071*
Y62326*
X232979*
Y69098*
X230614*
G75*
G02X222161I-4226*
G01*
X172701*
G37*
X57024Y73586D02*
G36*
X52230D01*
G75*
G02X45355I-3438J2459*
G01*
X39991*
Y69098*
X45356*
G75*
G02X52229I3436J-3053*
G01*
X57024*
Y73586*
G37*
X60551D02*
G36*
X60280D01*
Y69098*
X60551*
Y73586*
G37*
X207918D02*
G36*
Y70663D01*
X201678*
Y73586*
X199430*
Y70537*
X193189*
Y73586*
X191067*
Y70785*
X184827*
Y73586*
X183079*
Y70911*
X176839*
Y73586*
X63492*
Y69098*
X73975*
Y71726*
X114467*
Y69098*
X145091*
Y70687*
X149410*
Y69098*
X150091*
Y70687*
X154410*
Y69098*
X155091*
Y70687*
X159410*
Y69098*
X160091*
Y70687*
X164410*
Y69348*
X167004*
Y70037*
X172701*
Y69098*
X222161*
G75*
G02X230614I4226*
G01*
X232979*
Y73586*
X207918*
G37*
X45355D02*
G36*
G75*
G02X44566Y76045I3438J2458D01*
G01*
G75*
G02Y76046I3470J0*
G01*
G75*
G02X44876Y77633I4224*
G01*
X41015Y81493*
G75*
G02X40608Y82261I1038J1041*
G01*
X39991*
Y73586*
X45355*
G37*
X57024Y82261D02*
G36*
X50676D01*
G75*
G02X48793Y81819I-1883J3784*
G01*
G75*
G02X46909Y82261J4226*
G01*
X44406*
X46863Y79805*
G75*
G02X53019Y76045I1930J-3760*
G01*
G75*
G02X52230Y73586I-4226J0*
G01*
X57024*
Y82261*
G37*
X60551D02*
G36*
X60280D01*
Y73586*
X60551*
Y82261*
G37*
X207548D02*
G36*
Y77332D01*
X202048*
Y82261*
X199059*
Y77206*
X193559*
Y82261*
X190697*
Y77454*
X185197*
Y82261*
X182709*
Y77580*
X177209*
Y82261*
X63492*
Y73586*
X176839*
Y76757*
X183079*
Y73586*
X184827*
Y76631*
X191067*
Y73586*
X193189*
Y76383*
X199430*
Y73586*
X201678*
Y76509*
X207918*
Y73586*
X232979*
Y82261*
X229190*
G75*
G02X230614Y79098I-2803J-3163*
G01*
Y79098*
G75*
G02X222161I-4226*
G01*
G75*
G02X222445Y80621I4233J-1*
G01*
X220804Y82261*
X207548*
G37*
X40608D02*
G36*
G75*
G02X40583Y82534I1445J273D01*
G01*
Y82535*
Y99098*
X39991*
Y82261*
X40608*
G37*
X55060Y99098D02*
G36*
X51715D01*
G75*
G02X53019Y96045I-2923J-3053*
G01*
G75*
G02X44566I-4226*
G01*
G75*
G02X45870Y99098I4226*
G01*
X43524*
Y83144*
X44406Y82261*
X46909*
G75*
G02X44566Y86045I1883J3783*
G01*
G75*
G02X48793Y90271I4226*
G01*
G75*
G02X50722Y89805I-2J-4234*
G01*
X55060Y94142*
Y99098*
G37*
X57024Y82261D02*
G36*
Y91947D01*
X52709Y87633*
G75*
G02X53019Y86045I-3918J-1587*
G01*
G75*
G02X50676Y82261I-4226*
G01*
X57024*
G37*
X60551Y99098D02*
G36*
X60280D01*
Y82261*
X60551*
Y99098*
G37*
X220804Y82261D02*
G36*
X203968Y99098D01*
X192414*
Y96080*
G75*
G02X190943Y94610I-1470*
G01*
X170098*
X164410Y88920*
Y84281*
X160091*
Y91946*
X163277*
X168449Y97120*
G75*
G02X169491Y97551I1041J-1043*
G01*
X189473*
Y99098*
X165100*
G75*
G02X161124I-1988J3097*
G01*
X155874*
X155519Y98742*
X160431*
Y92305*
X159780*
Y83911*
X154721*
Y92317*
X155372*
Y98596*
X154806Y98029*
Y95523*
G75*
G02Y95522I-2707J0*
G01*
G75*
G02X154510Y94356I-2450*
G01*
Y92675*
X153878*
Y91946*
X154410*
Y84281*
X150091*
Y91946*
X150622*
Y92675*
X150191*
Y94356*
G75*
G02X149896Y95522I2155J1166*
G01*
G75*
G02Y95523I2707J1*
G01*
Y98917*
X148878Y97900*
Y91946*
X149410*
Y84281*
X145091*
Y91946*
X145622*
Y98575*
G75*
G02X145709Y99098I1629*
G01*
X114097*
Y94596*
X109345*
Y99098*
X109097*
Y94596*
X104345*
Y99098*
X104097*
Y94596*
X99345*
Y99098*
X99097*
Y94596*
X94345*
Y99098*
X94097*
Y94596*
X89345*
Y99098*
X89097*
Y94596*
X84345*
Y99098*
X84097*
Y94596*
X79345*
Y99098*
X79097*
Y94596*
X74345*
Y99098*
X63492*
Y82261*
X177209*
Y82687*
X178989*
Y84934*
G75*
G02X178793Y85720I1471J786*
G01*
G75*
G02X182127I1667*
G01*
G75*
G02X181930Y84934I-1668*
G01*
Y82687*
X182709*
Y82261*
X185197*
Y82561*
X187102*
Y85433*
G75*
G02X186905Y86219I1471J786*
G01*
G75*
G02X190239I1667*
G01*
G75*
G02X190043Y85433I-1668*
G01*
Y82561*
X190697*
Y82261*
X193559*
Y82313*
X194839*
Y84934*
G75*
G02X194643Y85720I1471J786*
G01*
G75*
G02X197977I1667*
G01*
G75*
G02X197780Y84934I-1668*
G01*
Y82313*
X199059*
Y82261*
X202048*
Y82439*
X203326*
Y84737*
G75*
G02X203129Y85523I1471J786*
G01*
G75*
G02X206464I1667*
G01*
G75*
G02X206267Y84737I-1668*
G01*
Y82439*
X207548*
Y82261*
X220804*
G37*
X229190D02*
G36*
X232979D01*
Y99098*
X230984*
G75*
G02X221791I-4596*
G01*
X218565*
X224693Y92970*
G75*
G02X230614Y89098I1694J-3872*
G01*
G75*
G02X222161I-4226*
G01*
G75*
G02X222443Y90615I4235J-2*
G01*
X213960Y99098*
X208573*
X224698Y82972*
G75*
G02X229190Y82261I1689J-3874*
G01*
G37*
X40583Y123387D02*
G36*
X39991D01*
Y99098*
X40583*
Y123387*
G37*
X62539D02*
G36*
X53122D01*
G75*
G02X53763Y121045I-3955J-2342*
G01*
G75*
G02X44570I-4596*
G01*
G75*
G02X45212Y123387I4596J0*
G01*
X43524*
Y99098*
X45870*
G75*
G02X51715I2923J-3053*
G01*
X55060*
Y115298*
Y115299*
G75*
G02X55492Y116340I1470*
G01*
X62539Y123387*
G37*
X60551Y99098D02*
G36*
Y112524D01*
X60280Y112253*
Y99098*
X60551*
G37*
X74345D02*
G36*
Y102557D01*
X75878*
X90394Y117073*
X68496*
X63492Y112069*
Y99098*
X74345*
G37*
X79345D02*
G36*
Y101865D01*
X79097Y101617*
Y99098*
X79345*
G37*
X84345D02*
G36*
Y102115D01*
X84097Y101867*
Y99098*
X84345*
G37*
X89345D02*
G36*
Y102239D01*
X89097Y101991*
Y99098*
X89345*
G37*
X94345D02*
G36*
Y102364D01*
X94097Y102116*
Y99098*
X94345*
G37*
X99345D02*
G36*
Y102364D01*
X99097Y102116*
Y99098*
X99345*
G37*
X104345D02*
G36*
Y102239D01*
X104097Y101991*
Y99098*
X104345*
G37*
X109345D02*
G36*
Y102239D01*
X109097Y101991*
Y99098*
X109345*
G37*
X145709D02*
G36*
G75*
G02X146101Y99728I1543J-524D01*
G01*
X146598Y100224*
X114097*
Y99098*
X145709*
G37*
X161124D02*
G36*
G75*
G02X160554Y99549I1989J3096D01*
G01*
X156326*
X155874Y99098*
X161124*
G37*
X203968D02*
G36*
X202023Y101043D01*
G75*
G02X201546Y102194I1154J1152*
G01*
Y122237*
X200396Y123387*
X174443*
X163637Y112647*
X155442Y104458*
X160211*
G75*
G02X166792Y102194I2901J-2265*
G01*
G75*
G02X165100Y99098I-3680J0*
G01*
X189473*
Y120254*
G75*
G02X189276Y121039I1471J786*
G01*
G75*
G02X192611I1667*
G01*
G75*
G02X192414Y120254I-1668*
G01*
Y99098*
X203968*
G37*
X218565D02*
G36*
X221791D01*
G75*
G02X230984I4596*
G01*
X232979*
Y123387*
X230364*
G75*
G02X221911I-4226*
G01*
X208406*
G75*
G02X208421Y123161I-1612J-226*
G01*
Y109241*
X218565Y99098*
G37*
X208573D02*
G36*
X213960D01*
X205642Y107416*
G75*
G02X205165Y108567I1154J1152*
G01*
Y122485*
X204802Y122846*
Y102869*
X208573Y99098*
G37*
X40583Y131649D02*
G36*
X39991D01*
Y123387*
X40583*
Y131649*
G37*
X62539Y123387D02*
G36*
X62727Y123575D01*
G75*
G02X63769Y124007I1041J-1038*
G01*
X131667*
G75*
G02X130674Y125532I674J1525*
G01*
G75*
G02X130871Y126318I1667*
G01*
Y128801*
X130181*
Y131649*
X129319*
Y128431*
X124260*
Y131649*
X59361*
X57718Y130007*
G75*
G02X56676Y129574I-1041J1038*
G01*
X53129*
G75*
G02X44941Y131045I-3962J1470*
G01*
G75*
G02X44984Y131649I4227J1*
G01*
X43524*
Y123387*
X45212*
G75*
G02X53122I3955J-2342*
G01*
X62539*
G37*
X164513Y131649D02*
G36*
X160239D01*
Y129710*
X153722*
Y128966*
X160609*
Y124109*
X164513Y128013*
Y131649*
G37*
X200396Y123387D02*
G36*
X192130Y131649D01*
X182756*
X178239Y127160*
X195561*
G75*
G02X197123Y125990I0J-1628*
G01*
G75*
G02X197228Y125408I-1562J-581*
G01*
G75*
G02X194839Y123904I-1667*
G01*
X177950*
G75*
G02X176024Y124959I-360J1628*
G01*
X174443Y123387*
X200396*
G37*
X178137Y131649D02*
G36*
X178061D01*
Y131648*
G75*
G02Y131641I-1215J-3*
G01*
G75*
G02X178059Y131572I-1211J0*
G01*
X178137Y131649*
G37*
X229991D02*
G36*
G75*
G02X222285I-3853J1738D01*
G01*
X200575*
X207940Y124317*
G75*
G02X208406Y123387I-1146J-1156*
G01*
X221911*
G75*
G02X230364I4226*
G01*
X232979*
Y131649*
X229991*
G37*
X40583Y153387D02*
G36*
X39991D01*
Y131649*
X40583*
Y153387*
G37*
X66892D02*
G36*
X52685D01*
G75*
G02X53393Y151045I-3518J-2342*
G01*
G75*
G02X44941I-4226*
G01*
G75*
G02X45649Y153387I4226*
G01*
X43524*
Y131649*
X44984*
G75*
G02X53129Y132515I4183J-604*
G01*
X56067*
X73702Y150150*
X67813*
X57557Y139894*
G75*
G02X56403Y139417I-1152J1153*
G01*
X53067*
G75*
G02X44941Y141045I-3900J1628*
G01*
G75*
G02X53067Y142673I4226*
G01*
X55731*
X65987Y152929*
G75*
G02X66892Y153387I1152J-1153*
G01*
G37*
X162201D02*
G36*
X124587D01*
Y146490*
X121565*
G75*
G02X120803Y146277I-763J1259*
G01*
X95131*
G75*
G02X92678Y147747I-786J1470*
G01*
G75*
G02X92837Y148458I1667*
G01*
X76169*
X59361Y131649*
X124260*
Y134868*
X129319*
Y131649*
X130181*
Y134498*
X130907*
Y135978*
X128756*
Y136348*
X127158*
Y138663*
X98501*
G75*
G02X96048Y140133I-786J1471*
G01*
G75*
G02X98501Y141604I1667J0*
G01*
X127158*
Y143915*
X128756*
Y144285*
X132437*
Y143915*
X154347*
Y144285*
X158028*
Y143915*
X159626*
Y136348*
X158028*
Y135978*
X155691*
Y135053*
X160239*
Y131649*
X164513*
Y146490*
X162201*
Y153387*
G37*
X192130Y131649D02*
G36*
X178061Y145711D01*
Y131649*
X178137*
X181077Y134571*
Y135786*
G75*
G02X181039Y136138I1607J352*
G01*
G75*
G02Y136141I1758J1*
G01*
G75*
G02X184374I1667*
G01*
G75*
G02X184333Y135775I-1676J1*
G01*
Y133894*
G75*
G02X183853Y132739I-1628*
G01*
X182756Y131649*
X192130*
G37*
X222285D02*
G36*
G75*
G02X221911Y133387I3853J1737D01*
G01*
G75*
G02X221977Y134130I4249J-2*
G01*
X214503Y141604*
G75*
G02X214026Y142755I1154J1152*
G01*
Y153387*
X178742*
X200575Y131649*
X222285*
G37*
X229991D02*
G36*
X232979D01*
Y153387*
X230734*
G75*
G02X221541I-4596*
G01*
X220527*
Y150169*
X223793Y146903*
G75*
G02X230364Y143387I2345J-3516*
G01*
G75*
G02X221911I-4226*
G01*
G75*
G02Y143390I3948J2*
G01*
G75*
G02X221975Y144117I4197*
G01*
X217748Y148343*
G75*
G02X217282Y149306I1150J1150*
G01*
Y143430*
X223802Y136909*
G75*
G02X230364Y133387I2335J-3523*
G01*
G75*
G02X229991Y131649I-4226J0*
G01*
G37*
X40583Y160854D02*
G36*
X39991D01*
Y153387*
X40583*
Y160854*
G37*
X117020D02*
G36*
X115410D01*
Y158324*
X108973*
Y160854*
X43524*
Y153387*
X45649*
G75*
G02X52685I3518J-2342*
G01*
X66892*
G75*
G02X67141Y153406I247J-1610*
G01*
X103766*
G75*
G02X103142Y154279I940J1331*
G01*
G75*
G02X103037Y154861I1562J583*
G01*
G75*
G02X105426Y156364I1667*
G01*
X109343*
Y157462*
X115040*
Y156364*
X115809*
G75*
G02X116650Y156132I4J-1626*
G01*
Y157675*
X117020*
Y160854*
G37*
X162201D02*
G36*
X124587D01*
Y157675*
X124957*
Y153994*
X124587*
Y153387*
X162201*
Y160854*
G37*
X214026D02*
G36*
X189914D01*
G75*
G02X187054Y160269I-1592J497*
G01*
X179736*
X180762Y159243*
G75*
G02X181503Y157857I-925J-1386*
G01*
Y157856*
G75*
G02X178413Y156987I-1667*
G01*
X177257Y158143*
X173978*
X174993Y157128*
G75*
G02X175008Y157113I-128J-142*
G01*
X175357Y156756*
X178742Y153387*
X214026*
Y160854*
G37*
X220527D02*
G36*
Y153387D01*
X221541*
G75*
G02X230734I4596*
G01*
X232979*
Y160854*
X220527*
G37*
X40583Y176304D02*
G36*
X39991D01*
Y160854*
X40583*
Y176304*
G37*
X103059D02*
G36*
X53756D01*
G75*
G02X53763Y176045I-4591J-262*
G01*
G75*
G02X44570I-4596*
G01*
G75*
G02X44578Y176304I4598J-4*
G01*
X43524*
Y160854*
X108973*
Y163383*
X115410*
Y160854*
X117020*
Y164033*
X114968*
G75*
G02X112248Y165326I-1053J1293*
G01*
G75*
G02X112288Y165687I1667*
G01*
G75*
G02X112371Y166174I1631J-26*
G01*
X108074*
G75*
G02X106859Y166817I0J1471*
G01*
X103059*
Y170151*
X113087*
Y169115*
X115578*
X113650Y171042*
G75*
G02X113457Y171280I1065J1062*
G01*
Y171171*
X102689*
Y175246*
X112924*
X111904Y176265*
X103059*
Y176304*
G37*
X162201Y160854D02*
G36*
Y173679D01*
X161831*
Y176304*
X124587*
Y160854*
X162201*
G37*
X170775Y176304D02*
G36*
X170138D01*
Y175667*
X170775Y176304*
G37*
X220527Y160854D02*
G36*
X232979D01*
Y176304*
X229740*
G75*
G02X221287I-4226*
G01*
X174934*
X174253Y175623*
G75*
G02X175887Y173956I-34J-1667*
G01*
G75*
G02X175786Y173383I-1668*
G01*
G75*
G02X175598Y172963I-1563J444*
G01*
X178280*
G75*
G02X180307Y171335I360J-1628*
G01*
G75*
G02X178280Y169707I-1668J0*
G01*
X175885*
X175445Y169273*
X180224*
X183307Y172394*
G75*
G02X184467Y172880I1160J-1144*
G01*
X203687*
G75*
G02X205715Y171252I360J-1628*
G01*
G75*
G02X204940Y169843I-1667*
G01*
X218899*
G75*
G02X220527Y168215J-1628*
G01*
Y160854*
G37*
X214026D02*
G36*
Y164465D01*
X188326*
X187111Y163210*
X188322*
G75*
G02X189665Y162340I0J-1471*
G01*
G75*
G02X189990Y161351I-1342J-989*
G01*
G75*
G02X189914Y160854I-1668J0*
G01*
X214026*
G37*
X40583Y186304D02*
G36*
X39991D01*
Y176304*
X40583*
Y186304*
G37*
X180775D02*
G36*
X159786D01*
Y185314*
G75*
G02X159626Y184611I-1636J2*
G01*
Y181529*
X151857*
G75*
G02X151434Y180792I-1575J414*
G01*
X149188Y178546*
G75*
G02X148034Y178069I-1152J1153*
G01*
X126797*
G75*
G02X125648Y178541I-3J1628*
G01*
X117821Y186304*
X80517*
G75*
G02X80537Y186045I-1648J-258*
G01*
G75*
G02X78084Y184574I-1667J0*
G01*
X53129*
G75*
G02X44941Y186045I-3962J1470*
G01*
G75*
G02X44948Y186304I4228J1*
G01*
X43524*
Y176304*
X44578*
G75*
G02X53756I4589J-259*
G01*
X103059*
Y179600*
X112457*
X110460Y181596*
X89320*
G75*
G02X86867Y183067I-786J1471*
G01*
G75*
G02X89320Y184537I1667J0*
G01*
X111068*
G75*
G02X112109Y184106I0J-1473*
G01*
X117259Y178958*
X124587*
Y176304*
X161831*
Y177360*
X162201*
Y178958*
X169768*
Y177360*
X170138*
Y176304*
X170775*
X180775Y186304*
G37*
X184934D02*
G36*
X174934Y176304D01*
X221287*
G75*
G02X229740I4226*
G01*
X232979*
Y186304*
X229740*
G75*
G02X221287I-4226*
G01*
X184934*
G37*
X40583Y196304D02*
G36*
X39991D01*
Y186304*
X40583*
Y196304*
G37*
X117821Y186304D02*
G36*
X110421Y193642D01*
G75*
G02X110416Y193647I14J19*
G01*
X109646Y194417*
X53067*
G75*
G02X44941Y196045I-3900J1628*
G01*
G75*
G02X44948Y196304I4227J1*
G01*
X43524*
Y186304*
X44948*
G75*
G02X53129Y187515I4219J-259*
G01*
X78084*
G75*
G02X80517Y186304I786J-1471*
G01*
X117821*
G37*
X186103Y196304D02*
G36*
X159785D01*
G75*
G02X159786Y196259I-1630J-51*
G01*
Y186304*
X180775*
X186103Y191632*
Y196304*
G37*
X189044D02*
G36*
Y191023D01*
Y191022*
G75*
G02X188612Y189981I-1470*
G01*
X184934Y186304*
X221287*
G75*
G02X229740I4226*
G01*
X232979*
Y196304*
X229740*
G75*
G02X221287I-4226*
G01*
X189044*
G37*
X44949Y206304D02*
G36*
X39991D01*
Y196304*
X40583*
Y199291*
Y199291*
G75*
G02X41015Y200333I1470*
G01*
X43133Y202451*
G75*
G02X44175Y202883I1041J-1038*
G01*
X46363*
G75*
G02X44941Y206045I2805J3161*
G01*
G75*
G02X44949Y206304I4226J1*
G01*
G37*
X44948Y196304D02*
G36*
G75*
G02X47532Y199942I4219J-259D01*
G01*
X44784*
X43524Y198682*
Y196304*
X44948*
G37*
X91244Y206304D02*
G36*
X90012D01*
Y204679*
X85693*
Y206057*
X79205*
Y204029*
X74099*
Y206304*
X73276*
Y203659*
X67430*
Y206304*
X53385*
G75*
G02X53393Y206045I-4219J-258*
G01*
G75*
G02X51971Y202883I-4226*
G01*
X129665*
G75*
G02X130707Y202451I0J-1470*
G01*
X133065Y200093*
Y201425*
X128432Y206057*
X95563*
Y204679*
X91244*
Y206304*
G37*
X133026D02*
G36*
X132345D01*
X135033Y203615*
Y204573*
X133674Y205932*
G75*
G02X133026Y206304I485J1596*
G01*
G37*
X186103D02*
G36*
X150416D01*
X159309Y197410*
G75*
G02X159785Y196304I-1154J-1152*
G01*
X186103*
Y206304*
G37*
X189044D02*
G36*
Y196304D01*
X221287*
G75*
G02X229740I4226*
G01*
X232979*
Y206304*
X230110*
G75*
G02X220917I-4596*
G01*
X189044*
G37*
X133026D02*
G36*
G75*
G02X132491Y207528I1132J1225D01*
G01*
Y207528*
G75*
G02X135754Y208012I1667*
G01*
X137002Y206764*
Y208123*
G75*
G02X136805Y208909I1470J786*
G01*
G75*
G02X138544Y210574I1667*
G01*
X137602Y211516*
X132663*
G75*
G02X131509Y211993I-2J1630*
G01*
X122002Y221500*
X106702*
G75*
G02X105544Y221983I-2J1625*
G01*
X101134Y226441*
G75*
G02X95322Y230359I-1586J3918*
G01*
X94144*
G75*
G02X84952I-4596*
G01*
X83774*
G75*
G02X75322I-4226*
G01*
X60139*
G75*
G02X51839Y227330I-8300J9859*
G01*
G75*
G02X43539Y230359I1J12889*
G01*
X39991*
Y206304*
X44949*
G75*
G02X49167Y210271I4219J-259*
G01*
G75*
G02X53385Y206304J-4226*
G01*
X67430*
Y209899*
X73276*
Y206304*
X74099*
Y209529*
X79205*
Y208998*
X85693*
Y210376*
X90012*
Y206304*
X91244*
Y210376*
X95563*
Y208998*
X129041*
G75*
G02X130083Y208566I0J-1470*
G01*
X132345Y206304*
X133026*
G37*
X115322Y230359D02*
G36*
X113774D01*
G75*
G02X105322I-4226*
G01*
X103774*
G75*
G02X103448Y228731I-4230J0*
G01*
X107381Y224756*
X122674*
G75*
G02X122863Y224746I9J-1533*
G01*
X121157Y226451*
G75*
G02X115322Y230359I-1609J3908*
G01*
G37*
X186103Y206304D02*
G36*
Y228635D01*
X184379Y230359*
X173774*
G75*
G02X165322I-4226*
G01*
X163774*
G75*
G02X155322I-4226*
G01*
X153774*
G75*
G02X145322I-4226*
G01*
X143774*
G75*
G02X135322I-4226*
G01*
X133774*
G75*
G02X125322I-4226*
G01*
X123774*
Y230359*
G75*
G02X123458Y228754I-4227J0*
G01*
X130955Y221263*
X134780*
G75*
G02X135933Y220787I2J-1630*
G01*
X150416Y206304*
X186103*
G37*
X212830Y230359D02*
G36*
X188538D01*
X188612Y230285*
G75*
G02X189044Y229244I-1038J-1041*
G01*
Y229244*
Y206304*
X220917*
G75*
G02X230110I4596*
G01*
X232979*
Y230359*
X229431*
G75*
G02X212830I-8300J9859*
G01*
G37*
X43539D02*
G36*
G75*
G02X39991Y235148I8300J9860D01*
G01*
Y230359*
X43539*
G37*
X115322D02*
G36*
G75*
G02X117425Y234013I4226D01*
G01*
X114026*
X112920Y232907*
G75*
G02X113774Y230359I-3370J-2548*
G01*
Y230359*
X115322*
G37*
X114952Y240359D02*
G36*
X114144D01*
G75*
G02X104952I-4596*
G01*
X103774*
G75*
G02X95322I-4226*
G01*
X93774*
G75*
G02X85322I-4226*
G01*
X83774*
G75*
G02X75322I-4226*
G01*
X64726*
G75*
G02X64727Y240218I-12900J-143*
G01*
G75*
G02X60139Y230359I-12888J0*
G01*
X75322*
G75*
G02X83774I4226*
G01*
X84952*
G75*
G02X94144I4596*
G01*
X95322*
G75*
G02X103774I4226*
G01*
X105322*
G75*
G02X110360Y234507I4226*
G01*
X112375Y236522*
G75*
G02X113417Y236954I1041J-1038*
G01*
X116460*
G75*
G02X114952Y240359I3087J3404*
G01*
Y240359*
G37*
X125322Y230359D02*
G36*
G75*
G02X127425Y234013I4226D01*
G01*
X121671*
G75*
G02X123774Y230359I-2124J-3655*
G01*
X125322*
G37*
X124952Y240359D02*
G36*
X124144D01*
G75*
G02X122636Y236954I-4598J0*
G01*
X126460*
G75*
G02X124952Y240359I3087J3404*
G01*
Y240359*
G37*
X135322Y230359D02*
G36*
G75*
G02X137425Y234013I4226D01*
G01*
X131671*
G75*
G02X133774Y230359I-2123J-3654*
G01*
X135322*
G37*
X134952Y240359D02*
G36*
X134144D01*
G75*
G02X132636Y236954I-4598J0*
G01*
X136460*
G75*
G02X134952Y240359I3087J3404*
G01*
Y240359*
G37*
X145322Y230359D02*
G36*
G75*
G02X147425Y234013I4226D01*
G01*
X141671*
G75*
G02X143774Y230359I-2123J-3654*
G01*
X145322*
G37*
Y240359D02*
G36*
X144144D01*
G75*
G02X142636Y236954I-4598J0*
G01*
X147044*
G75*
G02X145322Y240359I2504J3405*
G01*
G37*
X155322Y230359D02*
G36*
G75*
G02X157425Y234013I4226D01*
G01*
X151671*
G75*
G02X153774Y230359I-2123J-3654*
G01*
X155322*
G37*
X154952Y240359D02*
G36*
X153774D01*
G75*
G02X152052Y236954I-4226*
G01*
X156460*
G75*
G02X154952Y240359I3087J3404*
G01*
Y240359*
G37*
X165322Y230359D02*
G36*
G75*
G02X167425Y234013I4226D01*
G01*
X161671*
G75*
G02X163774Y230359I-2123J-3654*
G01*
X165322*
G37*
X164952Y240359D02*
G36*
X164144D01*
G75*
G02X162636Y236954I-4598J0*
G01*
X166460*
G75*
G02X164952Y240359I3087J3404*
G01*
Y240359*
G37*
X184379Y230359D02*
G36*
X180724Y234013D01*
X171671*
G75*
G02X173774Y230359I-2123J-3654*
G01*
X184379*
G37*
X208243Y240359D02*
G36*
X174144D01*
G75*
G02X172636Y236954I-4598J0*
G01*
X181333*
G75*
G02X182375Y236522I0J-1470*
G01*
X188538Y230359*
X212830*
G75*
G02X208243Y240218I8300J9859*
G01*
G75*
G02X208243Y240359I12900J-2*
G01*
G37*
X232979Y235148D02*
G36*
G75*
G02X229431Y230359I-11848J5070D01*
G01*
X232979*
Y235148*
G37*
X216257Y252149D02*
G36*
X56712D01*
G75*
G02X64726Y240359I-4873J-11931*
G01*
X75322*
G75*
G02X83774I4226*
G01*
X85322*
G75*
G02X93774I4226*
G01*
X95322*
G75*
G02X103774I4226*
G01*
X104952*
G75*
G02X114144I4596*
G01*
X114952*
G75*
G02X124144I4596*
G01*
X124952*
G75*
G02X134144I4596*
G01*
X134952*
G75*
G02X144144I4596*
G01*
X145322*
G75*
G02X153774I4226*
G01*
X154952*
G75*
G02X164144I4596*
G01*
X164952*
G75*
G02X174144I4596*
G01*
X208243*
G75*
G02X216257Y252149I12887J-141*
G01*
G37*
X325906Y199942D02*
X247652D01*
G75*
G02X249918Y197673I-1635J-3898*
G01*
X307169*
G75*
G02X308322Y197196I2J-1628*
G01*
X309567Y195952*
X324008Y181629*
Y189096*
X325607*
Y189466*
X327946*
Y197902*
X325906Y199942*
G36*
X247652*
G75*
G02X249918Y197673I-1635J-3898*
G01*
X307169*
G75*
G02X308322Y197196I2J-1628*
G01*
X309567Y195952*
X324008Y181629*
Y189096*
X325607*
Y189466*
X327946*
Y197902*
X325906Y199942*
G37*
X430079Y235777D02*
G75*
G02X405093Y240218I-12098J4441D01*
G01*
G75*
G02X413772Y252399I12888*
G01*
X252898*
G75*
G02X248689Y227330I-4209J-12181*
G01*
G75*
G02X236591Y235777I0J12888*
G01*
Y44659*
G75*
G02X261577Y40218I12098J-4441*
G01*
G75*
G02X253130Y28120I-12888J0*
G01*
X413540*
G75*
G02X417981Y53106I4441J12098*
G01*
G75*
G02X430079Y44659I0J-12888*
G01*
Y235777*
X417768Y206304D02*
G75*
G02X426961I4596D01*
G01*
G75*
G02X417768I-4596*
G01*
X418138Y176304D02*
G75*
G02X426591I4226D01*
G01*
G75*
G02X418138I-4226*
G01*
X418392Y153387D02*
G75*
G02X427585I4596D01*
G01*
G75*
G02X418392I-4596*
G01*
X418138Y186304D02*
G75*
G02X426591I4226D01*
G01*
G75*
G02X418138I-4226*
G01*
Y196304D02*
G75*
G02X426591I4226D01*
G01*
G75*
G02X418138I-4226*
G01*
X264280Y209899D02*
X270126D01*
Y203659*
X264280*
Y209899*
X282544Y210376D02*
X286863D01*
Y204679*
X282544*
Y206057*
X276056*
Y204029*
X270949*
Y209529*
X276056*
Y208998*
X282544*
Y210376*
X272172Y230359D02*
G75*
G02X280625I4226D01*
G01*
G75*
G02X272172I-4226*
G01*
Y240359D02*
G75*
G02X280625I4226D01*
G01*
G75*
G02X272172I-4226*
G01*
X281802Y230359D02*
G75*
G02X290995I4596D01*
G01*
G75*
G02X281802I-4596*
G01*
X421543Y92970D02*
G75*
G02X427464Y89098I1694J-3872D01*
G01*
G75*
G02X419011I-4226*
G01*
G75*
G02X419293Y90615I4226J0*
G01*
X402493Y107416*
G75*
G02X402016Y108567I1151J1151*
G01*
Y122485*
X401652Y122846*
Y102869*
X421549Y82972*
G75*
G02X427464Y79098I1689J-3874*
G01*
G75*
G02X419011I-4226*
G01*
G75*
G02X419295Y80621I4226J0*
G01*
X398873Y101043*
G75*
G02X398396Y102194I1151J1151*
G01*
Y122237*
X374912Y145711*
Y131648*
G75*
G02X374910Y131572I-1472J0*
G01*
X377928Y134571*
Y135786*
G75*
G02X377889Y136141I1629J355*
G01*
G75*
G02X381224I1667*
G01*
G75*
G02X381183Y135775I-1667*
G01*
Y133894*
G75*
G02X380703Y132739I-1628*
G01*
X375090Y127160*
X392411*
G75*
G02X393974Y125990J-1628*
G01*
G75*
G02X391690Y123904I-1562J-582*
G01*
X374800*
G75*
G02X372874Y124959I-360J1628*
G01*
X360487Y112647*
X352292Y104458*
X357062*
G75*
G02X363643Y102194I2901J-2264*
G01*
G75*
G02X357404Y99549I-3680*
G01*
X353176*
X352369Y98742*
X357282*
Y92305*
X356630*
Y83911*
X351571*
Y92317*
X352223*
Y98596*
X351656Y98029*
Y95523*
G75*
G02X351361Y94356I-2455*
G01*
Y92675*
X350729*
Y91946*
X351260*
Y84281*
X346941*
Y91946*
X347473*
Y92675*
X347042*
Y94356*
G75*
G02X346746Y95523I2160J1167*
G01*
Y98917*
X345729Y97900*
Y91946*
X346260*
Y84281*
X341941*
Y91946*
X342473*
Y98575*
G75*
G02X342951Y99728I1628*
G01*
X343448Y100224*
X310947*
Y94596*
X306195*
Y102239*
X305947Y101991*
Y94596*
X301195*
Y102239*
X300947Y101991*
Y94596*
X296195*
Y102364*
X295947Y102116*
Y94596*
X291195*
Y102364*
X290947Y102116*
Y94596*
X286195*
Y102239*
X285947Y101991*
Y94596*
X281195*
Y102115*
X280947Y101867*
Y94596*
X276195*
Y101865*
X275947Y101617*
Y94596*
X271195*
Y102557*
X272728*
X287244Y117073*
X265347*
X260343Y112069*
Y66735*
X271462Y55615*
X289831*
G75*
G02X290873Y55183I0J-1470*
G01*
X296735Y49321*
G75*
G02X297167Y48279I-1038J-1041*
G01*
Y42007*
G75*
G02X299923Y38045I-1470J-3962*
G01*
G75*
G02X291470I-4226*
G01*
G75*
G02X294226Y42007I4226*
G01*
Y47670*
X289222Y52674*
X270853*
G75*
G02X269811Y53107I0J1470*
G01*
X257834Y65084*
G75*
G02X257402Y66126I1038J1041*
G01*
Y112524*
X257130Y112253*
Y64304*
X270529Y50906*
X284831*
G75*
G02X285985Y50426J-1628*
G01*
X286846Y49565*
G75*
G02X287325Y48412I-1149J-1154*
G01*
Y41946*
G75*
G02X289923Y38045I-1628J-3900*
G01*
G75*
G02X281470I-4226*
G01*
G75*
G02X284069Y41946I4226*
G01*
Y47650*
X269857*
G75*
G02X268704Y48126I-2J1628*
G01*
X254351Y62479*
G75*
G02X253874Y63630I1151J1151*
G01*
Y91947*
X249560Y87633*
G75*
G02X245643Y81819I-3917J-1588*
G01*
G75*
G02Y90271J4226*
G01*
G75*
G02X247573Y89805I0J-4226*
G01*
X251910Y94142*
Y115298*
G75*
G02X252343Y116340I1470J0*
G01*
X259578Y123575*
G75*
G02X260619Y124007I1041J-1038*
G01*
X328518*
G75*
G02X327722Y126318I674J1525*
G01*
Y128801*
X327032*
Y134498*
X327758*
Y135978*
X325607*
Y136348*
X324008*
Y138663*
X295352*
G75*
G02X292898Y140133I-786J1470*
G01*
G75*
G02X295352Y141604I1667*
G01*
X324008*
Y143915*
X325607*
Y144285*
X329288*
Y143915*
X351197*
Y144285*
X354878*
Y143915*
X356477*
Y136348*
X354878*
Y135978*
X352541*
Y135053*
X357089*
Y129710*
X350572*
Y128966*
X357459*
Y124109*
X361364Y128013*
Y146490*
X359052*
Y173679*
X358681*
Y177360*
X359052*
Y178958*
X366619*
Y177360*
X366989*
Y175667*
X382954Y191632*
Y228635*
X377575Y234013*
X368522*
G75*
G02X370625Y230359I-2123J-3654*
G01*
G75*
G02X362172I-4226*
G01*
G75*
G02X364275Y234013I4226*
G01*
X358522*
G75*
G02X360625Y230359I-2123J-3654*
G01*
G75*
G02X352172I-4226*
G01*
G75*
G02X354275Y234013I4226*
G01*
X348522*
G75*
G02X350625Y230359I-2123J-3654*
G01*
G75*
G02X342172I-4226*
G01*
G75*
G02X344275Y234013I4226*
G01*
X338522*
G75*
G02X340625Y230359I-2123J-3654*
G01*
G75*
G02X332172I-4226*
G01*
G75*
G02X334275Y234013I4226*
G01*
X328522*
G75*
G02X330625Y230359I-2123J-3654*
G01*
G75*
G02X322172I-4226*
G01*
G75*
G02X324275Y234013I4226*
G01*
X318522*
G75*
G02X320308Y228754I-2124J-3655*
G01*
X327806Y221263*
X331630*
G75*
G02X332783Y220787I2J-1628*
G01*
X356159Y197410*
G75*
G02X356636Y196259I-1151J-1151*
G01*
Y185314*
G75*
G02X356477Y184611I-1628*
G01*
Y181529*
X348708*
G75*
G02X348285Y180792I-1574J414*
G01*
X346038Y178546*
G75*
G02X344885Y178069I-1151J1151*
G01*
X323648*
G75*
G02X322498Y178541I-3J1628*
G01*
X307271Y193642*
G75*
G02X307266Y193647I1134J1139*
G01*
X306496Y194417*
X249918*
G75*
G02X241791Y196045I-3900J1628*
G01*
G75*
G02X244382Y199942I4226*
G01*
X241634*
X240374Y198682*
Y83144*
X243713Y79805*
G75*
G02X249869Y76045I1930J-3760*
G01*
G75*
G02X241417I-4226*
G01*
G75*
G02X241726Y77633I4227J0*
G01*
X237865Y81493*
G75*
G02X237433Y82535I1038J1041*
G01*
Y199291*
G75*
G02X237865Y200333I1470J0*
G01*
X239983Y202451*
G75*
G02X241025Y202883I1041J-1038*
G01*
X243213*
G75*
G02X246017Y210271I2804J3162*
G01*
G75*
G02X248822Y202883J-4226*
G01*
X326515*
G75*
G02X327557Y202451I0J-1470*
G01*
X329915Y200093*
Y201425*
X325282Y206057*
X292414*
Y204679*
X288095*
Y210376*
X292414*
Y208998*
X325891*
G75*
G02X326933Y208566I0J-1470*
G01*
X331883Y203615*
Y204573*
X330524Y205932*
G75*
G02X329341Y207528I484J1596*
G01*
G75*
G02X332604Y208012I1667*
G01*
X333852Y206764*
Y208123*
G75*
G02X335394Y210574I1470J786*
G01*
X334452Y211516*
X329513*
G75*
G02X328359Y211993I-2J1628*
G01*
X318852Y221500*
X303553*
G75*
G02X302394Y221983I-1J1628*
G01*
X297984Y226441*
G75*
G02X292172Y230359I-1586J3918*
G01*
G75*
G02X300625I4226*
G01*
G75*
G02X300299Y228731I-4227J0*
G01*
X304231Y224756*
X319524*
G75*
G02X319714Y224746I4J-1628*
G01*
X318007Y226451*
G75*
G02X314275Y234013I-1609J3908*
G01*
X310876*
X309770Y232907*
G75*
G02X310625Y230359I-3372J-2548*
G01*
G75*
G02X302172I-4226*
G01*
G75*
G02X307211Y234507I4226*
G01*
X309226Y236522*
G75*
G02X310267Y236954I1041J-1038*
G01*
X313311*
G75*
G02X311802Y240359I3088J3405*
G01*
G75*
G02X320995I4596*
G01*
G75*
G02X319486Y236954I-4596*
G01*
X323311*
G75*
G02X321802Y240359I3088J3405*
G01*
G75*
G02X330995I4596*
G01*
G75*
G02X329486Y236954I-4596*
G01*
X333311*
G75*
G02X331802Y240359I3088J3405*
G01*
G75*
G02X340995I4596*
G01*
G75*
G02X339486Y236954I-4596*
G01*
X343894*
G75*
G02X342172Y240359I2504J3405*
G01*
G75*
G02X350625I4226*
G01*
G75*
G02X348902Y236954I-4226*
G01*
X353311*
G75*
G02X351802Y240359I3088J3405*
G01*
G75*
G02X360995I4596*
G01*
G75*
G02X359486Y236954I-4596*
G01*
X363311*
G75*
G02X361802Y240359I3088J3405*
G01*
G75*
G02X370995I4596*
G01*
G75*
G02X369486Y236954I-4596*
G01*
X378184*
G75*
G02X379226Y236522I0J-1470*
G01*
X385462Y230285*
G75*
G02X385894Y229244I-1038J-1041*
G01*
Y191023*
G75*
G02X385462Y189981I-1470J0*
G01*
X371104Y175623*
G75*
G02X372636Y173383I-34J-1667*
G01*
G75*
G02X372449Y172963I-1566J446*
G01*
X375130*
G75*
G02X377158Y171335I360J-1628*
G01*
G75*
G02X375130Y169707I-1667*
G01*
X372736*
X372295Y169273*
X377074*
X380158Y172394*
G75*
G02X381317Y172880I1160J-1143*
G01*
X400538*
G75*
G02X401790Y169843I360J-1628*
G01*
X415750*
G75*
G02X417378Y168215J-1628*
G01*
Y150169*
X420643Y146903*
G75*
G02X427215Y143387I2345J-3516*
G01*
G75*
G02X418762I-4226*
G01*
G75*
G02X418825Y144117I4226J0*
G01*
X414598Y148343*
G75*
G02X414133Y149306I1152J1151*
G01*
Y143430*
X420653Y136909*
G75*
G02X427215Y133387I2335J-3522*
G01*
G75*
G02X418762I-4226*
G01*
G75*
G02X418828Y134130I4226J0*
G01*
X411354Y141604*
G75*
G02X410877Y142755I1151J1151*
G01*
Y164465*
X385176*
X383961Y163210*
X385173*
G75*
G02X386515Y162340J-1470*
G01*
G75*
G02X383904Y160269I-1342J-989*
G01*
X376586*
X377612Y159243*
G75*
G02X378354Y157856I-926J-1387*
G01*
G75*
G02X375263Y156987I-1667*
G01*
X374107Y158143*
X370828*
X371844Y157128*
G75*
G02X371858Y157113I-1222J-1237*
G01*
X372208Y156756*
X404790Y124317*
G75*
G02X405272Y123161I-1146J-1156*
G01*
Y109241*
X421543Y92970*
X418641Y99098D02*
G75*
G02X427834I4596D01*
G01*
G75*
G02X418641I-4596*
G01*
X418762Y123387D02*
G75*
G02X427215I4226D01*
G01*
G75*
G02X418762I-4226*
G01*
X403117Y82439D02*
X404398D01*
Y77332*
X398898*
Y82439*
X400176*
Y84737*
G75*
G02X399980Y85523I1470J786*
G01*
G75*
G02X403314I1667*
G01*
G75*
G02X403117Y84737I-1667*
G01*
Y82439*
X419011Y69098D02*
G75*
G02X427464I4226D01*
G01*
G75*
G02X419011I-4226*
G01*
X398528Y76509D02*
X404768D01*
Y70663*
X398528*
Y76509*
X386126Y121039D02*
G75*
G02X389461I1667D01*
G01*
G75*
G02X389264Y120254I-1667*
G01*
Y96080*
G75*
G02X387794Y94610I-1470*
G01*
X366948*
X361260Y88920*
Y84281*
X356941*
Y91946*
X360127*
X365300Y97120*
G75*
G02X366341Y97551I1040J-1040*
G01*
X386323*
Y120254*
G75*
G02X386126Y121039I1470J786*
G01*
X373689Y76757D02*
X379930D01*
Y70911*
X373689*
Y76757*
X377053Y41861D02*
G75*
G02X385506I4226D01*
G01*
G75*
G02X377053I-4226*
G01*
Y51861D02*
G75*
G02X385506I4226D01*
G01*
G75*
G02X377053I-4226*
G01*
X378781Y82687D02*
X379559D01*
Y77580*
X374059*
Y82687*
X375840*
Y84934*
G75*
G02X375643Y85720I1470J786*
G01*
G75*
G02X378978I1667*
G01*
G75*
G02X378781Y84934I-1667*
G01*
Y82687*
X381678Y76631D02*
X387918D01*
Y70785*
X381678*
Y76631*
X386893Y82561D02*
X387548D01*
Y77454*
X382048*
Y82561*
X383952*
Y85433*
G75*
G02X383755Y86219I1470J786*
G01*
G75*
G02X387090I1667*
G01*
G75*
G02X386893Y85433I-1667*
G01*
Y82561*
X390040Y76383D02*
X396280D01*
Y70537*
X390040*
Y76383*
X394631Y82313D02*
X395910D01*
Y77206*
X390410*
Y82313*
X391690*
Y84934*
G75*
G02X391493Y85720I1470J786*
G01*
G75*
G02X394828I1667*
G01*
G75*
G02X394631Y84934I-1667*
G01*
Y82313*
X363855Y70037D02*
X369552D01*
Y65718*
X363855*
Y66407*
X361260*
Y63021*
X356941*
Y70687*
X361260*
Y69348*
X363855*
Y70037*
X363485Y64856D02*
X369922D01*
Y59797*
X363485*
Y64856*
X367053Y41861D02*
G75*
G02X375506I4226D01*
G01*
G75*
G02X367053I-4226*
G01*
Y51861D02*
G75*
G02X375506I4226D01*
G01*
G75*
G02X367053I-4226*
G01*
X362750Y55823D02*
G75*
G02X365506Y51861I-1470J-3962D01*
G01*
G75*
G02X357565Y49843I-4226*
G01*
Y43878*
G75*
G02X365506Y41861I3714J-2017*
G01*
G75*
G02X357317Y40389I-4226*
G01*
X356095*
G75*
G02X355656Y40456I0J1470*
G01*
G75*
G02X346683Y41861I-4377J1404*
G01*
G75*
G02X354624Y45013I4596*
G01*
Y48708*
G75*
G02X346683Y51861I-3345J3152*
G01*
G75*
G02X350673Y56417I4596*
G01*
X349101*
G75*
G02X347630Y57887J1470*
G01*
Y63021*
X346941*
Y70687*
X351260*
Y63021*
X350571*
Y59358*
X353048*
G75*
G02X352630Y60385I1052J1027*
G01*
Y63021*
X351941*
Y70687*
X356260*
Y63021*
X355571*
Y61856*
X361279*
G75*
G02X362750Y60385J-1470*
G01*
Y55823*
X337053Y41861D02*
G75*
G02X345506I4226D01*
G01*
G75*
G02X337053I-4226*
G01*
Y51861D02*
G75*
G02X345506I4226D01*
G01*
G75*
G02X337053I-4226*
G01*
X341941Y70687D02*
X346260D01*
Y63021*
X341941*
Y70687*
X270825Y71726D02*
X311317D01*
Y63025*
X270825*
Y71726*
X301100Y38045D02*
G75*
G02X310293I4596D01*
G01*
G75*
G02X301100I-4596*
G01*
X271470D02*
G75*
G02X279923I4226D01*
G01*
G75*
G02X271470I-4226*
G01*
X321111Y134868D02*
X326170D01*
Y128431*
X321111*
Y134868*
X321437Y157675D02*
X321807D01*
Y153994*
X321437*
Y146490*
X318415*
G75*
G02X317653Y146277I-762J1257*
G01*
X291982*
G75*
G02X289688Y148458I-786J1470*
G01*
X273019*
X254569Y130007*
G75*
G02X253527Y129574I-1041J1038*
G01*
X249980*
G75*
G02X241791Y131045I-3962J1470*
G01*
G75*
G02X249980Y132515I4226*
G01*
X252918*
X270552Y150150*
X264663*
X254407Y139894*
G75*
G02X253254Y139417I-1151J1151*
G01*
X249918*
G75*
G02X241791Y141045I-3900J1628*
G01*
G75*
G02X249918Y142673I4226*
G01*
X252581*
X262838Y152929*
G75*
G02X263991Y153406I1151J-1151*
G01*
X300617*
G75*
G02X299993Y154279I938J1330*
G01*
G75*
G02X302276Y156364I1562J582*
G01*
X306193*
Y157462*
X311890*
Y156364*
X312659*
G75*
G02X313500Y156132I3J-1628*
G01*
Y157675*
X313870*
Y164033*
X311819*
G75*
G02X309139Y165687I-1053J1293*
G01*
G75*
G02X309221Y166174I1628J-26*
G01*
X304924*
G75*
G02X303709Y166817J1470*
G01*
X299910*
Y170151*
X309937*
Y169115*
X312428*
X310501Y171042*
G75*
G02X310307Y171280I1039J1041*
G01*
Y171171*
X299540*
Y175246*
X309774*
X308754Y176265*
X299910*
Y179600*
X309307*
X307311Y181596*
X286170*
G75*
G02X283717Y183067I-786J1470*
G01*
G75*
G02X286170Y184537I1667*
G01*
X307918*
G75*
G02X308959Y184106I1J-1471*
G01*
X314109Y178958*
X321437*
Y157675*
X305823Y163383D02*
X312260D01*
Y158324*
X305823*
Y163383*
X274935Y187515D02*
G75*
G02X277388Y186045I786J-1470D01*
G01*
G75*
G02X274935Y184574I-1667*
G01*
X249980*
G75*
G02X241791Y186045I-3962J1470*
G01*
G75*
G02X249980Y187515I4226*
G01*
X274935*
X241417Y96045D02*
G75*
G02X249869I4226D01*
G01*
G75*
G02X241417I-4226*
G01*
X241421Y121045D02*
G75*
G02X250614I4596D01*
G01*
G75*
G02X241421I-4596*
G01*
Y176045D02*
G75*
G02X250614I4596D01*
G01*
G75*
G02X241421I-4596*
G01*
X241791Y151045D02*
G75*
G02X250244I4226D01*
G01*
G75*
G02X241791I-4226*
G01*
X241046Y66045D02*
G75*
G02X250239I4596D01*
G01*
G75*
G02X241046I-4596*
G01*
X282172Y240359D02*
G75*
G02X290625I4226D01*
G01*
G75*
G02X282172I-4226*
G01*
X292172D02*
G75*
G02X300625I4226D01*
G01*
G75*
G02X292172I-4226*
G01*
X301802D02*
G75*
G02X310995I4596D01*
G01*
G75*
G02X301802I-4596*
G01*
X405198Y41861D02*
G36*
X385506D01*
G75*
G02X377053I-4226*
G01*
X375506*
G75*
G02X367053I-4226*
G01*
X365506*
G75*
G02X357317Y40389I-4226*
G01*
X356095*
G75*
G02X355656Y40456I1J1481*
G01*
G75*
G02X346683Y41861I-4377J1404*
G01*
X345506*
G75*
G02X337053I-4226*
G01*
X308260*
G75*
G02X310293Y38045I-2563J-3815*
G01*
G75*
G02X301100I-4596*
G01*
G75*
G02X303133Y41861I4596*
G01*
X297515*
G75*
G02X299923Y38046I-1817J-3815*
G01*
Y38045*
G75*
G02X291470I-4226*
G01*
G75*
G02X293879Y41861I4227J0*
G01*
X287515*
G75*
G02X289923Y38045I-1819J-3815*
G01*
G75*
G02X281470I-4226*
G01*
G75*
G02X283878Y41861I4226*
G01*
X277515*
G75*
G02X279923Y38045I-1818J-3815*
G01*
G75*
G02X271470I-4226*
G01*
G75*
G02X273879Y41861I4226*
G01*
X261472*
G75*
G02X261577Y40218I-12785J-1643*
G01*
G75*
G02X253760Y28370I-12889J1*
G01*
X412910*
G75*
G02X405093Y40218I5070J11848*
G01*
G75*
G02X405198Y41861I12890J0*
G01*
G37*
X243163Y51861D02*
G36*
X236841D01*
Y45289*
G75*
G02X243163Y51861I11848J-5071*
G01*
G37*
X283878Y41861D02*
G36*
G75*
G02X284069Y41946I1819J-3820D01*
G01*
Y47650*
X269857*
G75*
G02X268704Y48126I-2J1630*
G01*
X264969Y51861*
X254217*
G75*
G02X261472Y41861I-5527J-11643*
G01*
X273879*
G75*
G02X277515I1818J-3815*
G01*
X283878*
G37*
X293879D02*
G36*
G75*
G02X294226Y42007I1818J-3815D01*
G01*
Y47670*
X290036Y51861*
X269574*
X270529Y50906*
X284831*
G75*
G02X285985Y50426I0J-1627*
G01*
X286846Y49565*
G75*
G02X287325Y48412I-1148J-1153*
G01*
Y48412*
Y41946*
G75*
G02X287515Y41861I-1628J-3905*
G01*
X293879*
G37*
X346683Y51861D02*
G36*
X345506D01*
G75*
G02X337053I-4226*
G01*
X294195*
X296735Y49321*
G75*
G02X297167Y48280I-1038J-1041*
G01*
Y48279*
Y42007*
G75*
G02X297515Y41861I-1470J-3964*
G01*
X303133*
G75*
G02X308260I2563J-3815*
G01*
X337053*
G75*
G02X345506I4226*
G01*
X346683*
Y41861*
G75*
G02X354624Y45013I4596*
G01*
Y48708*
G75*
G02X346683Y51860I-3345J3152*
G01*
Y51861*
G37*
X405198Y41861D02*
G36*
G75*
G02X412454Y51861I12783J-1643D01*
G01*
X385506*
G75*
G02X377053I-4226*
G01*
X375506*
G75*
G02X367053I-4226*
G01*
X365506*
G75*
G02X357565Y49843I-4226*
G01*
Y43878*
G75*
G02X365506Y41861I3714J-2018*
G01*
X367053*
G75*
G02X375506I4226*
G01*
X377053*
G75*
G02X385506I4226*
G01*
X405198*
G37*
X429829Y45289D02*
G36*
Y51861D01*
X423507*
G75*
G02X429829Y45289I-5527J-11643*
G01*
G37*
X264969Y51861D02*
G36*
X254504Y62326D01*
X248345*
G75*
G02X242941I-2702J3719*
G01*
X236841*
Y51861*
X243163*
G75*
G02X254217I5527J-11643*
G01*
X264969*
G37*
X290036D02*
G36*
X289222Y52674D01*
X270853*
G75*
G02X269811Y53107I0J1470*
G01*
X260592Y62326*
X259108*
X269574Y51861*
X290036*
G37*
X352630Y62326D02*
G36*
X350571D01*
Y59358*
X353048*
G75*
G02X352630Y60385I1055J1028*
G01*
Y62326*
G37*
X346683Y51861D02*
G36*
G75*
G02X350673Y56417I4596D01*
G01*
X349101*
G75*
G02X347630Y57887J1470*
G01*
Y62326*
X264751*
X271462Y55615*
X289831*
G75*
G02X290873Y55183I0J-1470*
G01*
X294195Y51861*
X337053*
G75*
G02X345506I4226*
G01*
X346683*
G37*
X423507D02*
G36*
X429829D01*
Y62326*
X369922*
Y59797*
X363485*
Y62326*
X355571*
Y61856*
X361279*
G75*
G02X362750Y60385J-1470*
G01*
Y55823*
G75*
G02X365506Y51861I-1470J-3962*
G01*
Y51861*
X367053*
G75*
G02X375506I4226*
G01*
X377053*
G75*
G02X385506I4226*
G01*
X412454*
G75*
G02X417981Y53106I5527J-11643*
G01*
G75*
G02X423507Y51861I-1J-12889*
G01*
G37*
X242207Y69098D02*
G36*
X236841D01*
Y62326*
X242941*
G75*
G02X241046Y66045I2702J3719*
G01*
G75*
G02X242207Y69098I4596*
G01*
G37*
X254504Y62326D02*
G36*
X254351Y62479D01*
G75*
G02X253874Y63630I1154J1152*
G01*
Y69098*
X249079*
G75*
G02X250239Y66045I-3436J-3053*
G01*
G75*
G02X248345Y62326I-4596*
G01*
X254504*
G37*
X259108D02*
G36*
X260592D01*
X257834Y65084*
G75*
G02X257402Y66126I1038J1041*
G01*
Y66126*
Y69098*
X257130*
Y64304*
X259108Y62326*
G37*
X346941Y69098D02*
G36*
X346260D01*
Y63021*
X341941*
Y69098*
X311317*
Y63025*
X270825*
Y69098*
X260343*
Y66735*
X264751Y62326*
X347630*
Y63021*
X346941*
Y69098*
G37*
X351941D02*
G36*
X351260D01*
Y63021*
X350571*
Y62326*
X352630*
Y63021*
X351941*
Y69098*
G37*
X369552D02*
G36*
Y65718D01*
X363855*
Y66407*
X361260*
Y63021*
X356941*
Y69098*
X356260*
Y63021*
X355571*
Y62326*
X363485*
Y64856*
X369922*
Y62326*
X429829*
Y69098*
X427464*
G75*
G02X419011I-4226*
G01*
X369552*
G37*
X253874Y73586D02*
G36*
X249081D01*
G75*
G02X242205I-3438J2459*
G01*
X236841*
Y69098*
X242207*
G75*
G02X249079I3436J-3053*
G01*
X253874*
Y73586*
G37*
X257402D02*
G36*
X257130D01*
Y69098*
X257402*
Y73586*
G37*
X404768D02*
G36*
Y70663D01*
X398528*
Y73586*
X396280*
Y70537*
X390040*
Y73586*
X387918*
Y70785*
X381678*
Y73586*
X379930*
Y70911*
X373689*
Y73586*
X260343*
Y69098*
X270825*
Y71726*
X311317*
Y69098*
X341941*
Y70687*
X346260*
Y69098*
X346941*
Y70687*
X351260*
Y69098*
X351941*
Y70687*
X356260*
Y69098*
X356941*
Y70687*
X361260*
Y69348*
X363855*
Y70037*
X369552*
Y69098*
X419011*
G75*
G02X427464I4226*
G01*
X429829*
Y73586*
X404768*
G37*
X242205D02*
G36*
G75*
G02X241417Y76045I3438J2458D01*
G01*
G75*
G02Y76046I3470J0*
G01*
G75*
G02X241726Y77633I4224*
G01*
X237865Y81493*
G75*
G02X237459Y82261I1038J1041*
G01*
X236841*
Y73586*
X242205*
G37*
X253874Y82261D02*
G36*
X247526D01*
G75*
G02X245643Y81819I-1883J3784*
G01*
G75*
G02X243759Y82261J4226*
G01*
X241256*
X243713Y79805*
G75*
G02X249869Y76045I1930J-3760*
G01*
G75*
G02X249081Y73586I-4226J0*
G01*
X253874*
Y82261*
G37*
X257402D02*
G36*
X257130D01*
Y73586*
X257402*
Y82261*
G37*
X404398D02*
G36*
Y77332D01*
X398898*
Y82261*
X395910*
Y77206*
X390410*
Y82261*
X387548*
Y77454*
X382048*
Y82261*
X379559*
Y77580*
X374059*
Y82261*
X260343*
Y73586*
X373689*
Y76757*
X379930*
Y73586*
X381678*
Y76631*
X387918*
Y73586*
X390040*
Y76383*
X396280*
Y73586*
X398528*
Y76509*
X404768*
Y73586*
X429829*
Y82261*
X426041*
G75*
G02X427464Y79098I-2803J-3163*
G01*
Y79098*
G75*
G02X419011I-4226*
G01*
G75*
G02X419295Y80621I4233J-1*
G01*
X417655Y82261*
X404398*
G37*
X237459D02*
G36*
G75*
G02X237433Y82534I1445J273D01*
G01*
Y82535*
Y99098*
X236841*
Y82261*
X237459*
G37*
X251910Y99098D02*
G36*
X248566D01*
G75*
G02X249869Y96045I-2923J-3053*
G01*
G75*
G02X241417I-4226*
G01*
G75*
G02X242720Y99098I4226*
G01*
X240374*
Y83144*
X241256Y82261*
X243759*
G75*
G02X241417Y86045I1883J3783*
G01*
G75*
G02X245643Y90271I4226*
G01*
G75*
G02X247573Y89805I-2J-4234*
G01*
X251910Y94142*
Y99098*
G37*
X253874Y82261D02*
G36*
Y91947D01*
X249560Y87633*
G75*
G02X249869Y86045I-3918J-1587*
G01*
G75*
G02X247526Y82261I-4226*
G01*
X253874*
G37*
X257402Y99098D02*
G36*
X257130D01*
Y82261*
X257402*
Y99098*
G37*
X417655Y82261D02*
G36*
X400819Y99098D01*
X389264*
Y96080*
G75*
G02X387794Y94610I-1470*
G01*
X366948*
X361260Y88920*
Y84281*
X356941*
Y91946*
X360127*
X365300Y97120*
G75*
G02X366341Y97551I1041J-1043*
G01*
X386323*
Y99098*
X361951*
G75*
G02X357974I-1988J3097*
G01*
X352725*
X352369Y98742*
X357282*
Y92305*
X356630*
Y83911*
X351571*
Y92317*
X352223*
Y98596*
X351656Y98029*
Y95523*
G75*
G02Y95522I-2707J0*
G01*
G75*
G02X351361Y94356I-2450*
G01*
Y92675*
X350729*
Y91946*
X351260*
Y84281*
X346941*
Y91946*
X347473*
Y92675*
X347042*
Y94356*
G75*
G02X346746Y95522I2155J1166*
G01*
G75*
G02Y95523I2707J1*
G01*
Y98917*
X345729Y97900*
Y91946*
X346260*
Y84281*
X341941*
Y91946*
X342473*
Y98575*
G75*
G02X342559Y99098I1629*
G01*
X310947*
Y94596*
X306195*
Y99098*
X305947*
Y94596*
X301195*
Y99098*
X300947*
Y94596*
X296195*
Y99098*
X295947*
Y94596*
X291195*
Y99098*
X290947*
Y94596*
X286195*
Y99098*
X285947*
Y94596*
X281195*
Y99098*
X280947*
Y94596*
X276195*
Y99098*
X275947*
Y94596*
X271195*
Y99098*
X260343*
Y82261*
X374059*
Y82687*
X375840*
Y84934*
G75*
G02X375643Y85720I1471J786*
G01*
G75*
G02X378978I1667*
G01*
G75*
G02X378781Y84934I-1668*
G01*
Y82687*
X379559*
Y82261*
X382048*
Y82561*
X383952*
Y85433*
G75*
G02X383755Y86219I1471J786*
G01*
G75*
G02X387090I1667*
G01*
G75*
G02X386893Y85433I-1668*
G01*
Y82561*
X387548*
Y82261*
X390410*
Y82313*
X391690*
Y84934*
G75*
G02X391493Y85720I1471J786*
G01*
G75*
G02X394828I1667*
G01*
G75*
G02X394631Y84934I-1668*
G01*
Y82313*
X395910*
Y82261*
X398898*
Y82439*
X400176*
Y84737*
G75*
G02X399980Y85523I1471J786*
G01*
G75*
G02X403314I1667*
G01*
G75*
G02X403117Y84737I-1668*
G01*
Y82439*
X404398*
Y82261*
X417655*
G37*
X426041D02*
G36*
X429829D01*
Y99098*
X427834*
G75*
G02X418641I-4596*
G01*
X415415*
X421543Y92970*
G75*
G02X427464Y89098I1694J-3872*
G01*
G75*
G02X419011I-4226*
G01*
G75*
G02X419293Y90615I4235J-2*
G01*
X410811Y99098*
X405423*
X421549Y82972*
G75*
G02X426041Y82261I1689J-3874*
G01*
G37*
X237433Y123387D02*
G36*
X236841D01*
Y99098*
X237433*
Y123387*
G37*
X259389D02*
G36*
X249972D01*
G75*
G02X250614Y121045I-3955J-2342*
G01*
G75*
G02X241421I-4596*
G01*
G75*
G02X242062Y123387I4596J0*
G01*
X240374*
Y99098*
X242720*
G75*
G02X248566I2923J-3053*
G01*
X251910*
Y115298*
Y115299*
G75*
G02X252343Y116340I1470*
G01*
X259389Y123387*
G37*
X257402Y99098D02*
G36*
Y112524D01*
X257130Y112253*
Y99098*
X257402*
G37*
X271195D02*
G36*
Y102557D01*
X272728*
X287244Y117073*
X265347*
X260343Y112069*
Y99098*
X271195*
G37*
X276195D02*
G36*
Y101865D01*
X275947Y101617*
Y99098*
X276195*
G37*
X281195D02*
G36*
Y102115D01*
X280947Y101867*
Y99098*
X281195*
G37*
X286195D02*
G36*
Y102239D01*
X285947Y101991*
Y99098*
X286195*
G37*
X291195D02*
G36*
Y102364D01*
X290947Y102116*
Y99098*
X291195*
G37*
X296195D02*
G36*
Y102364D01*
X295947Y102116*
Y99098*
X296195*
G37*
X301195D02*
G36*
Y102239D01*
X300947Y101991*
Y99098*
X301195*
G37*
X306195D02*
G36*
Y102239D01*
X305947Y101991*
Y99098*
X306195*
G37*
X342559D02*
G36*
G75*
G02X342951Y99728I1543J-524D01*
G01*
X343448Y100224*
X310947*
Y99098*
X342559*
G37*
X357974D02*
G36*
G75*
G02X357404Y99549I1989J3096D01*
G01*
X353176*
X352725Y99098*
X357974*
G37*
X400819D02*
G36*
X398873Y101043D01*
G75*
G02X398396Y102194I1154J1152*
G01*
Y122237*
X397246Y123387*
X371293*
X360487Y112647*
X352292Y104458*
X357062*
G75*
G02X363643Y102194I2901J-2265*
G01*
G75*
G02X361951Y99098I-3680J0*
G01*
X386323*
Y120254*
G75*
G02X386126Y121039I1471J786*
G01*
G75*
G02X389461I1667*
G01*
G75*
G02X389264Y120254I-1668*
G01*
Y99098*
X400819*
G37*
X415415D02*
G36*
X418641D01*
G75*
G02X427834I4596*
G01*
X429829*
Y123387*
X427215*
G75*
G02X418762I-4226*
G01*
X405256*
G75*
G02X405272Y123161I-1612J-226*
G01*
Y109241*
X415415Y99098*
G37*
X405423D02*
G36*
X410811D01*
X402493Y107416*
G75*
G02X402016Y108567I1154J1152*
G01*
Y122485*
X401652Y122846*
Y102869*
X405423Y99098*
G37*
X237433Y131649D02*
G36*
X236841D01*
Y123387*
X237433*
Y131649*
G37*
X259389Y123387D02*
G36*
X259578Y123575D01*
G75*
G02X260619Y124007I1041J-1038*
G01*
X328518*
G75*
G02X327525Y125532I674J1525*
G01*
G75*
G02X327722Y126318I1667*
G01*
Y128801*
X327032*
Y131649*
X326170*
Y128431*
X321111*
Y131649*
X256211*
X254569Y130007*
G75*
G02X253527Y129574I-1041J1038*
G01*
X249980*
G75*
G02X241791Y131045I-3962J1470*
G01*
G75*
G02X241834Y131649I4227J1*
G01*
X240374*
Y123387*
X242062*
G75*
G02X249972I3955J-2342*
G01*
X259389*
G37*
X361364Y131649D02*
G36*
X357089D01*
Y129710*
X350572*
Y128966*
X357459*
Y124109*
X361364Y128013*
Y131649*
G37*
X397246Y123387D02*
G36*
X388980Y131649D01*
X379606*
X375090Y127160*
X392411*
G75*
G02X393974Y125990I0J-1628*
G01*
G75*
G02X394078Y125408I-1562J-581*
G01*
G75*
G02X391690Y123904I-1667*
G01*
X374800*
G75*
G02X372874Y124959I-360J1628*
G01*
X371293Y123387*
X397246*
G37*
X374987Y131649D02*
G36*
X374912D01*
Y131648*
G75*
G02Y131641I-1215J-3*
G01*
G75*
G02X374910Y131572I-1211J0*
G01*
X374987Y131649*
G37*
X426841D02*
G36*
G75*
G02X419135I-3853J1738D01*
G01*
X397425*
X404790Y124317*
G75*
G02X405256Y123387I-1146J-1156*
G01*
X418762*
G75*
G02X427215I4226*
G01*
X429829*
Y131649*
X426841*
G37*
X237433Y153387D02*
G36*
X236841D01*
Y131649*
X237433*
Y153387*
G37*
X263742D02*
G36*
X249535D01*
G75*
G02X250244Y151045I-3518J-2342*
G01*
G75*
G02X241791I-4226*
G01*
G75*
G02X242499Y153387I4226*
G01*
X240374*
Y131649*
X241834*
G75*
G02X249980Y132515I4183J-604*
G01*
X252918*
X270552Y150150*
X264663*
X254407Y139894*
G75*
G02X253254Y139417I-1152J1153*
G01*
X249918*
G75*
G02X241791Y141045I-3900J1628*
G01*
G75*
G02X249918Y142673I4226*
G01*
X252581*
X262838Y152929*
G75*
G02X263742Y153387I1152J-1153*
G01*
G37*
X359052D02*
G36*
X321437D01*
Y146490*
X318415*
G75*
G02X317653Y146277I-763J1259*
G01*
X291982*
G75*
G02X289529Y147747I-786J1470*
G01*
G75*
G02X289688Y148458I1667*
G01*
X273019*
X256211Y131649*
X321111*
Y134868*
X326170*
Y131649*
X327032*
Y134498*
X327758*
Y135978*
X325607*
Y136348*
X324008*
Y138663*
X295352*
G75*
G02X292898Y140133I-786J1471*
G01*
G75*
G02X295352Y141604I1667J0*
G01*
X324008*
Y143915*
X325607*
Y144285*
X329288*
Y143915*
X351197*
Y144285*
X354878*
Y143915*
X356477*
Y136348*
X354878*
Y135978*
X352541*
Y135053*
X357089*
Y131649*
X361364*
Y146490*
X359052*
Y153387*
G37*
X388980Y131649D02*
G36*
X374912Y145711D01*
Y131649*
X374987*
X377928Y134571*
Y135786*
G75*
G02X377889Y136138I1607J352*
G01*
G75*
G02Y136141I1758J1*
G01*
G75*
G02X381224I1667*
G01*
G75*
G02X381183Y135775I-1676J1*
G01*
Y133894*
G75*
G02X380703Y132739I-1628*
G01*
X379606Y131649*
X388980*
G37*
X419135D02*
G36*
G75*
G02X418762Y133387I3853J1737D01*
G01*
G75*
G02X418828Y134130I4249J-2*
G01*
X411354Y141604*
G75*
G02X410877Y142755I1154J1152*
G01*
Y153387*
X375592*
X397425Y131649*
X419135*
G37*
X426841D02*
G36*
X429829D01*
Y153387*
X427585*
G75*
G02X418392I-4596*
G01*
X417378*
Y150169*
X420643Y146903*
G75*
G02X427215Y143387I2345J-3516*
G01*
G75*
G02X418762I-4226*
G01*
G75*
G02Y143390I3948J2*
G01*
G75*
G02X418825Y144117I4197*
G01*
X414598Y148343*
G75*
G02X414133Y149306I1150J1150*
G01*
Y143430*
X420653Y136909*
G75*
G02X427215Y133387I2335J-3523*
G01*
G75*
G02X426841Y131649I-4226J0*
G01*
G37*
X237433Y160854D02*
G36*
X236841D01*
Y153387*
X237433*
Y160854*
G37*
X313870D02*
G36*
X312260D01*
Y158324*
X305823*
Y160854*
X240374*
Y153387*
X242499*
G75*
G02X249535I3518J-2342*
G01*
X263742*
G75*
G02X263991Y153406I247J-1610*
G01*
X300617*
G75*
G02X299993Y154279I940J1331*
G01*
G75*
G02X299887Y154861I1562J583*
G01*
G75*
G02X302276Y156364I1667*
G01*
X306193*
Y157462*
X311890*
Y156364*
X312659*
G75*
G02X313500Y156132I4J-1626*
G01*
Y157675*
X313870*
Y160854*
G37*
X359052D02*
G36*
X321437D01*
Y157675*
X321807*
Y153994*
X321437*
Y153387*
X359052*
Y160854*
G37*
X410877D02*
G36*
X386765D01*
G75*
G02X383904Y160269I-1592J497*
G01*
X376586*
X377612Y159243*
G75*
G02X378354Y157857I-925J-1386*
G01*
Y157856*
G75*
G02X375263Y156987I-1667*
G01*
X374107Y158143*
X370828*
X371844Y157128*
G75*
G02X371858Y157113I-128J-142*
G01*
X372208Y156756*
X375592Y153387*
X410877*
Y160854*
G37*
X417378D02*
G36*
Y153387D01*
X418392*
G75*
G02X427585I4596*
G01*
X429829*
Y160854*
X417378*
G37*
X237433Y176304D02*
G36*
X236841D01*
Y160854*
X237433*
Y176304*
G37*
X299910D02*
G36*
X250606D01*
G75*
G02X250614Y176045I-4591J-262*
G01*
G75*
G02X241421I-4596*
G01*
G75*
G02X241428Y176304I4598J-4*
G01*
X240374*
Y160854*
X305823*
Y163383*
X312260*
Y160854*
X313870*
Y164033*
X311819*
G75*
G02X309099Y165326I-1053J1293*
G01*
G75*
G02X309139Y165687I1667*
G01*
G75*
G02X309221Y166174I1631J-26*
G01*
X304924*
G75*
G02X303709Y166817I0J1471*
G01*
X299910*
Y170151*
X309937*
Y169115*
X312428*
X310501Y171042*
G75*
G02X310307Y171280I1065J1062*
G01*
Y171171*
X299540*
Y175246*
X309774*
X308754Y176265*
X299910*
Y176304*
G37*
X359052Y160854D02*
G36*
Y173679D01*
X358681*
Y176304*
X321437*
Y160854*
X359052*
G37*
X367625Y176304D02*
G36*
X366989D01*
Y175667*
X367625Y176304*
G37*
X417378Y160854D02*
G36*
X429829D01*
Y176304*
X426591*
G75*
G02X418138I-4226*
G01*
X371784*
X371104Y175623*
G75*
G02X372737Y173956I-34J-1667*
G01*
G75*
G02X372636Y173383I-1668*
G01*
G75*
G02X372449Y172963I-1563J444*
G01*
X375130*
G75*
G02X377158Y171335I360J-1628*
G01*
G75*
G02X375130Y169707I-1668J0*
G01*
X372736*
X372295Y169273*
X377074*
X380158Y172394*
G75*
G02X381317Y172880I1160J-1144*
G01*
X400538*
G75*
G02X402565Y171252I360J-1628*
G01*
G75*
G02X401790Y169843I-1667*
G01*
X415750*
G75*
G02X417378Y168215J-1628*
G01*
Y160854*
G37*
X410877D02*
G36*
Y164465D01*
X385176*
X383961Y163210*
X385173*
G75*
G02X386515Y162340I0J-1471*
G01*
G75*
G02X386840Y161351I-1342J-989*
G01*
G75*
G02X386765Y160854I-1668J0*
G01*
X410877*
G37*
X237433Y186304D02*
G36*
X236841D01*
Y176304*
X237433*
Y186304*
G37*
X377625D02*
G36*
X356636D01*
Y185314*
G75*
G02X356477Y184611I-1636J2*
G01*
Y181529*
X348708*
G75*
G02X348285Y180792I-1575J414*
G01*
X346038Y178546*
G75*
G02X344885Y178069I-1152J1153*
G01*
X323648*
G75*
G02X322498Y178541I-3J1628*
G01*
X314671Y186304*
X277368*
G75*
G02X277388Y186045I-1648J-258*
G01*
G75*
G02X274935Y184574I-1667J0*
G01*
X249980*
G75*
G02X241791Y186045I-3962J1470*
G01*
G75*
G02X241799Y186304I4228J1*
G01*
X240374*
Y176304*
X241428*
G75*
G02X250606I4589J-259*
G01*
X299910*
Y179600*
X309307*
X307311Y181596*
X286170*
G75*
G02X283717Y183067I-786J1471*
G01*
G75*
G02X286170Y184537I1667J0*
G01*
X307918*
G75*
G02X308959Y184106I0J-1473*
G01*
X314109Y178958*
X321437*
Y176304*
X358681*
Y177360*
X359052*
Y178958*
X366619*
Y177360*
X366989*
Y176304*
X367625*
X377625Y186304*
G37*
X381785D02*
G36*
X371784Y176304D01*
X418138*
G75*
G02X426591I4226*
G01*
X429829*
Y186304*
X426591*
G75*
G02X418138I-4226*
G01*
X381785*
G37*
X237433Y196304D02*
G36*
X236841D01*
Y186304*
X237433*
Y196304*
G37*
X314671Y186304D02*
G36*
X307271Y193642D01*
G75*
G02X307266Y193647I14J19*
G01*
X306496Y194417*
X249918*
G75*
G02X241791Y196045I-3900J1628*
G01*
G75*
G02X241799Y196304I4227J1*
G01*
X240374*
Y186304*
X241799*
G75*
G02X249980Y187515I4219J-259*
G01*
X274935*
G75*
G02X277368Y186304I786J-1471*
G01*
X314671*
G37*
X382954Y196304D02*
G36*
X356635D01*
G75*
G02X356636Y196259I-1630J-51*
G01*
Y186304*
X377625*
X382954Y191632*
Y196304*
G37*
X385894D02*
G36*
Y191023D01*
Y191022*
G75*
G02X385462Y189981I-1470*
G01*
X381785Y186304*
X418138*
G75*
G02X426591I4226*
G01*
X429829*
Y196304*
X426591*
G75*
G02X418138I-4226*
G01*
X385894*
G37*
X241799Y206304D02*
G36*
X236841D01*
Y196304*
X237433*
Y199291*
Y199291*
G75*
G02X237865Y200333I1470*
G01*
X239983Y202451*
G75*
G02X241025Y202883I1041J-1038*
G01*
X243213*
G75*
G02X241791Y206045I2805J3161*
G01*
G75*
G02X241799Y206304I4226J1*
G01*
G37*
X241799Y196304D02*
G36*
G75*
G02X244382Y199942I4219J-259D01*
G01*
X241634*
X240374Y198682*
Y196304*
X241799*
G37*
X288095Y206304D02*
G36*
X286863D01*
Y204679*
X282544*
Y206057*
X276056*
Y204029*
X270949*
Y206304*
X270126*
Y203659*
X264280*
Y206304*
X250236*
G75*
G02X250244Y206045I-4219J-258*
G01*
G75*
G02X248822Y202883I-4226*
G01*
X326515*
G75*
G02X327557Y202451I0J-1470*
G01*
X329915Y200093*
Y201425*
X325282Y206057*
X292414*
Y204679*
X288095*
Y206304*
G37*
X329877D02*
G36*
X329196D01*
X331883Y203615*
Y204573*
X330524Y205932*
G75*
G02X329877Y206304I485J1596*
G01*
G37*
X382954D02*
G36*
X347266D01*
X356159Y197410*
G75*
G02X356635Y196304I-1154J-1152*
G01*
X382954*
Y206304*
G37*
X385894D02*
G36*
Y196304D01*
X418138*
G75*
G02X426591I4226*
G01*
X429829*
Y206304*
X426961*
G75*
G02X417768I-4596*
G01*
X385894*
G37*
X329877D02*
G36*
G75*
G02X329341Y207528I1132J1225D01*
G01*
Y207528*
G75*
G02X332604Y208012I1667*
G01*
X333852Y206764*
Y208123*
G75*
G02X333655Y208909I1470J786*
G01*
G75*
G02X335394Y210574I1667*
G01*
X334452Y211516*
X329513*
G75*
G02X328359Y211993I-2J1630*
G01*
X318852Y221500*
X303553*
G75*
G02X302394Y221983I-2J1625*
G01*
X297984Y226441*
G75*
G02X292172Y230359I-1586J3918*
G01*
X290995*
G75*
G02X281802I-4596*
G01*
X280625*
G75*
G02X272172I-4226*
G01*
X256989*
G75*
G02X248689Y227330I-8300J9859*
G01*
G75*
G02X240389Y230359I1J12889*
G01*
X236841*
Y206304*
X241799*
G75*
G02X246017Y210271I4219J-259*
G01*
G75*
G02X250236Y206304J-4226*
G01*
X264280*
Y209899*
X270126*
Y206304*
X270949*
Y209529*
X276056*
Y208998*
X282544*
Y210376*
X286863*
Y206304*
X288095*
Y210376*
X292414*
Y208998*
X325891*
G75*
G02X326933Y208566I0J-1470*
G01*
X329196Y206304*
X329877*
G37*
X312172Y230359D02*
G36*
X310625D01*
G75*
G02X302172I-4226*
G01*
X300625*
G75*
G02X300299Y228731I-4230J0*
G01*
X304231Y224756*
X319524*
G75*
G02X319714Y224746I9J-1533*
G01*
X318007Y226451*
G75*
G02X312172Y230359I-1609J3908*
G01*
G37*
X382954Y206304D02*
G36*
Y228635D01*
X381229Y230359*
X370625*
G75*
G02X362172I-4226*
G01*
X360625*
G75*
G02X352172I-4226*
G01*
X350625*
G75*
G02X342172I-4226*
G01*
X340625*
G75*
G02X332172I-4226*
G01*
X330625*
G75*
G02X322172I-4226*
G01*
X320625*
Y230359*
G75*
G02X320308Y228754I-4227J0*
G01*
X327806Y221263*
X331630*
G75*
G02X332783Y220787I2J-1630*
G01*
X347266Y206304*
X382954*
G37*
X409680Y230359D02*
G36*
X385389D01*
X385462Y230285*
G75*
G02X385894Y229244I-1038J-1041*
G01*
Y229244*
Y206304*
X417768*
G75*
G02X426961I4596*
G01*
X429829*
Y230359*
X426281*
G75*
G02X409680I-8300J9859*
G01*
G37*
X240389D02*
G36*
G75*
G02X236841Y235148I8300J9860D01*
G01*
Y230359*
X240389*
G37*
X312172D02*
G36*
G75*
G02X314275Y234013I4226D01*
G01*
X310876*
X309770Y232907*
G75*
G02X310625Y230359I-3370J-2548*
G01*
Y230359*
X312172*
G37*
X311802Y240359D02*
G36*
X310995D01*
G75*
G02X301802I-4596*
G01*
X300625*
G75*
G02X292172I-4226*
G01*
X290625*
G75*
G02X282172I-4226*
G01*
X280625*
G75*
G02X272172I-4226*
G01*
X261576*
G75*
G02X261577Y240218I-12900J-143*
G01*
G75*
G02X256989Y230359I-12888J0*
G01*
X272172*
G75*
G02X280625I4226*
G01*
X281802*
G75*
G02X290995I4596*
G01*
X292172*
G75*
G02X300625I4226*
G01*
X302172*
G75*
G02X307211Y234507I4226*
G01*
X309226Y236522*
G75*
G02X310267Y236954I1041J-1038*
G01*
X313311*
G75*
G02X311802Y240359I3087J3404*
G01*
Y240359*
G37*
X322172Y230359D02*
G36*
G75*
G02X324275Y234013I4226D01*
G01*
X318522*
G75*
G02X320625Y230359I-2124J-3655*
G01*
X322172*
G37*
X321802Y240359D02*
G36*
X320995D01*
G75*
G02X319486Y236954I-4598J0*
G01*
X323311*
G75*
G02X321802Y240359I3087J3404*
G01*
Y240359*
G37*
X332172Y230359D02*
G36*
G75*
G02X334275Y234013I4226D01*
G01*
X328522*
G75*
G02X330625Y230359I-2123J-3654*
G01*
X332172*
G37*
X331802Y240359D02*
G36*
X330995D01*
G75*
G02X329486Y236954I-4598J0*
G01*
X333311*
G75*
G02X331802Y240359I3087J3404*
G01*
Y240359*
G37*
X342172Y230359D02*
G36*
G75*
G02X344275Y234013I4226D01*
G01*
X338522*
G75*
G02X340625Y230359I-2123J-3654*
G01*
X342172*
G37*
Y240359D02*
G36*
X340995D01*
G75*
G02X339486Y236954I-4598J0*
G01*
X343894*
G75*
G02X342172Y240359I2504J3405*
G01*
G37*
X352172Y230359D02*
G36*
G75*
G02X354275Y234013I4226D01*
G01*
X348522*
G75*
G02X350625Y230359I-2123J-3654*
G01*
X352172*
G37*
X351802Y240359D02*
G36*
X350625D01*
G75*
G02X348902Y236954I-4226*
G01*
X353311*
G75*
G02X351802Y240359I3087J3404*
G01*
Y240359*
G37*
X362172Y230359D02*
G36*
G75*
G02X364275Y234013I4226D01*
G01*
X358522*
G75*
G02X360625Y230359I-2123J-3654*
G01*
X362172*
G37*
X361802Y240359D02*
G36*
X360995D01*
G75*
G02X359486Y236954I-4598J0*
G01*
X363311*
G75*
G02X361802Y240359I3087J3404*
G01*
Y240359*
G37*
X381229Y230359D02*
G36*
X377575Y234013D01*
X368522*
G75*
G02X370625Y230359I-2123J-3654*
G01*
X381229*
G37*
X405094Y240359D02*
G36*
X370995D01*
G75*
G02X369486Y236954I-4598J0*
G01*
X378184*
G75*
G02X379226Y236522I0J-1470*
G01*
X385389Y230359*
X409680*
G75*
G02X405093Y240218I8300J9859*
G01*
G75*
G02X405094Y240359I12900J-2*
G01*
G37*
X429829Y235148D02*
G36*
G75*
G02X426281Y230359I-11848J5070D01*
G01*
X429829*
Y235148*
G37*
X413108Y252149D02*
G36*
X253562D01*
G75*
G02X261576Y240359I-4873J-11931*
G01*
X272172*
G75*
G02X280625I4226*
G01*
X282172*
G75*
G02X290625I4226*
G01*
X292172*
G75*
G02X300625I4226*
G01*
X301802*
G75*
G02X310995I4596*
G01*
X311802*
G75*
G02X320995I4596*
G01*
X321802*
G75*
G02X330995I4596*
G01*
X331802*
G75*
G02X340995I4596*
G01*
X342172*
G75*
G02X350625I4226*
G01*
X351802*
G75*
G02X360995I4596*
G01*
X361802*
G75*
G02X370995I4596*
G01*
X405094*
G75*
G02X413108Y252149I12887J-141*
G01*
G37*
D02*
D71*
X45946Y66045D02*
X43946D01*
X46320Y121045D02*
X44320D01*
X46320Y176045D02*
X44320D01*
X48793Y63198D02*
Y61198D01*
Y68891D02*
Y70891D01*
X49167Y118198D02*
Y116198D01*
Y123891D02*
Y125891D01*
Y173198D02*
Y171198D01*
Y178891D02*
Y180891D01*
X51639Y66045D02*
X53639D01*
X52013Y121045D02*
X54013D01*
X52013Y176045D02*
X54013D01*
X69181Y206779D02*
X67181D01*
X70354Y205409D02*
Y203409D01*
Y208149D02*
Y210149D01*
X71527Y206779D02*
X73528D01*
X75725Y67374D02*
X73725D01*
X76721Y64774D02*
Y62773D01*
Y69974D02*
Y71974D01*
X81721Y64774D02*
Y62773D01*
Y69974D02*
Y71974D01*
X86702Y230359D02*
X84702D01*
X86721Y64774D02*
Y62773D01*
Y69974D02*
Y71974D01*
X89548Y227513D02*
Y225513D01*
Y233206D02*
Y235206D01*
X91721Y64774D02*
Y62773D01*
Y69974D02*
Y71974D01*
X92394Y230359D02*
X94394D01*
X96721Y64774D02*
Y62773D01*
Y69974D02*
Y71974D01*
X101721Y64774D02*
Y62773D01*
Y69974D02*
Y71974D01*
X106000Y38045D02*
X104000D01*
X106702Y240359D02*
X104702D01*
X106721Y64774D02*
Y62773D01*
Y69974D02*
Y71974D01*
X107640Y172773D02*
X105786Y170919D01*
X107640Y173641D02*
X105787Y175494D01*
X108508Y172773D02*
X110362Y170919D01*
X108508Y173641D02*
X110361Y175494D01*
X108846Y35199D02*
Y33199D01*
Y40892D02*
Y42892D01*
X109548Y237513D02*
Y235513D01*
Y243206D02*
Y245206D01*
X110724Y160856D02*
X108725D01*
X111693Y38045D02*
X113693D01*
X111721Y64774D02*
Y62773D01*
Y69974D02*
Y71974D01*
X112193Y160076D02*
Y158076D01*
Y161635D02*
Y163635D01*
X112394Y240359D02*
X114394D01*
X112717Y67374D02*
X114717D01*
X113661Y160856D02*
X115662D01*
X116702Y240359D02*
X114702D01*
X119548Y243206D02*
Y245206D01*
X122394Y240359D02*
X124394D01*
X123206Y155834D02*
X125205D01*
X126011Y131648D02*
X124012D01*
X126702Y240359D02*
X124702D01*
X126791Y130179D02*
Y128179D01*
Y133116D02*
Y135116D01*
X127570Y131648D02*
X129571D01*
X129548Y243206D02*
Y245206D01*
X130598Y137730D02*
Y135730D01*
Y142537D02*
Y144537D01*
Y187718D02*
Y189718D01*
X132394Y240359D02*
X134394D01*
X136702D02*
X134702D01*
X139548Y243206D02*
Y245206D01*
X142394Y240359D02*
X144394D01*
X151582Y41861D02*
X149582D01*
X151582Y51861D02*
X149582D01*
X154429Y39014D02*
Y37014D01*
Y44707D02*
Y46707D01*
Y49014D02*
Y47014D01*
X156189Y137730D02*
Y135730D01*
Y142537D02*
Y144537D01*
X156622Y127215D02*
Y129214D01*
X156702Y240359D02*
X154702D01*
X157122Y95523D02*
X155122D01*
X157250Y85660D02*
Y83659D01*
X157902Y96992D02*
Y98992D01*
X158681Y95523D02*
X160681D01*
X158859Y125923D02*
X160859D01*
X159548Y243206D02*
Y245206D01*
X162394Y240359D02*
X164394D01*
X163580Y175519D02*
X161579D01*
X166702Y240359D02*
X164702D01*
X168383Y62326D02*
X166382D01*
X169548Y243206D02*
Y245206D01*
X169852Y61546D02*
Y59545D01*
Y63106D02*
Y65104D01*
X171320Y62326D02*
X173319D01*
X172394Y240359D02*
X174394D01*
X178591Y73834D02*
X176591D01*
X179961Y72661D02*
Y70661D01*
Y75007D02*
Y77007D01*
X181331Y73834D02*
X183331D01*
X186578Y73709D02*
X184579D01*
X187948Y72536D02*
Y70537D01*
Y74883D02*
Y76883D01*
X189318Y73709D02*
X191319D01*
X194940Y73460D02*
X192941D01*
X196310Y72287D02*
Y70285D01*
Y74633D02*
Y76631D01*
X197680Y73460D02*
X199681D01*
X203426Y73585D02*
X201426D01*
X204796Y72411D02*
Y70411D01*
Y74758D02*
Y76757D01*
X206167Y73585D02*
X208166D01*
X222667Y206304D02*
X220667D01*
X223291Y153387D02*
X221291D01*
X223541Y99098D02*
X221541D01*
X225514Y203457D02*
Y201457D01*
Y209150D02*
Y211150D01*
X226138Y150541D02*
Y148541D01*
Y156233D02*
Y158233D01*
X226387Y96251D02*
Y94251D01*
Y101944D02*
Y103944D01*
X228360Y206304D02*
X230360D01*
X228984Y153387D02*
X230984D01*
X229234Y99098D02*
X231234D01*
X242796Y66045D02*
X240796D01*
X243171Y121045D02*
X241171D01*
X243171Y176045D02*
X241171D01*
X245643Y63198D02*
Y61198D01*
Y68891D02*
Y70891D01*
X246017Y118198D02*
Y116198D01*
Y123891D02*
Y125891D01*
Y173198D02*
Y171198D01*
Y178891D02*
Y180891D01*
X248489Y66045D02*
X250489D01*
X248864Y121045D02*
X250864D01*
X248864Y176045D02*
X250864D01*
X266031Y206779D02*
X264032D01*
X267204Y205409D02*
Y203409D01*
Y208149D02*
Y210149D01*
X268378Y206779D02*
X270378D01*
X272575Y67374D02*
X270575D01*
X273571Y64774D02*
Y62773D01*
Y69974D02*
Y71974D01*
X278571Y64774D02*
Y62773D01*
Y69974D02*
Y71974D01*
X283552Y230359D02*
X281552D01*
X283571Y64774D02*
Y62773D01*
Y69974D02*
Y71974D01*
X286398Y227513D02*
Y225513D01*
Y233206D02*
Y235206D01*
X288571Y64774D02*
Y62773D01*
Y69974D02*
Y71974D01*
X289245Y230359D02*
X291245D01*
X293571Y64774D02*
Y62773D01*
Y69974D02*
Y71974D01*
X298571Y64774D02*
Y62773D01*
Y69974D02*
Y71974D01*
X302850Y38045D02*
X300850D01*
X303552Y240359D02*
X301552D01*
X303571Y64774D02*
Y62773D01*
Y69974D02*
Y71974D01*
X304491Y172773D02*
X302636Y170919D01*
X304491Y173641D02*
X302638Y175494D01*
X305358Y172773D02*
X307213Y170919D01*
X305358Y173641D02*
X307211Y175494D01*
X305697Y35199D02*
Y33199D01*
Y40892D02*
Y42892D01*
X306398Y237513D02*
Y235513D01*
Y243206D02*
Y245206D01*
X307574Y160856D02*
X305575D01*
X308543Y38045D02*
X310543D01*
X308571Y64774D02*
Y62773D01*
Y69974D02*
Y71974D01*
X309043Y160076D02*
Y158076D01*
Y161635D02*
Y163635D01*
X309245Y240359D02*
X311245D01*
X309567Y67374D02*
X311567D01*
X310511Y160856D02*
X312512D01*
X313552Y240359D02*
X311552D01*
X316398Y243206D02*
Y245206D01*
X319245Y240359D02*
X321245D01*
X320057Y155834D02*
X322056D01*
X322861Y131648D02*
X320863D01*
X323552Y240359D02*
X321552D01*
X323641Y130179D02*
Y128179D01*
Y133116D02*
Y135116D01*
X324420Y131648D02*
X326422D01*
X326398Y243206D02*
Y245206D01*
X327448Y137730D02*
Y135730D01*
Y142537D02*
Y144537D01*
Y187718D02*
Y189718D01*
X329245Y240359D02*
X331245D01*
X333552D02*
X331552D01*
X336398Y243206D02*
Y245206D01*
X339245Y240359D02*
X341245D01*
X348433Y41861D02*
X346433D01*
X348433Y51861D02*
X346433D01*
X351279Y39014D02*
Y37014D01*
Y44707D02*
Y46707D01*
Y49014D02*
Y47014D01*
X353039Y137730D02*
Y135730D01*
Y142537D02*
Y144537D01*
X353473Y127215D02*
Y129214D01*
X353552Y240359D02*
X351552D01*
X353973Y95523D02*
X351973D01*
X354101Y85660D02*
Y83659D01*
X354752Y96992D02*
Y98992D01*
X355532Y95523D02*
X357532D01*
X355709Y125923D02*
X357709D01*
X356398Y243206D02*
Y245206D01*
X359245Y240359D02*
X361245D01*
X360431Y175519D02*
X358430D01*
X363552Y240359D02*
X361552D01*
X365233Y62326D02*
X363233D01*
X366398Y243206D02*
Y245206D01*
X366702Y61546D02*
Y59545D01*
Y63106D02*
Y65104D01*
X368170Y62326D02*
X370170D01*
X369245Y240359D02*
X371245D01*
X375441Y73834D02*
X373441D01*
X376811Y72661D02*
Y70661D01*
Y75007D02*
Y77007D01*
X378181Y73834D02*
X380181D01*
X383428Y73709D02*
X381430D01*
X384798Y72536D02*
Y70537D01*
Y74883D02*
Y76883D01*
X386169Y73709D02*
X388170D01*
X391790Y73460D02*
X389792D01*
X393160Y72287D02*
Y70285D01*
Y74633D02*
Y76631D01*
X394530Y73460D02*
X396532D01*
X400277Y73585D02*
X398276D01*
X401647Y72411D02*
Y70411D01*
Y74758D02*
Y76757D01*
X403017Y73585D02*
X405016D01*
X419518Y206304D02*
X417518D01*
X420142Y153387D02*
X418142D01*
X420391Y99098D02*
X418391D01*
X422364Y203457D02*
Y201457D01*
Y209150D02*
Y211150D01*
X422988Y150541D02*
Y148541D01*
Y156233D02*
Y158233D01*
X423238Y96251D02*
Y94251D01*
Y101944D02*
Y103944D01*
X425211Y206304D02*
X427211D01*
X425835Y153387D02*
X427835D01*
X426084Y99098D02*
X428084D01*
D02*
D22*
X78870Y186045D03*
X88534Y183067D03*
X94346Y147747D03*
X97715Y140133D03*
X104704Y154861D03*
X113916Y165326D03*
X132342Y125532D03*
X134158Y207528D03*
X138472Y208909D03*
X143144Y198909D03*
X152252Y116921D03*
X174220Y173956D03*
X177589Y125532D03*
X178640Y171335D03*
X179836Y157856D03*
X180460Y85720D03*
X182706Y136141D03*
X188322Y161351D03*
X188572Y86219D03*
X190943Y121039D03*
X195561Y125407D03*
X196310Y85720D03*
X204048Y171252D03*
X204796Y85523D03*
X275720Y186045D03*
X285384Y183067D03*
X291196Y147747D03*
X294566Y140133D03*
X301555Y154861D03*
X310766Y165326D03*
X329192Y125532D03*
X331008Y207528D03*
X335322Y208909D03*
X339994Y198909D03*
X349102Y116921D03*
X371070Y173956D03*
X374440Y125532D03*
X375491Y171335D03*
X376686Y157856D03*
X377310Y85720D03*
X379557Y136141D03*
X385173Y161351D03*
X385422Y86219D03*
X387794Y121039D03*
X392411Y125407D03*
X393160Y85720D03*
X400898Y171252D03*
X401647Y85523D03*
D02*
D23*
X51839Y40218D03*
Y240218D03*
X221130Y40218D03*
Y240218D03*
X248689Y40218D03*
Y240218D03*
X417981Y40218D03*
Y240218D03*
D02*
D24*
X147250Y66853D03*
Y88113D03*
X152250Y66853D03*
Y88113D03*
X157250Y66853D03*
Y88113D03*
X162250Y66853D03*
Y88113D03*
X344101Y66853D03*
Y88113D03*
X349101Y66853D03*
Y88113D03*
X354101Y66853D03*
Y88113D03*
X359101Y66853D03*
Y88113D03*
D02*
D25*
X87852Y207528D03*
X93403D03*
X126791Y131648D03*
X132342D03*
X152351Y95523D03*
X157902D03*
X284702Y207528D03*
X290254D03*
X323641Y131648D03*
X329192D03*
X349201Y95523D03*
X354752D03*
D02*
D26*
X112193Y155304D03*
Y160856D03*
X169852Y62326D03*
Y67877D03*
X309043Y155304D03*
Y160856D03*
X366702Y62326D03*
Y67877D03*
D02*
D29*
X179961Y73834D03*
Y80133D03*
X187948Y73709D03*
Y80009D03*
X196310Y73460D03*
Y79759D03*
X204796Y73585D03*
Y79884D03*
X376811Y73834D03*
Y80133D03*
X384798Y73709D03*
Y80009D03*
X393160Y73460D03*
Y79759D03*
X401647Y73585D03*
Y79884D03*
D02*
D72*
X156622Y125923D03*
Y132380D03*
X353473Y125923D03*
Y132380D03*
D02*
D73*
X108074Y168483D03*
Y173207D03*
Y177931D03*
X304924Y168483D03*
Y173207D03*
Y177931D03*
D02*
D74*
X48793Y66045D03*
Y76045D03*
Y86045D03*
Y96045D03*
X49167Y121045D03*
Y131045D03*
Y141045D03*
Y151045D03*
Y176045D03*
Y186045D03*
Y196045D03*
Y206045D03*
X78846Y38045D03*
X79548Y230359D03*
Y240359D03*
X88846Y38045D03*
X89548Y230359D03*
Y240359D03*
X98846Y38045D03*
X99548Y230359D03*
Y240359D03*
X108846Y38045D03*
X109548Y230359D03*
Y240359D03*
X119548Y230359D03*
Y240359D03*
X129548Y230359D03*
Y240359D03*
X139548Y230359D03*
Y240359D03*
X144429Y41861D03*
Y51861D03*
X149548Y230359D03*
Y240359D03*
X154429Y41861D03*
Y51861D03*
X159548Y230359D03*
Y240359D03*
X164429Y41861D03*
Y51861D03*
X169548Y230359D03*
Y240359D03*
X174429Y41861D03*
Y51861D03*
X184429Y41861D03*
Y51861D03*
X225514Y176304D03*
Y186304D03*
Y196304D03*
Y206304D03*
X226138Y123387D03*
Y133387D03*
Y143387D03*
Y153387D03*
X226387Y69098D03*
Y79098D03*
Y89098D03*
Y99098D03*
X245643Y66045D03*
Y76045D03*
Y86045D03*
Y96045D03*
X246017Y121045D03*
Y131045D03*
Y141045D03*
Y151045D03*
Y176045D03*
Y186045D03*
Y196045D03*
Y206045D03*
X275697Y38045D03*
X276398Y230359D03*
Y240359D03*
X285697Y38045D03*
X286398Y230359D03*
Y240359D03*
X295697Y38045D03*
X296398Y230359D03*
Y240359D03*
X305697Y38045D03*
X306398Y230359D03*
Y240359D03*
X316398Y230359D03*
Y240359D03*
X326398Y230359D03*
Y240359D03*
X336398Y230359D03*
Y240359D03*
X341279Y41861D03*
Y51861D03*
X346398Y230359D03*
Y240359D03*
X351279Y41861D03*
Y51861D03*
X356398Y230359D03*
Y240359D03*
X361279Y41861D03*
Y51861D03*
X366398Y230359D03*
Y240359D03*
X371279Y41861D03*
Y51861D03*
X381279Y41861D03*
Y51861D03*
X422364Y176304D03*
Y186304D03*
Y196304D03*
Y206304D03*
X422988Y123387D03*
Y133387D03*
Y143387D03*
Y153387D03*
X423238Y69098D03*
Y79098D03*
Y89098D03*
Y99098D03*
D02*
D77*
X72755Y167591D03*
X76624Y131523D03*
X110445Y188683D03*
X124423Y189931D03*
X130289Y84472D03*
X130663Y150493D03*
Y156359D03*
Y162100D03*
Y167965D03*
Y174580D03*
X133783Y84472D03*
X134407Y80229D03*
X134657Y88591D03*
X136904Y150493D03*
Y156359D03*
Y162100D03*
Y167965D03*
Y174580D03*
X137528Y80104D03*
X137902Y88715D03*
X140523Y80229D03*
X140897Y88715D03*
X142644Y150493D03*
Y156359D03*
Y162100D03*
Y167965D03*
Y174580D03*
X148635Y74613D03*
Y78981D03*
X148760Y150493D03*
Y156359D03*
Y162100D03*
Y167965D03*
Y174580D03*
X152379Y74613D03*
X152504Y78981D03*
X154626Y150493D03*
Y156359D03*
Y162100D03*
Y167965D03*
Y174580D03*
X155998Y74488D03*
Y78981D03*
X159618D03*
X159743Y74488D03*
X199555Y53895D03*
X203424Y222255D03*
X219024Y131772D03*
X269605Y167591D03*
X273474Y131523D03*
X307296Y188683D03*
X321274Y189931D03*
X327139Y84472D03*
X327514Y150493D03*
Y156359D03*
Y162100D03*
Y167965D03*
Y174580D03*
X330634Y84472D03*
X331258Y80229D03*
X331507Y88591D03*
X333754Y150493D03*
Y156359D03*
Y162100D03*
Y167965D03*
Y174580D03*
X334378Y80104D03*
X334752Y88715D03*
X337373Y80229D03*
X337748Y88715D03*
X339495Y150493D03*
Y156359D03*
Y162100D03*
Y167965D03*
Y174580D03*
X345485Y74613D03*
Y78981D03*
X345610Y150493D03*
Y156359D03*
Y162100D03*
Y167965D03*
Y174580D03*
X349230Y74613D03*
X349354Y78981D03*
X351476Y150493D03*
Y156359D03*
Y162100D03*
Y167965D03*
Y174580D03*
X352849Y74488D03*
Y78981D03*
X356468D03*
X356593Y74488D03*
X396405Y53895D03*
X400274Y222255D03*
X415874Y131772D03*
D02*
D93*
X70354Y206779D03*
X76653D03*
X267204D03*
X273504D03*
D02*
D118*
X120803Y147960D03*
Y149928D03*
Y151897D03*
Y153865D03*
Y155834D03*
Y157802D03*
Y159771D03*
Y161739D03*
Y163708D03*
Y165676D03*
Y167645D03*
Y169613D03*
Y171582D03*
Y173550D03*
Y175519D03*
Y177487D03*
X165984Y147960D03*
Y149928D03*
Y151897D03*
Y153865D03*
Y155834D03*
Y157802D03*
Y159771D03*
Y161739D03*
Y163708D03*
Y165676D03*
Y167645D03*
Y169613D03*
Y171582D03*
Y173550D03*
Y175519D03*
Y177487D03*
X317653Y147960D03*
Y149928D03*
Y151897D03*
Y153865D03*
Y155834D03*
Y157802D03*
Y159771D03*
Y161739D03*
Y163708D03*
Y165676D03*
Y167645D03*
Y169613D03*
Y171582D03*
Y173550D03*
Y175519D03*
Y177487D03*
X362834Y147960D03*
Y149928D03*
Y151897D03*
Y153865D03*
Y155834D03*
Y157802D03*
Y159771D03*
Y161739D03*
Y163708D03*
Y165676D03*
Y167645D03*
Y169613D03*
Y171582D03*
Y173550D03*
Y175519D03*
Y177487D03*
D02*
D119*
X128630Y140133D03*
Y185314D03*
X130598Y140133D03*
Y185314D03*
X132567Y140133D03*
Y185314D03*
X134535Y140133D03*
Y185314D03*
X136504Y140133D03*
Y185314D03*
X138472Y140133D03*
Y185314D03*
X140441Y140133D03*
Y185314D03*
X142409Y140133D03*
Y185314D03*
X144378Y140133D03*
Y185314D03*
X146346Y140133D03*
Y185314D03*
X148315Y140133D03*
Y185314D03*
X150283Y140133D03*
Y185314D03*
X152252Y140133D03*
Y185314D03*
X154220Y140133D03*
Y185314D03*
X156189Y140133D03*
Y185314D03*
X158157Y140133D03*
Y185314D03*
X325480Y140133D03*
Y185314D03*
X327448Y140133D03*
Y185314D03*
X329417Y140133D03*
Y185314D03*
X331385Y140133D03*
Y185314D03*
X333354Y140133D03*
Y185314D03*
X335322Y140133D03*
Y185314D03*
X337291Y140133D03*
Y185314D03*
X339259Y140133D03*
Y185314D03*
X341228Y140133D03*
Y185314D03*
X343196Y140133D03*
Y185314D03*
X345165Y140133D03*
Y185314D03*
X347133Y140133D03*
Y185314D03*
X349102Y140133D03*
Y185314D03*
X351070Y140133D03*
Y185314D03*
X353039Y140133D03*
Y185314D03*
X355007Y140133D03*
Y185314D03*
D02*
D120*
X76721Y67374D03*
Y98575D03*
X81721Y67374D03*
Y98575D03*
X86721Y67374D03*
Y98575D03*
X91721Y67374D03*
Y98575D03*
X96721Y67374D03*
Y98575D03*
X101721Y67374D03*
Y98575D03*
X106721Y67374D03*
Y98575D03*
X111721Y67374D03*
Y98575D03*
X273571Y67374D03*
Y98575D03*
X278571Y67374D03*
Y98575D03*
X283571Y67374D03*
Y98575D03*
X288571Y67374D03*
Y98575D03*
X293571Y67374D03*
Y98575D03*
X298571Y67374D03*
Y98575D03*
X303571Y67374D03*
Y98575D03*
X308571Y67374D03*
Y98575D03*
D02*
D121*
X48793Y76045D02*
X48543D01*
X42053Y82535*
Y199291*
X44175Y201413*
X115687*
X48793Y86045D02*
X49042D01*
X56530Y93533*
Y115298*
X63769Y122537*
X133035*
X136504Y126006*
Y140133*
X49167Y141045D02*
X56406D01*
X67139Y151778*
Y151897*
X120803*
X49167Y186045D02*
X78870D01*
X49167Y196045D02*
X110320D01*
X111567Y194798*
X111693*
X126794Y179697*
X148037*
X150283Y181943*
Y185314*
X76721Y98575D02*
Y101320D01*
X92072Y116671*
X136529*
X142409Y122551*
Y140133*
X81721Y98575D02*
Y101570D01*
X94825Y114674*
X137403*
X144378Y121649*
Y140133*
X86721Y98575D02*
Y101695D01*
X97704Y112678*
X138526*
X146346Y120498*
Y140133*
X87852Y207528D02*
X76653D01*
Y206779*
X91721Y98575D02*
Y101820D01*
X100582Y110681*
X139524*
X148315Y119471*
Y140133*
X94346Y147747D02*
X120803D01*
Y147960*
X96721Y98575D02*
Y101820D01*
X103460Y108559*
X140024*
X150283Y118819*
Y140133*
X97715D02*
X128630D01*
X99548Y230359D02*
Y230281D01*
X106701Y223128*
X122676*
X132660Y213144*
X138276*
X146346Y205074*
Y185314*
X101721Y98575D02*
Y101695D01*
X106713Y106687*
X145267*
X165984Y127404*
Y147960*
X106721Y98575D02*
Y101695D01*
X109591Y104565*
X146389*
X173221Y131398*
Y146374*
X169667Y149928*
X165984*
X108074Y168483D02*
Y167645D01*
X120803*
X108074Y177931D02*
X112317D01*
X114689Y175560*
Y172084*
X117159Y169613*
X120803*
X109548Y230359D02*
Y231615D01*
X113417Y235484*
X181333*
X187574Y229244*
Y191023*
X170101Y173550*
X165984*
X111721Y98575D02*
Y101695D01*
X146638*
X176591Y131648*
Y146000*
X170694Y151897*
X165984*
X112193Y155304D02*
Y154986D01*
X112442*
Y154736*
X108573*
Y154861*
X104704*
X113916Y165326D02*
Y165661D01*
X120803*
Y165676*
X119548Y230359D02*
X119556D01*
X130281Y219634*
X134782*
X158157Y196259*
Y185314*
X120803Y149928D02*
X75560D01*
X56676Y131045*
X49167*
X120803Y153865D02*
X116561D01*
Y153987*
X115812Y154736*
X112442*
X120803Y177487D02*
X116436D01*
Y177700*
X111069Y183067*
X88534*
X132342Y125532D02*
Y131648D01*
X132535*
Y140133*
X132567*
Y185314D02*
Y198511D01*
X129665Y201413*
X115687*
X134535Y185314D02*
Y202034D01*
X129041Y207528*
X93403*
X136504Y185314D02*
Y205182D01*
X134158Y207528*
X138472Y140133D02*
X138526D01*
Y124534*
X134657Y120665*
X66390*
X58652Y112927*
Y63630*
X73004Y49278*
X87981*
X88846Y48412*
Y38045*
X138472Y185314D02*
Y208909D01*
X140441Y140133D02*
Y123703D01*
X135281Y118543*
X67887*
X62022Y112678*
Y66126*
X74003Y54145*
X92981*
X98846Y48279*
Y38045*
X140441Y185314D02*
Y196420D01*
X142929Y198909*
X143144*
X152250Y66853D02*
Y57889D01*
X159243*
Y41861*
X164429*
X152250Y88113D02*
Y95523D01*
X152351*
X152252Y116921D02*
Y140133D01*
X156622Y132380D02*
X154220D01*
Y140133*
X157250Y66853D02*
Y60385D01*
X164429*
Y51861*
X165984Y155834D02*
X170304D01*
X171100Y155038*
Y154972*
X172334Y153738*
X172348*
X203174Y122911*
Y102194*
X226270Y79098*
X226387*
X165984Y157802D02*
X172016D01*
X173845Y155973*
Y155966*
X174202Y155610*
X174344*
X206793Y123161*
Y108567*
X226263Y89098*
X226387*
X165984Y159771D02*
X177931D01*
X179836Y157867*
Y157856*
X165984Y161739D02*
X188322D01*
Y161351*
X165984Y163708D02*
X185327D01*
Y163784*
X187636Y166093*
X215654*
Y142755*
X225022Y133387*
X226138*
X165984Y165676D02*
X182956D01*
Y165779*
X185392Y168215*
X218899*
Y149494*
X225007Y143387*
X226138*
X165984Y167645D02*
X180904D01*
Y167689*
X184467Y171252*
X204048*
X165984Y169613D02*
X170575D01*
X170600Y169588*
X173471*
X175218Y171335*
X178640*
X165984Y171582D02*
X171973D01*
X174220Y173828*
Y173956*
X169852Y67877D02*
X162613D01*
Y66853*
X162250*
X177589Y125532D02*
X192191D01*
Y125407*
X195561*
X179961Y80133D02*
X180460D01*
Y85720*
X182706Y136141D02*
X182581D01*
Y133894*
X162488Y113801*
X162476*
X147250Y98575*
Y88113*
X187948Y80009D02*
X188572D01*
Y86219*
X190943Y121039D02*
Y96079D01*
X169489*
X162250Y88840*
Y88113*
X196310Y85720D02*
Y79759D01*
X204796Y85523D02*
Y79884D01*
X245643Y76045D02*
X245393D01*
X238904Y82535*
Y199291*
X241025Y201413*
X312537*
X245643Y86045D02*
X245893D01*
X253381Y93533*
Y115298*
X260619Y122537*
X329885*
X333354Y126006*
Y140133*
X246017Y141045D02*
X253256D01*
X263989Y151778*
Y151897*
X317653*
X246017Y186045D02*
X275720D01*
X246017Y196045D02*
X307171D01*
X308418Y194798*
X308544*
X323645Y179697*
X344887*
X347133Y181943*
Y185314*
X273571Y98575D02*
Y101320D01*
X288922Y116671*
X333380*
X339259Y122551*
Y140133*
X278571Y98575D02*
Y101570D01*
X291676Y114674*
X334253*
X341228Y121649*
Y140133*
X283571Y98575D02*
Y101695D01*
X294554Y112678*
X335376*
X343196Y120498*
Y140133*
X284702Y207528D02*
X273504D01*
Y206779*
X288571Y98575D02*
Y101820D01*
X297432Y110681*
X336375*
X345165Y119471*
Y140133*
X291196Y147747D02*
X317653D01*
Y147960*
X293571Y98575D02*
Y101820D01*
X300311Y108559*
X336874*
X347133Y118819*
Y140133*
X294566D02*
X325480D01*
X296398Y230359D02*
Y230281D01*
X303552Y223128*
X319526*
X329511Y213144*
X335127*
X343196Y205074*
Y185314*
X298571Y98575D02*
Y101695D01*
X303563Y106687*
X342117*
X362834Y127404*
Y147960*
X303571Y98575D02*
Y101695D01*
X306442Y104565*
X343239*
X370072Y131398*
Y146374*
X366518Y149928*
X362834*
X304924Y168483D02*
Y167645D01*
X317653*
X304924Y177931D02*
X309168D01*
X311539Y175560*
Y172084*
X314009Y169613*
X317653*
X306398Y230359D02*
Y231615D01*
X310267Y235484*
X378184*
X384424Y229244*
Y191023*
X366952Y173550*
X362834*
X308571Y98575D02*
Y101695D01*
X343489*
X373441Y131648*
Y146000*
X367544Y151897*
X362834*
X309043Y155304D02*
Y154986D01*
X309293*
Y154736*
X305424*
Y154861*
X301555*
X310766Y165326D02*
Y165661D01*
X317653*
Y165676*
X316398Y230359D02*
X316406D01*
X327131Y219634*
X331632*
X355007Y196259*
Y185314*
X317653Y149928D02*
X272410D01*
X253527Y131045*
X246017*
X317653Y153865D02*
X313411D01*
Y153987*
X312662Y154736*
X309293*
X317653Y177487D02*
X313286D01*
Y177700*
X307920Y183067*
X285384*
X329192Y125532D02*
Y131648D01*
X329386*
Y140133*
X329417*
Y185314D02*
Y198511D01*
X326515Y201413*
X312537*
X331385Y185314D02*
Y202034D01*
X325891Y207528*
X290254*
X333354Y185314D02*
Y205182D01*
X331008Y207528*
X335322Y140133D02*
X335376D01*
Y124534*
X331507Y120665*
X263240*
X255502Y112927*
Y63630*
X269855Y49278*
X284831*
X285697Y48412*
Y38045*
X335322Y185314D02*
Y208909D01*
X337291Y140133D02*
Y123703D01*
X332131Y118543*
X264738*
X258872Y112678*
Y66126*
X270853Y54145*
X289831*
X295697Y48279*
Y38045*
X337291Y185314D02*
Y196420D01*
X339779Y198909*
X339994*
X349101Y66853D02*
Y57889D01*
X356094*
Y41861*
X361279*
X349101Y88113D02*
Y95523D01*
X349201*
X349102Y116921D02*
Y140133D01*
X353473Y132380D02*
X351070D01*
Y140133*
X354101Y66853D02*
Y60385D01*
X361279*
Y51861*
X362834Y155834D02*
X367154D01*
X367950Y155038*
Y154972*
X369184Y153738*
X369198*
X400024Y122911*
Y102194*
X423121Y79098*
X423238*
X362834Y157802D02*
X368867D01*
X370696Y155973*
Y155966*
X371052Y155610*
X371195*
X403644Y123161*
Y108567*
X423113Y89098*
X423238*
X362834Y159771D02*
X374782D01*
X376686Y157867*
Y157856*
X362834Y161739D02*
X385173D01*
Y161351*
X362834Y163708D02*
X382178D01*
Y163784*
X384487Y166093*
X412505*
Y142755*
X421873Y133387*
X422988*
X362834Y165676D02*
X379806D01*
Y165779*
X382242Y168215*
X415750*
Y149494*
X421857Y143387*
X422988*
X362834Y167645D02*
X377754D01*
Y167689*
X381317Y171252*
X400898*
X362834Y169613D02*
X367425D01*
X367451Y169588*
X370321*
X372069Y171335*
X375491*
X362834Y171582D02*
X368824D01*
X371070Y173828*
Y173956*
X366702Y67877D02*
X359463D01*
Y66853*
X359101*
X374440Y125532D02*
X389042D01*
Y125407*
X392411*
X376811Y80133D02*
X377310D01*
Y85720*
X379557Y136141D02*
X379432D01*
Y133894*
X359339Y113801*
X359327*
X344101Y98575*
Y88113*
X384798Y80009D02*
X385422D01*
Y86219*
X387794Y121039D02*
Y96079D01*
X366339*
X359101Y88840*
Y88113*
X393160Y85720D02*
Y79759D01*
X401647Y85523D02*
Y79884D01*
D02*
D122*
X163112Y102194D03*
X359963D03*
D02*
D123*
X163112D02*
Y102004D01*
X155309*
X152351Y99046*
Y95523*
X359963Y102194D02*
Y102004D01*
X352159*
X349201Y99046*
Y95523*
X0Y0D02*
M02*
