G04 EasyPC Gerber Version 21.0.3 Build 4286 *
G04 #@! TF.Part,Single*
G04 #@! TF.FileFunction,Copper,L2,Bot *
G04 #@! TF.FilePolarity,Positive *
%FSLAX45Y45*%
%MOIN*%
G04 #@! TA.AperFunction,SMDPad*
%ADD25R,0.02559X0.03937*%
G04 #@! TD.AperFunction*
%ADD70C,0.00500*%
%ADD71C,0.01000*%
%ADD121C,0.01181*%
%ADD22C,0.01575*%
G04 #@! TA.AperFunction,ViaPad*
%ADD77C,0.02362*%
G04 #@! TD.AperFunction*
%ADD123C,0.03150*%
G04 #@! TA.AperFunction,ViaPad*
%ADD122C,0.05600*%
G04 #@! TA.AperFunction,ComponentPad*
%ADD74C,0.06693*%
G04 #@! TA.AperFunction,WasherPad*
%ADD23C,0.24016*%
G04 #@! TA.AperFunction,SMDPad*
%ADD26R,0.03937X0.02559*%
%ADD127R,0.04134X0.02559*%
X0Y0D02*
D02*
D70*
X233229Y235777D02*
G75*
G02X208243Y240218I-12098J4441D01*
G01*
G75*
G02X216921Y252399I12888*
G01*
X56048*
G75*
G02X51839Y227330I-4209J-12181*
G01*
G75*
G02X39741Y235777I0J12888*
G01*
Y44659*
G75*
G02X64727Y40218I12098J-4441*
G01*
G75*
G02X56280Y28120I-12888J0*
G01*
X216689*
G75*
G02X221130Y53106I4441J12098*
G01*
G75*
G02X233229Y44659I0J-12888*
G01*
Y235777*
X220917Y206304D02*
G75*
G02X230110I4596D01*
G01*
G75*
G02X220917I-4596*
G01*
X192414Y121825D02*
G75*
G02X189793Y119833I-1470J-786D01*
G01*
Y98545*
X191170*
Y94226*
X185473*
Y98545*
X186852*
Y160565*
G75*
G02X189473Y162557I1470J786*
G01*
Y162988*
X179976Y172485*
X179847*
G75*
G02X180111Y170549I-1207J-1150*
G01*
Y166276*
X183744Y162642*
G75*
G02X184177Y161600I-1038J-1041*
G01*
Y136926*
G75*
G02X181306Y135235I-1470J-786*
G01*
Y98793*
X183559*
Y94474*
X177863*
Y98793*
X178365*
Y124057*
G75*
G02X176804Y124062I-776J1476*
G01*
X171752*
Y113053*
G75*
G02X170282Y111582I-1470*
G01*
X150298*
X134130Y95415*
G75*
G02X133089Y94984I-1040J1040*
G01*
X133004*
Y93604*
X132315*
Y90537*
X133398*
Y86218*
X127504*
Y90537*
X129374*
Y93604*
X128685*
Y99301*
X133004*
Y98448*
X148650Y114093*
G75*
G02X149691Y114523I1040J-1040*
G01*
X168811*
Y124062*
X133128*
G75*
G02X131620Y124029I-786J1470*
G01*
X104704*
G75*
G02X104006Y124187J1628*
G01*
X99517*
G75*
G02X98475Y124619I0J1470*
G01*
X87496Y135598*
G75*
G02X87063Y136640I1038J1041*
G01*
Y182281*
G75*
G02X86906Y183427I1471J786*
G01*
Y200687*
X78395Y209249*
G75*
G02X77920Y210398I1153J1150*
G01*
Y226459*
G75*
G02X78078Y234321I1628J3900*
G01*
Y236397*
G75*
G02X75322Y240359I1470J3962*
G01*
G75*
G02X83774I4226*
G01*
G75*
G02X81019Y236397I-4226*
G01*
Y234321*
G75*
G02X81176Y226459I-1470J-3962*
G01*
Y211070*
X89687Y202508*
G75*
G02X90162Y201359I-1153J-1150*
G01*
Y183427*
G75*
G02X90004Y182281I-1628J-360*
G01*
Y137249*
X100126Y127128*
X103234*
Y154075*
G75*
G02X103037Y154861I1470J786*
G01*
G75*
G02X106372I1667*
G01*
G75*
G02X106175Y154075I-1667*
G01*
Y127285*
X132342*
G75*
G02X133258Y127003J-1628*
G01*
X176804*
G75*
G02X178365Y127008I786J-1470*
G01*
Y157070*
G75*
G02X181236Y158762I1470J786*
G01*
Y160991*
X177602Y164625*
G75*
G02X177170Y165667I1038J1041*
G01*
Y170549*
G75*
G02X177433Y172485I1470J786*
G01*
X175006*
G75*
G02X172552Y173956I-786J1470*
G01*
G75*
G02X175006Y175426I1667*
G01*
X180585*
G75*
G02X181626Y174994I0J-1470*
G01*
X191981Y164639*
G75*
G02X192414Y163597I-1038J-1041*
G01*
Y121825*
X185473Y92994D02*
X191170D01*
Y88675*
X190028*
G75*
G02X190043Y88466I-1456J-209*
G01*
Y87005*
G75*
G02X190239Y86219I-1470J-786*
G01*
G75*
G02X186905I-1667*
G01*
G75*
G02X187102Y87005I1667*
G01*
Y87646*
G75*
G02X186852Y88466I1221J820*
G01*
Y88675*
X185473*
Y92994*
X177863Y93242D02*
X183559D01*
Y88923*
X181930*
Y86506*
G75*
G02X182127Y85720I-1470J-786*
G01*
G75*
G02X178793I-1667*
G01*
G75*
G02X178989Y86506I1667*
G01*
Y88923*
X177863*
Y93242*
X222947Y71552D02*
G75*
G02X230614Y69098I3441J-2455D01*
G01*
G75*
G02X222947Y66643I-4226*
G01*
X218650*
G75*
G02X216913Y67363I0J2455*
G01*
X210269Y74006*
X171782*
X156258Y58483*
G75*
G02X154521Y57763I-1737J1735*
G01*
X147004*
Y55212*
G75*
G02X146883Y48420I-2575J-3351*
G01*
Y45301*
G75*
G02X143941Y37663I-2455J-3441*
G01*
X135426Y29092*
G75*
G02X133571Y28319I-1855J1839*
G01*
X83989*
G75*
G02X82140Y29084I-2J2612*
G01*
X77000Y34225*
G75*
G02X76964Y34261I1838J1854*
G01*
G75*
G02X76076Y41237I1882J3784*
G01*
X56666Y60646*
G75*
G02X55947Y62382I1736J1736*
G01*
G75*
G02Y62383I663J0*
G01*
G75*
G02Y62385I789J2*
G01*
Y93590*
X52233*
G75*
G02X44566Y96045I-3441J2455*
G01*
G75*
G02X52233Y98500I4226*
G01*
X55823*
Y148590*
X52607*
G75*
G02X44941Y151045I-3441J2455*
G01*
G75*
G02X52607Y153500I4226*
G01*
X55823*
Y196776*
X50549Y202051*
G75*
G02X44941Y206045I-1382J3994*
G01*
G75*
G02X53392Y206150I4226*
G01*
X60012Y199530*
G75*
G02X60732Y197793I-1735J-1737*
G01*
Y96817*
G75*
G02X60857Y96045I-2331J-772*
G01*
Y63399*
X80583Y43674*
G75*
G02X81302Y41938I-1736J-1736*
G01*
G75*
G02Y41937I-663J0*
G01*
G75*
G02Y41934I-789J-1*
G01*
Y41485*
G75*
G02X82569Y36044I-2456J-3440*
G01*
X85069Y33543*
X107921*
G75*
G02X104250Y38045I925J4502*
G01*
G75*
G02X113443I4596*
G01*
G75*
G02X109772Y33543I-4596*
G01*
X132484*
X140234Y41344*
G75*
G02X140202Y41861I4195J515*
G01*
G75*
G02X141974Y45301I4226*
G01*
Y48420*
G75*
G02X141780Y55154I2455J3441*
G01*
Y58379*
G75*
G02X141595Y58548I1673J2006*
G01*
X129616Y70639*
X128311*
Y72018*
G75*
G02X127857Y73489I2158J1472*
G01*
Y78659*
X127504*
Y82978*
X129002*
G75*
G02X131938I1468J-2161*
G01*
X133398*
Y78659*
X133082*
Y74564*
X144546Y62993*
G75*
G02X145652Y62673I-154J-2607*
G01*
X153504*
X168395Y77563*
Y99739*
X165854*
G75*
G02X159432Y102194I-2742J2455*
G01*
G75*
G02X165854Y104649I3680*
G01*
X170850*
G75*
G02X173305Y102194J-2455*
G01*
Y78916*
X208831*
Y122309*
G75*
G02X208582Y123387I2205J1078*
G01*
Y170337*
G75*
G02X209302Y172073I2455J0*
G01*
X216913Y179684*
G75*
G02X218650Y180404I1737J-1735*
G01*
X224491*
G75*
G02X229740Y176304I1023J-4101*
G01*
G75*
G02X221365Y175495I-4226*
G01*
X219667*
X213491Y169320*
Y125842*
X222697*
G75*
G02X230364Y123387I3441J-2455*
G01*
G75*
G02X222697Y120932I-4226*
G01*
X213741*
Y77478*
X219667Y71552*
X222947*
X221541Y153387D02*
G75*
G02X230734I4596D01*
G01*
G75*
G02X221541I-4596*
G01*
X221911Y133387D02*
G75*
G02X230364I4226D01*
G01*
G75*
G02X221911I-4226*
G01*
Y143387D02*
G75*
G02X230364I4226D01*
G01*
G75*
G02X221911I-4226*
G01*
X221791Y99098D02*
G75*
G02X230984I4596D01*
G01*
G75*
G02X221791I-4596*
G01*
X222161Y79098D02*
G75*
G02X230614I4226D01*
G01*
G75*
G02X222161I-4226*
G01*
Y89098D02*
G75*
G02X230614I4226D01*
G01*
G75*
G02X222161I-4226*
G01*
X180202Y41861D02*
G75*
G02X188655I4226D01*
G01*
G75*
G02X180202I-4226*
G01*
Y51861D02*
G75*
G02X188655I4226D01*
G01*
G75*
G02X180202I-4226*
G01*
X160202Y41861D02*
G75*
G02X168655I4226D01*
G01*
G75*
G02X160202I-4226*
G01*
Y51861D02*
G75*
G02X168655I4226D01*
G01*
G75*
G02X160202I-4226*
G01*
X170202Y41861D02*
G75*
G02X178655I4226D01*
G01*
G75*
G02X170202I-4226*
G01*
Y51861D02*
G75*
G02X178655I4226D01*
G01*
G75*
G02X170202I-4226*
G01*
X149832Y41861D02*
G75*
G02X159025I4596D01*
G01*
G75*
G02X149832I-4596*
G01*
Y51861D02*
G75*
G02X159025I4596D01*
G01*
G75*
G02X149832I-4596*
G01*
X135796Y87128D02*
X142430D01*
Y82069*
X135796*
Y87128*
X151466Y118391D02*
G75*
G02X153919Y116921I786J-1470D01*
G01*
G75*
G02X151466Y115450I-1667*
G01*
X98464*
G75*
G02X97422Y115883I0J1470*
G01*
X77832Y135473*
G75*
G02X77400Y136515I1038J1041*
G01*
Y185259*
G75*
G02X77203Y186045I1470J786*
G01*
G75*
G02X80537I1667*
G01*
G75*
G02X80341Y185259I-1667*
G01*
Y137124*
X99073Y118391*
X151466*
X122390Y76706D02*
X127449D01*
Y70269*
X122390*
Y76706*
X122764Y99671D02*
X127823D01*
Y93234*
X122764*
Y99671*
X84620Y38045D02*
G75*
G02X93073I4226D01*
G01*
G75*
G02X84620I-4226*
G01*
X94620D02*
G75*
G02X103073I4226D01*
G01*
G75*
G02X94620I-4226*
G01*
X105925Y232535D02*
G75*
G02X113774Y230359I3623J-2176D01*
G01*
G75*
G02X105925Y228183I-4226*
G01*
Y222629*
G75*
G02X105493Y221587I-1470J0*
G01*
X99186Y215281*
Y140919*
G75*
G02X99383Y140133I-1470J-786*
G01*
G75*
G02X96048I-1667*
G01*
G75*
G02X96245Y140919I1667*
G01*
Y215890*
G75*
G02X96677Y216931I1470J0*
G01*
X102984Y223238*
Y227898*
G75*
G02X95816Y228375I-3436J2461*
G01*
Y148533*
G75*
G02X96013Y147747I-1470J-786*
G01*
G75*
G02X92678I-1667*
G01*
G75*
G02X92875Y148533I1667*
G01*
Y227188*
G75*
G02X84952Y230359I-3327J3171*
G01*
G75*
G02X92875Y233530I4596*
G01*
Y235124*
X91426Y236573*
G75*
G02X85322Y240359I-1878J3786*
G01*
G75*
G02X93774I4226*
G01*
G75*
G02X93442Y238717I-4226*
G01*
X95384Y236775*
G75*
G02X95816Y235733I-1038J-1041*
G01*
Y232343*
G75*
G02X102984Y232820I3732J-1984*
G01*
Y235624*
X101815Y236793*
G75*
G02X95322Y240359I-2267J3567*
G01*
G75*
G02X103774I4226*
G01*
G75*
G02X103602Y239165I-4226J0*
G01*
X105493Y237274*
G75*
G02X105925Y236233I-1038J-1041*
G01*
Y232535*
X145322Y230359D02*
G75*
G02X153774I4226D01*
G01*
G75*
G02X150993Y226387I-4226*
G01*
G75*
G02X150586Y225620I-1444J275*
G01*
X136572Y211607*
G75*
G02X135531Y211174I-1041J1038*
G01*
X104428*
Y173744*
X110166*
Y168685*
X104428*
Y167822*
X109796*
Y166797*
X113130*
G75*
G02X115583Y165326I786J-1470*
G01*
G75*
G02X113130Y163856I-1667*
G01*
X109796*
Y163504*
X104099*
Y164193*
X102957*
G75*
G02X101487Y165663J1470*
G01*
Y212645*
G75*
G02X102957Y214115I1470*
G01*
X134922*
X147480Y226673*
G75*
G02X145322Y230359I2069J3686*
G01*
X222536Y199303D02*
G75*
G02X229740Y196304I2978J-2999D01*
G01*
G75*
G02X221295Y196047I-4226*
G01*
X201419*
G75*
G02X200266Y196525J1628*
G01*
X189520Y207279*
X138825*
G75*
G02X136805Y208909I-353J1630*
G01*
G75*
G02X138839Y210535I1667*
G01*
X190194*
G75*
G02X191347Y210057J-1628*
G01*
X202094Y199303*
X222536*
X221613Y187931D02*
G75*
G02X229740Y186304I3900J-1628D01*
G01*
G75*
G02X221613Y184676I-4226*
G01*
X196185*
G75*
G02X195028Y185159J1628*
G01*
X183026Y197281*
X143504*
G75*
G02X141476Y198909I-360J1628*
G01*
G75*
G02X143504Y200537I1667*
G01*
X183705*
G75*
G02X184862Y200054J-1628*
G01*
X196864Y187931*
X221613*
X201199Y92868D02*
X206896D01*
Y88549*
X206267*
Y86309*
G75*
G02X206464Y85523I-1470J-786*
G01*
G75*
G02X203129I-1667*
G01*
G75*
G02X203326Y86309I1667*
G01*
Y88549*
X201199*
Y92868*
X205518Y98419D02*
X206896D01*
Y94100*
X201199*
Y98419*
X202577*
Y170466*
G75*
G02X202380Y171252I1470J786*
G01*
G75*
G02X205715I1667*
G01*
G75*
G02X205518Y170466I-1667*
G01*
Y98419*
X192713Y92868D02*
X198410D01*
Y88549*
X197780*
Y86506*
G75*
G02X197977Y85720I-1470J-786*
G01*
G75*
G02X194643I-1667*
G01*
G75*
G02X194839Y86506I1667*
G01*
Y88549*
X192713*
Y92868*
X197031Y98419D02*
X198410D01*
Y94100*
X192713*
Y98419*
X194091*
Y124622*
G75*
G02X193894Y125407I1470J786*
G01*
G75*
G02X197228I1667*
G01*
G75*
G02X197031Y124622I-1667*
G01*
Y98419*
X114973Y199139D02*
X120032D01*
Y192702*
X114973*
Y199139*
X133372Y208998D02*
G75*
G02X135825Y207528I786J-1470D01*
G01*
G75*
G02X133372Y206057I-1667*
G01*
X124525*
Y198769*
X125213*
Y193072*
X120894*
Y198769*
X121584*
Y207528*
G75*
G02X123054Y208998I1470*
G01*
X133372*
X104952Y240359D02*
G75*
G02X114144I4596D01*
G01*
G75*
G02X104952I-4596*
G01*
X114952D02*
G75*
G02X124144I4596D01*
G01*
G75*
G02X114952I-4596*
G01*
X115322Y230359D02*
G75*
G02X123774I4226D01*
G01*
G75*
G02X115322I-4226*
G01*
X124952Y240359D02*
G75*
G02X134144I4596D01*
G01*
G75*
G02X124952I-4596*
G01*
X125322Y230359D02*
G75*
G02X133774I4226D01*
G01*
G75*
G02X125322I-4226*
G01*
X134952Y240359D02*
G75*
G02X144144I4596D01*
G01*
G75*
G02X134952I-4596*
G01*
X135322Y230359D02*
G75*
G02X143774I4226D01*
G01*
G75*
G02X135322I-4226*
G01*
X145322Y240359D02*
G75*
G02X153774I4226D01*
G01*
G75*
G02X145322I-4226*
G01*
X154952D02*
G75*
G02X164144I4596D01*
G01*
G75*
G02X154952I-4596*
G01*
X155322Y230359D02*
G75*
G02X163774I4226D01*
G01*
G75*
G02X155322I-4226*
G01*
X164952Y240359D02*
G75*
G02X174144I4596D01*
G01*
G75*
G02X164952I-4596*
G01*
X165322Y230359D02*
G75*
G02X173774I4226D01*
G01*
G75*
G02X165322I-4226*
G01*
X44196Y66045D02*
G75*
G02X53389I4596D01*
G01*
G75*
G02X44196I-4596*
G01*
X44566Y76045D02*
G75*
G02X53019I4226D01*
G01*
G75*
G02X44566I-4226*
G01*
Y86045D02*
G75*
G02X53019I4226D01*
G01*
G75*
G02X44566I-4226*
G01*
X44570Y121045D02*
G75*
G02X53763I4596D01*
G01*
G75*
G02X44570I-4596*
G01*
Y176045D02*
G75*
G02X53763I4596D01*
G01*
G75*
G02X44570I-4596*
G01*
X44941Y131045D02*
G75*
G02X53393I4226D01*
G01*
G75*
G02X44941I-4226*
G01*
Y141045D02*
G75*
G02X53393I4226D01*
G01*
G75*
G02X44941I-4226*
G01*
Y186045D02*
G75*
G02X53393I4226D01*
G01*
G75*
G02X44941I-4226*
G01*
Y196045D02*
G75*
G02X53393I4226D01*
G01*
G75*
G02X44941I-4226*
G01*
X106283Y41861D02*
G36*
X100665D01*
G75*
G02X103073Y38045I-1818J-3815*
G01*
G75*
G02X94620I-4226*
G01*
G75*
G02X97028Y41861I4226*
G01*
X90665*
G75*
G02X93073Y38045I-1818J-3815*
G01*
G75*
G02X84620I-4226*
G01*
G75*
G02X87028Y41861I4226*
G01*
X81302*
Y41485*
G75*
G02X83073Y38045I-2456J-3440*
G01*
G75*
G02X82569Y36044I-4227*
G01*
X85069Y33543*
X107921*
G75*
G02X104250Y38045I926J4503*
G01*
G75*
G02X106283Y41861I4596*
G01*
G37*
X83472Y28370D02*
G36*
G75*
G02X82140Y29084I515J2559D01*
G01*
X77000Y34225*
G75*
G02X76964Y34261I1613J1630*
G01*
G75*
G02X74620Y38045I1883J3784*
G01*
G75*
G02X76076Y41237I4227*
G01*
X75452Y41861*
X64622*
G75*
G02X64727Y40218I-12785J-1643*
G01*
G75*
G02X56909Y28370I-12889J1*
G01*
X83472*
G37*
X140202Y41861D02*
G36*
X111410D01*
G75*
G02X113443Y38045I-2563J-3815*
G01*
G75*
G02X109772Y33543I-4597J0*
G01*
X132484*
X140234Y41344*
G75*
G02X140202Y41860I4207J516*
G01*
Y41861*
G37*
X208348D02*
G36*
X188655D01*
G75*
G02X180202I-4226*
G01*
X178655*
G75*
G02X170202I-4226*
G01*
X168655*
G75*
G02X160202I-4226*
G01*
X159025*
G75*
G02X149832I-4596*
G01*
X148655*
G75*
G02X143941Y37663I-4226J0*
G01*
X135426Y29092*
G75*
G02X134085Y28370I-1856J1840*
G01*
X216060*
G75*
G02X208243Y40218I5070J11848*
G01*
G75*
G02X208348Y41861I12890J0*
G01*
G37*
X46312Y51861D02*
G36*
X39991D01*
Y45289*
G75*
G02X46312Y51861I11848J-5071*
G01*
G37*
X75452Y41861D02*
G36*
X65452Y51861D01*
X57366*
G75*
G02X64622Y41861I-5527J-11643*
G01*
X75452*
G37*
X140202D02*
G36*
Y41861D01*
G75*
G02X141974Y45301I4226*
G01*
Y48420*
G75*
G02X140202Y51861I2454J3440*
G01*
X72395*
X80583Y43674*
G75*
G02X81302Y41939I-1734J-1735*
G01*
G75*
G02Y41938I-2051J0*
G01*
Y41937*
Y41934*
Y41861*
X87028*
G75*
G02X90665I1818J-3815*
G01*
X97028*
G75*
G02X100665I1818J-3815*
G01*
X106283*
G75*
G02X111410I2563J-3815*
G01*
X140202*
G37*
X208348D02*
G36*
G75*
G02X215603Y51861I12783J-1643D01*
G01*
X188655*
G75*
G02X180202I-4226*
G01*
X178655*
G75*
G02X170202I-4226*
G01*
X168655*
G75*
G02X160202I-4226*
G01*
X159025*
G75*
G02X149832I-4596*
G01*
X148655*
G75*
G02X146883Y48420I-4227*
G01*
Y45301*
G75*
G02X148655Y41861I-2455J-3441*
G01*
X149832*
G75*
G02X159025I4596*
G01*
X160202*
G75*
G02X168655I4226*
G01*
X170202*
G75*
G02X178655I4226*
G01*
X180202*
G75*
G02X188655I4226*
G01*
X208348*
G37*
X232979Y45289D02*
G36*
Y51861D01*
X226657*
G75*
G02X232979Y45289I-5527J-11643*
G01*
G37*
X65452Y51861D02*
G36*
X56666Y60646D01*
G75*
G02X55947Y62381I1734J1735*
G01*
G75*
G02Y62382I2051J0*
G01*
Y62383*
Y62385*
Y66045*
X53389*
G75*
G02X44196I-4596*
G01*
X39991*
Y51861*
X46312*
G75*
G02X57366I5527J-11643*
G01*
X65452*
G37*
X140202D02*
G36*
G75*
G02X141780Y55154I4226D01*
G01*
Y58379*
G75*
G02X141595Y58548I1645J1976*
G01*
X134168Y66045*
X60857*
Y63399*
X72395Y51861*
X140202*
G37*
X156876Y66045D02*
G36*
X141522D01*
X144546Y62993*
G75*
G02X145652Y62673I-154J-2606*
G01*
X153504*
X156876Y66045*
G37*
X226657Y51861D02*
G36*
X232979D01*
Y66045*
X229310*
G75*
G02X223465I-2923J3053*
G01*
X163820*
X156258Y58483*
G75*
G02X154521Y57763I-1737J1736*
G01*
X147004*
Y55212*
G75*
G02X148655Y51861I-2576J-3352*
G01*
X149832*
G75*
G02X159025I4596*
G01*
X160202*
G75*
G02X168655I4226*
G01*
X170202*
G75*
G02X178655I4226*
G01*
X180202*
G75*
G02X188655I4226*
G01*
X215603*
G75*
G02X221130Y53106I5527J-11643*
G01*
G75*
G02X226657Y51861I-1J-12889*
G01*
G37*
X55947Y73488D02*
G36*
X52157D01*
G75*
G02X45428I-3365J2557*
G01*
X39991*
Y66045*
X44196*
G75*
G02X53389I4596*
G01*
X55947*
Y73488*
G37*
X134168Y66045D02*
G36*
X129616Y70639D01*
X128311*
Y72018*
G75*
G02X127857Y73488I2160J1472*
G01*
X127449*
Y70269*
X122390*
Y73488*
X60857*
Y66045*
X134168*
G37*
X164320Y73488D02*
G36*
X134148D01*
X141522Y66045*
X156876*
X164320Y73488*
G37*
X223465Y66045D02*
G36*
G75*
G02X222947Y66643I2923J3054D01*
G01*
X218650*
G75*
G02X216913Y67363I0J2454*
G01*
X210788Y73488*
X171263*
X163820Y66045*
X223465*
G37*
X229310D02*
G36*
X232979D01*
Y73488*
X217731*
X219667Y71552*
X222947*
G75*
G02X230614Y69098I3441J-2455*
G01*
G75*
G02X229310Y66045I-4226*
G01*
G37*
X45428Y73488D02*
G36*
G75*
G02X44566Y76045I3365J2557D01*
G01*
G75*
G02X45870Y79098I4226*
G01*
X39991*
Y73488*
X45428*
G37*
X55947Y79098D02*
G36*
X51715D01*
G75*
G02X53019Y76045I-2923J-3053*
G01*
G75*
G02X52157Y73488I-4226*
G01*
X55947*
Y79098*
G37*
X127857Y73488D02*
G36*
G75*
G02Y73489I2654J1D01*
G01*
Y78659*
X127504*
Y79098*
X60857*
Y73488*
X122390*
Y76706*
X127449*
Y73488*
X127857*
G37*
X168395Y79098D02*
G36*
X133398D01*
Y78659*
X133082*
Y74564*
X134148Y73488*
X164320*
X168395Y77563*
Y79098*
G37*
X210788Y73488D02*
G36*
X210269Y74006D01*
X171782*
X171263Y73488*
X210788*
G37*
X208831Y79098D02*
G36*
X173305D01*
Y78916*
X208831*
Y79098*
G37*
X217731Y73488D02*
G36*
X232979D01*
Y79098*
X230614*
G75*
G02X222161I-4226*
G01*
X213741*
Y77478*
X217731Y73488*
G37*
X55947Y84598D02*
G36*
X52763D01*
G75*
G02X44822I-3971J1447*
G01*
X39991*
Y79098*
X45870*
G75*
G02X51715I2923J-3053*
G01*
X55947*
Y84598*
G37*
X168395D02*
G36*
X142430D01*
Y82069*
X135796*
Y84598*
X60857*
Y79098*
X127504*
Y82978*
X129002*
G75*
G02X131938I1468J-2161*
G01*
X133398*
Y79098*
X168395*
Y84598*
G37*
X208831D02*
G36*
X206183D01*
G75*
G02X203409I-1387J925*
G01*
X197543*
G75*
G02X195076I-1233J1122*
G01*
X188961*
G75*
G02X188183I-389J1622*
G01*
X181693*
G75*
G02X179226I-1233J1122*
G01*
X173305*
Y79098*
X208831*
Y84598*
G37*
X213741D02*
G36*
Y79098D01*
X222161*
G75*
G02X230614I4226*
G01*
X232979*
Y84598*
X213741*
G37*
X44822D02*
G36*
G75*
G02X44566Y86045I3971J1447D01*
G01*
G75*
G02X45565Y88773I4226*
G01*
X39991*
Y84598*
X44822*
G37*
X55947Y88773D02*
G36*
X52020D01*
G75*
G02X53019Y86045I-3228J-2728*
G01*
G75*
G02X52763Y84598I-4226J0*
G01*
X55947*
Y88773*
G37*
X168395D02*
G36*
X133398D01*
Y86218*
X127504*
Y88773*
X60857*
Y84598*
X135796*
Y87128*
X142430*
Y84598*
X168395*
Y88773*
G37*
X208831D02*
G36*
X206896D01*
Y88549*
X206267*
Y86309*
G75*
G02X206464Y85523I-1471J-786*
G01*
G75*
G02X206183Y84598I-1667*
G01*
X208831*
Y88773*
G37*
X178989D02*
G36*
X173305D01*
Y84598*
X179226*
G75*
G02X178793Y85720I1233J1122*
G01*
G75*
G02X178989Y86506I1668*
G01*
Y88773*
G37*
X185473D02*
G36*
X181930D01*
Y86506*
G75*
G02X182127Y85720I-1471J-786*
G01*
G75*
G02X181693Y84598I-1667J0*
G01*
X188183*
G75*
G02X186905Y86219I389J1621*
G01*
G75*
G02X187102Y87005I1668*
G01*
Y87646*
G75*
G02X186852Y88466I1222J820*
G01*
Y88675*
X185473*
Y88773*
G37*
X192713D02*
G36*
X191170D01*
Y88675*
X190028*
G75*
G02X190043Y88466I-1534J-215*
G01*
Y87005*
G75*
G02X190239Y86219I-1471J-786*
G01*
G75*
G02X188961Y84598I-1667*
G01*
X195076*
G75*
G02X194643Y85720I1233J1122*
G01*
G75*
G02X194839Y86506I1668*
G01*
Y88549*
X192713*
Y88773*
G37*
X201199D02*
G36*
X198410D01*
Y88549*
X197780*
Y86506*
G75*
G02X197977Y85720I-1471J-786*
G01*
G75*
G02X197543Y84598I-1667J0*
G01*
X203409*
G75*
G02X203129Y85523I1387J925*
G01*
G75*
G02X203326Y86309I1668*
G01*
Y88549*
X201199*
Y88773*
G37*
X230601D02*
G36*
G75*
G02X222174I-4214J325D01*
G01*
X213741*
Y84598*
X232979*
Y88773*
X230601*
G37*
X55947D02*
G36*
Y93590D01*
X52233*
G75*
G02X44566Y96045I-3441J2455*
G01*
G75*
G02X45870Y99098I4226*
G01*
X39991*
Y88773*
X45565*
G75*
G02X52020I3228J-2728*
G01*
X55947*
G37*
X55823Y99098D02*
G36*
X51715D01*
G75*
G02X52233Y98500I-2923J-3054*
G01*
X55823*
Y99098*
G37*
X127504Y88773D02*
G36*
Y90537D01*
X129374*
Y93604*
X128685*
Y99098*
X127823*
Y93234*
X122764*
Y99098*
X60732*
Y96817*
G75*
G02X60857Y96045I-2344J-774*
G01*
Y88773*
X127504*
G37*
X168395Y99098D02*
G36*
X165101D01*
G75*
G02X161124I-1988J3096*
G01*
X137813*
X134130Y95415*
G75*
G02X133089Y94984I-1041J1043*
G01*
X133004*
Y93604*
X132315*
Y90537*
X133398*
Y88773*
X168395*
Y99098*
G37*
X133654D02*
G36*
X133004D01*
Y98448*
X133654Y99098*
G37*
X208831D02*
G36*
X205518D01*
Y98419*
X206896*
Y94100*
X201199*
Y98419*
X202577*
Y99098*
X197031*
Y98419*
X198410*
Y94100*
X192713*
Y98419*
X194091*
Y99098*
X189793*
Y98545*
X191170*
Y94226*
X185473*
Y98545*
X186852*
Y99098*
X181306*
Y98793*
X183559*
Y94474*
X177863*
Y98793*
X178365*
Y99098*
X173305*
Y88773*
X178989*
Y88923*
X177863*
Y93242*
X183559*
Y88923*
X181930*
Y88773*
X185473*
Y92994*
X191170*
Y88773*
X192713*
Y92868*
X198410*
Y88773*
X201199*
Y92868*
X206896*
Y88773*
X208831*
Y99098*
G37*
X213741D02*
G36*
Y88773D01*
X222174*
G75*
G02X222161Y89098I4215J326*
G01*
G75*
G02X230614I4226*
G01*
G75*
G02X230601Y88773I-4227J1*
G01*
X232979*
Y99098*
X230984*
G75*
G02X221791I-4596*
G01*
X213741*
G37*
X55823Y121045D02*
G36*
X53763D01*
G75*
G02X44570I-4596*
G01*
X39991*
Y99098*
X45870*
G75*
G02X51715I2923J-3053*
G01*
X55823*
Y121045*
G37*
X168811D02*
G36*
X96420D01*
X99073Y118391*
X151466*
G75*
G02X153919Y116921I786J-1471*
G01*
G75*
G02X151466Y115450I-1667J0*
G01*
X98464*
G75*
G02X97422Y115883I0J1470*
G01*
X92260Y121045*
X60732*
Y99098*
X122764*
Y99671*
X127823*
Y99098*
X128685*
Y99301*
X133004*
Y99098*
X133654*
X148650Y114093*
G75*
G02X149691Y114523I1041J-1043*
G01*
X168811*
Y121045*
G37*
X168395Y99098D02*
G36*
Y99739D01*
X165854*
G75*
G02X165101Y99098I-2742J2455*
G01*
X168395*
G37*
X178365Y121045D02*
G36*
X171752D01*
Y113053*
G75*
G02X170282Y111582I-1470*
G01*
X150298*
X137813Y99098*
X161124*
G75*
G02X159432Y102194I1989J3097*
G01*
G75*
G02X165854Y104649I3680*
G01*
X170850*
G75*
G02X173305Y102194J-2454*
G01*
Y102194*
Y99098*
X178365*
Y121045*
G37*
X208831D02*
G36*
X205518D01*
Y99098*
X208831*
Y121045*
G37*
X186852D02*
G36*
X181306D01*
Y99098*
X186852*
Y121045*
G37*
X194091D02*
G36*
X192611D01*
G75*
G02Y121039I-1689J-3*
G01*
G75*
G02X189793Y119833I-1667*
G01*
Y99098*
X194091*
Y121045*
G37*
X202577D02*
G36*
X197031D01*
Y99098*
X202577*
Y121045*
G37*
X229656D02*
G36*
G75*
G02X222697Y120932I-3518J2342D01*
G01*
X213741*
Y99098*
X221791*
G75*
G02X230984I4596*
G01*
X232979*
Y121045*
X229656*
G37*
X55823Y133387D02*
G36*
X52685D01*
G75*
G02X53393Y131045I-3518J-2342*
G01*
G75*
G02X44941I-4226*
G01*
G75*
G02X45649Y133387I4226*
G01*
X39991*
Y121045*
X44570*
G75*
G02X53763I4596*
G01*
X55823*
Y133387*
G37*
X92260Y121045D02*
G36*
X79918Y133387D01*
X60732*
Y121045*
X92260*
G37*
X168811D02*
G36*
Y124062D01*
X133128*
G75*
G02X131620Y124029I-786J1471*
G01*
X104704*
G75*
G02X104006Y124187I-1J1625*
G01*
X99517*
G75*
G02X98475Y124619I0J1470*
G01*
X89707Y133387*
X84078*
X96420Y121045*
X168811*
G37*
X103234Y133387D02*
G36*
X93866D01*
X100126Y127128*
X103234*
Y133387*
G37*
X178365D02*
G36*
X106175D01*
Y127285*
X132342*
G75*
G02X133258Y127003I0J-1626*
G01*
X176804*
G75*
G02X178365Y127008I786J-1470*
G01*
Y133387*
G37*
Y121045D02*
G36*
Y124057D01*
G75*
G02X176804Y124062I-776J1475*
G01*
X171752*
Y121045*
X178365*
G37*
X208831D02*
G36*
Y122309D01*
G75*
G02X208582Y123387I2210J1080*
G01*
Y133387*
X205518*
Y121045*
X208831*
G37*
X186852D02*
G36*
Y133387D01*
X181306*
Y121045*
X186852*
G37*
X202577Y133387D02*
G36*
X192414D01*
Y121825*
G75*
G02X192611Y121045I-1470J-786*
G01*
X194091*
Y124622*
G75*
G02X193894Y125407I1471J786*
G01*
G75*
G02X197228I1667*
G01*
G75*
G02X197031Y124622I-1668*
G01*
Y121045*
X202577*
Y133387*
G37*
X229656Y121045D02*
G36*
X232979D01*
Y133387*
X230364*
G75*
G02X221911I-4226*
G01*
X213491*
Y125842*
X222697*
G75*
G02X230364Y123387I3441J-2455*
G01*
G75*
G02X229656Y121045I-4226*
G01*
G37*
X55823Y143387D02*
G36*
X52685D01*
G75*
G02X53393Y141045I-3518J-2342*
G01*
G75*
G02X44941I-4226*
G01*
G75*
G02X45649Y143387I4226*
G01*
X39991*
Y133387*
X45649*
G75*
G02X52685I3518J-2342*
G01*
X55823*
Y143387*
G37*
X79918Y133387D02*
G36*
X77832Y135473D01*
G75*
G02X77400Y136515I1038J1041*
G01*
Y136515*
Y143387*
X60732*
Y133387*
X79918*
G37*
X84078D02*
G36*
X89707D01*
X87496Y135598*
G75*
G02X87063Y136639I1038J1041*
G01*
Y136640*
Y143387*
X80341*
Y137124*
X84078Y133387*
G37*
X178365Y143387D02*
G36*
X106175D01*
Y133387*
X178365*
Y143387*
G37*
X103234D02*
G36*
X99186D01*
Y140919*
G75*
G02X99383Y140133I-1471J-786*
G01*
G75*
G02X96048I-1667*
G01*
G75*
G02X96245Y140919I1668*
G01*
Y143387*
X90004*
Y137249*
X93866Y133387*
X103234*
Y143387*
G37*
X208582D02*
G36*
X205518D01*
Y133387*
X208582*
Y143387*
G37*
X186852D02*
G36*
X184177D01*
Y136926*
G75*
G02X184374Y136141I-1470J-786*
G01*
G75*
G02X181306Y135235I-1667*
G01*
Y133387*
X186852*
Y143387*
G37*
X202577D02*
G36*
X192414D01*
Y133387*
X202577*
Y143387*
G37*
X213491D02*
G36*
Y133387D01*
X221911*
G75*
G02X230364I4226*
G01*
X232979*
Y143387*
X230364*
G75*
G02X221911I-4226*
G01*
X213491*
G37*
X45649Y153387D02*
G36*
X39991D01*
Y143387*
X45649*
G75*
G02X52685I3518J-2342*
G01*
X55823*
Y148590*
X52607*
G75*
G02X44941Y151045I-3441J2455*
G01*
G75*
G02X45649Y153387I4226*
G01*
G37*
X77400D02*
G36*
X60732D01*
Y143387*
X77400*
Y153387*
G37*
X87063D02*
G36*
X80341D01*
Y143387*
X87063*
Y153387*
G37*
X178365D02*
G36*
X106175D01*
Y143387*
X178365*
Y153387*
G37*
X96245D02*
G36*
X95816D01*
Y148533*
G75*
G02X96013Y147747I-1471J-786*
G01*
G75*
G02X92678I-1667*
G01*
G75*
G02X92875Y148533I1668*
G01*
Y153387*
X90004*
Y143387*
X96245*
Y153387*
G37*
X103234D02*
G36*
X99186D01*
Y143387*
X103234*
Y153387*
G37*
X208582D02*
G36*
X205518D01*
Y143387*
X208582*
Y153387*
G37*
X186852D02*
G36*
X184177D01*
Y143387*
X186852*
Y153387*
G37*
X202577D02*
G36*
X192414D01*
Y143387*
X202577*
Y153387*
G37*
X213491D02*
G36*
Y143387D01*
X221911*
G75*
G02X230364I4226*
G01*
X232979*
Y153387*
X230734*
G75*
G02X221541I-4596*
G01*
X213491*
G37*
X55823Y176045D02*
G36*
X53763D01*
G75*
G02X44570I-4596*
G01*
X39991*
Y153387*
X45649*
G75*
G02X52607Y153500I3518J-2342*
G01*
X55823*
Y176045*
G37*
X77400D02*
G36*
X60732D01*
Y153387*
X77400*
Y176045*
G37*
X87063D02*
G36*
X80341D01*
Y153387*
X87063*
Y176045*
G37*
X213274D02*
G36*
X104428D01*
Y173744*
X110166*
Y168685*
X104428*
Y167822*
X109796*
Y166797*
X113130*
G75*
G02X115583Y165326I786J-1471*
G01*
G75*
G02X113130Y163856I-1667J0*
G01*
X109796*
Y163504*
X104099*
Y164193*
X102957*
G75*
G02X101487Y165663J1470*
G01*
Y176045*
X99186*
Y153387*
X103234*
Y154075*
G75*
G02X103037Y154861I1471J786*
G01*
G75*
G02X106372I1667*
G01*
G75*
G02X106175Y154075I-1668*
G01*
Y153387*
X178365*
Y157070*
G75*
G02X178169Y157856I1470J786*
G01*
G75*
G02X181236Y158762I1667*
G01*
Y160991*
X177602Y164625*
G75*
G02X177170Y165666I1038J1041*
G01*
Y165667*
Y170549*
G75*
G02X176973Y171335I1471J786*
G01*
G75*
G02X177433Y172485I1667J0*
G01*
X175006*
G75*
G02X172552Y173956I-786J1471*
G01*
G75*
G02X175006Y175426I1667J0*
G01*
X180585*
G75*
G02X181626Y174994I0J-1470*
G01*
X191981Y164639*
G75*
G02X192414Y163598I-1038J-1041*
G01*
Y163597*
Y153387*
X202577*
Y170466*
G75*
G02X202380Y171252I1471J786*
G01*
G75*
G02X205715I1667*
G01*
G75*
G02X205518Y170466I-1668*
G01*
Y153387*
X208582*
Y170337*
Y170337*
G75*
G02X209302Y172073I2454*
G01*
X213274Y176045*
G37*
X92875D02*
G36*
X90004D01*
Y153387*
X92875*
Y176045*
G37*
X96245D02*
G36*
X95816D01*
Y153387*
X96245*
Y176045*
G37*
X186852Y153387D02*
G36*
Y160565D01*
G75*
G02X186655Y161351I1470J786*
G01*
G75*
G02X189473Y162557I1667*
G01*
Y162988*
X179976Y172485*
X179847*
G75*
G02X180307Y171335I-1207J-1151*
G01*
G75*
G02X180111Y170549I-1668*
G01*
Y166276*
X183744Y162642*
G75*
G02X184177Y161601I-1038J-1041*
G01*
Y161600*
Y153387*
X186852*
G37*
X229732Y176045D02*
G36*
G75*
G02X221365Y175495I-4219J259D01*
G01*
X219667*
X213491Y169320*
Y153387*
X221541*
G75*
G02X230734I4596*
G01*
X232979*
Y176045*
X229732*
G37*
X55823Y186045D02*
G36*
X53393D01*
G75*
G02X44941I-4226*
G01*
X39991*
Y176045*
X44570*
G75*
G02X53763I4596*
G01*
X55823*
Y186045*
G37*
X77203D02*
G36*
X60732D01*
Y176045*
X77400*
Y185259*
G75*
G02X77203Y186045I1471J786*
G01*
G37*
X86906D02*
G36*
X80537D01*
G75*
G02X80341Y185259I-1668*
G01*
Y176045*
X87063*
Y182281*
G75*
G02X86867Y183067I1475J786*
G01*
G75*
G02X86906Y183427I1670J1*
G01*
Y186045*
G37*
X229732D02*
G36*
G75*
G02X221613Y184676I-4219J259D01*
G01*
X196185*
G75*
G02X195028Y185159J1628*
G01*
X194150Y186045*
X104428*
Y176045*
X213274*
X216913Y179684*
G75*
G02X218650Y180404I1735J-1731*
G01*
X224491*
G75*
G02X229740Y176304I1023J-4100*
G01*
Y176304*
G75*
G02X229732Y176045I-4227J-1*
G01*
X232979*
Y186045*
X229732*
G37*
X92875D02*
G36*
X90162D01*
Y183427*
G75*
G02X90201Y183066I-1626J-360*
G01*
G75*
G02X90004Y182281I-1665*
G01*
Y176045*
X92875*
Y186045*
G37*
X96245D02*
G36*
X95816D01*
Y176045*
X96245*
Y186045*
G37*
X101487D02*
G36*
X99186D01*
Y176045*
X101487*
Y186045*
G37*
X55823Y191326D02*
G36*
X39991D01*
Y186045*
X44941*
G75*
G02X53393I4226*
G01*
X55823*
Y191326*
G37*
X86906D02*
G36*
X60732D01*
Y186045*
X77203*
G75*
G02X80537I1667*
G01*
X86906*
Y191326*
G37*
X92875D02*
G36*
X90162D01*
Y186045*
X92875*
Y191326*
G37*
X96245D02*
G36*
X95816D01*
Y186045*
X96245*
Y191326*
G37*
X101487D02*
G36*
X99186D01*
Y186045*
X101487*
Y191326*
G37*
X194150Y186045D02*
G36*
X188921Y191326D01*
X104428*
Y186045*
X194150*
G37*
X229732D02*
G36*
X232979D01*
Y191326*
X193503*
X196864Y187931*
X221613*
G75*
G02X229740Y186304I3900J-1628*
G01*
G75*
G02X229732Y186045I-4227J-1*
G01*
G37*
X55823Y195921D02*
G36*
X53391D01*
G75*
G02X44943I-4224J124*
G01*
X39991*
Y191326*
X55823*
Y195921*
G37*
X86906D02*
G36*
X60732D01*
Y191326*
X86906*
Y195921*
G37*
X92875D02*
G36*
X90162D01*
Y191326*
X92875*
Y195921*
G37*
X96245D02*
G36*
X95816D01*
Y191326*
X96245*
Y195921*
G37*
X101487D02*
G36*
X99186D01*
Y191326*
X101487*
Y195921*
G37*
X188921Y191326D02*
G36*
X184372Y195921D01*
X125213*
Y193072*
X120894*
Y195921*
X120032*
Y192702*
X114973*
Y195921*
X104428*
Y191326*
X188921*
G37*
X229723Y195921D02*
G36*
G75*
G02X221305I-4209J383D01*
G01*
X188954*
X193503Y191326*
X232979*
Y195921*
X229723*
G37*
X55823D02*
G36*
Y196776D01*
X50549Y202051*
G75*
G02X44941Y206045I-1381J3994*
G01*
G75*
G02X44948Y206304I4227J1*
G01*
X39991*
Y195921*
X44943*
G75*
G02X44941Y196045I4226J129*
G01*
G75*
G02X53393I4226*
G01*
G75*
G02X53391Y195921I-4228J5*
G01*
X55823*
G37*
X86906D02*
G36*
Y200687D01*
X81323Y206304*
X53385*
G75*
G02X53392Y206150I-4219J-261*
G01*
X60012Y199530*
G75*
G02X60732Y197794I-1731J-1735*
G01*
G75*
G02Y197793I-2942J0*
G01*
Y195921*
X86906*
G37*
X92875Y206304D02*
G36*
X85914D01*
X89687Y202508*
G75*
G02X90162Y201359I-1154J-1150*
G01*
Y195921*
X92875*
Y206304*
G37*
X96245D02*
G36*
X95816D01*
Y195921*
X96245*
Y206304*
G37*
X101487D02*
G36*
X99186D01*
Y195921*
X101487*
Y206304*
G37*
X121584D02*
G36*
X104428D01*
Y195921*
X114973*
Y199139*
X120032*
Y195921*
X120894*
Y198769*
X121584*
Y206304*
G37*
X221305Y195921D02*
G36*
G75*
G02X221295Y196047I4211J379D01*
G01*
X201419*
G75*
G02X200266Y196525I0J1629*
G01*
X190494Y206304*
X135289*
G75*
G02X133372Y206057I-1131J1225*
G01*
X124525*
Y198769*
X125213*
Y195921*
X184372*
X183026Y197281*
X143504*
G75*
G02X141476Y198909I-360J1628*
G01*
G75*
G02X143504Y200537I1668J0*
G01*
X183705*
G75*
G02X184862Y200054J-1628*
G01*
X188954Y195921*
X221305*
G37*
X229723D02*
G36*
X232979D01*
Y206304*
X230110*
G75*
G02X220917I-4596*
G01*
X195098*
X202094Y199303*
X222536*
G75*
G02X229740Y196304I2978J-2999*
G01*
G75*
G02X229723Y195921I-4227J0*
G01*
G37*
X81323Y206304D02*
G36*
X78395Y209249D01*
G75*
G02X77920Y210398I1154J1150*
G01*
Y226459*
G75*
G02X75322Y230359I1628J3900*
G01*
X60139*
G75*
G02X51839Y227330I-8300J9859*
G01*
G75*
G02X43539Y230359I1J12889*
G01*
X39991*
Y206304*
X44948*
G75*
G02X53385I4219J-259*
G01*
X81323*
G37*
X96245D02*
G36*
Y215890D01*
Y215890*
G75*
G02X96677Y216931I1470*
G01*
X102984Y223238*
Y227898*
G75*
G02X95816Y228375I-3436J2461*
G01*
Y206304*
X96245*
G37*
X84952Y230359D02*
G36*
X83774D01*
G75*
G02X81176Y226459I-4226*
G01*
Y211070*
X85914Y206304*
X92875*
Y227188*
G75*
G02X84952Y230359I-3327J3171*
G01*
G37*
X145322D02*
G36*
X143774D01*
G75*
G02X135322I-4226*
G01*
X133774*
G75*
G02X125322I-4226*
G01*
X123774*
G75*
G02X115322I-4226*
G01*
X113774*
G75*
G02X105925Y228183I-4226J0*
G01*
Y222629*
Y222629*
G75*
G02X105493Y221587I-1470*
G01*
X99186Y215281*
Y206304*
X101487*
Y212645*
G75*
G02X102957Y214115I1470*
G01*
X134922*
X147480Y226673*
G75*
G02X145322Y230359I2069J3686*
G01*
G37*
X212830D02*
G36*
X173774D01*
G75*
G02X165322I-4226*
G01*
X163774*
G75*
G02X155322I-4226*
G01*
X153774*
Y230359*
G75*
G02X150993Y226387I-4226*
G01*
G75*
G02X150586Y225620I-1445J275*
G01*
X136572Y211607*
G75*
G02X135531Y211174I-1041J1038*
G01*
X104428*
Y206304*
X121584*
Y207528*
G75*
G02X123054Y208998I1470*
G01*
X133372*
G75*
G02X135825Y207528I786J-1471*
G01*
G75*
G02X135289Y206304I-1667J0*
G01*
X190494*
X189520Y207279*
X138825*
G75*
G02X136805Y208909I-353J1630*
G01*
G75*
G02X138839Y210535I1667*
G01*
X190194*
G75*
G02X191347Y210057I0J-1629*
G01*
X195098Y206304*
X220917*
G75*
G02X230110I4596*
G01*
X232979*
Y230359*
X229431*
G75*
G02X212830I-8300J9859*
G01*
G37*
X43539D02*
G36*
G75*
G02X39991Y235148I8300J9860D01*
G01*
Y230359*
X43539*
G37*
X75322D02*
G36*
G75*
G02X78078Y234321I4226D01*
G01*
Y236397*
G75*
G02X75322Y240359I1470J3962*
G01*
Y240359*
X64726*
G75*
G02X64727Y240218I-12900J-143*
G01*
G75*
G02X60139Y230359I-12888J0*
G01*
X75322*
G37*
X95322Y240359D02*
G36*
X93774D01*
Y240359*
G75*
G02X93442Y238717I-4224*
G01*
X95384Y236775*
G75*
G02X95816Y235734I-1038J-1041*
G01*
Y235733*
Y232343*
G75*
G02X102984Y232820I3732J-1984*
G01*
Y235624*
X101815Y236793*
G75*
G02X95322Y240359I-2267J3567*
G01*
G37*
X84952Y230359D02*
G36*
G75*
G02X92875Y233530I4596D01*
G01*
Y235124*
X91426Y236573*
G75*
G02X85322Y240359I-1878J3786*
G01*
X83774*
G75*
G02X81019Y236397I-4227J0*
G01*
Y234321*
G75*
G02X83774Y230359I-1470J-3962*
G01*
X84952*
G37*
X208243Y240359D02*
G36*
X174144D01*
G75*
G02X164952I-4596*
G01*
X164144*
G75*
G02X154952I-4596*
G01*
X153774*
G75*
G02X145322I-4226*
G01*
X144144*
G75*
G02X134952I-4596*
G01*
X134144*
G75*
G02X124952I-4596*
G01*
X124144*
G75*
G02X114952I-4596*
G01*
X114144*
G75*
G02X104952I-4596*
G01*
X103774*
G75*
G02X103602Y239165I-4238J1*
G01*
X105493Y237274*
G75*
G02X105925Y236233I-1038J-1041*
G01*
Y236233*
Y232535*
G75*
G02X113774Y230359I3623J-2177*
G01*
X115322*
G75*
G02X123774I4226*
G01*
X125322*
G75*
G02X133774I4226*
G01*
X135322*
G75*
G02X143774I4226*
G01*
X145322*
G75*
G02X153774I4226*
G01*
X155322*
G75*
G02X163774I4226*
G01*
X165322*
G75*
G02X173774I4226*
G01*
X212830*
G75*
G02X208243Y240218I8300J9859*
G01*
G75*
G02X208243Y240359I12900J-2*
G01*
G37*
X232979Y235148D02*
G36*
G75*
G02X229431Y230359I-11848J5070D01*
G01*
X232979*
Y235148*
G37*
X216257Y252149D02*
G36*
X56712D01*
G75*
G02X64726Y240359I-4873J-11931*
G01*
X75322*
G75*
G02X83774I4226*
G01*
X85322*
G75*
G02X93774I4226*
G01*
X95322*
G75*
G02X103774I4226*
G01*
X104952*
G75*
G02X114144I4596*
G01*
X114952*
G75*
G02X124144I4596*
G01*
X124952*
G75*
G02X134144I4596*
G01*
X134952*
G75*
G02X144144I4596*
G01*
X145322*
G75*
G02X153774I4226*
G01*
X154952*
G75*
G02X164144I4596*
G01*
X164952*
G75*
G02X174144I4596*
G01*
X208243*
G75*
G02X216257Y252149I12887J-141*
G01*
G37*
X430079Y235777D02*
G75*
G02X405093Y240218I-12098J4441D01*
G01*
G75*
G02X413772Y252399I12888*
G01*
X252898*
G75*
G02X248689Y227330I-4209J-12181*
G01*
G75*
G02X236591Y235777I0J12888*
G01*
Y44659*
G75*
G02X261577Y40218I12098J-4441*
G01*
G75*
G02X253130Y28120I-12888J0*
G01*
X413540*
G75*
G02X417981Y53106I4441J12098*
G01*
G75*
G02X430079Y44659I0J-12888*
G01*
Y235777*
X417768Y206304D02*
G75*
G02X426961I4596D01*
G01*
G75*
G02X417768I-4596*
G01*
X389264Y121825D02*
G75*
G02X386643Y119833I-1470J-786D01*
G01*
Y98545*
X388020*
Y94226*
X382323*
Y98545*
X383702*
Y160565*
G75*
G02X386323Y162557I1470J786*
G01*
Y162988*
X376826Y172485*
X376697*
G75*
G02X376961Y170549I-1207J-1150*
G01*
Y166276*
X380595Y162642*
G75*
G02X381027Y161600I-1038J-1041*
G01*
Y136926*
G75*
G02X378157Y135235I-1470J-786*
G01*
Y98793*
X380410*
Y94474*
X374713*
Y98793*
X375216*
Y124057*
G75*
G02X373654Y124062I-776J1476*
G01*
X368603*
Y113053*
G75*
G02X367132Y111582I-1470*
G01*
X347149*
X330981Y95415*
G75*
G02X329939Y94984I-1040J1040*
G01*
X329855*
Y93604*
X329165*
Y90537*
X330248*
Y86218*
X324355*
Y90537*
X326224*
Y93604*
X325536*
Y99301*
X329855*
Y98448*
X345500Y114093*
G75*
G02X346541Y114523I1040J-1040*
G01*
X365662*
Y124062*
X329978*
G75*
G02X328470Y124029I-786J1470*
G01*
X301555*
G75*
G02X300856Y124187J1628*
G01*
X296367*
G75*
G02X295325Y124619I0J1470*
G01*
X284346Y135598*
G75*
G02X283914Y136640I1038J1041*
G01*
Y182281*
G75*
G02X283756Y183427I1471J786*
G01*
Y200687*
X275246Y209249*
G75*
G02X274770Y210398I1153J1150*
G01*
Y226459*
G75*
G02X274928Y234321I1628J3900*
G01*
Y236397*
G75*
G02X272172Y240359I1470J3962*
G01*
G75*
G02X280625I4226*
G01*
G75*
G02X277869Y236397I-4226*
G01*
Y234321*
G75*
G02X278026Y226459I-1470J-3962*
G01*
Y211070*
X286537Y202508*
G75*
G02X287012Y201359I-1153J-1150*
G01*
Y183427*
G75*
G02X286855Y182281I-1628J-360*
G01*
Y137249*
X296976Y127128*
X300084*
Y154075*
G75*
G02X299887Y154861I1470J786*
G01*
G75*
G02X303222I1667*
G01*
G75*
G02X303025Y154075I-1667*
G01*
Y127285*
X329192*
G75*
G02X330108Y127003J-1628*
G01*
X373654*
G75*
G02X375216Y127008I786J-1470*
G01*
Y157070*
G75*
G02X378086Y158762I1470J786*
G01*
Y160991*
X374452Y164625*
G75*
G02X374020Y165667I1038J1041*
G01*
Y170549*
G75*
G02X374284Y172485I1470J786*
G01*
X371856*
G75*
G02X369403Y173956I-786J1470*
G01*
G75*
G02X371856Y175426I1667*
G01*
X377435*
G75*
G02X378477Y174994I0J-1470*
G01*
X388832Y164639*
G75*
G02X389264Y163597I-1038J-1041*
G01*
Y121825*
X382323Y92994D02*
X388020D01*
Y88675*
X386878*
G75*
G02X386893Y88466I-1456J-209*
G01*
Y87005*
G75*
G02X387090Y86219I-1470J-786*
G01*
G75*
G02X383755I-1667*
G01*
G75*
G02X383952Y87005I1667*
G01*
Y87646*
G75*
G02X383702Y88466I1221J820*
G01*
Y88675*
X382323*
Y92994*
X374713Y93242D02*
X380410D01*
Y88923*
X378781*
Y86506*
G75*
G02X378978Y85720I-1470J-786*
G01*
G75*
G02X375643I-1667*
G01*
G75*
G02X375840Y86506I1667*
G01*
Y88923*
X374713*
Y93242*
X419797Y71552D02*
G75*
G02X427464Y69098I3441J-2455D01*
G01*
G75*
G02X419797Y66643I-4226*
G01*
X415500*
G75*
G02X413763Y67363I0J2455*
G01*
X407120Y74006*
X368632*
X353108Y58483*
G75*
G02X351372Y57763I-1737J1735*
G01*
X343854*
Y55212*
G75*
G02X343734Y48420I-2575J-3351*
G01*
Y45301*
G75*
G02X340791Y37663I-2455J-3441*
G01*
X332276Y29092*
G75*
G02X330421Y28319I-1855J1839*
G01*
X280839*
G75*
G02X278990Y29084I-2J2612*
G01*
X273850Y34225*
G75*
G02X273815Y34261I1838J1854*
G01*
G75*
G02X272926Y41237I1882J3784*
G01*
X253517Y60646*
G75*
G02X252798Y62382I1736J1736*
G01*
G75*
G02Y62383I663J0*
G01*
G75*
G02Y62385I789J2*
G01*
Y93590*
X249083*
G75*
G02X241417Y96045I-3441J2455*
G01*
G75*
G02X249083Y98500I4226*
G01*
X252673*
Y148590*
X249458*
G75*
G02X241791Y151045I-3441J2455*
G01*
G75*
G02X249458Y153500I4226*
G01*
X252673*
Y196776*
X247399Y202051*
G75*
G02X241791Y206045I-1382J3994*
G01*
G75*
G02X250243Y206150I4226*
G01*
X256863Y199530*
G75*
G02X257583Y197793I-1735J-1737*
G01*
Y96817*
G75*
G02X257707Y96045I-2331J-772*
G01*
Y63399*
X277433Y43674*
G75*
G02X278152Y41938I-1736J-1736*
G01*
G75*
G02Y41937I-663J0*
G01*
G75*
G02Y41934I-789J-1*
G01*
Y41485*
G75*
G02X279419Y36044I-2456J-3440*
G01*
X281920Y33543*
X304772*
G75*
G02X301100Y38045I925J4502*
G01*
G75*
G02X310293I4596*
G01*
G75*
G02X306622Y33543I-4596*
G01*
X329334*
X337084Y41344*
G75*
G02X337053Y41861I4195J515*
G01*
G75*
G02X338824Y45301I4226*
G01*
Y48420*
G75*
G02X338630Y55154I2455J3441*
G01*
Y58379*
G75*
G02X338445Y58548I1673J2006*
G01*
X326467Y70639*
X325162*
Y72018*
G75*
G02X324708Y73489I2158J1472*
G01*
Y78659*
X324355*
Y82978*
X325852*
G75*
G02X328788I1468J-2161*
G01*
X330248*
Y78659*
X329932*
Y74564*
X341396Y62993*
G75*
G02X342503Y62673I-154J-2607*
G01*
X350355*
X365246Y77563*
Y99739*
X362704*
G75*
G02X356283Y102194I-2742J2455*
G01*
G75*
G02X362704Y104649I3680*
G01*
X367700*
G75*
G02X370155Y102194J-2455*
G01*
Y78916*
X405682*
Y122309*
G75*
G02X405432Y123387I2205J1078*
G01*
Y170337*
G75*
G02X406152Y172073I2455J0*
G01*
X413763Y179684*
G75*
G02X415500Y180404I1737J-1735*
G01*
X421341*
G75*
G02X426591Y176304I1023J-4101*
G01*
G75*
G02X418216Y175495I-4226*
G01*
X416517*
X410342Y169320*
Y125842*
X419548*
G75*
G02X427215Y123387I3441J-2455*
G01*
G75*
G02X419548Y120932I-4226*
G01*
X410591*
Y77478*
X416517Y71552*
X419797*
X418392Y153387D02*
G75*
G02X427585I4596D01*
G01*
G75*
G02X418392I-4596*
G01*
X418762Y133387D02*
G75*
G02X427215I4226D01*
G01*
G75*
G02X418762I-4226*
G01*
Y143387D02*
G75*
G02X427215I4226D01*
G01*
G75*
G02X418762I-4226*
G01*
X418641Y99098D02*
G75*
G02X427834I4596D01*
G01*
G75*
G02X418641I-4596*
G01*
X419011Y79098D02*
G75*
G02X427464I4226D01*
G01*
G75*
G02X419011I-4226*
G01*
Y89098D02*
G75*
G02X427464I4226D01*
G01*
G75*
G02X419011I-4226*
G01*
X377053Y41861D02*
G75*
G02X385506I4226D01*
G01*
G75*
G02X377053I-4226*
G01*
Y51861D02*
G75*
G02X385506I4226D01*
G01*
G75*
G02X377053I-4226*
G01*
X357053Y41861D02*
G75*
G02X365506I4226D01*
G01*
G75*
G02X357053I-4226*
G01*
Y51861D02*
G75*
G02X365506I4226D01*
G01*
G75*
G02X357053I-4226*
G01*
X367053Y41861D02*
G75*
G02X375506I4226D01*
G01*
G75*
G02X367053I-4226*
G01*
Y51861D02*
G75*
G02X375506I4226D01*
G01*
G75*
G02X367053I-4226*
G01*
X346683Y41861D02*
G75*
G02X355876I4596D01*
G01*
G75*
G02X346683I-4596*
G01*
Y51861D02*
G75*
G02X355876I4596D01*
G01*
G75*
G02X346683I-4596*
G01*
X332646Y87128D02*
X339280D01*
Y82069*
X332646*
Y87128*
X348316Y118391D02*
G75*
G02X350769Y116921I786J-1470D01*
G01*
G75*
G02X348316Y115450I-1667*
G01*
X295315*
G75*
G02X294273Y115883I0J1470*
G01*
X274682Y135473*
G75*
G02X274250Y136515I1038J1041*
G01*
Y185259*
G75*
G02X274053Y186045I1470J786*
G01*
G75*
G02X277388I1667*
G01*
G75*
G02X277191Y185259I-1667*
G01*
Y137124*
X295924Y118391*
X348316*
X319241Y76706D02*
X324300D01*
Y70269*
X319241*
Y76706*
X319615Y99671D02*
X324674D01*
Y93234*
X319615*
Y99671*
X281470Y38045D02*
G75*
G02X289923I4226D01*
G01*
G75*
G02X281470I-4226*
G01*
X291470D02*
G75*
G02X299923I4226D01*
G01*
G75*
G02X291470I-4226*
G01*
X302776Y232535D02*
G75*
G02X310625Y230359I3623J-2176D01*
G01*
G75*
G02X302776Y228183I-4226*
G01*
Y222629*
G75*
G02X302343Y221587I-1470J0*
G01*
X296036Y215281*
Y140919*
G75*
G02X296233Y140133I-1470J-786*
G01*
G75*
G02X292898I-1667*
G01*
G75*
G02X293095Y140919I1667*
G01*
Y215890*
G75*
G02X293528Y216931I1470J0*
G01*
X299835Y223238*
Y227898*
G75*
G02X292667Y228375I-3436J2461*
G01*
Y148533*
G75*
G02X292863Y147747I-1470J-786*
G01*
G75*
G02X289529I-1667*
G01*
G75*
G02X289726Y148533I1667*
G01*
Y227188*
G75*
G02X281802Y230359I-3327J3171*
G01*
G75*
G02X289726Y233530I4596*
G01*
Y235124*
X288277Y236573*
G75*
G02X282172Y240359I-1878J3786*
G01*
G75*
G02X290625I4226*
G01*
G75*
G02X290293Y238717I-4226*
G01*
X292234Y236775*
G75*
G02X292667Y235733I-1038J-1041*
G01*
Y232343*
G75*
G02X299835Y232820I3732J-1984*
G01*
Y235624*
X298666Y236793*
G75*
G02X292172Y240359I-2267J3567*
G01*
G75*
G02X300625I4226*
G01*
G75*
G02X300453Y239165I-4226J0*
G01*
X302343Y237274*
G75*
G02X302776Y236233I-1038J-1041*
G01*
Y232535*
X342172Y230359D02*
G75*
G02X350625I4226D01*
G01*
G75*
G02X347843Y226387I-4226*
G01*
G75*
G02X347437Y225620I-1444J275*
G01*
X333423Y211607*
G75*
G02X332381Y211174I-1041J1038*
G01*
X301278*
Y173744*
X307016*
Y168685*
X301278*
Y167822*
X306646*
Y166797*
X309980*
G75*
G02X312433Y165326I786J-1470*
G01*
G75*
G02X309980Y163856I-1667*
G01*
X306646*
Y163504*
X300949*
Y164193*
X299807*
G75*
G02X298337Y165663J1470*
G01*
Y212645*
G75*
G02X299807Y214115I1470*
G01*
X331772*
X344330Y226673*
G75*
G02X342172Y230359I2069J3686*
G01*
X419387Y199303D02*
G75*
G02X426591Y196304I2978J-2999D01*
G01*
G75*
G02X418146Y196047I-4226*
G01*
X398269*
G75*
G02X397117Y196525J1628*
G01*
X386370Y207279*
X335676*
G75*
G02X333655Y208909I-353J1630*
G01*
G75*
G02X335690Y210535I1667*
G01*
X387045*
G75*
G02X388198Y210057J-1628*
G01*
X398944Y199303*
X419387*
X418464Y187931D02*
G75*
G02X426591Y186304I3900J-1628D01*
G01*
G75*
G02X418464Y184676I-4226*
G01*
X393035*
G75*
G02X391878Y185159J1628*
G01*
X379876Y197281*
X340354*
G75*
G02X338327Y198909I-360J1628*
G01*
G75*
G02X340354Y200537I1667*
G01*
X380555*
G75*
G02X381713Y200054J-1628*
G01*
X393715Y187931*
X418464*
X398050Y92868D02*
X403746D01*
Y88549*
X403117*
Y86309*
G75*
G02X403314Y85523I-1470J-786*
G01*
G75*
G02X399980I-1667*
G01*
G75*
G02X400176Y86309I1667*
G01*
Y88549*
X398050*
Y92868*
X402369Y98419D02*
X403746D01*
Y94100*
X398050*
Y98419*
X399428*
Y170466*
G75*
G02X399231Y171252I1470J786*
G01*
G75*
G02X402565I1667*
G01*
G75*
G02X402369Y170466I-1667*
G01*
Y98419*
X389563Y92868D02*
X395260D01*
Y88549*
X394631*
Y86506*
G75*
G02X394828Y85720I-1470J-786*
G01*
G75*
G02X391493I-1667*
G01*
G75*
G02X391690Y86506I1667*
G01*
Y88549*
X389563*
Y92868*
X393882Y98419D02*
X395260D01*
Y94100*
X389563*
Y98419*
X390941*
Y124622*
G75*
G02X390744Y125407I1470J786*
G01*
G75*
G02X394079I1667*
G01*
G75*
G02X393882Y124622I-1667*
G01*
Y98419*
X311823Y199139D02*
X316882D01*
Y192702*
X311823*
Y199139*
X330222Y208998D02*
G75*
G02X332676Y207528I786J-1470D01*
G01*
G75*
G02X330222Y206057I-1667*
G01*
X321375*
Y198769*
X322063*
Y193072*
X317744*
Y198769*
X318434*
Y207528*
G75*
G02X319905Y208998I1470*
G01*
X330222*
X301802Y240359D02*
G75*
G02X310995I4596D01*
G01*
G75*
G02X301802I-4596*
G01*
X311802D02*
G75*
G02X320995I4596D01*
G01*
G75*
G02X311802I-4596*
G01*
X312172Y230359D02*
G75*
G02X320625I4226D01*
G01*
G75*
G02X312172I-4226*
G01*
X321802Y240359D02*
G75*
G02X330995I4596D01*
G01*
G75*
G02X321802I-4596*
G01*
X322172Y230359D02*
G75*
G02X330625I4226D01*
G01*
G75*
G02X322172I-4226*
G01*
X331802Y240359D02*
G75*
G02X340995I4596D01*
G01*
G75*
G02X331802I-4596*
G01*
X332172Y230359D02*
G75*
G02X340625I4226D01*
G01*
G75*
G02X332172I-4226*
G01*
X342172Y240359D02*
G75*
G02X350625I4226D01*
G01*
G75*
G02X342172I-4226*
G01*
X351802D02*
G75*
G02X360995I4596D01*
G01*
G75*
G02X351802I-4596*
G01*
X352172Y230359D02*
G75*
G02X360625I4226D01*
G01*
G75*
G02X352172I-4226*
G01*
X361802Y240359D02*
G75*
G02X370995I4596D01*
G01*
G75*
G02X361802I-4596*
G01*
X362172Y230359D02*
G75*
G02X370625I4226D01*
G01*
G75*
G02X362172I-4226*
G01*
X241046Y66045D02*
G75*
G02X250239I4596D01*
G01*
G75*
G02X241046I-4596*
G01*
X241417Y76045D02*
G75*
G02X249869I4226D01*
G01*
G75*
G02X241417I-4226*
G01*
Y86045D02*
G75*
G02X249869I4226D01*
G01*
G75*
G02X241417I-4226*
G01*
X241421Y121045D02*
G75*
G02X250614I4596D01*
G01*
G75*
G02X241421I-4596*
G01*
Y176045D02*
G75*
G02X250614I4596D01*
G01*
G75*
G02X241421I-4596*
G01*
X241791Y131045D02*
G75*
G02X250244I4226D01*
G01*
G75*
G02X241791I-4226*
G01*
Y141045D02*
G75*
G02X250244I4226D01*
G01*
G75*
G02X241791I-4226*
G01*
Y186045D02*
G75*
G02X250244I4226D01*
G01*
G75*
G02X241791I-4226*
G01*
Y196045D02*
G75*
G02X250244I4226D01*
G01*
G75*
G02X241791I-4226*
G01*
X303133Y41861D02*
G36*
X297515D01*
G75*
G02X299923Y38045I-1818J-3815*
G01*
G75*
G02X291470I-4226*
G01*
G75*
G02X293879Y41861I4226*
G01*
X287515*
G75*
G02X289923Y38045I-1818J-3815*
G01*
G75*
G02X281470I-4226*
G01*
G75*
G02X283879Y41861I4226*
G01*
X278152*
Y41485*
G75*
G02X279923Y38045I-2456J-3440*
G01*
G75*
G02X279419Y36044I-4227*
G01*
X281920Y33543*
X304772*
G75*
G02X301100Y38045I926J4503*
G01*
G75*
G02X303133Y41861I4596*
G01*
G37*
X280322Y28370D02*
G36*
G75*
G02X278990Y29084I515J2559D01*
G01*
X273850Y34225*
G75*
G02X273815Y34261I1613J1630*
G01*
G75*
G02X271470Y38045I1883J3784*
G01*
G75*
G02X272926Y41237I4227*
G01*
X272303Y41861*
X261472*
G75*
G02X261577Y40218I-12785J-1643*
G01*
G75*
G02X253760Y28370I-12889J1*
G01*
X280322*
G37*
X337053Y41861D02*
G36*
X308260D01*
G75*
G02X310293Y38045I-2563J-3815*
G01*
G75*
G02X306622Y33543I-4597J0*
G01*
X329334*
X337084Y41344*
G75*
G02X337053Y41860I4207J516*
G01*
Y41861*
G37*
X405198D02*
G36*
X385506D01*
G75*
G02X377053I-4226*
G01*
X375506*
G75*
G02X367053I-4226*
G01*
X365506*
G75*
G02X357053I-4226*
G01*
X355876*
G75*
G02X346683I-4596*
G01*
X345506*
G75*
G02X340791Y37663I-4226J0*
G01*
X332276Y29092*
G75*
G02X330935Y28370I-1856J1840*
G01*
X412910*
G75*
G02X405093Y40218I5070J11848*
G01*
G75*
G02X405198Y41861I12890J0*
G01*
G37*
X243163Y51861D02*
G36*
X236841D01*
Y45289*
G75*
G02X243163Y51861I11848J-5071*
G01*
G37*
X272303Y41861D02*
G36*
X262302Y51861D01*
X254217*
G75*
G02X261472Y41861I-5527J-11643*
G01*
X272303*
G37*
X337053D02*
G36*
Y41861D01*
G75*
G02X338824Y45301I4226*
G01*
Y48420*
G75*
G02X337053Y51861I2454J3440*
G01*
X269246*
X277433Y43674*
G75*
G02X278152Y41939I-1734J-1735*
G01*
G75*
G02Y41938I-2051J0*
G01*
Y41937*
Y41934*
Y41861*
X283879*
G75*
G02X287515I1818J-3815*
G01*
X293879*
G75*
G02X297515I1818J-3815*
G01*
X303133*
G75*
G02X308260I2563J-3815*
G01*
X337053*
G37*
X405198D02*
G36*
G75*
G02X412454Y51861I12783J-1643D01*
G01*
X385506*
G75*
G02X377053I-4226*
G01*
X375506*
G75*
G02X367053I-4226*
G01*
X365506*
G75*
G02X357053I-4226*
G01*
X355876*
G75*
G02X346683I-4596*
G01*
X345506*
G75*
G02X343734Y48420I-4227*
G01*
Y45301*
G75*
G02X345506Y41861I-2455J-3441*
G01*
X346683*
G75*
G02X355876I4596*
G01*
X357053*
G75*
G02X365506I4226*
G01*
X367053*
G75*
G02X375506I4226*
G01*
X377053*
G75*
G02X385506I4226*
G01*
X405198*
G37*
X429829Y45289D02*
G36*
Y51861D01*
X423507*
G75*
G02X429829Y45289I-5527J-11643*
G01*
G37*
X262302Y51861D02*
G36*
X253517Y60646D01*
G75*
G02X252798Y62381I1734J1735*
G01*
G75*
G02Y62382I2051J0*
G01*
Y62383*
Y62385*
Y66045*
X250239*
G75*
G02X241046I-4596*
G01*
X236841*
Y51861*
X243163*
G75*
G02X254217I5527J-11643*
G01*
X262302*
G37*
X337053D02*
G36*
G75*
G02X338630Y55154I4226D01*
G01*
Y58379*
G75*
G02X338445Y58548I1645J1976*
G01*
X331019Y66045*
X257707*
Y63399*
X269246Y51861*
X337053*
G37*
X353727Y66045D02*
G36*
X338372D01*
X341396Y62993*
G75*
G02X342503Y62673I-154J-2606*
G01*
X350355*
X353727Y66045*
G37*
X423507Y51861D02*
G36*
X429829D01*
Y66045*
X426161*
G75*
G02X420315I-2923J3053*
G01*
X360670*
X353108Y58483*
G75*
G02X351372Y57763I-1737J1736*
G01*
X343854*
Y55212*
G75*
G02X345506Y51861I-2576J-3352*
G01*
X346683*
G75*
G02X355876I4596*
G01*
X357053*
G75*
G02X365506I4226*
G01*
X367053*
G75*
G02X375506I4226*
G01*
X377053*
G75*
G02X385506I4226*
G01*
X412454*
G75*
G02X417981Y53106I5527J-11643*
G01*
G75*
G02X423507Y51861I-1J-12889*
G01*
G37*
X252798Y73488D02*
G36*
X249008D01*
G75*
G02X242278I-3365J2557*
G01*
X236841*
Y66045*
X241046*
G75*
G02X250239I4596*
G01*
X252798*
Y73488*
G37*
X331019Y66045D02*
G36*
X326467Y70639D01*
X325162*
Y72018*
G75*
G02X324708Y73488I2160J1472*
G01*
X324300*
Y70269*
X319241*
Y73488*
X257707*
Y66045*
X331019*
G37*
X361170Y73488D02*
G36*
X330999D01*
X338372Y66045*
X353727*
X361170Y73488*
G37*
X420315Y66045D02*
G36*
G75*
G02X419797Y66643I2923J3054D01*
G01*
X415500*
G75*
G02X413763Y67363I0J2454*
G01*
X407638Y73488*
X368114*
X360670Y66045*
X420315*
G37*
X426161D02*
G36*
X429829D01*
Y73488*
X414581*
X416517Y71552*
X419797*
G75*
G02X427464Y69098I3441J-2455*
G01*
G75*
G02X426161Y66045I-4226*
G01*
G37*
X242278Y73488D02*
G36*
G75*
G02X241417Y76045I3365J2557D01*
G01*
G75*
G02X242720Y79098I4226*
G01*
X236841*
Y73488*
X242278*
G37*
X252798Y79098D02*
G36*
X248566D01*
G75*
G02X249869Y76045I-2923J-3053*
G01*
G75*
G02X249008Y73488I-4226*
G01*
X252798*
Y79098*
G37*
X324708Y73488D02*
G36*
G75*
G02Y73489I2654J1D01*
G01*
Y78659*
X324355*
Y79098*
X257707*
Y73488*
X319241*
Y76706*
X324300*
Y73488*
X324708*
G37*
X365246Y79098D02*
G36*
X330248D01*
Y78659*
X329932*
Y74564*
X330999Y73488*
X361170*
X365246Y77563*
Y79098*
G37*
X407638Y73488D02*
G36*
X407120Y74006D01*
X368632*
X368114Y73488*
X407638*
G37*
X405682Y79098D02*
G36*
X370155D01*
Y78916*
X405682*
Y79098*
G37*
X414581Y73488D02*
G36*
X429829D01*
Y79098*
X427464*
G75*
G02X419011I-4226*
G01*
X410591*
Y77478*
X414581Y73488*
G37*
X252798Y84598D02*
G36*
X249614D01*
G75*
G02X241672I-3971J1447*
G01*
X236841*
Y79098*
X242720*
G75*
G02X248566I2923J-3053*
G01*
X252798*
Y84598*
G37*
X365246D02*
G36*
X339280D01*
Y82069*
X332646*
Y84598*
X257707*
Y79098*
X324355*
Y82978*
X325852*
G75*
G02X328788I1468J-2161*
G01*
X330248*
Y79098*
X365246*
Y84598*
G37*
X405682D02*
G36*
X403034D01*
G75*
G02X400260I-1387J925*
G01*
X394394*
G75*
G02X391927I-1233J1122*
G01*
X385812*
G75*
G02X385033I-389J1622*
G01*
X378544*
G75*
G02X376077I-1233J1122*
G01*
X370155*
Y79098*
X405682*
Y84598*
G37*
X410591D02*
G36*
Y79098D01*
X419011*
G75*
G02X427464I4226*
G01*
X429829*
Y84598*
X410591*
G37*
X241672D02*
G36*
G75*
G02X241417Y86045I3971J1447D01*
G01*
G75*
G02X242415Y88773I4226*
G01*
X236841*
Y84598*
X241672*
G37*
X252798Y88773D02*
G36*
X248871D01*
G75*
G02X249869Y86045I-3228J-2728*
G01*
G75*
G02X249614Y84598I-4226J0*
G01*
X252798*
Y88773*
G37*
X365246D02*
G36*
X330248D01*
Y86218*
X324355*
Y88773*
X257707*
Y84598*
X332646*
Y87128*
X339280*
Y84598*
X365246*
Y88773*
G37*
X405682D02*
G36*
X403746D01*
Y88549*
X403117*
Y86309*
G75*
G02X403314Y85523I-1471J-786*
G01*
G75*
G02X403034Y84598I-1667*
G01*
X405682*
Y88773*
G37*
X375840D02*
G36*
X370155D01*
Y84598*
X376077*
G75*
G02X375643Y85720I1233J1122*
G01*
G75*
G02X375840Y86506I1668*
G01*
Y88773*
G37*
X382323D02*
G36*
X378781D01*
Y86506*
G75*
G02X378978Y85720I-1471J-786*
G01*
G75*
G02X378544Y84598I-1667J0*
G01*
X385033*
G75*
G02X383755Y86219I389J1621*
G01*
G75*
G02X383952Y87005I1668*
G01*
Y87646*
G75*
G02X383702Y88466I1222J820*
G01*
Y88675*
X382323*
Y88773*
G37*
X389563D02*
G36*
X388020D01*
Y88675*
X386878*
G75*
G02X386893Y88466I-1534J-215*
G01*
Y87005*
G75*
G02X387090Y86219I-1471J-786*
G01*
G75*
G02X385812Y84598I-1667*
G01*
X391927*
G75*
G02X391493Y85720I1233J1122*
G01*
G75*
G02X391690Y86506I1668*
G01*
Y88549*
X389563*
Y88773*
G37*
X398050D02*
G36*
X395260D01*
Y88549*
X394631*
Y86506*
G75*
G02X394828Y85720I-1471J-786*
G01*
G75*
G02X394394Y84598I-1667J0*
G01*
X400260*
G75*
G02X399980Y85523I1387J925*
G01*
G75*
G02X400176Y86309I1668*
G01*
Y88549*
X398050*
Y88773*
G37*
X427452D02*
G36*
G75*
G02X419024I-4214J325D01*
G01*
X410591*
Y84598*
X429829*
Y88773*
X427452*
G37*
X252798D02*
G36*
Y93590D01*
X249083*
G75*
G02X241417Y96045I-3441J2455*
G01*
G75*
G02X242720Y99098I4226*
G01*
X236841*
Y88773*
X242415*
G75*
G02X248871I3228J-2728*
G01*
X252798*
G37*
X252673Y99098D02*
G36*
X248566D01*
G75*
G02X249083Y98500I-2923J-3054*
G01*
X252673*
Y99098*
G37*
X324355Y88773D02*
G36*
Y90537D01*
X326224*
Y93604*
X325536*
Y99098*
X324674*
Y93234*
X319615*
Y99098*
X257583*
Y96817*
G75*
G02X257707Y96045I-2344J-774*
G01*
Y88773*
X324355*
G37*
X365246Y99098D02*
G36*
X361951D01*
G75*
G02X357974I-1988J3096*
G01*
X334664*
X330981Y95415*
G75*
G02X329939Y94984I-1041J1043*
G01*
X329855*
Y93604*
X329165*
Y90537*
X330248*
Y88773*
X365246*
Y99098*
G37*
X330505D02*
G36*
X329855D01*
Y98448*
X330505Y99098*
G37*
X405682D02*
G36*
X402369D01*
Y98419*
X403746*
Y94100*
X398050*
Y98419*
X399428*
Y99098*
X393882*
Y98419*
X395260*
Y94100*
X389563*
Y98419*
X390941*
Y99098*
X386643*
Y98545*
X388020*
Y94226*
X382323*
Y98545*
X383702*
Y99098*
X378157*
Y98793*
X380410*
Y94474*
X374713*
Y98793*
X375216*
Y99098*
X370155*
Y88773*
X375840*
Y88923*
X374713*
Y93242*
X380410*
Y88923*
X378781*
Y88773*
X382323*
Y92994*
X388020*
Y88773*
X389563*
Y92868*
X395260*
Y88773*
X398050*
Y92868*
X403746*
Y88773*
X405682*
Y99098*
G37*
X410591D02*
G36*
Y88773D01*
X419024*
G75*
G02X419011Y89098I4215J326*
G01*
G75*
G02X427464I4226*
G01*
G75*
G02X427452Y88773I-4227J1*
G01*
X429829*
Y99098*
X427834*
G75*
G02X418641I-4596*
G01*
X410591*
G37*
X252673Y121045D02*
G36*
X250614D01*
G75*
G02X241421I-4596*
G01*
X236841*
Y99098*
X242720*
G75*
G02X248566I2923J-3053*
G01*
X252673*
Y121045*
G37*
X365662D02*
G36*
X293270D01*
X295924Y118391*
X348316*
G75*
G02X350769Y116921I786J-1471*
G01*
G75*
G02X348316Y115450I-1667J0*
G01*
X295315*
G75*
G02X294273Y115883I0J1470*
G01*
X289111Y121045*
X257583*
Y99098*
X319615*
Y99671*
X324674*
Y99098*
X325536*
Y99301*
X329855*
Y99098*
X330505*
X345500Y114093*
G75*
G02X346541Y114523I1041J-1043*
G01*
X365662*
Y121045*
G37*
X365246Y99098D02*
G36*
Y99739D01*
X362704*
G75*
G02X361951Y99098I-2742J2455*
G01*
X365246*
G37*
X375216Y121045D02*
G36*
X368603D01*
Y113053*
G75*
G02X367132Y111582I-1470*
G01*
X347149*
X334664Y99098*
X357974*
G75*
G02X356283Y102194I1989J3097*
G01*
G75*
G02X362704Y104649I3680*
G01*
X367700*
G75*
G02X370155Y102194J-2454*
G01*
Y102194*
Y99098*
X375216*
Y121045*
G37*
X405682D02*
G36*
X402369D01*
Y99098*
X405682*
Y121045*
G37*
X383702D02*
G36*
X378157D01*
Y99098*
X383702*
Y121045*
G37*
X390941D02*
G36*
X389461D01*
G75*
G02Y121039I-1689J-3*
G01*
G75*
G02X386643Y119833I-1667*
G01*
Y99098*
X390941*
Y121045*
G37*
X399428D02*
G36*
X393882D01*
Y99098*
X399428*
Y121045*
G37*
X426506D02*
G36*
G75*
G02X419548Y120932I-3518J2342D01*
G01*
X410591*
Y99098*
X418641*
G75*
G02X427834I4596*
G01*
X429829*
Y121045*
X426506*
G37*
X252673Y133387D02*
G36*
X249535D01*
G75*
G02X250244Y131045I-3518J-2342*
G01*
G75*
G02X241791I-4226*
G01*
G75*
G02X242499Y133387I4226*
G01*
X236841*
Y121045*
X241421*
G75*
G02X250614I4596*
G01*
X252673*
Y133387*
G37*
X289111Y121045D02*
G36*
X276769Y133387D01*
X257583*
Y121045*
X289111*
G37*
X365662D02*
G36*
Y124062D01*
X329978*
G75*
G02X328470Y124029I-786J1471*
G01*
X301555*
G75*
G02X300856Y124187I-1J1625*
G01*
X296367*
G75*
G02X295325Y124619I0J1470*
G01*
X286557Y133387*
X280928*
X293270Y121045*
X365662*
G37*
X300084Y133387D02*
G36*
X290717D01*
X296976Y127128*
X300084*
Y133387*
G37*
X375216D02*
G36*
X303025D01*
Y127285*
X329192*
G75*
G02X330108Y127003I0J-1626*
G01*
X373654*
G75*
G02X375216Y127008I786J-1470*
G01*
Y133387*
G37*
Y121045D02*
G36*
Y124057D01*
G75*
G02X373654Y124062I-776J1475*
G01*
X368603*
Y121045*
X375216*
G37*
X405682D02*
G36*
Y122309D01*
G75*
G02X405432Y123387I2210J1080*
G01*
Y133387*
X402369*
Y121045*
X405682*
G37*
X383702D02*
G36*
Y133387D01*
X378157*
Y121045*
X383702*
G37*
X399428Y133387D02*
G36*
X389264D01*
Y121825*
G75*
G02X389461Y121045I-1470J-786*
G01*
X390941*
Y124622*
G75*
G02X390744Y125407I1471J786*
G01*
G75*
G02X394079I1667*
G01*
G75*
G02X393882Y124622I-1668*
G01*
Y121045*
X399428*
Y133387*
G37*
X426506Y121045D02*
G36*
X429829D01*
Y133387*
X427215*
G75*
G02X418762I-4226*
G01*
X410342*
Y125842*
X419548*
G75*
G02X427215Y123387I3441J-2455*
G01*
G75*
G02X426506Y121045I-4226*
G01*
G37*
X252673Y143387D02*
G36*
X249535D01*
G75*
G02X250244Y141045I-3518J-2342*
G01*
G75*
G02X241791I-4226*
G01*
G75*
G02X242499Y143387I4226*
G01*
X236841*
Y133387*
X242499*
G75*
G02X249535I3518J-2342*
G01*
X252673*
Y143387*
G37*
X276769Y133387D02*
G36*
X274682Y135473D01*
G75*
G02X274250Y136515I1038J1041*
G01*
Y136515*
Y143387*
X257583*
Y133387*
X276769*
G37*
X280928D02*
G36*
X286557D01*
X284346Y135598*
G75*
G02X283914Y136639I1038J1041*
G01*
Y136640*
Y143387*
X277191*
Y137124*
X280928Y133387*
G37*
X375216Y143387D02*
G36*
X303025D01*
Y133387*
X375216*
Y143387*
G37*
X300084D02*
G36*
X296036D01*
Y140919*
G75*
G02X296233Y140133I-1471J-786*
G01*
G75*
G02X292898I-1667*
G01*
G75*
G02X293095Y140919I1668*
G01*
Y143387*
X286855*
Y137249*
X290717Y133387*
X300084*
Y143387*
G37*
X405432D02*
G36*
X402369D01*
Y133387*
X405432*
Y143387*
G37*
X383702D02*
G36*
X381027D01*
Y136926*
G75*
G02X381224Y136141I-1470J-786*
G01*
G75*
G02X378157Y135235I-1667*
G01*
Y133387*
X383702*
Y143387*
G37*
X399428D02*
G36*
X389264D01*
Y133387*
X399428*
Y143387*
G37*
X410342D02*
G36*
Y133387D01*
X418762*
G75*
G02X427215I4226*
G01*
X429829*
Y143387*
X427215*
G75*
G02X418762I-4226*
G01*
X410342*
G37*
X242499Y153387D02*
G36*
X236841D01*
Y143387*
X242499*
G75*
G02X249535I3518J-2342*
G01*
X252673*
Y148590*
X249458*
G75*
G02X241791Y151045I-3441J2455*
G01*
G75*
G02X242499Y153387I4226*
G01*
G37*
X274250D02*
G36*
X257583D01*
Y143387*
X274250*
Y153387*
G37*
X283914D02*
G36*
X277191D01*
Y143387*
X283914*
Y153387*
G37*
X375216D02*
G36*
X303025D01*
Y143387*
X375216*
Y153387*
G37*
X293095D02*
G36*
X292667D01*
Y148533*
G75*
G02X292863Y147747I-1471J-786*
G01*
G75*
G02X289529I-1667*
G01*
G75*
G02X289726Y148533I1668*
G01*
Y153387*
X286855*
Y143387*
X293095*
Y153387*
G37*
X300084D02*
G36*
X296036D01*
Y143387*
X300084*
Y153387*
G37*
X405432D02*
G36*
X402369D01*
Y143387*
X405432*
Y153387*
G37*
X383702D02*
G36*
X381027D01*
Y143387*
X383702*
Y153387*
G37*
X399428D02*
G36*
X389264D01*
Y143387*
X399428*
Y153387*
G37*
X410342D02*
G36*
Y143387D01*
X418762*
G75*
G02X427215I4226*
G01*
X429829*
Y153387*
X427585*
G75*
G02X418392I-4596*
G01*
X410342*
G37*
X252673Y176045D02*
G36*
X250614D01*
G75*
G02X241421I-4596*
G01*
X236841*
Y153387*
X242499*
G75*
G02X249458Y153500I3518J-2342*
G01*
X252673*
Y176045*
G37*
X274250D02*
G36*
X257583D01*
Y153387*
X274250*
Y176045*
G37*
X283914D02*
G36*
X277191D01*
Y153387*
X283914*
Y176045*
G37*
X410124D02*
G36*
X301278D01*
Y173744*
X307016*
Y168685*
X301278*
Y167822*
X306646*
Y166797*
X309980*
G75*
G02X312433Y165326I786J-1471*
G01*
G75*
G02X309980Y163856I-1667J0*
G01*
X306646*
Y163504*
X300949*
Y164193*
X299807*
G75*
G02X298337Y165663J1470*
G01*
Y176045*
X296036*
Y153387*
X300084*
Y154075*
G75*
G02X299887Y154861I1471J786*
G01*
G75*
G02X303222I1667*
G01*
G75*
G02X303025Y154075I-1668*
G01*
Y153387*
X375216*
Y157070*
G75*
G02X375019Y157856I1470J786*
G01*
G75*
G02X378086Y158762I1667*
G01*
Y160991*
X374452Y164625*
G75*
G02X374020Y165666I1038J1041*
G01*
Y165667*
Y170549*
G75*
G02X373823Y171335I1471J786*
G01*
G75*
G02X374284Y172485I1667J0*
G01*
X371856*
G75*
G02X369403Y173956I-786J1471*
G01*
G75*
G02X371856Y175426I1667J0*
G01*
X377435*
G75*
G02X378477Y174994I0J-1470*
G01*
X388832Y164639*
G75*
G02X389264Y163598I-1038J-1041*
G01*
Y163597*
Y153387*
X399428*
Y170466*
G75*
G02X399231Y171252I1471J786*
G01*
G75*
G02X402565I1667*
G01*
G75*
G02X402369Y170466I-1668*
G01*
Y153387*
X405432*
Y170337*
Y170337*
G75*
G02X406152Y172073I2454*
G01*
X410124Y176045*
G37*
X289726D02*
G36*
X286855D01*
Y153387*
X289726*
Y176045*
G37*
X293095D02*
G36*
X292667D01*
Y153387*
X293095*
Y176045*
G37*
X383702Y153387D02*
G36*
Y160565D01*
G75*
G02X383506Y161351I1470J786*
G01*
G75*
G02X386323Y162557I1667*
G01*
Y162988*
X376826Y172485*
X376697*
G75*
G02X377158Y171335I-1207J-1151*
G01*
G75*
G02X376961Y170549I-1668*
G01*
Y166276*
X380595Y162642*
G75*
G02X381027Y161601I-1038J-1041*
G01*
Y161600*
Y153387*
X383702*
G37*
X426583Y176045D02*
G36*
G75*
G02X418216Y175495I-4219J259D01*
G01*
X416517*
X410342Y169320*
Y153387*
X418392*
G75*
G02X427585I4596*
G01*
X429829*
Y176045*
X426583*
G37*
X252673Y186045D02*
G36*
X250244D01*
G75*
G02X241791I-4226*
G01*
X236841*
Y176045*
X241421*
G75*
G02X250614I4596*
G01*
X252673*
Y186045*
G37*
X274053D02*
G36*
X257583D01*
Y176045*
X274250*
Y185259*
G75*
G02X274053Y186045I1471J786*
G01*
G37*
X283756D02*
G36*
X277388D01*
G75*
G02X277191Y185259I-1668*
G01*
Y176045*
X283914*
Y182281*
G75*
G02X283717Y183067I1475J786*
G01*
G75*
G02X283756Y183427I1670J1*
G01*
Y186045*
G37*
X426583D02*
G36*
G75*
G02X418464Y184676I-4219J259D01*
G01*
X393035*
G75*
G02X391878Y185159J1628*
G01*
X391000Y186045*
X301278*
Y176045*
X410124*
X413763Y179684*
G75*
G02X415500Y180404I1735J-1731*
G01*
X421341*
G75*
G02X426591Y176304I1023J-4100*
G01*
Y176304*
G75*
G02X426583Y176045I-4227J-1*
G01*
X429829*
Y186045*
X426583*
G37*
X289726D02*
G36*
X287012D01*
Y183427*
G75*
G02X287052Y183066I-1626J-360*
G01*
G75*
G02X286855Y182281I-1665*
G01*
Y176045*
X289726*
Y186045*
G37*
X293095D02*
G36*
X292667D01*
Y176045*
X293095*
Y186045*
G37*
X298337D02*
G36*
X296036D01*
Y176045*
X298337*
Y186045*
G37*
X252673Y191326D02*
G36*
X236841D01*
Y186045*
X241791*
G75*
G02X250244I4226*
G01*
X252673*
Y191326*
G37*
X283756D02*
G36*
X257583D01*
Y186045*
X274053*
G75*
G02X277388I1667*
G01*
X283756*
Y191326*
G37*
X289726D02*
G36*
X287012D01*
Y186045*
X289726*
Y191326*
G37*
X293095D02*
G36*
X292667D01*
Y186045*
X293095*
Y191326*
G37*
X298337D02*
G36*
X296036D01*
Y186045*
X298337*
Y191326*
G37*
X391000Y186045D02*
G36*
X385771Y191326D01*
X301278*
Y186045*
X391000*
G37*
X426583D02*
G36*
X429829D01*
Y191326*
X390353*
X393715Y187931*
X418464*
G75*
G02X426591Y186304I3900J-1628*
G01*
G75*
G02X426583Y186045I-4227J-1*
G01*
G37*
X252673Y195921D02*
G36*
X250242D01*
G75*
G02X241793I-4224J124*
G01*
X236841*
Y191326*
X252673*
Y195921*
G37*
X283756D02*
G36*
X257583D01*
Y191326*
X283756*
Y195921*
G37*
X289726D02*
G36*
X287012D01*
Y191326*
X289726*
Y195921*
G37*
X293095D02*
G36*
X292667D01*
Y191326*
X293095*
Y195921*
G37*
X298337D02*
G36*
X296036D01*
Y191326*
X298337*
Y195921*
G37*
X385771Y191326D02*
G36*
X381222Y195921D01*
X322063*
Y193072*
X317744*
Y195921*
X316882*
Y192702*
X311823*
Y195921*
X301278*
Y191326*
X385771*
G37*
X426573Y195921D02*
G36*
G75*
G02X418155I-4209J383D01*
G01*
X385804*
X390353Y191326*
X429829*
Y195921*
X426573*
G37*
X252673D02*
G36*
Y196776D01*
X247399Y202051*
G75*
G02X241791Y206045I-1381J3994*
G01*
G75*
G02X241799Y206304I4227J1*
G01*
X236841*
Y195921*
X241793*
G75*
G02X241791Y196045I4226J129*
G01*
G75*
G02X250244I4226*
G01*
G75*
G02X250242Y195921I-4228J5*
G01*
X252673*
G37*
X283756D02*
G36*
Y200687D01*
X278173Y206304*
X250236*
G75*
G02X250243Y206150I-4219J-261*
G01*
X256863Y199530*
G75*
G02X257583Y197794I-1731J-1735*
G01*
G75*
G02Y197793I-2942J0*
G01*
Y195921*
X283756*
G37*
X289726Y206304D02*
G36*
X282765D01*
X286537Y202508*
G75*
G02X287012Y201359I-1154J-1150*
G01*
Y195921*
X289726*
Y206304*
G37*
X293095D02*
G36*
X292667D01*
Y195921*
X293095*
Y206304*
G37*
X298337D02*
G36*
X296036D01*
Y195921*
X298337*
Y206304*
G37*
X318434D02*
G36*
X301278D01*
Y195921*
X311823*
Y199139*
X316882*
Y195921*
X317744*
Y198769*
X318434*
Y206304*
G37*
X418155Y195921D02*
G36*
G75*
G02X418146Y196047I4211J379D01*
G01*
X398269*
G75*
G02X397117Y196525I0J1629*
G01*
X387345Y206304*
X332140*
G75*
G02X330222Y206057I-1131J1225*
G01*
X321375*
Y198769*
X322063*
Y195921*
X381222*
X379876Y197281*
X340354*
G75*
G02X338327Y198909I-360J1628*
G01*
G75*
G02X340354Y200537I1668J0*
G01*
X380555*
G75*
G02X381713Y200054J-1628*
G01*
X385804Y195921*
X418155*
G37*
X426573D02*
G36*
X429829D01*
Y206304*
X426961*
G75*
G02X417768I-4596*
G01*
X391948*
X398944Y199303*
X419387*
G75*
G02X426591Y196304I2978J-2999*
G01*
G75*
G02X426573Y195921I-4227J0*
G01*
G37*
X278173Y206304D02*
G36*
X275246Y209249D01*
G75*
G02X274770Y210398I1154J1150*
G01*
Y226459*
G75*
G02X272172Y230359I1628J3900*
G01*
X256989*
G75*
G02X248689Y227330I-8300J9859*
G01*
G75*
G02X240389Y230359I1J12889*
G01*
X236841*
Y206304*
X241799*
G75*
G02X250236I4219J-259*
G01*
X278173*
G37*
X293095D02*
G36*
Y215890D01*
Y215890*
G75*
G02X293528Y216931I1470*
G01*
X299835Y223238*
Y227898*
G75*
G02X292667Y228375I-3436J2461*
G01*
Y206304*
X293095*
G37*
X281802Y230359D02*
G36*
X280625D01*
G75*
G02X278026Y226459I-4226*
G01*
Y211070*
X282765Y206304*
X289726*
Y227188*
G75*
G02X281802Y230359I-3327J3171*
G01*
G37*
X342172D02*
G36*
X340625D01*
G75*
G02X332172I-4226*
G01*
X330625*
G75*
G02X322172I-4226*
G01*
X320625*
G75*
G02X312172I-4226*
G01*
X310625*
G75*
G02X302776Y228183I-4226J0*
G01*
Y222629*
Y222629*
G75*
G02X302343Y221587I-1470*
G01*
X296036Y215281*
Y206304*
X298337*
Y212645*
G75*
G02X299807Y214115I1470*
G01*
X331772*
X344330Y226673*
G75*
G02X342172Y230359I2069J3686*
G01*
G37*
X409680D02*
G36*
X370625D01*
G75*
G02X362172I-4226*
G01*
X360625*
G75*
G02X352172I-4226*
G01*
X350625*
Y230359*
G75*
G02X347843Y226387I-4226*
G01*
G75*
G02X347437Y225620I-1445J275*
G01*
X333423Y211607*
G75*
G02X332381Y211174I-1041J1038*
G01*
X301278*
Y206304*
X318434*
Y207528*
G75*
G02X319905Y208998I1470*
G01*
X330222*
G75*
G02X332676Y207528I786J-1471*
G01*
G75*
G02X332140Y206304I-1667J0*
G01*
X387345*
X386370Y207279*
X335676*
G75*
G02X333655Y208909I-353J1630*
G01*
G75*
G02X335690Y210535I1667*
G01*
X387045*
G75*
G02X388198Y210057I0J-1629*
G01*
X391948Y206304*
X417768*
G75*
G02X426961I4596*
G01*
X429829*
Y230359*
X426281*
G75*
G02X409680I-8300J9859*
G01*
G37*
X240389D02*
G36*
G75*
G02X236841Y235148I8300J9860D01*
G01*
Y230359*
X240389*
G37*
X272172D02*
G36*
G75*
G02X274928Y234321I4226D01*
G01*
Y236397*
G75*
G02X272172Y240359I1470J3962*
G01*
Y240359*
X261576*
G75*
G02X261577Y240218I-12900J-143*
G01*
G75*
G02X256989Y230359I-12888J0*
G01*
X272172*
G37*
X292172Y240359D02*
G36*
X290625D01*
Y240359*
G75*
G02X290293Y238717I-4224*
G01*
X292234Y236775*
G75*
G02X292667Y235734I-1038J-1041*
G01*
Y235733*
Y232343*
G75*
G02X299835Y232820I3732J-1984*
G01*
Y235624*
X298666Y236793*
G75*
G02X292172Y240359I-2267J3567*
G01*
G37*
X281802Y230359D02*
G36*
G75*
G02X289726Y233530I4596D01*
G01*
Y235124*
X288277Y236573*
G75*
G02X282172Y240359I-1878J3786*
G01*
X280625*
G75*
G02X277869Y236397I-4227J0*
G01*
Y234321*
G75*
G02X280625Y230359I-1470J-3962*
G01*
X281802*
G37*
X405094Y240359D02*
G36*
X370995D01*
G75*
G02X361802I-4596*
G01*
X360995*
G75*
G02X351802I-4596*
G01*
X350625*
G75*
G02X342172I-4226*
G01*
X340995*
G75*
G02X331802I-4596*
G01*
X330995*
G75*
G02X321802I-4596*
G01*
X320995*
G75*
G02X311802I-4596*
G01*
X310995*
G75*
G02X301802I-4596*
G01*
X300625*
G75*
G02X300453Y239165I-4238J1*
G01*
X302343Y237274*
G75*
G02X302776Y236233I-1038J-1041*
G01*
Y236233*
Y232535*
G75*
G02X310625Y230359I3623J-2177*
G01*
X312172*
G75*
G02X320625I4226*
G01*
X322172*
G75*
G02X330625I4226*
G01*
X332172*
G75*
G02X340625I4226*
G01*
X342172*
G75*
G02X350625I4226*
G01*
X352172*
G75*
G02X360625I4226*
G01*
X362172*
G75*
G02X370625I4226*
G01*
X409680*
G75*
G02X405093Y240218I8300J9859*
G01*
G75*
G02X405094Y240359I12900J-2*
G01*
G37*
X429829Y235148D02*
G36*
G75*
G02X426281Y230359I-11848J5070D01*
G01*
X429829*
Y235148*
G37*
X413108Y252149D02*
G36*
X253562D01*
G75*
G02X261576Y240359I-4873J-11931*
G01*
X272172*
G75*
G02X280625I4226*
G01*
X282172*
G75*
G02X290625I4226*
G01*
X292172*
G75*
G02X300625I4226*
G01*
X301802*
G75*
G02X310995I4596*
G01*
X311802*
G75*
G02X320995I4596*
G01*
X321802*
G75*
G02X330995I4596*
G01*
X331802*
G75*
G02X340995I4596*
G01*
X342172*
G75*
G02X350625I4226*
G01*
X351802*
G75*
G02X360995I4596*
G01*
X361802*
G75*
G02X370995I4596*
G01*
X405094*
G75*
G02X413108Y252149I12887J-141*
G01*
G37*
D02*
D71*
X45946Y66045D02*
X43946D01*
X46320Y121045D02*
X44320D01*
X46320Y176045D02*
X44320D01*
X48793Y63198D02*
Y61198D01*
Y68891D02*
Y70891D01*
X49167Y118198D02*
Y116198D01*
Y123891D02*
Y125891D01*
Y173198D02*
Y171198D01*
Y178891D02*
Y180891D01*
X51639Y66045D02*
X53639D01*
X52013Y121045D02*
X54013D01*
X52013Y176045D02*
X54013D01*
X86702Y230359D02*
X84702D01*
X89548Y227513D02*
Y225513D01*
Y233206D02*
Y235206D01*
X106702Y240359D02*
X104702D01*
X106834Y36033D02*
X105420Y34619D01*
X106834Y40058D02*
X105420Y41472D01*
X106947Y170435D02*
Y168435D01*
Y171994D02*
Y173994D01*
X108416Y171214D02*
X110416D01*
X109548Y237513D02*
Y235513D01*
Y243206D02*
Y245206D01*
X110859Y36033D02*
X112273Y34619D01*
X110859Y40058D02*
X112273Y41472D01*
X112394Y240359D02*
X114394D01*
X116702D02*
X114702D01*
X116724Y195921D02*
X114725D01*
X117503Y194453D02*
Y192454D01*
Y197390D02*
Y199391D01*
X118283Y195921D02*
X120284D01*
X119548Y237513D02*
Y235513D01*
Y243206D02*
Y245206D01*
X122394Y240359D02*
X124394D01*
X124139Y73489D02*
X122138D01*
X124513Y96453D02*
X122512D01*
X124919Y72021D02*
Y70021D01*
Y74958D02*
Y76958D01*
X125293Y94985D02*
Y92986D01*
Y97922D02*
Y99923D01*
X126072Y96453D02*
X128071D01*
X126702Y240359D02*
X124702D01*
X129548Y237513D02*
Y235513D01*
Y243206D02*
Y245206D01*
X132394Y240359D02*
X134394D01*
X136702D02*
X134702D01*
X137546Y84597D02*
X135546D01*
X139113Y83817D02*
Y81817D01*
Y85376D02*
Y87376D01*
X139548Y237513D02*
Y235513D01*
Y243206D02*
Y245206D01*
X140680Y84597D02*
X142680D01*
X142394Y240359D02*
X144394D01*
X151582Y41861D02*
X149582D01*
X151582Y51861D02*
X149582D01*
X154429Y39014D02*
Y37014D01*
Y44707D02*
Y46707D01*
Y49014D02*
Y47014D01*
Y54707D02*
Y56707D01*
X156702Y240359D02*
X154702D01*
X157275Y41861D02*
X159275D01*
X157275Y51861D02*
X159275D01*
X159548Y237513D02*
Y235513D01*
Y243206D02*
Y245206D01*
X162394Y240359D02*
X164394D01*
X166702D02*
X164702D01*
X169548Y237513D02*
Y235513D01*
Y243206D02*
Y245206D01*
X172394Y240359D02*
X174394D01*
X222667Y206304D02*
X220667D01*
X223291Y153387D02*
X221291D01*
X223541Y99098D02*
X221541D01*
X225514Y203457D02*
Y201457D01*
Y209150D02*
Y211150D01*
X226138Y150541D02*
Y148541D01*
Y156233D02*
Y158233D01*
X226387Y96251D02*
Y94251D01*
Y101944D02*
Y103944D01*
X228360Y206304D02*
X230360D01*
X228984Y153387D02*
X230984D01*
X229234Y99098D02*
X231234D01*
X242796Y66045D02*
X240796D01*
X243171Y121045D02*
X241171D01*
X243171Y176045D02*
X241171D01*
X245643Y63198D02*
Y61198D01*
Y68891D02*
Y70891D01*
X246017Y118198D02*
Y116198D01*
Y123891D02*
Y125891D01*
Y173198D02*
Y171198D01*
Y178891D02*
Y180891D01*
X248489Y66045D02*
X250489D01*
X248864Y121045D02*
X250864D01*
X248864Y176045D02*
X250864D01*
X283552Y230359D02*
X281552D01*
X286398Y227513D02*
Y225513D01*
Y233206D02*
Y235206D01*
X303552Y240359D02*
X301552D01*
X303684Y36033D02*
X302270Y34619D01*
X303684Y40058D02*
X302270Y41472D01*
X303798Y170435D02*
Y168435D01*
Y171994D02*
Y173994D01*
X305266Y171214D02*
X307266D01*
X306398Y237513D02*
Y235513D01*
Y243206D02*
Y245206D01*
X307709Y36033D02*
X309124Y34619D01*
X307709Y40058D02*
X309124Y41472D01*
X309245Y240359D02*
X311245D01*
X313552D02*
X311552D01*
X313574Y195921D02*
X311575D01*
X314354Y194453D02*
Y192454D01*
Y197390D02*
Y199391D01*
X315133Y195921D02*
X317134D01*
X316398Y237513D02*
Y235513D01*
Y243206D02*
Y245206D01*
X319245Y240359D02*
X321245D01*
X320989Y73489D02*
X318989D01*
X321364Y96453D02*
X319363D01*
X321769Y72021D02*
Y70021D01*
Y74958D02*
Y76958D01*
X322143Y94985D02*
Y92986D01*
Y97922D02*
Y99923D01*
X322923Y96453D02*
X324922D01*
X323552Y240359D02*
X321552D01*
X326398Y237513D02*
Y235513D01*
Y243206D02*
Y245206D01*
X329245Y240359D02*
X331245D01*
X333552D02*
X331552D01*
X334396Y84597D02*
X332396D01*
X335963Y83817D02*
Y81817D01*
Y85376D02*
Y87376D01*
X336398Y237513D02*
Y235513D01*
Y243206D02*
Y245206D01*
X337530Y84597D02*
X339530D01*
X339245Y240359D02*
X341245D01*
X348433Y41861D02*
X346433D01*
X348433Y51861D02*
X346433D01*
X351279Y39014D02*
Y37014D01*
Y44707D02*
Y46707D01*
Y49014D02*
Y47014D01*
Y54707D02*
Y56707D01*
X353552Y240359D02*
X351552D01*
X354126Y41861D02*
X356126D01*
X354126Y51861D02*
X356126D01*
X356398Y237513D02*
Y235513D01*
Y243206D02*
Y245206D01*
X359245Y240359D02*
X361245D01*
X363552D02*
X361552D01*
X366398Y237513D02*
Y235513D01*
Y243206D02*
Y245206D01*
X369245Y240359D02*
X371245D01*
X419518Y206304D02*
X417518D01*
X420142Y153387D02*
X418142D01*
X420391Y99098D02*
X418391D01*
X422364Y203457D02*
Y201457D01*
Y209150D02*
Y211150D01*
X422988Y150541D02*
Y148541D01*
Y156233D02*
Y158233D01*
X423238Y96251D02*
Y94251D01*
Y101944D02*
Y103944D01*
X425211Y206304D02*
X427211D01*
X425835Y153387D02*
X427835D01*
X426084Y99098D02*
X428084D01*
D02*
D22*
X78870Y186045D03*
X88534Y183067D03*
X94346Y147747D03*
X97715Y140133D03*
X104704Y154861D03*
X113916Y165326D03*
X132342Y125532D03*
X134158Y207528D03*
X138472Y208909D03*
X143144Y198909D03*
X152252Y116921D03*
X174220Y173956D03*
X177589Y125532D03*
X178640Y171335D03*
X179836Y157856D03*
X180460Y85720D03*
X182706Y136141D03*
X188322Y161351D03*
X188572Y86219D03*
X190943Y121039D03*
X195561Y125407D03*
X196310Y85720D03*
X204048Y171252D03*
X204796Y85523D03*
X275720Y186045D03*
X285384Y183067D03*
X291196Y147747D03*
X294566Y140133D03*
X301555Y154861D03*
X310766Y165326D03*
X329192Y125532D03*
X331008Y207528D03*
X335322Y208909D03*
X339994Y198909D03*
X349102Y116921D03*
X371070Y173956D03*
X374440Y125532D03*
X375491Y171335D03*
X376686Y157856D03*
X377310Y85720D03*
X379557Y136141D03*
X385173Y161351D03*
X385422Y86219D03*
X387794Y121039D03*
X392411Y125407D03*
X393160Y85720D03*
X400898Y171252D03*
X401647Y85523D03*
D02*
D23*
X51839Y40218D03*
Y240218D03*
X221130Y40218D03*
Y240218D03*
X248689Y40218D03*
Y240218D03*
X417981Y40218D03*
Y240218D03*
D02*
D25*
X117503Y195921D03*
X123054D03*
X124919Y73489D03*
X125293Y96453D03*
X130470Y73489D03*
X130844Y96453D03*
X314354Y195921D03*
X319905D03*
X321769Y73489D03*
X322143Y96453D03*
X327320Y73489D03*
X327694Y96453D03*
D02*
D26*
X106947Y165663D03*
Y171214D03*
X180709Y91083D03*
Y96634D03*
X188322Y90833D03*
Y96384D03*
X195561Y90708D03*
Y96259D03*
X204048Y90708D03*
Y96259D03*
X303798Y165663D03*
Y171214D03*
X377560Y91083D03*
Y96634D03*
X385173Y90833D03*
Y96384D03*
X392411Y90708D03*
Y96259D03*
X400898Y90708D03*
Y96259D03*
D02*
D74*
X48793Y66045D03*
Y76045D03*
Y86045D03*
Y96045D03*
X49167Y121045D03*
Y131045D03*
Y141045D03*
Y151045D03*
Y176045D03*
Y186045D03*
Y196045D03*
Y206045D03*
X78846Y38045D03*
X79548Y230359D03*
Y240359D03*
X88846Y38045D03*
X89548Y230359D03*
Y240359D03*
X98846Y38045D03*
X99548Y230359D03*
Y240359D03*
X108846Y38045D03*
X109548Y230359D03*
Y240359D03*
X119548Y230359D03*
Y240359D03*
X129548Y230359D03*
Y240359D03*
X139548Y230359D03*
Y240359D03*
X144429Y41861D03*
Y51861D03*
X149548Y230359D03*
Y240359D03*
X154429Y41861D03*
Y51861D03*
X159548Y230359D03*
Y240359D03*
X164429Y41861D03*
Y51861D03*
X169548Y230359D03*
Y240359D03*
X174429Y41861D03*
Y51861D03*
X184429Y41861D03*
Y51861D03*
X225514Y176304D03*
Y186304D03*
Y196304D03*
Y206304D03*
X226138Y123387D03*
Y133387D03*
Y143387D03*
Y153387D03*
X226387Y69098D03*
Y79098D03*
Y89098D03*
Y99098D03*
X245643Y66045D03*
Y76045D03*
Y86045D03*
Y96045D03*
X246017Y121045D03*
Y131045D03*
Y141045D03*
Y151045D03*
Y176045D03*
Y186045D03*
Y196045D03*
Y206045D03*
X275697Y38045D03*
X276398Y230359D03*
Y240359D03*
X285697Y38045D03*
X286398Y230359D03*
Y240359D03*
X295697Y38045D03*
X296398Y230359D03*
Y240359D03*
X305697Y38045D03*
X306398Y230359D03*
Y240359D03*
X316398Y230359D03*
Y240359D03*
X326398Y230359D03*
Y240359D03*
X336398Y230359D03*
Y240359D03*
X341279Y41861D03*
Y51861D03*
X346398Y230359D03*
Y240359D03*
X351279Y41861D03*
Y51861D03*
X356398Y230359D03*
Y240359D03*
X361279Y41861D03*
Y51861D03*
X366398Y230359D03*
Y240359D03*
X371279Y41861D03*
Y51861D03*
X381279Y41861D03*
Y51861D03*
X422364Y176304D03*
Y186304D03*
Y196304D03*
Y206304D03*
X422988Y123387D03*
Y133387D03*
Y143387D03*
Y153387D03*
X423238Y69098D03*
Y79098D03*
Y89098D03*
Y99098D03*
D02*
D77*
X72755Y167591D03*
X76624Y131523D03*
X110445Y188683D03*
X124423Y189931D03*
X130289Y84472D03*
X130663Y150493D03*
Y156359D03*
Y162100D03*
Y167965D03*
Y174580D03*
X133783Y84472D03*
X134407Y80229D03*
X134657Y88591D03*
X136904Y150493D03*
Y156359D03*
Y162100D03*
Y167965D03*
Y174580D03*
X137528Y80104D03*
X137902Y88715D03*
X140523Y80229D03*
X140897Y88715D03*
X142644Y150493D03*
Y156359D03*
Y162100D03*
Y167965D03*
Y174580D03*
X148635Y74613D03*
Y78981D03*
X148760Y150493D03*
Y156359D03*
Y162100D03*
Y167965D03*
Y174580D03*
X152379Y74613D03*
X152504Y78981D03*
X154626Y150493D03*
Y156359D03*
Y162100D03*
Y167965D03*
Y174580D03*
X155998Y74488D03*
Y78981D03*
X159618D03*
X159743Y74488D03*
X199555Y53895D03*
X203424Y222255D03*
X219024Y131772D03*
X269605Y167591D03*
X273474Y131523D03*
X307296Y188683D03*
X321274Y189931D03*
X327139Y84472D03*
X327514Y150493D03*
Y156359D03*
Y162100D03*
Y167965D03*
Y174580D03*
X330634Y84472D03*
X331258Y80229D03*
X331507Y88591D03*
X333754Y150493D03*
Y156359D03*
Y162100D03*
Y167965D03*
Y174580D03*
X334378Y80104D03*
X334752Y88715D03*
X337373Y80229D03*
X337748Y88715D03*
X339495Y150493D03*
Y156359D03*
Y162100D03*
Y167965D03*
Y174580D03*
X345485Y74613D03*
Y78981D03*
X345610Y150493D03*
Y156359D03*
Y162100D03*
Y167965D03*
Y174580D03*
X349230Y74613D03*
X349354Y78981D03*
X351476Y150493D03*
Y156359D03*
Y162100D03*
Y167965D03*
Y174580D03*
X352849Y74488D03*
Y78981D03*
X356468D03*
X356593Y74488D03*
X396405Y53895D03*
X400274Y222255D03*
X415874Y131772D03*
D02*
D121*
X78870Y186045D02*
Y136515D01*
X98464Y116921*
X152252*
X79548Y230359D02*
Y210523D01*
X79423Y210398*
X79494*
X88534Y201359*
Y183067*
X79548Y240359D02*
Y230359D01*
X88534Y183067D02*
Y136640D01*
X99517Y125657*
X104704*
X89548Y240359D02*
X89720D01*
X94346Y235733*
Y147747*
X99548Y240359D02*
X100328D01*
X104455Y236233*
Y222629*
X97715Y215890*
Y140133*
X104704Y125657D02*
Y125532D01*
X132342*
X104704Y154861D02*
Y125657D01*
X106947Y165663D02*
Y165326D01*
X113916*
X130844Y96453D02*
Y88376D01*
X130451*
X130844Y96453D02*
X133091D01*
X149689Y113052*
X170282*
Y125532*
X134158Y207528D02*
X123054D01*
Y195921*
X138472Y208909D02*
X190194D01*
Y208901*
X201419Y197676*
X225514*
Y196304*
X143144Y198909D02*
X183705D01*
Y198784*
X196185Y186304*
X225514*
X149548Y230359D02*
Y226662D01*
X135531Y212645*
X102957*
Y165663*
X106947*
X170282Y125532D02*
X132342D01*
X174220Y173956D02*
X180585D01*
X190943Y163597*
Y121039*
X177589Y125532D02*
X170282D01*
X178640Y171335D02*
Y165667D01*
X182706Y161600*
Y136141*
X180460Y85720D02*
Y90833D01*
X180709*
Y91083*
Y96634D02*
Y96384D01*
X179836*
Y157856*
X188322Y96384D02*
Y161351D01*
X188572Y86219D02*
Y88466D01*
X188322*
Y90833*
X195561Y90708D02*
X196310D01*
Y85720*
X195561Y125407D02*
Y96259D01*
X204048Y90708D02*
X204796D01*
Y85523*
X204048Y171252D02*
Y96259D01*
X275720Y186045D02*
Y136515D01*
X295315Y116921*
X349102*
X276398Y230359D02*
Y210523D01*
X276274Y210398*
X276344*
X285384Y201359*
Y183067*
X276398Y240359D02*
Y230359D01*
X285384Y183067D02*
Y136640D01*
X296367Y125657*
X301555*
X286398Y240359D02*
X286570D01*
X291196Y235733*
Y147747*
X296398Y240359D02*
X297179D01*
X301305Y236233*
Y222629*
X294566Y215890*
Y140133*
X301555Y125657D02*
Y125532D01*
X329192*
X301555Y154861D02*
Y125657D01*
X303798Y165663D02*
Y165326D01*
X310766*
X327694Y96453D02*
Y88376D01*
X327302*
X327694Y96453D02*
X329941D01*
X346540Y113052*
X367132*
Y125532*
X331008Y207528D02*
X319905D01*
Y195921*
X335322Y208909D02*
X387045D01*
Y208901*
X398269Y197676*
X422364*
Y196304*
X339994Y198909D02*
X380555D01*
Y198784*
X393035Y186304*
X422364*
X346398Y230359D02*
Y226662D01*
X332381Y212645*
X299807*
Y165663*
X303798*
X367132Y125532D02*
X329192D01*
X371070Y173956D02*
X377435D01*
X387794Y163597*
Y121039*
X374440Y125532D02*
X367132D01*
X375491Y171335D02*
Y165667D01*
X379557Y161600*
Y136141*
X377310Y85720D02*
Y90833D01*
X377560*
Y91083*
Y96634D02*
Y96384D01*
X376686*
Y157856*
X385173Y96384D02*
Y161351D01*
X385422Y86219D02*
Y88466D01*
X385173*
Y90833*
X392411Y90708D02*
X393160D01*
Y85720*
X392411Y125407D02*
Y96259D01*
X400898Y90708D02*
X401647D01*
Y85523*
X400898Y171252D02*
Y96259D01*
D02*
D122*
X163112Y102194D03*
X359963D03*
D02*
D123*
X48793Y96045D02*
X58278D01*
Y151045*
X49167Y206045D02*
X50026D01*
X58278Y197793*
Y151045*
X49167*
X78846Y38045D02*
Y41938D01*
X58402Y62382*
Y96045*
X48793*
X130470Y73489D02*
X130451D01*
Y80817*
X130470Y73489D02*
Y73368D01*
X143452Y60385*
X144392*
Y57265*
X144429*
Y51861*
Y41861D02*
Y41789D01*
X133571Y30931*
X83987*
X78846Y36072*
Y38045*
X144429Y41861D02*
Y51861D01*
Y60218*
X154521*
X170850Y76547*
Y77147*
X163112Y102194D02*
X170850D01*
Y77147*
Y76461*
X211286*
Y123387*
X226138*
X211037*
Y170337*
X218650Y177950*
X225514*
Y176304*
X226387Y69098D02*
X218650D01*
X211286Y76461*
X245643Y96045D02*
X255128D01*
Y151045*
X246017Y206045D02*
X246876D01*
X255128Y197793*
Y151045*
X246017*
X275697Y38045D02*
Y41938D01*
X255253Y62382*
Y96045*
X245643*
X327320Y73489D02*
X327302D01*
Y80817*
X327320Y73489D02*
Y73368D01*
X340303Y60385*
X341242*
Y57265*
X341279*
Y51861*
Y41861D02*
Y41789D01*
X330421Y30931*
X280837*
X275697Y36072*
Y38045*
X341279Y41861D02*
Y51861D01*
Y60218*
X351372*
X367700Y76547*
Y77147*
X359963Y102194D02*
X367700D01*
Y77147*
Y76461*
X408137*
Y123387*
X422988*
X407887*
Y170337*
X415500Y177950*
X422364*
Y176304*
X423238Y69098D02*
X415500D01*
X408137Y76461*
D02*
D127*
X130451Y80817D03*
Y88376D03*
X139113Y84597D03*
X327302Y80817D03*
Y88376D03*
X335963Y84597D03*
X0Y0D02*
M02*
